G75*
%MOIN*%
%OFA0B0*%
%FSLAX25Y25*%
%IPPOS*%
%LPD*%
%AMOC8*
5,1,8,0,0,1.08239X$1,22.5*
%
%ADD10C,0.00000*%
%ADD11C,0.00100*%
%ADD12R,0.04000X0.07800*%
D10*
X0010874Y0003250D02*
X0191976Y0003250D01*
X0192166Y0003252D01*
X0192356Y0003259D01*
X0192546Y0003271D01*
X0192736Y0003287D01*
X0192925Y0003307D01*
X0193114Y0003333D01*
X0193302Y0003362D01*
X0193489Y0003397D01*
X0193675Y0003436D01*
X0193860Y0003479D01*
X0194045Y0003527D01*
X0194228Y0003579D01*
X0194409Y0003635D01*
X0194589Y0003696D01*
X0194768Y0003762D01*
X0194945Y0003831D01*
X0195121Y0003905D01*
X0195294Y0003983D01*
X0195466Y0004066D01*
X0195635Y0004152D01*
X0195803Y0004242D01*
X0195968Y0004337D01*
X0196131Y0004435D01*
X0196291Y0004538D01*
X0196449Y0004644D01*
X0196604Y0004754D01*
X0196757Y0004867D01*
X0196907Y0004985D01*
X0197053Y0005106D01*
X0197197Y0005230D01*
X0197338Y0005358D01*
X0197476Y0005489D01*
X0197611Y0005624D01*
X0197742Y0005762D01*
X0197870Y0005903D01*
X0197994Y0006047D01*
X0198115Y0006193D01*
X0198233Y0006343D01*
X0198346Y0006496D01*
X0198456Y0006651D01*
X0198562Y0006809D01*
X0198665Y0006969D01*
X0198763Y0007132D01*
X0198858Y0007297D01*
X0198948Y0007465D01*
X0199034Y0007634D01*
X0199117Y0007806D01*
X0199195Y0007979D01*
X0199269Y0008155D01*
X0199338Y0008332D01*
X0199404Y0008511D01*
X0199465Y0008691D01*
X0199521Y0008872D01*
X0199573Y0009055D01*
X0199621Y0009240D01*
X0199664Y0009425D01*
X0199703Y0009611D01*
X0199738Y0009798D01*
X0199767Y0009986D01*
X0199793Y0010175D01*
X0199813Y0010364D01*
X0199829Y0010554D01*
X0199841Y0010744D01*
X0199848Y0010934D01*
X0199850Y0011124D01*
X0199850Y0133171D01*
X0199848Y0133361D01*
X0199841Y0133551D01*
X0199829Y0133741D01*
X0199813Y0133931D01*
X0199793Y0134120D01*
X0199767Y0134309D01*
X0199738Y0134497D01*
X0199703Y0134684D01*
X0199664Y0134870D01*
X0199621Y0135055D01*
X0199573Y0135240D01*
X0199521Y0135423D01*
X0199465Y0135604D01*
X0199404Y0135784D01*
X0199338Y0135963D01*
X0199269Y0136140D01*
X0199195Y0136316D01*
X0199117Y0136489D01*
X0199034Y0136661D01*
X0198948Y0136830D01*
X0198858Y0136998D01*
X0198763Y0137163D01*
X0198665Y0137326D01*
X0198562Y0137486D01*
X0198456Y0137644D01*
X0198346Y0137799D01*
X0198233Y0137952D01*
X0198115Y0138102D01*
X0197994Y0138248D01*
X0197870Y0138392D01*
X0197742Y0138533D01*
X0197611Y0138671D01*
X0197476Y0138806D01*
X0197338Y0138937D01*
X0197197Y0139065D01*
X0197053Y0139189D01*
X0196907Y0139310D01*
X0196757Y0139428D01*
X0196604Y0139541D01*
X0196449Y0139651D01*
X0196291Y0139757D01*
X0196131Y0139860D01*
X0195968Y0139958D01*
X0195803Y0140053D01*
X0195635Y0140143D01*
X0195466Y0140229D01*
X0195294Y0140312D01*
X0195121Y0140390D01*
X0194945Y0140464D01*
X0194768Y0140533D01*
X0194589Y0140599D01*
X0194409Y0140660D01*
X0194228Y0140716D01*
X0194045Y0140768D01*
X0193860Y0140816D01*
X0193675Y0140859D01*
X0193489Y0140898D01*
X0193302Y0140933D01*
X0193114Y0140962D01*
X0192925Y0140988D01*
X0192736Y0141008D01*
X0192546Y0141024D01*
X0192356Y0141036D01*
X0192166Y0141043D01*
X0191976Y0141045D01*
X0010874Y0141045D01*
X0010684Y0141043D01*
X0010494Y0141036D01*
X0010304Y0141024D01*
X0010114Y0141008D01*
X0009925Y0140988D01*
X0009736Y0140962D01*
X0009548Y0140933D01*
X0009361Y0140898D01*
X0009175Y0140859D01*
X0008990Y0140816D01*
X0008805Y0140768D01*
X0008622Y0140716D01*
X0008441Y0140660D01*
X0008261Y0140599D01*
X0008082Y0140533D01*
X0007905Y0140464D01*
X0007729Y0140390D01*
X0007556Y0140312D01*
X0007384Y0140229D01*
X0007215Y0140143D01*
X0007047Y0140053D01*
X0006882Y0139958D01*
X0006719Y0139860D01*
X0006559Y0139757D01*
X0006401Y0139651D01*
X0006246Y0139541D01*
X0006093Y0139428D01*
X0005943Y0139310D01*
X0005797Y0139189D01*
X0005653Y0139065D01*
X0005512Y0138937D01*
X0005374Y0138806D01*
X0005239Y0138671D01*
X0005108Y0138533D01*
X0004980Y0138392D01*
X0004856Y0138248D01*
X0004735Y0138102D01*
X0004617Y0137952D01*
X0004504Y0137799D01*
X0004394Y0137644D01*
X0004288Y0137486D01*
X0004185Y0137326D01*
X0004087Y0137163D01*
X0003992Y0136998D01*
X0003902Y0136830D01*
X0003816Y0136661D01*
X0003733Y0136489D01*
X0003655Y0136316D01*
X0003581Y0136140D01*
X0003512Y0135963D01*
X0003446Y0135784D01*
X0003385Y0135604D01*
X0003329Y0135423D01*
X0003277Y0135240D01*
X0003229Y0135055D01*
X0003186Y0134870D01*
X0003147Y0134684D01*
X0003112Y0134497D01*
X0003083Y0134309D01*
X0003057Y0134120D01*
X0003037Y0133931D01*
X0003021Y0133741D01*
X0003009Y0133551D01*
X0003002Y0133361D01*
X0003000Y0133171D01*
X0003000Y0011124D01*
X0003002Y0010934D01*
X0003009Y0010744D01*
X0003021Y0010554D01*
X0003037Y0010364D01*
X0003057Y0010175D01*
X0003083Y0009986D01*
X0003112Y0009798D01*
X0003147Y0009611D01*
X0003186Y0009425D01*
X0003229Y0009240D01*
X0003277Y0009055D01*
X0003329Y0008872D01*
X0003385Y0008691D01*
X0003446Y0008511D01*
X0003512Y0008332D01*
X0003581Y0008155D01*
X0003655Y0007979D01*
X0003733Y0007806D01*
X0003816Y0007634D01*
X0003902Y0007465D01*
X0003992Y0007297D01*
X0004087Y0007132D01*
X0004185Y0006969D01*
X0004288Y0006809D01*
X0004394Y0006651D01*
X0004504Y0006496D01*
X0004617Y0006343D01*
X0004735Y0006193D01*
X0004856Y0006047D01*
X0004980Y0005903D01*
X0005108Y0005762D01*
X0005239Y0005624D01*
X0005374Y0005489D01*
X0005512Y0005358D01*
X0005653Y0005230D01*
X0005797Y0005106D01*
X0005943Y0004985D01*
X0006093Y0004867D01*
X0006246Y0004754D01*
X0006401Y0004644D01*
X0006559Y0004538D01*
X0006719Y0004435D01*
X0006882Y0004337D01*
X0007047Y0004242D01*
X0007215Y0004152D01*
X0007384Y0004066D01*
X0007556Y0003983D01*
X0007729Y0003905D01*
X0007905Y0003831D01*
X0008082Y0003762D01*
X0008261Y0003696D01*
X0008441Y0003635D01*
X0008622Y0003579D01*
X0008805Y0003527D01*
X0008990Y0003479D01*
X0009175Y0003436D01*
X0009361Y0003397D01*
X0009548Y0003362D01*
X0009736Y0003333D01*
X0009925Y0003307D01*
X0010114Y0003287D01*
X0010304Y0003271D01*
X0010494Y0003259D01*
X0010684Y0003252D01*
X0010874Y0003250D01*
D11*
X0187476Y0011124D02*
X0187478Y0011258D01*
X0187484Y0011392D01*
X0187494Y0011525D01*
X0187508Y0011659D01*
X0187526Y0011792D01*
X0187548Y0011924D01*
X0187573Y0012055D01*
X0187603Y0012186D01*
X0187637Y0012316D01*
X0187674Y0012444D01*
X0187715Y0012572D01*
X0187760Y0012698D01*
X0187809Y0012823D01*
X0187861Y0012946D01*
X0187917Y0013068D01*
X0187977Y0013188D01*
X0188040Y0013306D01*
X0188107Y0013422D01*
X0188177Y0013536D01*
X0188251Y0013648D01*
X0188328Y0013758D01*
X0188408Y0013866D01*
X0188491Y0013971D01*
X0188577Y0014073D01*
X0188666Y0014173D01*
X0188759Y0014270D01*
X0188854Y0014365D01*
X0188952Y0014456D01*
X0189052Y0014545D01*
X0189155Y0014630D01*
X0189261Y0014713D01*
X0189369Y0014792D01*
X0189479Y0014868D01*
X0189592Y0014941D01*
X0189707Y0015010D01*
X0189823Y0015076D01*
X0189942Y0015138D01*
X0190062Y0015197D01*
X0190185Y0015252D01*
X0190308Y0015304D01*
X0190433Y0015351D01*
X0190560Y0015395D01*
X0190688Y0015436D01*
X0190817Y0015472D01*
X0190947Y0015505D01*
X0191078Y0015533D01*
X0191209Y0015558D01*
X0191342Y0015579D01*
X0191475Y0015596D01*
X0191608Y0015609D01*
X0191742Y0015618D01*
X0191876Y0015623D01*
X0192010Y0015624D01*
X0192143Y0015621D01*
X0192277Y0015614D01*
X0192411Y0015603D01*
X0192544Y0015588D01*
X0192677Y0015569D01*
X0192809Y0015546D01*
X0192940Y0015520D01*
X0193070Y0015489D01*
X0193200Y0015454D01*
X0193328Y0015416D01*
X0193455Y0015374D01*
X0193581Y0015328D01*
X0193706Y0015278D01*
X0193829Y0015225D01*
X0193950Y0015168D01*
X0194070Y0015107D01*
X0194187Y0015043D01*
X0194303Y0014976D01*
X0194417Y0014905D01*
X0194528Y0014830D01*
X0194637Y0014753D01*
X0194744Y0014672D01*
X0194849Y0014588D01*
X0194950Y0014501D01*
X0195050Y0014411D01*
X0195146Y0014318D01*
X0195240Y0014222D01*
X0195331Y0014123D01*
X0195418Y0014022D01*
X0195503Y0013918D01*
X0195585Y0013812D01*
X0195663Y0013704D01*
X0195738Y0013593D01*
X0195810Y0013480D01*
X0195879Y0013364D01*
X0195944Y0013247D01*
X0196005Y0013128D01*
X0196063Y0013007D01*
X0196117Y0012885D01*
X0196168Y0012761D01*
X0196215Y0012635D01*
X0196258Y0012508D01*
X0196297Y0012380D01*
X0196333Y0012251D01*
X0196364Y0012121D01*
X0196392Y0011990D01*
X0196416Y0011858D01*
X0196436Y0011725D01*
X0196452Y0011592D01*
X0196464Y0011459D01*
X0196472Y0011325D01*
X0196476Y0011191D01*
X0196476Y0011057D01*
X0196472Y0010923D01*
X0196464Y0010789D01*
X0196452Y0010656D01*
X0196436Y0010523D01*
X0196416Y0010390D01*
X0196392Y0010258D01*
X0196364Y0010127D01*
X0196333Y0009997D01*
X0196297Y0009868D01*
X0196258Y0009740D01*
X0196215Y0009613D01*
X0196168Y0009487D01*
X0196117Y0009363D01*
X0196063Y0009241D01*
X0196005Y0009120D01*
X0195944Y0009001D01*
X0195879Y0008884D01*
X0195810Y0008768D01*
X0195738Y0008655D01*
X0195663Y0008544D01*
X0195585Y0008436D01*
X0195503Y0008330D01*
X0195418Y0008226D01*
X0195331Y0008125D01*
X0195240Y0008026D01*
X0195146Y0007930D01*
X0195050Y0007837D01*
X0194950Y0007747D01*
X0194849Y0007660D01*
X0194744Y0007576D01*
X0194637Y0007495D01*
X0194528Y0007418D01*
X0194417Y0007343D01*
X0194303Y0007272D01*
X0194187Y0007205D01*
X0194070Y0007141D01*
X0193950Y0007080D01*
X0193829Y0007023D01*
X0193706Y0006970D01*
X0193581Y0006920D01*
X0193455Y0006874D01*
X0193328Y0006832D01*
X0193200Y0006794D01*
X0193070Y0006759D01*
X0192940Y0006728D01*
X0192809Y0006702D01*
X0192677Y0006679D01*
X0192544Y0006660D01*
X0192411Y0006645D01*
X0192277Y0006634D01*
X0192143Y0006627D01*
X0192010Y0006624D01*
X0191876Y0006625D01*
X0191742Y0006630D01*
X0191608Y0006639D01*
X0191475Y0006652D01*
X0191342Y0006669D01*
X0191209Y0006690D01*
X0191078Y0006715D01*
X0190947Y0006743D01*
X0190817Y0006776D01*
X0190688Y0006812D01*
X0190560Y0006853D01*
X0190433Y0006897D01*
X0190308Y0006944D01*
X0190185Y0006996D01*
X0190062Y0007051D01*
X0189942Y0007110D01*
X0189823Y0007172D01*
X0189707Y0007238D01*
X0189592Y0007307D01*
X0189479Y0007380D01*
X0189369Y0007456D01*
X0189261Y0007535D01*
X0189155Y0007618D01*
X0189052Y0007703D01*
X0188952Y0007792D01*
X0188854Y0007883D01*
X0188759Y0007978D01*
X0188666Y0008075D01*
X0188577Y0008175D01*
X0188491Y0008277D01*
X0188408Y0008382D01*
X0188328Y0008490D01*
X0188251Y0008600D01*
X0188177Y0008712D01*
X0188107Y0008826D01*
X0188040Y0008942D01*
X0187977Y0009060D01*
X0187917Y0009180D01*
X0187861Y0009302D01*
X0187809Y0009425D01*
X0187760Y0009550D01*
X0187715Y0009676D01*
X0187674Y0009804D01*
X0187637Y0009932D01*
X0187603Y0010062D01*
X0187573Y0010193D01*
X0187548Y0010324D01*
X0187526Y0010456D01*
X0187508Y0010589D01*
X0187494Y0010723D01*
X0187484Y0010856D01*
X0187478Y0010990D01*
X0187476Y0011124D01*
X0187476Y0133171D02*
X0187478Y0133305D01*
X0187484Y0133439D01*
X0187494Y0133572D01*
X0187508Y0133706D01*
X0187526Y0133839D01*
X0187548Y0133971D01*
X0187573Y0134102D01*
X0187603Y0134233D01*
X0187637Y0134363D01*
X0187674Y0134491D01*
X0187715Y0134619D01*
X0187760Y0134745D01*
X0187809Y0134870D01*
X0187861Y0134993D01*
X0187917Y0135115D01*
X0187977Y0135235D01*
X0188040Y0135353D01*
X0188107Y0135469D01*
X0188177Y0135583D01*
X0188251Y0135695D01*
X0188328Y0135805D01*
X0188408Y0135913D01*
X0188491Y0136018D01*
X0188577Y0136120D01*
X0188666Y0136220D01*
X0188759Y0136317D01*
X0188854Y0136412D01*
X0188952Y0136503D01*
X0189052Y0136592D01*
X0189155Y0136677D01*
X0189261Y0136760D01*
X0189369Y0136839D01*
X0189479Y0136915D01*
X0189592Y0136988D01*
X0189707Y0137057D01*
X0189823Y0137123D01*
X0189942Y0137185D01*
X0190062Y0137244D01*
X0190185Y0137299D01*
X0190308Y0137351D01*
X0190433Y0137398D01*
X0190560Y0137442D01*
X0190688Y0137483D01*
X0190817Y0137519D01*
X0190947Y0137552D01*
X0191078Y0137580D01*
X0191209Y0137605D01*
X0191342Y0137626D01*
X0191475Y0137643D01*
X0191608Y0137656D01*
X0191742Y0137665D01*
X0191876Y0137670D01*
X0192010Y0137671D01*
X0192143Y0137668D01*
X0192277Y0137661D01*
X0192411Y0137650D01*
X0192544Y0137635D01*
X0192677Y0137616D01*
X0192809Y0137593D01*
X0192940Y0137567D01*
X0193070Y0137536D01*
X0193200Y0137501D01*
X0193328Y0137463D01*
X0193455Y0137421D01*
X0193581Y0137375D01*
X0193706Y0137325D01*
X0193829Y0137272D01*
X0193950Y0137215D01*
X0194070Y0137154D01*
X0194187Y0137090D01*
X0194303Y0137023D01*
X0194417Y0136952D01*
X0194528Y0136877D01*
X0194637Y0136800D01*
X0194744Y0136719D01*
X0194849Y0136635D01*
X0194950Y0136548D01*
X0195050Y0136458D01*
X0195146Y0136365D01*
X0195240Y0136269D01*
X0195331Y0136170D01*
X0195418Y0136069D01*
X0195503Y0135965D01*
X0195585Y0135859D01*
X0195663Y0135751D01*
X0195738Y0135640D01*
X0195810Y0135527D01*
X0195879Y0135411D01*
X0195944Y0135294D01*
X0196005Y0135175D01*
X0196063Y0135054D01*
X0196117Y0134932D01*
X0196168Y0134808D01*
X0196215Y0134682D01*
X0196258Y0134555D01*
X0196297Y0134427D01*
X0196333Y0134298D01*
X0196364Y0134168D01*
X0196392Y0134037D01*
X0196416Y0133905D01*
X0196436Y0133772D01*
X0196452Y0133639D01*
X0196464Y0133506D01*
X0196472Y0133372D01*
X0196476Y0133238D01*
X0196476Y0133104D01*
X0196472Y0132970D01*
X0196464Y0132836D01*
X0196452Y0132703D01*
X0196436Y0132570D01*
X0196416Y0132437D01*
X0196392Y0132305D01*
X0196364Y0132174D01*
X0196333Y0132044D01*
X0196297Y0131915D01*
X0196258Y0131787D01*
X0196215Y0131660D01*
X0196168Y0131534D01*
X0196117Y0131410D01*
X0196063Y0131288D01*
X0196005Y0131167D01*
X0195944Y0131048D01*
X0195879Y0130931D01*
X0195810Y0130815D01*
X0195738Y0130702D01*
X0195663Y0130591D01*
X0195585Y0130483D01*
X0195503Y0130377D01*
X0195418Y0130273D01*
X0195331Y0130172D01*
X0195240Y0130073D01*
X0195146Y0129977D01*
X0195050Y0129884D01*
X0194950Y0129794D01*
X0194849Y0129707D01*
X0194744Y0129623D01*
X0194637Y0129542D01*
X0194528Y0129465D01*
X0194417Y0129390D01*
X0194303Y0129319D01*
X0194187Y0129252D01*
X0194070Y0129188D01*
X0193950Y0129127D01*
X0193829Y0129070D01*
X0193706Y0129017D01*
X0193581Y0128967D01*
X0193455Y0128921D01*
X0193328Y0128879D01*
X0193200Y0128841D01*
X0193070Y0128806D01*
X0192940Y0128775D01*
X0192809Y0128749D01*
X0192677Y0128726D01*
X0192544Y0128707D01*
X0192411Y0128692D01*
X0192277Y0128681D01*
X0192143Y0128674D01*
X0192010Y0128671D01*
X0191876Y0128672D01*
X0191742Y0128677D01*
X0191608Y0128686D01*
X0191475Y0128699D01*
X0191342Y0128716D01*
X0191209Y0128737D01*
X0191078Y0128762D01*
X0190947Y0128790D01*
X0190817Y0128823D01*
X0190688Y0128859D01*
X0190560Y0128900D01*
X0190433Y0128944D01*
X0190308Y0128991D01*
X0190185Y0129043D01*
X0190062Y0129098D01*
X0189942Y0129157D01*
X0189823Y0129219D01*
X0189707Y0129285D01*
X0189592Y0129354D01*
X0189479Y0129427D01*
X0189369Y0129503D01*
X0189261Y0129582D01*
X0189155Y0129665D01*
X0189052Y0129750D01*
X0188952Y0129839D01*
X0188854Y0129930D01*
X0188759Y0130025D01*
X0188666Y0130122D01*
X0188577Y0130222D01*
X0188491Y0130324D01*
X0188408Y0130429D01*
X0188328Y0130537D01*
X0188251Y0130647D01*
X0188177Y0130759D01*
X0188107Y0130873D01*
X0188040Y0130989D01*
X0187977Y0131107D01*
X0187917Y0131227D01*
X0187861Y0131349D01*
X0187809Y0131472D01*
X0187760Y0131597D01*
X0187715Y0131723D01*
X0187674Y0131851D01*
X0187637Y0131979D01*
X0187603Y0132109D01*
X0187573Y0132240D01*
X0187548Y0132371D01*
X0187526Y0132503D01*
X0187508Y0132636D01*
X0187494Y0132770D01*
X0187484Y0132903D01*
X0187478Y0133037D01*
X0187476Y0133171D01*
X0006374Y0133171D02*
X0006376Y0133305D01*
X0006382Y0133439D01*
X0006392Y0133572D01*
X0006406Y0133706D01*
X0006424Y0133839D01*
X0006446Y0133971D01*
X0006471Y0134102D01*
X0006501Y0134233D01*
X0006535Y0134363D01*
X0006572Y0134491D01*
X0006613Y0134619D01*
X0006658Y0134745D01*
X0006707Y0134870D01*
X0006759Y0134993D01*
X0006815Y0135115D01*
X0006875Y0135235D01*
X0006938Y0135353D01*
X0007005Y0135469D01*
X0007075Y0135583D01*
X0007149Y0135695D01*
X0007226Y0135805D01*
X0007306Y0135913D01*
X0007389Y0136018D01*
X0007475Y0136120D01*
X0007564Y0136220D01*
X0007657Y0136317D01*
X0007752Y0136412D01*
X0007850Y0136503D01*
X0007950Y0136592D01*
X0008053Y0136677D01*
X0008159Y0136760D01*
X0008267Y0136839D01*
X0008377Y0136915D01*
X0008490Y0136988D01*
X0008605Y0137057D01*
X0008721Y0137123D01*
X0008840Y0137185D01*
X0008960Y0137244D01*
X0009083Y0137299D01*
X0009206Y0137351D01*
X0009331Y0137398D01*
X0009458Y0137442D01*
X0009586Y0137483D01*
X0009715Y0137519D01*
X0009845Y0137552D01*
X0009976Y0137580D01*
X0010107Y0137605D01*
X0010240Y0137626D01*
X0010373Y0137643D01*
X0010506Y0137656D01*
X0010640Y0137665D01*
X0010774Y0137670D01*
X0010908Y0137671D01*
X0011041Y0137668D01*
X0011175Y0137661D01*
X0011309Y0137650D01*
X0011442Y0137635D01*
X0011575Y0137616D01*
X0011707Y0137593D01*
X0011838Y0137567D01*
X0011968Y0137536D01*
X0012098Y0137501D01*
X0012226Y0137463D01*
X0012353Y0137421D01*
X0012479Y0137375D01*
X0012604Y0137325D01*
X0012727Y0137272D01*
X0012848Y0137215D01*
X0012968Y0137154D01*
X0013085Y0137090D01*
X0013201Y0137023D01*
X0013315Y0136952D01*
X0013426Y0136877D01*
X0013535Y0136800D01*
X0013642Y0136719D01*
X0013747Y0136635D01*
X0013848Y0136548D01*
X0013948Y0136458D01*
X0014044Y0136365D01*
X0014138Y0136269D01*
X0014229Y0136170D01*
X0014316Y0136069D01*
X0014401Y0135965D01*
X0014483Y0135859D01*
X0014561Y0135751D01*
X0014636Y0135640D01*
X0014708Y0135527D01*
X0014777Y0135411D01*
X0014842Y0135294D01*
X0014903Y0135175D01*
X0014961Y0135054D01*
X0015015Y0134932D01*
X0015066Y0134808D01*
X0015113Y0134682D01*
X0015156Y0134555D01*
X0015195Y0134427D01*
X0015231Y0134298D01*
X0015262Y0134168D01*
X0015290Y0134037D01*
X0015314Y0133905D01*
X0015334Y0133772D01*
X0015350Y0133639D01*
X0015362Y0133506D01*
X0015370Y0133372D01*
X0015374Y0133238D01*
X0015374Y0133104D01*
X0015370Y0132970D01*
X0015362Y0132836D01*
X0015350Y0132703D01*
X0015334Y0132570D01*
X0015314Y0132437D01*
X0015290Y0132305D01*
X0015262Y0132174D01*
X0015231Y0132044D01*
X0015195Y0131915D01*
X0015156Y0131787D01*
X0015113Y0131660D01*
X0015066Y0131534D01*
X0015015Y0131410D01*
X0014961Y0131288D01*
X0014903Y0131167D01*
X0014842Y0131048D01*
X0014777Y0130931D01*
X0014708Y0130815D01*
X0014636Y0130702D01*
X0014561Y0130591D01*
X0014483Y0130483D01*
X0014401Y0130377D01*
X0014316Y0130273D01*
X0014229Y0130172D01*
X0014138Y0130073D01*
X0014044Y0129977D01*
X0013948Y0129884D01*
X0013848Y0129794D01*
X0013747Y0129707D01*
X0013642Y0129623D01*
X0013535Y0129542D01*
X0013426Y0129465D01*
X0013315Y0129390D01*
X0013201Y0129319D01*
X0013085Y0129252D01*
X0012968Y0129188D01*
X0012848Y0129127D01*
X0012727Y0129070D01*
X0012604Y0129017D01*
X0012479Y0128967D01*
X0012353Y0128921D01*
X0012226Y0128879D01*
X0012098Y0128841D01*
X0011968Y0128806D01*
X0011838Y0128775D01*
X0011707Y0128749D01*
X0011575Y0128726D01*
X0011442Y0128707D01*
X0011309Y0128692D01*
X0011175Y0128681D01*
X0011041Y0128674D01*
X0010908Y0128671D01*
X0010774Y0128672D01*
X0010640Y0128677D01*
X0010506Y0128686D01*
X0010373Y0128699D01*
X0010240Y0128716D01*
X0010107Y0128737D01*
X0009976Y0128762D01*
X0009845Y0128790D01*
X0009715Y0128823D01*
X0009586Y0128859D01*
X0009458Y0128900D01*
X0009331Y0128944D01*
X0009206Y0128991D01*
X0009083Y0129043D01*
X0008960Y0129098D01*
X0008840Y0129157D01*
X0008721Y0129219D01*
X0008605Y0129285D01*
X0008490Y0129354D01*
X0008377Y0129427D01*
X0008267Y0129503D01*
X0008159Y0129582D01*
X0008053Y0129665D01*
X0007950Y0129750D01*
X0007850Y0129839D01*
X0007752Y0129930D01*
X0007657Y0130025D01*
X0007564Y0130122D01*
X0007475Y0130222D01*
X0007389Y0130324D01*
X0007306Y0130429D01*
X0007226Y0130537D01*
X0007149Y0130647D01*
X0007075Y0130759D01*
X0007005Y0130873D01*
X0006938Y0130989D01*
X0006875Y0131107D01*
X0006815Y0131227D01*
X0006759Y0131349D01*
X0006707Y0131472D01*
X0006658Y0131597D01*
X0006613Y0131723D01*
X0006572Y0131851D01*
X0006535Y0131979D01*
X0006501Y0132109D01*
X0006471Y0132240D01*
X0006446Y0132371D01*
X0006424Y0132503D01*
X0006406Y0132636D01*
X0006392Y0132770D01*
X0006382Y0132903D01*
X0006376Y0133037D01*
X0006374Y0133171D01*
D12*
X0006906Y0027022D03*
X0022656Y0027022D03*
M02*
