G75*
%MOIN*%
%OFA0B0*%
%FSLAX25Y25*%
%IPPOS*%
%LPD*%
%AMOC8*
5,1,8,0,0,1.08239X$1,22.5*
%
%ADD10C,0.00000*%
%ADD11C,0.00100*%
%ADD12R,0.04000X0.07800*%
%ADD13R,0.06500X0.06500*%
%ADD14C,0.06500*%
%ADD15C,0.05200*%
%ADD16C,0.02800*%
%ADD17C,0.01200*%
%ADD18C,0.01600*%
%ADD19C,0.02400*%
D10*
X0010874Y0003250D02*
X0191976Y0003250D01*
X0192166Y0003252D01*
X0192356Y0003259D01*
X0192546Y0003271D01*
X0192736Y0003287D01*
X0192925Y0003307D01*
X0193114Y0003333D01*
X0193302Y0003362D01*
X0193489Y0003397D01*
X0193675Y0003436D01*
X0193860Y0003479D01*
X0194045Y0003527D01*
X0194228Y0003579D01*
X0194409Y0003635D01*
X0194589Y0003696D01*
X0194768Y0003762D01*
X0194945Y0003831D01*
X0195121Y0003905D01*
X0195294Y0003983D01*
X0195466Y0004066D01*
X0195635Y0004152D01*
X0195803Y0004242D01*
X0195968Y0004337D01*
X0196131Y0004435D01*
X0196291Y0004538D01*
X0196449Y0004644D01*
X0196604Y0004754D01*
X0196757Y0004867D01*
X0196907Y0004985D01*
X0197053Y0005106D01*
X0197197Y0005230D01*
X0197338Y0005358D01*
X0197476Y0005489D01*
X0197611Y0005624D01*
X0197742Y0005762D01*
X0197870Y0005903D01*
X0197994Y0006047D01*
X0198115Y0006193D01*
X0198233Y0006343D01*
X0198346Y0006496D01*
X0198456Y0006651D01*
X0198562Y0006809D01*
X0198665Y0006969D01*
X0198763Y0007132D01*
X0198858Y0007297D01*
X0198948Y0007465D01*
X0199034Y0007634D01*
X0199117Y0007806D01*
X0199195Y0007979D01*
X0199269Y0008155D01*
X0199338Y0008332D01*
X0199404Y0008511D01*
X0199465Y0008691D01*
X0199521Y0008872D01*
X0199573Y0009055D01*
X0199621Y0009240D01*
X0199664Y0009425D01*
X0199703Y0009611D01*
X0199738Y0009798D01*
X0199767Y0009986D01*
X0199793Y0010175D01*
X0199813Y0010364D01*
X0199829Y0010554D01*
X0199841Y0010744D01*
X0199848Y0010934D01*
X0199850Y0011124D01*
X0199850Y0133171D01*
X0199848Y0133361D01*
X0199841Y0133551D01*
X0199829Y0133741D01*
X0199813Y0133931D01*
X0199793Y0134120D01*
X0199767Y0134309D01*
X0199738Y0134497D01*
X0199703Y0134684D01*
X0199664Y0134870D01*
X0199621Y0135055D01*
X0199573Y0135240D01*
X0199521Y0135423D01*
X0199465Y0135604D01*
X0199404Y0135784D01*
X0199338Y0135963D01*
X0199269Y0136140D01*
X0199195Y0136316D01*
X0199117Y0136489D01*
X0199034Y0136661D01*
X0198948Y0136830D01*
X0198858Y0136998D01*
X0198763Y0137163D01*
X0198665Y0137326D01*
X0198562Y0137486D01*
X0198456Y0137644D01*
X0198346Y0137799D01*
X0198233Y0137952D01*
X0198115Y0138102D01*
X0197994Y0138248D01*
X0197870Y0138392D01*
X0197742Y0138533D01*
X0197611Y0138671D01*
X0197476Y0138806D01*
X0197338Y0138937D01*
X0197197Y0139065D01*
X0197053Y0139189D01*
X0196907Y0139310D01*
X0196757Y0139428D01*
X0196604Y0139541D01*
X0196449Y0139651D01*
X0196291Y0139757D01*
X0196131Y0139860D01*
X0195968Y0139958D01*
X0195803Y0140053D01*
X0195635Y0140143D01*
X0195466Y0140229D01*
X0195294Y0140312D01*
X0195121Y0140390D01*
X0194945Y0140464D01*
X0194768Y0140533D01*
X0194589Y0140599D01*
X0194409Y0140660D01*
X0194228Y0140716D01*
X0194045Y0140768D01*
X0193860Y0140816D01*
X0193675Y0140859D01*
X0193489Y0140898D01*
X0193302Y0140933D01*
X0193114Y0140962D01*
X0192925Y0140988D01*
X0192736Y0141008D01*
X0192546Y0141024D01*
X0192356Y0141036D01*
X0192166Y0141043D01*
X0191976Y0141045D01*
X0010874Y0141045D01*
X0010684Y0141043D01*
X0010494Y0141036D01*
X0010304Y0141024D01*
X0010114Y0141008D01*
X0009925Y0140988D01*
X0009736Y0140962D01*
X0009548Y0140933D01*
X0009361Y0140898D01*
X0009175Y0140859D01*
X0008990Y0140816D01*
X0008805Y0140768D01*
X0008622Y0140716D01*
X0008441Y0140660D01*
X0008261Y0140599D01*
X0008082Y0140533D01*
X0007905Y0140464D01*
X0007729Y0140390D01*
X0007556Y0140312D01*
X0007384Y0140229D01*
X0007215Y0140143D01*
X0007047Y0140053D01*
X0006882Y0139958D01*
X0006719Y0139860D01*
X0006559Y0139757D01*
X0006401Y0139651D01*
X0006246Y0139541D01*
X0006093Y0139428D01*
X0005943Y0139310D01*
X0005797Y0139189D01*
X0005653Y0139065D01*
X0005512Y0138937D01*
X0005374Y0138806D01*
X0005239Y0138671D01*
X0005108Y0138533D01*
X0004980Y0138392D01*
X0004856Y0138248D01*
X0004735Y0138102D01*
X0004617Y0137952D01*
X0004504Y0137799D01*
X0004394Y0137644D01*
X0004288Y0137486D01*
X0004185Y0137326D01*
X0004087Y0137163D01*
X0003992Y0136998D01*
X0003902Y0136830D01*
X0003816Y0136661D01*
X0003733Y0136489D01*
X0003655Y0136316D01*
X0003581Y0136140D01*
X0003512Y0135963D01*
X0003446Y0135784D01*
X0003385Y0135604D01*
X0003329Y0135423D01*
X0003277Y0135240D01*
X0003229Y0135055D01*
X0003186Y0134870D01*
X0003147Y0134684D01*
X0003112Y0134497D01*
X0003083Y0134309D01*
X0003057Y0134120D01*
X0003037Y0133931D01*
X0003021Y0133741D01*
X0003009Y0133551D01*
X0003002Y0133361D01*
X0003000Y0133171D01*
X0003000Y0011124D01*
X0003002Y0010934D01*
X0003009Y0010744D01*
X0003021Y0010554D01*
X0003037Y0010364D01*
X0003057Y0010175D01*
X0003083Y0009986D01*
X0003112Y0009798D01*
X0003147Y0009611D01*
X0003186Y0009425D01*
X0003229Y0009240D01*
X0003277Y0009055D01*
X0003329Y0008872D01*
X0003385Y0008691D01*
X0003446Y0008511D01*
X0003512Y0008332D01*
X0003581Y0008155D01*
X0003655Y0007979D01*
X0003733Y0007806D01*
X0003816Y0007634D01*
X0003902Y0007465D01*
X0003992Y0007297D01*
X0004087Y0007132D01*
X0004185Y0006969D01*
X0004288Y0006809D01*
X0004394Y0006651D01*
X0004504Y0006496D01*
X0004617Y0006343D01*
X0004735Y0006193D01*
X0004856Y0006047D01*
X0004980Y0005903D01*
X0005108Y0005762D01*
X0005239Y0005624D01*
X0005374Y0005489D01*
X0005512Y0005358D01*
X0005653Y0005230D01*
X0005797Y0005106D01*
X0005943Y0004985D01*
X0006093Y0004867D01*
X0006246Y0004754D01*
X0006401Y0004644D01*
X0006559Y0004538D01*
X0006719Y0004435D01*
X0006882Y0004337D01*
X0007047Y0004242D01*
X0007215Y0004152D01*
X0007384Y0004066D01*
X0007556Y0003983D01*
X0007729Y0003905D01*
X0007905Y0003831D01*
X0008082Y0003762D01*
X0008261Y0003696D01*
X0008441Y0003635D01*
X0008622Y0003579D01*
X0008805Y0003527D01*
X0008990Y0003479D01*
X0009175Y0003436D01*
X0009361Y0003397D01*
X0009548Y0003362D01*
X0009736Y0003333D01*
X0009925Y0003307D01*
X0010114Y0003287D01*
X0010304Y0003271D01*
X0010494Y0003259D01*
X0010684Y0003252D01*
X0010874Y0003250D01*
D11*
X0187476Y0011124D02*
X0187478Y0011258D01*
X0187484Y0011392D01*
X0187494Y0011525D01*
X0187508Y0011659D01*
X0187526Y0011792D01*
X0187548Y0011924D01*
X0187573Y0012055D01*
X0187603Y0012186D01*
X0187637Y0012316D01*
X0187674Y0012444D01*
X0187715Y0012572D01*
X0187760Y0012698D01*
X0187809Y0012823D01*
X0187861Y0012946D01*
X0187917Y0013068D01*
X0187977Y0013188D01*
X0188040Y0013306D01*
X0188107Y0013422D01*
X0188177Y0013536D01*
X0188251Y0013648D01*
X0188328Y0013758D01*
X0188408Y0013866D01*
X0188491Y0013971D01*
X0188577Y0014073D01*
X0188666Y0014173D01*
X0188759Y0014270D01*
X0188854Y0014365D01*
X0188952Y0014456D01*
X0189052Y0014545D01*
X0189155Y0014630D01*
X0189261Y0014713D01*
X0189369Y0014792D01*
X0189479Y0014868D01*
X0189592Y0014941D01*
X0189707Y0015010D01*
X0189823Y0015076D01*
X0189942Y0015138D01*
X0190062Y0015197D01*
X0190185Y0015252D01*
X0190308Y0015304D01*
X0190433Y0015351D01*
X0190560Y0015395D01*
X0190688Y0015436D01*
X0190817Y0015472D01*
X0190947Y0015505D01*
X0191078Y0015533D01*
X0191209Y0015558D01*
X0191342Y0015579D01*
X0191475Y0015596D01*
X0191608Y0015609D01*
X0191742Y0015618D01*
X0191876Y0015623D01*
X0192010Y0015624D01*
X0192143Y0015621D01*
X0192277Y0015614D01*
X0192411Y0015603D01*
X0192544Y0015588D01*
X0192677Y0015569D01*
X0192809Y0015546D01*
X0192940Y0015520D01*
X0193070Y0015489D01*
X0193200Y0015454D01*
X0193328Y0015416D01*
X0193455Y0015374D01*
X0193581Y0015328D01*
X0193706Y0015278D01*
X0193829Y0015225D01*
X0193950Y0015168D01*
X0194070Y0015107D01*
X0194187Y0015043D01*
X0194303Y0014976D01*
X0194417Y0014905D01*
X0194528Y0014830D01*
X0194637Y0014753D01*
X0194744Y0014672D01*
X0194849Y0014588D01*
X0194950Y0014501D01*
X0195050Y0014411D01*
X0195146Y0014318D01*
X0195240Y0014222D01*
X0195331Y0014123D01*
X0195418Y0014022D01*
X0195503Y0013918D01*
X0195585Y0013812D01*
X0195663Y0013704D01*
X0195738Y0013593D01*
X0195810Y0013480D01*
X0195879Y0013364D01*
X0195944Y0013247D01*
X0196005Y0013128D01*
X0196063Y0013007D01*
X0196117Y0012885D01*
X0196168Y0012761D01*
X0196215Y0012635D01*
X0196258Y0012508D01*
X0196297Y0012380D01*
X0196333Y0012251D01*
X0196364Y0012121D01*
X0196392Y0011990D01*
X0196416Y0011858D01*
X0196436Y0011725D01*
X0196452Y0011592D01*
X0196464Y0011459D01*
X0196472Y0011325D01*
X0196476Y0011191D01*
X0196476Y0011057D01*
X0196472Y0010923D01*
X0196464Y0010789D01*
X0196452Y0010656D01*
X0196436Y0010523D01*
X0196416Y0010390D01*
X0196392Y0010258D01*
X0196364Y0010127D01*
X0196333Y0009997D01*
X0196297Y0009868D01*
X0196258Y0009740D01*
X0196215Y0009613D01*
X0196168Y0009487D01*
X0196117Y0009363D01*
X0196063Y0009241D01*
X0196005Y0009120D01*
X0195944Y0009001D01*
X0195879Y0008884D01*
X0195810Y0008768D01*
X0195738Y0008655D01*
X0195663Y0008544D01*
X0195585Y0008436D01*
X0195503Y0008330D01*
X0195418Y0008226D01*
X0195331Y0008125D01*
X0195240Y0008026D01*
X0195146Y0007930D01*
X0195050Y0007837D01*
X0194950Y0007747D01*
X0194849Y0007660D01*
X0194744Y0007576D01*
X0194637Y0007495D01*
X0194528Y0007418D01*
X0194417Y0007343D01*
X0194303Y0007272D01*
X0194187Y0007205D01*
X0194070Y0007141D01*
X0193950Y0007080D01*
X0193829Y0007023D01*
X0193706Y0006970D01*
X0193581Y0006920D01*
X0193455Y0006874D01*
X0193328Y0006832D01*
X0193200Y0006794D01*
X0193070Y0006759D01*
X0192940Y0006728D01*
X0192809Y0006702D01*
X0192677Y0006679D01*
X0192544Y0006660D01*
X0192411Y0006645D01*
X0192277Y0006634D01*
X0192143Y0006627D01*
X0192010Y0006624D01*
X0191876Y0006625D01*
X0191742Y0006630D01*
X0191608Y0006639D01*
X0191475Y0006652D01*
X0191342Y0006669D01*
X0191209Y0006690D01*
X0191078Y0006715D01*
X0190947Y0006743D01*
X0190817Y0006776D01*
X0190688Y0006812D01*
X0190560Y0006853D01*
X0190433Y0006897D01*
X0190308Y0006944D01*
X0190185Y0006996D01*
X0190062Y0007051D01*
X0189942Y0007110D01*
X0189823Y0007172D01*
X0189707Y0007238D01*
X0189592Y0007307D01*
X0189479Y0007380D01*
X0189369Y0007456D01*
X0189261Y0007535D01*
X0189155Y0007618D01*
X0189052Y0007703D01*
X0188952Y0007792D01*
X0188854Y0007883D01*
X0188759Y0007978D01*
X0188666Y0008075D01*
X0188577Y0008175D01*
X0188491Y0008277D01*
X0188408Y0008382D01*
X0188328Y0008490D01*
X0188251Y0008600D01*
X0188177Y0008712D01*
X0188107Y0008826D01*
X0188040Y0008942D01*
X0187977Y0009060D01*
X0187917Y0009180D01*
X0187861Y0009302D01*
X0187809Y0009425D01*
X0187760Y0009550D01*
X0187715Y0009676D01*
X0187674Y0009804D01*
X0187637Y0009932D01*
X0187603Y0010062D01*
X0187573Y0010193D01*
X0187548Y0010324D01*
X0187526Y0010456D01*
X0187508Y0010589D01*
X0187494Y0010723D01*
X0187484Y0010856D01*
X0187478Y0010990D01*
X0187476Y0011124D01*
X0187476Y0133171D02*
X0187478Y0133305D01*
X0187484Y0133439D01*
X0187494Y0133572D01*
X0187508Y0133706D01*
X0187526Y0133839D01*
X0187548Y0133971D01*
X0187573Y0134102D01*
X0187603Y0134233D01*
X0187637Y0134363D01*
X0187674Y0134491D01*
X0187715Y0134619D01*
X0187760Y0134745D01*
X0187809Y0134870D01*
X0187861Y0134993D01*
X0187917Y0135115D01*
X0187977Y0135235D01*
X0188040Y0135353D01*
X0188107Y0135469D01*
X0188177Y0135583D01*
X0188251Y0135695D01*
X0188328Y0135805D01*
X0188408Y0135913D01*
X0188491Y0136018D01*
X0188577Y0136120D01*
X0188666Y0136220D01*
X0188759Y0136317D01*
X0188854Y0136412D01*
X0188952Y0136503D01*
X0189052Y0136592D01*
X0189155Y0136677D01*
X0189261Y0136760D01*
X0189369Y0136839D01*
X0189479Y0136915D01*
X0189592Y0136988D01*
X0189707Y0137057D01*
X0189823Y0137123D01*
X0189942Y0137185D01*
X0190062Y0137244D01*
X0190185Y0137299D01*
X0190308Y0137351D01*
X0190433Y0137398D01*
X0190560Y0137442D01*
X0190688Y0137483D01*
X0190817Y0137519D01*
X0190947Y0137552D01*
X0191078Y0137580D01*
X0191209Y0137605D01*
X0191342Y0137626D01*
X0191475Y0137643D01*
X0191608Y0137656D01*
X0191742Y0137665D01*
X0191876Y0137670D01*
X0192010Y0137671D01*
X0192143Y0137668D01*
X0192277Y0137661D01*
X0192411Y0137650D01*
X0192544Y0137635D01*
X0192677Y0137616D01*
X0192809Y0137593D01*
X0192940Y0137567D01*
X0193070Y0137536D01*
X0193200Y0137501D01*
X0193328Y0137463D01*
X0193455Y0137421D01*
X0193581Y0137375D01*
X0193706Y0137325D01*
X0193829Y0137272D01*
X0193950Y0137215D01*
X0194070Y0137154D01*
X0194187Y0137090D01*
X0194303Y0137023D01*
X0194417Y0136952D01*
X0194528Y0136877D01*
X0194637Y0136800D01*
X0194744Y0136719D01*
X0194849Y0136635D01*
X0194950Y0136548D01*
X0195050Y0136458D01*
X0195146Y0136365D01*
X0195240Y0136269D01*
X0195331Y0136170D01*
X0195418Y0136069D01*
X0195503Y0135965D01*
X0195585Y0135859D01*
X0195663Y0135751D01*
X0195738Y0135640D01*
X0195810Y0135527D01*
X0195879Y0135411D01*
X0195944Y0135294D01*
X0196005Y0135175D01*
X0196063Y0135054D01*
X0196117Y0134932D01*
X0196168Y0134808D01*
X0196215Y0134682D01*
X0196258Y0134555D01*
X0196297Y0134427D01*
X0196333Y0134298D01*
X0196364Y0134168D01*
X0196392Y0134037D01*
X0196416Y0133905D01*
X0196436Y0133772D01*
X0196452Y0133639D01*
X0196464Y0133506D01*
X0196472Y0133372D01*
X0196476Y0133238D01*
X0196476Y0133104D01*
X0196472Y0132970D01*
X0196464Y0132836D01*
X0196452Y0132703D01*
X0196436Y0132570D01*
X0196416Y0132437D01*
X0196392Y0132305D01*
X0196364Y0132174D01*
X0196333Y0132044D01*
X0196297Y0131915D01*
X0196258Y0131787D01*
X0196215Y0131660D01*
X0196168Y0131534D01*
X0196117Y0131410D01*
X0196063Y0131288D01*
X0196005Y0131167D01*
X0195944Y0131048D01*
X0195879Y0130931D01*
X0195810Y0130815D01*
X0195738Y0130702D01*
X0195663Y0130591D01*
X0195585Y0130483D01*
X0195503Y0130377D01*
X0195418Y0130273D01*
X0195331Y0130172D01*
X0195240Y0130073D01*
X0195146Y0129977D01*
X0195050Y0129884D01*
X0194950Y0129794D01*
X0194849Y0129707D01*
X0194744Y0129623D01*
X0194637Y0129542D01*
X0194528Y0129465D01*
X0194417Y0129390D01*
X0194303Y0129319D01*
X0194187Y0129252D01*
X0194070Y0129188D01*
X0193950Y0129127D01*
X0193829Y0129070D01*
X0193706Y0129017D01*
X0193581Y0128967D01*
X0193455Y0128921D01*
X0193328Y0128879D01*
X0193200Y0128841D01*
X0193070Y0128806D01*
X0192940Y0128775D01*
X0192809Y0128749D01*
X0192677Y0128726D01*
X0192544Y0128707D01*
X0192411Y0128692D01*
X0192277Y0128681D01*
X0192143Y0128674D01*
X0192010Y0128671D01*
X0191876Y0128672D01*
X0191742Y0128677D01*
X0191608Y0128686D01*
X0191475Y0128699D01*
X0191342Y0128716D01*
X0191209Y0128737D01*
X0191078Y0128762D01*
X0190947Y0128790D01*
X0190817Y0128823D01*
X0190688Y0128859D01*
X0190560Y0128900D01*
X0190433Y0128944D01*
X0190308Y0128991D01*
X0190185Y0129043D01*
X0190062Y0129098D01*
X0189942Y0129157D01*
X0189823Y0129219D01*
X0189707Y0129285D01*
X0189592Y0129354D01*
X0189479Y0129427D01*
X0189369Y0129503D01*
X0189261Y0129582D01*
X0189155Y0129665D01*
X0189052Y0129750D01*
X0188952Y0129839D01*
X0188854Y0129930D01*
X0188759Y0130025D01*
X0188666Y0130122D01*
X0188577Y0130222D01*
X0188491Y0130324D01*
X0188408Y0130429D01*
X0188328Y0130537D01*
X0188251Y0130647D01*
X0188177Y0130759D01*
X0188107Y0130873D01*
X0188040Y0130989D01*
X0187977Y0131107D01*
X0187917Y0131227D01*
X0187861Y0131349D01*
X0187809Y0131472D01*
X0187760Y0131597D01*
X0187715Y0131723D01*
X0187674Y0131851D01*
X0187637Y0131979D01*
X0187603Y0132109D01*
X0187573Y0132240D01*
X0187548Y0132371D01*
X0187526Y0132503D01*
X0187508Y0132636D01*
X0187494Y0132770D01*
X0187484Y0132903D01*
X0187478Y0133037D01*
X0187476Y0133171D01*
X0006374Y0133171D02*
X0006376Y0133305D01*
X0006382Y0133439D01*
X0006392Y0133572D01*
X0006406Y0133706D01*
X0006424Y0133839D01*
X0006446Y0133971D01*
X0006471Y0134102D01*
X0006501Y0134233D01*
X0006535Y0134363D01*
X0006572Y0134491D01*
X0006613Y0134619D01*
X0006658Y0134745D01*
X0006707Y0134870D01*
X0006759Y0134993D01*
X0006815Y0135115D01*
X0006875Y0135235D01*
X0006938Y0135353D01*
X0007005Y0135469D01*
X0007075Y0135583D01*
X0007149Y0135695D01*
X0007226Y0135805D01*
X0007306Y0135913D01*
X0007389Y0136018D01*
X0007475Y0136120D01*
X0007564Y0136220D01*
X0007657Y0136317D01*
X0007752Y0136412D01*
X0007850Y0136503D01*
X0007950Y0136592D01*
X0008053Y0136677D01*
X0008159Y0136760D01*
X0008267Y0136839D01*
X0008377Y0136915D01*
X0008490Y0136988D01*
X0008605Y0137057D01*
X0008721Y0137123D01*
X0008840Y0137185D01*
X0008960Y0137244D01*
X0009083Y0137299D01*
X0009206Y0137351D01*
X0009331Y0137398D01*
X0009458Y0137442D01*
X0009586Y0137483D01*
X0009715Y0137519D01*
X0009845Y0137552D01*
X0009976Y0137580D01*
X0010107Y0137605D01*
X0010240Y0137626D01*
X0010373Y0137643D01*
X0010506Y0137656D01*
X0010640Y0137665D01*
X0010774Y0137670D01*
X0010908Y0137671D01*
X0011041Y0137668D01*
X0011175Y0137661D01*
X0011309Y0137650D01*
X0011442Y0137635D01*
X0011575Y0137616D01*
X0011707Y0137593D01*
X0011838Y0137567D01*
X0011968Y0137536D01*
X0012098Y0137501D01*
X0012226Y0137463D01*
X0012353Y0137421D01*
X0012479Y0137375D01*
X0012604Y0137325D01*
X0012727Y0137272D01*
X0012848Y0137215D01*
X0012968Y0137154D01*
X0013085Y0137090D01*
X0013201Y0137023D01*
X0013315Y0136952D01*
X0013426Y0136877D01*
X0013535Y0136800D01*
X0013642Y0136719D01*
X0013747Y0136635D01*
X0013848Y0136548D01*
X0013948Y0136458D01*
X0014044Y0136365D01*
X0014138Y0136269D01*
X0014229Y0136170D01*
X0014316Y0136069D01*
X0014401Y0135965D01*
X0014483Y0135859D01*
X0014561Y0135751D01*
X0014636Y0135640D01*
X0014708Y0135527D01*
X0014777Y0135411D01*
X0014842Y0135294D01*
X0014903Y0135175D01*
X0014961Y0135054D01*
X0015015Y0134932D01*
X0015066Y0134808D01*
X0015113Y0134682D01*
X0015156Y0134555D01*
X0015195Y0134427D01*
X0015231Y0134298D01*
X0015262Y0134168D01*
X0015290Y0134037D01*
X0015314Y0133905D01*
X0015334Y0133772D01*
X0015350Y0133639D01*
X0015362Y0133506D01*
X0015370Y0133372D01*
X0015374Y0133238D01*
X0015374Y0133104D01*
X0015370Y0132970D01*
X0015362Y0132836D01*
X0015350Y0132703D01*
X0015334Y0132570D01*
X0015314Y0132437D01*
X0015290Y0132305D01*
X0015262Y0132174D01*
X0015231Y0132044D01*
X0015195Y0131915D01*
X0015156Y0131787D01*
X0015113Y0131660D01*
X0015066Y0131534D01*
X0015015Y0131410D01*
X0014961Y0131288D01*
X0014903Y0131167D01*
X0014842Y0131048D01*
X0014777Y0130931D01*
X0014708Y0130815D01*
X0014636Y0130702D01*
X0014561Y0130591D01*
X0014483Y0130483D01*
X0014401Y0130377D01*
X0014316Y0130273D01*
X0014229Y0130172D01*
X0014138Y0130073D01*
X0014044Y0129977D01*
X0013948Y0129884D01*
X0013848Y0129794D01*
X0013747Y0129707D01*
X0013642Y0129623D01*
X0013535Y0129542D01*
X0013426Y0129465D01*
X0013315Y0129390D01*
X0013201Y0129319D01*
X0013085Y0129252D01*
X0012968Y0129188D01*
X0012848Y0129127D01*
X0012727Y0129070D01*
X0012604Y0129017D01*
X0012479Y0128967D01*
X0012353Y0128921D01*
X0012226Y0128879D01*
X0012098Y0128841D01*
X0011968Y0128806D01*
X0011838Y0128775D01*
X0011707Y0128749D01*
X0011575Y0128726D01*
X0011442Y0128707D01*
X0011309Y0128692D01*
X0011175Y0128681D01*
X0011041Y0128674D01*
X0010908Y0128671D01*
X0010774Y0128672D01*
X0010640Y0128677D01*
X0010506Y0128686D01*
X0010373Y0128699D01*
X0010240Y0128716D01*
X0010107Y0128737D01*
X0009976Y0128762D01*
X0009845Y0128790D01*
X0009715Y0128823D01*
X0009586Y0128859D01*
X0009458Y0128900D01*
X0009331Y0128944D01*
X0009206Y0128991D01*
X0009083Y0129043D01*
X0008960Y0129098D01*
X0008840Y0129157D01*
X0008721Y0129219D01*
X0008605Y0129285D01*
X0008490Y0129354D01*
X0008377Y0129427D01*
X0008267Y0129503D01*
X0008159Y0129582D01*
X0008053Y0129665D01*
X0007950Y0129750D01*
X0007850Y0129839D01*
X0007752Y0129930D01*
X0007657Y0130025D01*
X0007564Y0130122D01*
X0007475Y0130222D01*
X0007389Y0130324D01*
X0007306Y0130429D01*
X0007226Y0130537D01*
X0007149Y0130647D01*
X0007075Y0130759D01*
X0007005Y0130873D01*
X0006938Y0130989D01*
X0006875Y0131107D01*
X0006815Y0131227D01*
X0006759Y0131349D01*
X0006707Y0131472D01*
X0006658Y0131597D01*
X0006613Y0131723D01*
X0006572Y0131851D01*
X0006535Y0131979D01*
X0006501Y0132109D01*
X0006471Y0132240D01*
X0006446Y0132371D01*
X0006424Y0132503D01*
X0006406Y0132636D01*
X0006392Y0132770D01*
X0006382Y0132903D01*
X0006376Y0133037D01*
X0006374Y0133171D01*
D12*
X0006906Y0027022D03*
X0022656Y0027022D03*
D13*
X0174929Y0011124D03*
X0174929Y0133171D03*
D14*
X0164929Y0133171D03*
X0154929Y0133171D03*
X0144929Y0133171D03*
X0134929Y0133171D03*
X0124929Y0133171D03*
X0114929Y0133171D03*
X0104929Y0133171D03*
X0094929Y0133171D03*
X0084929Y0133171D03*
X0074929Y0133171D03*
X0064929Y0133171D03*
X0064929Y0011124D03*
X0074929Y0011124D03*
X0084929Y0011124D03*
X0094929Y0011124D03*
X0104929Y0011124D03*
X0114929Y0011124D03*
X0124929Y0011124D03*
X0134929Y0011124D03*
X0144929Y0011124D03*
X0154929Y0011124D03*
X0164929Y0011124D03*
D15*
X0044500Y0015750D03*
X0025500Y0015750D03*
D16*
X0014000Y0033250D03*
X0041606Y0048750D03*
X0041500Y0057750D03*
X0045500Y0063250D03*
X0041606Y0072250D03*
X0050500Y0073250D03*
X0061500Y0079250D03*
X0073500Y0079250D03*
X0072500Y0068250D03*
X0085000Y0068250D03*
X0094500Y0079750D03*
X0098500Y0079750D03*
X0091000Y0084250D03*
X0087500Y0092250D03*
X0071000Y0102250D03*
X0070606Y0094750D03*
X0067000Y0089750D03*
X0057500Y0088750D03*
X0057000Y0099750D03*
X0054287Y0108581D03*
X0045287Y0102081D03*
X0071000Y0111250D03*
X0070106Y0122250D03*
X0090106Y0123250D03*
X0090106Y0119750D03*
X0100000Y0125250D03*
X0109500Y0125750D03*
X0119500Y0122250D03*
X0130000Y0119750D03*
X0131000Y0111750D03*
X0124500Y0111750D03*
X0140000Y0118750D03*
X0140000Y0127250D03*
X0160500Y0122250D03*
X0181000Y0125250D03*
X0139000Y0092750D03*
X0131000Y0091750D03*
X0127000Y0085250D03*
X0119000Y0085250D03*
X0114000Y0090750D03*
X0135000Y0085250D03*
X0140500Y0085250D03*
X0150500Y0092250D03*
X0155000Y0085250D03*
X0160000Y0080250D03*
X0172500Y0076750D03*
X0172500Y0071250D03*
X0172500Y0065750D03*
X0172500Y0061250D03*
X0172500Y0056250D03*
X0150500Y0051750D03*
X0146000Y0068750D03*
X0161500Y0092250D03*
X0115000Y0055250D03*
X0115000Y0050250D03*
X0101000Y0040750D03*
X0093000Y0044250D03*
X0091500Y0050250D03*
X0070000Y0044750D03*
X0062500Y0040750D03*
X0070000Y0033750D03*
X0084500Y0029750D03*
X0090000Y0029750D03*
X0138795Y0027364D03*
X0170291Y0030907D03*
X0184500Y0030250D03*
X0042606Y0125750D03*
X0031500Y0123250D03*
X0022500Y0137750D03*
X0010500Y0095750D03*
X0026000Y0077750D03*
D17*
X0023112Y0076359D02*
X0021600Y0076359D01*
X0021600Y0075161D02*
X0023400Y0075161D01*
X0023400Y0075825D02*
X0023400Y0042527D01*
X0021600Y0044327D01*
X0021600Y0082673D01*
X0030077Y0091150D01*
X0031206Y0091150D01*
X0039462Y0082894D01*
X0043600Y0072778D01*
X0043600Y0072773D01*
X0043780Y0072337D01*
X0043959Y0071899D01*
X0043963Y0071896D01*
X0043965Y0071891D01*
X0044299Y0071557D01*
X0044632Y0071221D01*
X0044637Y0071219D01*
X0044641Y0071215D01*
X0044945Y0071089D01*
X0039465Y0065609D01*
X0039100Y0064727D01*
X0039100Y0059875D01*
X0038787Y0059563D01*
X0038300Y0058387D01*
X0038300Y0057113D01*
X0038787Y0055937D01*
X0039687Y0055037D01*
X0040863Y0054550D01*
X0042137Y0054550D01*
X0043313Y0055037D01*
X0044213Y0055937D01*
X0044700Y0057113D01*
X0044700Y0058387D01*
X0044213Y0059563D01*
X0043900Y0059875D01*
X0043900Y0060449D01*
X0044863Y0060050D01*
X0046137Y0060050D01*
X0047313Y0060537D01*
X0048213Y0061437D01*
X0048591Y0062350D01*
X0079438Y0062350D01*
X0079301Y0062293D01*
X0078457Y0061449D01*
X0078000Y0060347D01*
X0078000Y0059153D01*
X0078457Y0058051D01*
X0079301Y0057207D01*
X0080403Y0056750D01*
X0081597Y0056750D01*
X0081838Y0056850D01*
X0094423Y0056850D01*
X0091023Y0053450D01*
X0090863Y0053450D01*
X0089687Y0052963D01*
X0088787Y0052063D01*
X0088300Y0050887D01*
X0088300Y0049613D01*
X0088787Y0048437D01*
X0089687Y0047537D01*
X0090863Y0047050D01*
X0091398Y0047050D01*
X0091187Y0046963D01*
X0090287Y0046063D01*
X0089800Y0044887D01*
X0089800Y0043613D01*
X0090287Y0042437D01*
X0091187Y0041537D01*
X0092363Y0041050D01*
X0093637Y0041050D01*
X0094813Y0041537D01*
X0095713Y0042437D01*
X0096200Y0043613D01*
X0096200Y0043773D01*
X0100077Y0047650D01*
X0113075Y0047650D01*
X0113187Y0047537D01*
X0114363Y0047050D01*
X0115637Y0047050D01*
X0116400Y0047366D01*
X0116400Y0026272D01*
X0106194Y0016066D01*
X0105934Y0016174D01*
X0103925Y0016174D01*
X0102069Y0015405D01*
X0100648Y0013985D01*
X0099929Y0012249D01*
X0099210Y0013985D01*
X0097790Y0015405D01*
X0095934Y0016174D01*
X0093925Y0016174D01*
X0092600Y0015625D01*
X0092600Y0027825D01*
X0092713Y0027937D01*
X0093200Y0029113D01*
X0093200Y0030387D01*
X0092713Y0031563D01*
X0091813Y0032463D01*
X0090637Y0032950D01*
X0089363Y0032950D01*
X0088187Y0032463D01*
X0087287Y0031563D01*
X0086800Y0030387D01*
X0086800Y0029113D01*
X0087287Y0027937D01*
X0087400Y0027825D01*
X0087400Y0015567D01*
X0085934Y0016174D01*
X0083925Y0016174D01*
X0082069Y0015405D01*
X0080648Y0013985D01*
X0079879Y0012129D01*
X0079879Y0010120D01*
X0080648Y0008263D01*
X0082069Y0006843D01*
X0083925Y0006074D01*
X0085934Y0006074D01*
X0087790Y0006843D01*
X0088010Y0007063D01*
X0090023Y0005050D01*
X0016375Y0005050D01*
X0018365Y0007789D01*
X0019074Y0011124D01*
X0018365Y0014459D01*
X0018365Y0014459D01*
X0016361Y0017218D01*
X0016361Y0017218D01*
X0016361Y0017218D01*
X0013408Y0018923D01*
X0010017Y0019279D01*
X0010017Y0019279D01*
X0006774Y0018225D01*
X0004800Y0016448D01*
X0004800Y0021522D01*
X0006505Y0021522D01*
X0006505Y0026622D01*
X0007306Y0026622D01*
X0007306Y0027422D01*
X0010505Y0027422D01*
X0010505Y0031132D01*
X0010396Y0031539D01*
X0010186Y0031904D01*
X0009888Y0032202D01*
X0009523Y0032413D01*
X0009116Y0032522D01*
X0007306Y0032522D01*
X0007306Y0027422D01*
X0006505Y0027422D01*
X0006505Y0032522D01*
X0004800Y0032522D01*
X0004800Y0127847D01*
X0006774Y0126070D01*
X0010017Y0125016D01*
X0013408Y0125373D01*
X0016361Y0127077D01*
X0016361Y0127077D01*
X0016361Y0127077D01*
X0018365Y0129836D01*
X0019074Y0133171D01*
X0018365Y0136506D01*
X0018365Y0136506D01*
X0016375Y0139245D01*
X0186735Y0139245D01*
X0185342Y0137991D01*
X0183956Y0134876D01*
X0183956Y0131466D01*
X0185342Y0128351D01*
X0185342Y0128351D01*
X0185342Y0128351D01*
X0187876Y0126070D01*
X0187876Y0126070D01*
X0191119Y0125016D01*
X0191119Y0125016D01*
X0194510Y0125373D01*
X0197463Y0127077D01*
X0197463Y0127077D01*
X0197463Y0127077D01*
X0198050Y0127886D01*
X0198050Y0104250D01*
X0176000Y0104250D01*
X0176000Y0040250D01*
X0198050Y0040250D01*
X0198050Y0016410D01*
X0197463Y0017218D01*
X0194510Y0018923D01*
X0191119Y0019279D01*
X0187876Y0018225D01*
X0185342Y0015944D01*
X0183956Y0012829D01*
X0183956Y0009419D01*
X0185342Y0006304D01*
X0185342Y0006304D01*
X0186735Y0005050D01*
X0172650Y0005050D01*
X0173674Y0006074D01*
X0178925Y0006074D01*
X0179979Y0007128D01*
X0179979Y0015120D01*
X0178925Y0016174D01*
X0173556Y0016174D01*
X0167709Y0022021D01*
X0167625Y0022223D01*
X0166894Y0022954D01*
X0165938Y0023350D01*
X0155077Y0023350D01*
X0143100Y0035327D01*
X0143100Y0067389D01*
X0143287Y0066937D01*
X0144187Y0066037D01*
X0145363Y0065550D01*
X0146637Y0065550D01*
X0147813Y0066037D01*
X0148713Y0066937D01*
X0149200Y0068113D01*
X0149200Y0069387D01*
X0148713Y0070563D01*
X0148600Y0070675D01*
X0148600Y0129700D01*
X0149210Y0130311D01*
X0149929Y0132046D01*
X0150648Y0130311D01*
X0152069Y0128890D01*
X0152400Y0128753D01*
X0152400Y0087175D01*
X0152287Y0087063D01*
X0151800Y0085887D01*
X0151800Y0084613D01*
X0152287Y0083437D01*
X0153187Y0082537D01*
X0154363Y0082050D01*
X0155637Y0082050D01*
X0156813Y0082537D01*
X0157713Y0083437D01*
X0158200Y0084613D01*
X0158200Y0085887D01*
X0157713Y0087063D01*
X0157600Y0087175D01*
X0157600Y0128811D01*
X0157790Y0128890D01*
X0159210Y0130311D01*
X0159929Y0132046D01*
X0160648Y0130311D01*
X0162069Y0128890D01*
X0163925Y0128121D01*
X0165934Y0128121D01*
X0167790Y0128890D01*
X0169210Y0130311D01*
X0169879Y0131925D01*
X0169879Y0129176D01*
X0170934Y0128121D01*
X0178925Y0128121D01*
X0179979Y0129176D01*
X0179979Y0137167D01*
X0178925Y0138221D01*
X0170934Y0138221D01*
X0169879Y0137167D01*
X0169879Y0134417D01*
X0169210Y0136032D01*
X0167790Y0137452D01*
X0165934Y0138221D01*
X0163925Y0138221D01*
X0162069Y0137452D01*
X0160648Y0136032D01*
X0159929Y0134296D01*
X0159210Y0136032D01*
X0157790Y0137452D01*
X0155934Y0138221D01*
X0153925Y0138221D01*
X0152069Y0137452D01*
X0150648Y0136032D01*
X0149929Y0134296D01*
X0149210Y0136032D01*
X0147790Y0137452D01*
X0145934Y0138221D01*
X0143925Y0138221D01*
X0142069Y0137452D01*
X0140648Y0136032D01*
X0139929Y0134296D01*
X0139210Y0136032D01*
X0137790Y0137452D01*
X0135934Y0138221D01*
X0133925Y0138221D01*
X0132069Y0137452D01*
X0130648Y0136032D01*
X0129929Y0134296D01*
X0129210Y0136032D01*
X0127790Y0137452D01*
X0125934Y0138221D01*
X0123925Y0138221D01*
X0122069Y0137452D01*
X0120648Y0136032D01*
X0119929Y0134296D01*
X0119210Y0136032D01*
X0117790Y0137452D01*
X0115934Y0138221D01*
X0113925Y0138221D01*
X0112069Y0137452D01*
X0110648Y0136032D01*
X0109929Y0134296D01*
X0109210Y0136032D01*
X0107790Y0137452D01*
X0105934Y0138221D01*
X0103925Y0138221D01*
X0102069Y0137452D01*
X0100648Y0136032D01*
X0099929Y0134296D01*
X0099210Y0136032D01*
X0097790Y0137452D01*
X0095934Y0138221D01*
X0093925Y0138221D01*
X0092069Y0137452D01*
X0090648Y0136032D01*
X0089929Y0134296D01*
X0089210Y0136032D01*
X0087790Y0137452D01*
X0085934Y0138221D01*
X0083925Y0138221D01*
X0082069Y0137452D01*
X0080648Y0136032D01*
X0079929Y0134296D01*
X0079210Y0136032D01*
X0077790Y0137452D01*
X0075934Y0138221D01*
X0073925Y0138221D01*
X0072069Y0137452D01*
X0070648Y0136032D01*
X0069929Y0134296D01*
X0069210Y0136032D01*
X0067790Y0137452D01*
X0065934Y0138221D01*
X0063925Y0138221D01*
X0062069Y0137452D01*
X0060648Y0136032D01*
X0059879Y0134176D01*
X0059879Y0132167D01*
X0060648Y0130311D01*
X0062069Y0128890D01*
X0063925Y0128121D01*
X0065934Y0128121D01*
X0066500Y0128356D01*
X0074600Y0120256D01*
X0074600Y0067150D01*
X0047794Y0067150D01*
X0050694Y0070050D01*
X0051137Y0070050D01*
X0052313Y0070537D01*
X0053213Y0071437D01*
X0053700Y0072613D01*
X0053700Y0073887D01*
X0053213Y0075063D01*
X0052313Y0075963D01*
X0051137Y0076450D01*
X0049863Y0076450D01*
X0048687Y0075963D01*
X0048375Y0075650D01*
X0047611Y0075650D01*
X0043900Y0084722D01*
X0043900Y0084727D01*
X0043720Y0085163D01*
X0043541Y0085601D01*
X0043537Y0085604D01*
X0043535Y0085609D01*
X0043201Y0085943D01*
X0042868Y0086279D01*
X0042863Y0086281D01*
X0037994Y0091150D01*
X0063006Y0091150D01*
X0059465Y0087609D01*
X0059100Y0086727D01*
X0059100Y0081375D01*
X0058787Y0081063D01*
X0058300Y0079887D01*
X0058300Y0079830D01*
X0058043Y0080449D01*
X0057199Y0081293D01*
X0056097Y0081750D01*
X0054903Y0081750D01*
X0053801Y0081293D01*
X0052957Y0080449D01*
X0052500Y0079347D01*
X0052500Y0078153D01*
X0052957Y0077051D01*
X0053801Y0076207D01*
X0054903Y0075750D01*
X0055106Y0075750D01*
X0056465Y0074391D01*
X0057141Y0073715D01*
X0058023Y0073350D01*
X0066907Y0073350D01*
X0067789Y0073715D01*
X0067983Y0073910D01*
X0068699Y0074207D01*
X0069543Y0075051D01*
X0070000Y0076153D01*
X0070000Y0077347D01*
X0069543Y0078449D01*
X0068699Y0079293D01*
X0067597Y0079750D01*
X0066403Y0079750D01*
X0065301Y0079293D01*
X0064700Y0078693D01*
X0064700Y0079887D01*
X0064213Y0081063D01*
X0063900Y0081375D01*
X0063900Y0085256D01*
X0065537Y0086893D01*
X0066363Y0086550D01*
X0067637Y0086550D01*
X0068813Y0087037D01*
X0069713Y0087937D01*
X0070200Y0089113D01*
X0070200Y0090387D01*
X0069713Y0091563D01*
X0068813Y0092463D01*
X0067637Y0092950D01*
X0066363Y0092950D01*
X0065187Y0092463D01*
X0064875Y0092150D01*
X0064577Y0092150D01*
X0064704Y0092277D01*
X0071477Y0099050D01*
X0071637Y0099050D01*
X0072813Y0099537D01*
X0073713Y0100437D01*
X0074200Y0101613D01*
X0074200Y0102887D01*
X0073713Y0104063D01*
X0072813Y0104963D01*
X0071637Y0105450D01*
X0070363Y0105450D01*
X0069187Y0104963D01*
X0068287Y0104063D01*
X0067800Y0102887D01*
X0067800Y0102727D01*
X0061423Y0096350D01*
X0028483Y0096350D01*
X0027527Y0095954D01*
X0026796Y0095223D01*
X0026796Y0095223D01*
X0017527Y0085954D01*
X0016796Y0085223D01*
X0016400Y0084267D01*
X0016400Y0042733D01*
X0016796Y0041777D01*
X0023647Y0034926D01*
X0023993Y0034569D01*
X0024012Y0034561D01*
X0024027Y0034546D01*
X0024486Y0034356D01*
X0024942Y0034158D01*
X0024963Y0034158D01*
X0024983Y0034150D01*
X0025480Y0034150D01*
X0057295Y0033653D01*
X0060533Y0033190D01*
X0067606Y0031619D01*
X0068187Y0031037D01*
X0069363Y0030550D01*
X0070136Y0030550D01*
X0068935Y0029177D01*
X0030006Y0030138D01*
X0029977Y0030150D01*
X0029529Y0030150D01*
X0029082Y0030161D01*
X0029053Y0030150D01*
X0026455Y0030150D01*
X0026455Y0031667D01*
X0025401Y0032722D01*
X0019910Y0032722D01*
X0018856Y0031667D01*
X0018856Y0022376D01*
X0019910Y0021322D01*
X0025401Y0021322D01*
X0026455Y0022376D01*
X0026455Y0025350D01*
X0029470Y0025350D01*
X0069576Y0024360D01*
X0069683Y0024324D01*
X0070050Y0024348D01*
X0070418Y0024339D01*
X0070523Y0024380D01*
X0070636Y0024387D01*
X0070966Y0024550D01*
X0071309Y0024682D01*
X0071391Y0024760D01*
X0071492Y0024810D01*
X0071734Y0025087D01*
X0072000Y0025341D01*
X0072046Y0025444D01*
X0078754Y0033109D01*
X0079035Y0033391D01*
X0079066Y0033467D01*
X0079121Y0033529D01*
X0079248Y0033905D01*
X0079400Y0034273D01*
X0079400Y0034355D01*
X0079426Y0034433D01*
X0079400Y0034830D01*
X0079400Y0048407D01*
X0079543Y0048551D01*
X0080000Y0049653D01*
X0080000Y0050847D01*
X0079543Y0051949D01*
X0078699Y0052793D01*
X0077597Y0053250D01*
X0076403Y0053250D01*
X0075301Y0052793D01*
X0074457Y0051949D01*
X0074000Y0050847D01*
X0074000Y0049653D01*
X0074457Y0048551D01*
X0074600Y0048407D01*
X0074600Y0035652D01*
X0073200Y0034052D01*
X0073200Y0034387D01*
X0072713Y0035563D01*
X0072600Y0035675D01*
X0072600Y0042825D01*
X0072713Y0042937D01*
X0073200Y0044113D01*
X0073200Y0045387D01*
X0072713Y0046563D01*
X0071813Y0047463D01*
X0070637Y0047950D01*
X0069363Y0047950D01*
X0068187Y0047463D01*
X0067287Y0046563D01*
X0066800Y0045387D01*
X0066800Y0044113D01*
X0067287Y0042937D01*
X0067400Y0042825D01*
X0067400Y0036991D01*
X0063747Y0037803D01*
X0064313Y0038037D01*
X0065213Y0038937D01*
X0065700Y0040113D01*
X0065700Y0041387D01*
X0065213Y0042563D01*
X0064313Y0043463D01*
X0063137Y0043950D01*
X0061863Y0043950D01*
X0060687Y0043463D01*
X0060575Y0043350D01*
X0049716Y0043350D01*
X0049419Y0043400D01*
X0049204Y0043350D01*
X0048983Y0043350D01*
X0048705Y0043235D01*
X0045954Y0042600D01*
X0029327Y0042600D01*
X0028600Y0043327D01*
X0028600Y0075825D01*
X0028713Y0075937D01*
X0029200Y0077113D01*
X0029200Y0078387D01*
X0028713Y0079563D01*
X0027813Y0080463D01*
X0026637Y0080950D01*
X0025363Y0080950D01*
X0024187Y0080463D01*
X0023287Y0079563D01*
X0022800Y0078387D01*
X0022800Y0077113D01*
X0023287Y0075937D01*
X0023400Y0075825D01*
X0022800Y0077558D02*
X0021600Y0077558D01*
X0021600Y0078756D02*
X0022953Y0078756D01*
X0023679Y0079955D02*
X0021600Y0079955D01*
X0021600Y0081153D02*
X0040174Y0081153D01*
X0040664Y0079955D02*
X0028321Y0079955D01*
X0029047Y0078756D02*
X0041154Y0078756D01*
X0041645Y0077558D02*
X0029200Y0077558D01*
X0028888Y0076359D02*
X0042135Y0076359D01*
X0042625Y0075161D02*
X0028600Y0075161D01*
X0028600Y0073962D02*
X0043116Y0073962D01*
X0043604Y0072764D02*
X0028600Y0072764D01*
X0028600Y0071565D02*
X0044291Y0071565D01*
X0044223Y0070367D02*
X0028600Y0070367D01*
X0028600Y0069168D02*
X0043024Y0069168D01*
X0041826Y0067970D02*
X0028600Y0067970D01*
X0028600Y0066771D02*
X0040627Y0066771D01*
X0039450Y0065573D02*
X0028600Y0065573D01*
X0028600Y0064374D02*
X0039100Y0064374D01*
X0039100Y0063176D02*
X0028600Y0063176D01*
X0028600Y0061977D02*
X0039100Y0061977D01*
X0039100Y0060779D02*
X0028600Y0060779D01*
X0028600Y0059580D02*
X0038805Y0059580D01*
X0038300Y0058382D02*
X0028600Y0058382D01*
X0028600Y0057183D02*
X0038300Y0057183D01*
X0038768Y0055984D02*
X0028600Y0055984D01*
X0028600Y0054786D02*
X0040294Y0054786D01*
X0042706Y0054786D02*
X0092359Y0054786D01*
X0091161Y0053587D02*
X0028600Y0053587D01*
X0028600Y0052389D02*
X0074896Y0052389D01*
X0074142Y0051190D02*
X0028600Y0051190D01*
X0028600Y0049992D02*
X0074000Y0049992D01*
X0074356Y0048793D02*
X0028600Y0048793D01*
X0028600Y0047595D02*
X0068506Y0047595D01*
X0067218Y0046396D02*
X0028600Y0046396D01*
X0028600Y0045198D02*
X0066800Y0045198D01*
X0066847Y0043999D02*
X0028600Y0043999D01*
X0029126Y0042801D02*
X0046824Y0042801D01*
X0060376Y0033213D02*
X0004800Y0033213D01*
X0004800Y0034411D02*
X0024352Y0034411D01*
X0022963Y0035610D02*
X0004800Y0035610D01*
X0004800Y0036808D02*
X0021765Y0036808D01*
X0020566Y0038007D02*
X0004800Y0038007D01*
X0004800Y0039205D02*
X0019368Y0039205D01*
X0018169Y0040404D02*
X0004800Y0040404D01*
X0004800Y0041602D02*
X0016971Y0041602D01*
X0016400Y0042801D02*
X0004800Y0042801D01*
X0004800Y0043999D02*
X0016400Y0043999D01*
X0016400Y0045198D02*
X0004800Y0045198D01*
X0004800Y0046396D02*
X0016400Y0046396D01*
X0016400Y0047595D02*
X0004800Y0047595D01*
X0004800Y0048793D02*
X0016400Y0048793D01*
X0016400Y0049992D02*
X0004800Y0049992D01*
X0004800Y0051190D02*
X0016400Y0051190D01*
X0016400Y0052389D02*
X0004800Y0052389D01*
X0004800Y0053587D02*
X0016400Y0053587D01*
X0016400Y0054786D02*
X0004800Y0054786D01*
X0004800Y0055984D02*
X0016400Y0055984D01*
X0016400Y0057183D02*
X0004800Y0057183D01*
X0004800Y0058382D02*
X0016400Y0058382D01*
X0016400Y0059580D02*
X0004800Y0059580D01*
X0004800Y0060779D02*
X0016400Y0060779D01*
X0016400Y0061977D02*
X0004800Y0061977D01*
X0004800Y0063176D02*
X0016400Y0063176D01*
X0016400Y0064374D02*
X0004800Y0064374D01*
X0004800Y0065573D02*
X0016400Y0065573D01*
X0016400Y0066771D02*
X0004800Y0066771D01*
X0004800Y0067970D02*
X0016400Y0067970D01*
X0016400Y0069168D02*
X0004800Y0069168D01*
X0004800Y0070367D02*
X0016400Y0070367D01*
X0016400Y0071565D02*
X0004800Y0071565D01*
X0004800Y0072764D02*
X0016400Y0072764D01*
X0016400Y0073962D02*
X0004800Y0073962D01*
X0004800Y0075161D02*
X0016400Y0075161D01*
X0016400Y0076359D02*
X0004800Y0076359D01*
X0004800Y0077558D02*
X0016400Y0077558D01*
X0016400Y0078756D02*
X0004800Y0078756D01*
X0004800Y0079955D02*
X0016400Y0079955D01*
X0016400Y0081153D02*
X0004800Y0081153D01*
X0004800Y0082352D02*
X0016400Y0082352D01*
X0016400Y0083550D02*
X0004800Y0083550D01*
X0004800Y0084749D02*
X0016599Y0084749D01*
X0017520Y0085947D02*
X0004800Y0085947D01*
X0004800Y0087146D02*
X0018719Y0087146D01*
X0017527Y0085954D02*
X0017527Y0085954D01*
X0019917Y0088344D02*
X0004800Y0088344D01*
X0004800Y0089543D02*
X0021116Y0089543D01*
X0022314Y0090741D02*
X0004800Y0090741D01*
X0004800Y0091940D02*
X0023513Y0091940D01*
X0024711Y0093138D02*
X0004800Y0093138D01*
X0004800Y0094337D02*
X0025910Y0094337D01*
X0027108Y0095535D02*
X0004800Y0095535D01*
X0004800Y0096734D02*
X0061807Y0096734D01*
X0063005Y0097932D02*
X0004800Y0097932D01*
X0004800Y0099131D02*
X0064204Y0099131D01*
X0065402Y0100329D02*
X0004800Y0100329D01*
X0004800Y0101528D02*
X0066601Y0101528D01*
X0067799Y0102726D02*
X0004800Y0102726D01*
X0004800Y0103925D02*
X0068230Y0103925D01*
X0069575Y0105123D02*
X0004800Y0105123D01*
X0004800Y0106322D02*
X0074600Y0106322D01*
X0074600Y0107520D02*
X0004800Y0107520D01*
X0004800Y0108719D02*
X0034788Y0108719D01*
X0034457Y0109051D02*
X0035301Y0108207D01*
X0036403Y0107750D01*
X0037597Y0107750D01*
X0038699Y0108207D01*
X0039543Y0109051D01*
X0040000Y0110153D01*
X0040000Y0111347D01*
X0039600Y0112312D01*
X0039600Y0123688D01*
X0040000Y0124653D01*
X0040000Y0125847D01*
X0039543Y0126949D01*
X0038699Y0127793D01*
X0037597Y0128250D01*
X0036403Y0128250D01*
X0035301Y0127793D01*
X0034457Y0126949D01*
X0034000Y0125847D01*
X0034000Y0124653D01*
X0034400Y0123688D01*
X0034400Y0112312D01*
X0034000Y0111347D01*
X0034000Y0110153D01*
X0034457Y0109051D01*
X0034098Y0109918D02*
X0004800Y0109918D01*
X0004800Y0111116D02*
X0034000Y0111116D01*
X0034400Y0112315D02*
X0004800Y0112315D01*
X0004800Y0113513D02*
X0034400Y0113513D01*
X0034400Y0114712D02*
X0004800Y0114712D01*
X0004800Y0115910D02*
X0034400Y0115910D01*
X0034400Y0117109D02*
X0004800Y0117109D01*
X0004800Y0118307D02*
X0034400Y0118307D01*
X0034400Y0119506D02*
X0004800Y0119506D01*
X0004800Y0120704D02*
X0034400Y0120704D01*
X0034400Y0121903D02*
X0004800Y0121903D01*
X0004800Y0123101D02*
X0034400Y0123101D01*
X0034146Y0124300D02*
X0004800Y0124300D01*
X0004800Y0125498D02*
X0008534Y0125498D01*
X0010017Y0125016D02*
X0010017Y0125016D01*
X0006774Y0126070D02*
X0006774Y0126070D01*
X0006078Y0126697D02*
X0004800Y0126697D01*
X0013408Y0125373D02*
X0013408Y0125373D01*
X0013625Y0125498D02*
X0034000Y0125498D01*
X0034352Y0126697D02*
X0015701Y0126697D01*
X0016955Y0127895D02*
X0035547Y0127895D01*
X0038453Y0127895D02*
X0066961Y0127895D01*
X0068159Y0126697D02*
X0039648Y0126697D01*
X0040000Y0125498D02*
X0069358Y0125498D01*
X0070556Y0124300D02*
X0039854Y0124300D01*
X0039600Y0123101D02*
X0071755Y0123101D01*
X0072953Y0121903D02*
X0039600Y0121903D01*
X0039600Y0120704D02*
X0074152Y0120704D01*
X0074600Y0119506D02*
X0039600Y0119506D01*
X0039600Y0118307D02*
X0074600Y0118307D01*
X0074600Y0117109D02*
X0039600Y0117109D01*
X0039600Y0115910D02*
X0074600Y0115910D01*
X0074600Y0114712D02*
X0039600Y0114712D01*
X0039600Y0113513D02*
X0074600Y0113513D01*
X0074600Y0112315D02*
X0039600Y0112315D01*
X0040000Y0111116D02*
X0074600Y0111116D01*
X0074600Y0109918D02*
X0039902Y0109918D01*
X0039212Y0108719D02*
X0074600Y0108719D01*
X0074600Y0105123D02*
X0072425Y0105123D01*
X0073770Y0103925D02*
X0074600Y0103925D01*
X0074600Y0102726D02*
X0074200Y0102726D01*
X0074165Y0101528D02*
X0074600Y0101528D01*
X0074600Y0100329D02*
X0073605Y0100329D01*
X0074600Y0099131D02*
X0071832Y0099131D01*
X0070359Y0097932D02*
X0074600Y0097932D01*
X0074600Y0096734D02*
X0069161Y0096734D01*
X0067962Y0095535D02*
X0074600Y0095535D01*
X0074600Y0094337D02*
X0066764Y0094337D01*
X0065565Y0093138D02*
X0074600Y0093138D01*
X0074600Y0091940D02*
X0069336Y0091940D01*
X0070053Y0090741D02*
X0074600Y0090741D01*
X0074600Y0089543D02*
X0070200Y0089543D01*
X0069881Y0088344D02*
X0074600Y0088344D01*
X0074600Y0087146D02*
X0068921Y0087146D01*
X0067000Y0089750D02*
X0065000Y0089750D01*
X0061500Y0086250D01*
X0061500Y0079250D01*
X0064700Y0078756D02*
X0064764Y0078756D01*
X0064672Y0079955D02*
X0074600Y0079955D01*
X0074600Y0081153D02*
X0064122Y0081153D01*
X0063900Y0082352D02*
X0074600Y0082352D01*
X0074600Y0083550D02*
X0063900Y0083550D01*
X0063900Y0084749D02*
X0074600Y0084749D01*
X0074600Y0085947D02*
X0064591Y0085947D01*
X0060200Y0088344D02*
X0040800Y0088344D01*
X0041998Y0087146D02*
X0059273Y0087146D01*
X0059100Y0085947D02*
X0043197Y0085947D01*
X0043891Y0084749D02*
X0059100Y0084749D01*
X0059100Y0083550D02*
X0044379Y0083550D01*
X0044870Y0082352D02*
X0059100Y0082352D01*
X0058878Y0081153D02*
X0057339Y0081153D01*
X0058248Y0079955D02*
X0058328Y0079955D01*
X0055500Y0078750D02*
X0058500Y0075750D01*
X0066429Y0075750D01*
X0067311Y0076632D01*
X0067118Y0076632D01*
X0067000Y0076750D01*
X0069236Y0078756D02*
X0074600Y0078756D01*
X0074600Y0077558D02*
X0069913Y0077558D01*
X0070000Y0076359D02*
X0074600Y0076359D01*
X0074600Y0075161D02*
X0069589Y0075161D01*
X0068109Y0073962D02*
X0074600Y0073962D01*
X0074600Y0072764D02*
X0053700Y0072764D01*
X0053669Y0073962D02*
X0056894Y0073962D01*
X0055695Y0075161D02*
X0053115Y0075161D01*
X0053648Y0076359D02*
X0051356Y0076359D01*
X0049644Y0076359D02*
X0047321Y0076359D01*
X0046831Y0077558D02*
X0052747Y0077558D01*
X0052500Y0078756D02*
X0046341Y0078756D01*
X0045850Y0079955D02*
X0052752Y0079955D01*
X0053661Y0081153D02*
X0045360Y0081153D01*
X0041500Y0084250D02*
X0032000Y0093750D01*
X0031615Y0090741D02*
X0029668Y0090741D01*
X0028470Y0089543D02*
X0032813Y0089543D01*
X0034012Y0088344D02*
X0027271Y0088344D01*
X0026073Y0087146D02*
X0035210Y0087146D01*
X0036409Y0085947D02*
X0024874Y0085947D01*
X0023676Y0084749D02*
X0037607Y0084749D01*
X0038806Y0083550D02*
X0022477Y0083550D01*
X0021600Y0082352D02*
X0039683Y0082352D01*
X0041500Y0084250D02*
X0046000Y0073250D01*
X0050500Y0073250D01*
X0041500Y0064250D01*
X0041500Y0057750D01*
X0044195Y0059580D02*
X0078000Y0059580D01*
X0078179Y0060779D02*
X0047554Y0060779D01*
X0048436Y0061977D02*
X0078984Y0061977D01*
X0081000Y0059750D02*
X0081500Y0059250D01*
X0114500Y0059250D01*
X0114000Y0064750D02*
X0077000Y0064750D01*
X0077000Y0121250D01*
X0065079Y0133171D01*
X0064929Y0133171D01*
X0069602Y0135086D02*
X0070256Y0135086D01*
X0070901Y0136285D02*
X0068957Y0136285D01*
X0067715Y0137483D02*
X0072143Y0137483D01*
X0074929Y0133171D02*
X0074929Y0132821D01*
X0081000Y0126750D01*
X0081000Y0068750D01*
X0083924Y0067970D02*
X0116400Y0067970D01*
X0115699Y0067293D02*
X0114597Y0067750D01*
X0113403Y0067750D01*
X0112301Y0067293D01*
X0112157Y0067150D01*
X0083584Y0067150D01*
X0084000Y0068153D01*
X0084000Y0069250D01*
X0085097Y0069250D01*
X0086199Y0069707D01*
X0086343Y0069850D01*
X0111157Y0069850D01*
X0111301Y0069707D01*
X0112403Y0069250D01*
X0113597Y0069250D01*
X0114699Y0069707D01*
X0115543Y0070551D01*
X0116000Y0071653D01*
X0116000Y0072847D01*
X0115543Y0073949D01*
X0114699Y0074793D01*
X0113597Y0075250D01*
X0112403Y0075250D01*
X0111301Y0074793D01*
X0111157Y0074650D01*
X0086400Y0074650D01*
X0086400Y0089242D01*
X0086863Y0089050D01*
X0088137Y0089050D01*
X0088600Y0089242D01*
X0088600Y0086375D01*
X0088287Y0086063D01*
X0087800Y0084887D01*
X0087800Y0083613D01*
X0088287Y0082437D01*
X0089187Y0081537D01*
X0090363Y0081050D01*
X0091575Y0081050D01*
X0091300Y0080387D01*
X0091300Y0079113D01*
X0091787Y0077937D01*
X0092687Y0077037D01*
X0093863Y0076550D01*
X0095137Y0076550D01*
X0096313Y0077037D01*
X0096500Y0077225D01*
X0096687Y0077037D01*
X0097863Y0076550D01*
X0099137Y0076550D01*
X0100313Y0077037D01*
X0101213Y0077937D01*
X0101700Y0079113D01*
X0101700Y0080387D01*
X0101213Y0081563D01*
X0100900Y0081875D01*
X0100900Y0095748D01*
X0133464Y0128312D01*
X0133925Y0128121D01*
X0135934Y0128121D01*
X0137097Y0128603D01*
X0136800Y0127887D01*
X0136800Y0126613D01*
X0137287Y0125437D01*
X0137400Y0125325D01*
X0137400Y0120675D01*
X0137287Y0120563D01*
X0136800Y0119387D01*
X0136800Y0118113D01*
X0137287Y0116937D01*
X0138187Y0116037D01*
X0139363Y0115550D01*
X0140637Y0115550D01*
X0141813Y0116037D01*
X0142713Y0116937D01*
X0143200Y0118113D01*
X0143200Y0119387D01*
X0142713Y0120563D01*
X0142600Y0120675D01*
X0142600Y0125325D01*
X0142713Y0125437D01*
X0143200Y0126613D01*
X0143200Y0127887D01*
X0142933Y0128532D01*
X0143400Y0128339D01*
X0143400Y0086611D01*
X0143213Y0087063D01*
X0142313Y0087963D01*
X0141137Y0088450D01*
X0139863Y0088450D01*
X0138687Y0087963D01*
X0137787Y0087063D01*
X0137750Y0086973D01*
X0137713Y0087063D01*
X0136813Y0087963D01*
X0135637Y0088450D01*
X0134363Y0088450D01*
X0133187Y0087963D01*
X0132287Y0087063D01*
X0131800Y0085887D01*
X0131800Y0084613D01*
X0132287Y0083437D01*
X0132400Y0083325D01*
X0132400Y0022272D01*
X0126194Y0016066D01*
X0125934Y0016174D01*
X0123925Y0016174D01*
X0123466Y0015984D01*
X0129204Y0021722D01*
X0129600Y0022678D01*
X0129600Y0083325D01*
X0129713Y0083437D01*
X0130200Y0084613D01*
X0130200Y0085887D01*
X0129713Y0087063D01*
X0128813Y0087963D01*
X0127637Y0088450D01*
X0126363Y0088450D01*
X0125187Y0087963D01*
X0124287Y0087063D01*
X0123800Y0085887D01*
X0123800Y0084613D01*
X0124287Y0083437D01*
X0124400Y0083325D01*
X0124400Y0024272D01*
X0116194Y0016066D01*
X0115934Y0016174D01*
X0113925Y0016174D01*
X0113466Y0015984D01*
X0120473Y0022991D01*
X0121204Y0023722D01*
X0121600Y0024678D01*
X0121600Y0083325D01*
X0121713Y0083437D01*
X0122200Y0084613D01*
X0122200Y0085887D01*
X0121713Y0087063D01*
X0120813Y0087963D01*
X0119637Y0088450D01*
X0118363Y0088450D01*
X0117187Y0087963D01*
X0116287Y0087063D01*
X0115800Y0085887D01*
X0115800Y0084613D01*
X0116287Y0083437D01*
X0116400Y0083325D01*
X0116400Y0066593D01*
X0115699Y0067293D01*
X0116222Y0066771D02*
X0116400Y0066771D01*
X0116400Y0069168D02*
X0084000Y0069168D01*
X0084500Y0072250D02*
X0084000Y0072750D01*
X0084000Y0109250D01*
X0085047Y0110297D01*
X0085047Y0133053D01*
X0084929Y0133171D01*
X0080256Y0135086D02*
X0079602Y0135086D01*
X0078957Y0136285D02*
X0080901Y0136285D01*
X0082143Y0137483D02*
X0077715Y0137483D01*
X0087715Y0137483D02*
X0092143Y0137483D01*
X0090901Y0136285D02*
X0088957Y0136285D01*
X0089602Y0135086D02*
X0090256Y0135086D01*
X0089929Y0132046D02*
X0090648Y0130311D01*
X0092069Y0128890D01*
X0092600Y0128670D01*
X0092600Y0117744D01*
X0087447Y0112591D01*
X0087447Y0128748D01*
X0087790Y0128890D01*
X0089210Y0130311D01*
X0089929Y0132046D01*
X0089699Y0131491D02*
X0090159Y0131491D01*
X0090666Y0130292D02*
X0089192Y0130292D01*
X0087993Y0129094D02*
X0091865Y0129094D01*
X0092600Y0127895D02*
X0087447Y0127895D01*
X0087447Y0126697D02*
X0092600Y0126697D01*
X0092600Y0125498D02*
X0087447Y0125498D01*
X0087447Y0124300D02*
X0092600Y0124300D01*
X0092600Y0123101D02*
X0087447Y0123101D01*
X0087447Y0121903D02*
X0092600Y0121903D01*
X0092600Y0120704D02*
X0087447Y0120704D01*
X0087447Y0119506D02*
X0092600Y0119506D01*
X0092600Y0118307D02*
X0087447Y0118307D01*
X0087447Y0117109D02*
X0091964Y0117109D01*
X0090766Y0115910D02*
X0087447Y0115910D01*
X0087447Y0114712D02*
X0089567Y0114712D01*
X0088369Y0113513D02*
X0087447Y0113513D01*
X0087500Y0109250D02*
X0095000Y0116750D01*
X0095000Y0133100D01*
X0094929Y0133171D01*
X0098957Y0136285D02*
X0100901Y0136285D01*
X0100256Y0135086D02*
X0099602Y0135086D01*
X0097715Y0137483D02*
X0102143Y0137483D01*
X0104929Y0133171D02*
X0105000Y0133100D01*
X0105000Y0120250D01*
X0091000Y0106250D01*
X0091000Y0084250D01*
X0087800Y0084749D02*
X0086400Y0084749D01*
X0086400Y0085947D02*
X0088239Y0085947D01*
X0088600Y0087146D02*
X0086400Y0087146D01*
X0086400Y0088344D02*
X0088600Y0088344D01*
X0087500Y0092250D02*
X0087500Y0109250D01*
X0093400Y0105256D02*
X0093400Y0105036D01*
X0116875Y0128511D01*
X0115934Y0128121D01*
X0113925Y0128121D01*
X0112069Y0128890D01*
X0110648Y0130311D01*
X0109929Y0132046D01*
X0109210Y0130311D01*
X0107790Y0128890D01*
X0107400Y0128729D01*
X0107400Y0119773D01*
X0107035Y0118891D01*
X0106359Y0118215D01*
X0093400Y0105256D01*
X0093400Y0105123D02*
X0093487Y0105123D01*
X0094466Y0106322D02*
X0094686Y0106322D01*
X0095665Y0107520D02*
X0095884Y0107520D01*
X0096863Y0108719D02*
X0097083Y0108719D01*
X0098062Y0109918D02*
X0098281Y0109918D01*
X0099260Y0111116D02*
X0099480Y0111116D01*
X0100459Y0112315D02*
X0100678Y0112315D01*
X0101657Y0113513D02*
X0101877Y0113513D01*
X0102856Y0114712D02*
X0103075Y0114712D01*
X0104054Y0115910D02*
X0104274Y0115910D01*
X0105253Y0117109D02*
X0105472Y0117109D01*
X0106451Y0118307D02*
X0106671Y0118307D01*
X0107289Y0119506D02*
X0107869Y0119506D01*
X0107400Y0120704D02*
X0109068Y0120704D01*
X0110266Y0121903D02*
X0107400Y0121903D01*
X0107400Y0123101D02*
X0111465Y0123101D01*
X0112663Y0124300D02*
X0107400Y0124300D01*
X0107400Y0125498D02*
X0113862Y0125498D01*
X0115060Y0126697D02*
X0107400Y0126697D01*
X0107400Y0127895D02*
X0116259Y0127895D01*
X0111865Y0129094D02*
X0107993Y0129094D01*
X0109192Y0130292D02*
X0110666Y0130292D01*
X0110159Y0131491D02*
X0109699Y0131491D01*
X0109602Y0135086D02*
X0110256Y0135086D01*
X0110901Y0136285D02*
X0108957Y0136285D01*
X0107715Y0137483D02*
X0112143Y0137483D01*
X0117715Y0137483D02*
X0122143Y0137483D01*
X0120901Y0136285D02*
X0118957Y0136285D01*
X0119602Y0135086D02*
X0120256Y0135086D01*
X0124929Y0133171D02*
X0094500Y0102742D01*
X0094500Y0079750D01*
X0091300Y0079955D02*
X0086400Y0079955D01*
X0086400Y0081153D02*
X0090114Y0081153D01*
X0088373Y0082352D02*
X0086400Y0082352D01*
X0086400Y0083550D02*
X0087826Y0083550D01*
X0086400Y0078756D02*
X0091448Y0078756D01*
X0092167Y0077558D02*
X0086400Y0077558D01*
X0086400Y0076359D02*
X0116400Y0076359D01*
X0116400Y0075161D02*
X0113812Y0075161D01*
X0112188Y0075161D02*
X0086400Y0075161D01*
X0084500Y0072250D02*
X0113000Y0072250D01*
X0115359Y0070367D02*
X0116400Y0070367D01*
X0116400Y0071565D02*
X0115963Y0071565D01*
X0116000Y0072764D02*
X0116400Y0072764D01*
X0116400Y0073962D02*
X0115530Y0073962D01*
X0116400Y0077558D02*
X0100833Y0077558D01*
X0101552Y0078756D02*
X0116400Y0078756D01*
X0116400Y0079955D02*
X0101700Y0079955D01*
X0101382Y0081153D02*
X0116400Y0081153D01*
X0116400Y0082352D02*
X0100900Y0082352D01*
X0100900Y0083550D02*
X0116240Y0083550D01*
X0115800Y0084749D02*
X0100900Y0084749D01*
X0100900Y0085947D02*
X0115825Y0085947D01*
X0116370Y0087146D02*
X0100900Y0087146D01*
X0100900Y0088344D02*
X0118108Y0088344D01*
X0119892Y0088344D02*
X0126108Y0088344D01*
X0127892Y0088344D02*
X0134108Y0088344D01*
X0135892Y0088344D02*
X0139608Y0088344D01*
X0141392Y0088344D02*
X0143400Y0088344D01*
X0143400Y0087146D02*
X0143130Y0087146D01*
X0143400Y0089543D02*
X0100900Y0089543D01*
X0100900Y0090741D02*
X0143400Y0090741D01*
X0143400Y0091940D02*
X0100900Y0091940D01*
X0100900Y0093138D02*
X0143400Y0093138D01*
X0143400Y0094337D02*
X0100900Y0094337D01*
X0100900Y0095535D02*
X0143400Y0095535D01*
X0143400Y0096734D02*
X0101886Y0096734D01*
X0103084Y0097932D02*
X0143400Y0097932D01*
X0143400Y0099131D02*
X0104283Y0099131D01*
X0105481Y0100329D02*
X0143400Y0100329D01*
X0143400Y0101528D02*
X0106680Y0101528D01*
X0107878Y0102726D02*
X0143400Y0102726D01*
X0143400Y0103925D02*
X0109077Y0103925D01*
X0110275Y0105123D02*
X0143400Y0105123D01*
X0143400Y0106322D02*
X0111474Y0106322D01*
X0112672Y0107520D02*
X0143400Y0107520D01*
X0143400Y0108719D02*
X0113871Y0108719D01*
X0115069Y0109918D02*
X0143400Y0109918D01*
X0143400Y0111116D02*
X0116268Y0111116D01*
X0117467Y0112315D02*
X0143400Y0112315D01*
X0143400Y0113513D02*
X0118665Y0113513D01*
X0119864Y0114712D02*
X0143400Y0114712D01*
X0143400Y0115910D02*
X0141506Y0115910D01*
X0142784Y0117109D02*
X0143400Y0117109D01*
X0143400Y0118307D02*
X0143200Y0118307D01*
X0143151Y0119506D02*
X0143400Y0119506D01*
X0143400Y0120704D02*
X0142600Y0120704D01*
X0142600Y0121903D02*
X0143400Y0121903D01*
X0143400Y0123101D02*
X0142600Y0123101D01*
X0142600Y0124300D02*
X0143400Y0124300D01*
X0143400Y0125498D02*
X0142738Y0125498D01*
X0143200Y0126697D02*
X0143400Y0126697D01*
X0143400Y0127895D02*
X0143196Y0127895D01*
X0148600Y0127895D02*
X0152400Y0127895D01*
X0152400Y0126697D02*
X0148600Y0126697D01*
X0148600Y0125498D02*
X0152400Y0125498D01*
X0152400Y0124300D02*
X0148600Y0124300D01*
X0148600Y0123101D02*
X0152400Y0123101D01*
X0152400Y0121903D02*
X0148600Y0121903D01*
X0148600Y0120704D02*
X0152400Y0120704D01*
X0152400Y0119506D02*
X0148600Y0119506D01*
X0148600Y0118307D02*
X0152400Y0118307D01*
X0152400Y0117109D02*
X0148600Y0117109D01*
X0148600Y0115910D02*
X0152400Y0115910D01*
X0152400Y0114712D02*
X0148600Y0114712D01*
X0148600Y0113513D02*
X0152400Y0113513D01*
X0152400Y0112315D02*
X0148600Y0112315D01*
X0148600Y0111116D02*
X0152400Y0111116D01*
X0152400Y0109918D02*
X0148600Y0109918D01*
X0148600Y0108719D02*
X0152400Y0108719D01*
X0152400Y0107520D02*
X0148600Y0107520D01*
X0148600Y0106322D02*
X0152400Y0106322D01*
X0152400Y0105123D02*
X0148600Y0105123D01*
X0148600Y0103925D02*
X0152400Y0103925D01*
X0152400Y0102726D02*
X0148600Y0102726D01*
X0148600Y0101528D02*
X0152400Y0101528D01*
X0152400Y0100329D02*
X0148600Y0100329D01*
X0148600Y0099131D02*
X0152400Y0099131D01*
X0152400Y0097932D02*
X0148600Y0097932D01*
X0148600Y0096734D02*
X0152400Y0096734D01*
X0152400Y0095535D02*
X0148600Y0095535D01*
X0148600Y0094337D02*
X0152400Y0094337D01*
X0152400Y0093138D02*
X0148600Y0093138D01*
X0148600Y0091940D02*
X0152400Y0091940D01*
X0152400Y0090741D02*
X0148600Y0090741D01*
X0148600Y0089543D02*
X0152400Y0089543D01*
X0152400Y0088344D02*
X0148600Y0088344D01*
X0148600Y0087146D02*
X0152370Y0087146D01*
X0151825Y0085947D02*
X0148600Y0085947D01*
X0148600Y0084749D02*
X0151800Y0084749D01*
X0152240Y0083550D02*
X0148600Y0083550D01*
X0148600Y0082352D02*
X0153635Y0082352D01*
X0156365Y0082352D02*
X0176000Y0082352D01*
X0176000Y0083550D02*
X0157760Y0083550D01*
X0158200Y0084749D02*
X0176000Y0084749D01*
X0176000Y0085947D02*
X0158175Y0085947D01*
X0157630Y0087146D02*
X0176000Y0087146D01*
X0176000Y0088344D02*
X0157600Y0088344D01*
X0157600Y0089543D02*
X0176000Y0089543D01*
X0176000Y0090741D02*
X0157600Y0090741D01*
X0157600Y0091940D02*
X0176000Y0091940D01*
X0176000Y0093138D02*
X0157600Y0093138D01*
X0157600Y0094337D02*
X0176000Y0094337D01*
X0176000Y0095535D02*
X0157600Y0095535D01*
X0157600Y0096734D02*
X0176000Y0096734D01*
X0176000Y0097932D02*
X0157600Y0097932D01*
X0157600Y0099131D02*
X0176000Y0099131D01*
X0176000Y0100329D02*
X0157600Y0100329D01*
X0157600Y0101528D02*
X0176000Y0101528D01*
X0176000Y0102726D02*
X0157600Y0102726D01*
X0157600Y0103925D02*
X0176000Y0103925D01*
X0157600Y0105123D02*
X0198050Y0105123D01*
X0198050Y0106322D02*
X0157600Y0106322D01*
X0157600Y0107520D02*
X0198050Y0107520D01*
X0198050Y0108719D02*
X0157600Y0108719D01*
X0157600Y0109918D02*
X0198050Y0109918D01*
X0198050Y0111116D02*
X0157600Y0111116D01*
X0157600Y0112315D02*
X0198050Y0112315D01*
X0198050Y0113513D02*
X0157600Y0113513D01*
X0157600Y0114712D02*
X0198050Y0114712D01*
X0198050Y0115910D02*
X0157600Y0115910D01*
X0157600Y0117109D02*
X0198050Y0117109D01*
X0198050Y0118307D02*
X0157600Y0118307D01*
X0157600Y0119506D02*
X0198050Y0119506D01*
X0198050Y0120704D02*
X0157600Y0120704D01*
X0157600Y0121903D02*
X0198050Y0121903D01*
X0198050Y0123101D02*
X0157600Y0123101D01*
X0157600Y0124300D02*
X0198050Y0124300D01*
X0198050Y0125498D02*
X0194728Y0125498D01*
X0194510Y0125373D02*
X0194510Y0125373D01*
X0196804Y0126697D02*
X0198050Y0126697D01*
X0189636Y0125498D02*
X0157600Y0125498D01*
X0157600Y0126697D02*
X0187180Y0126697D01*
X0185849Y0127895D02*
X0157600Y0127895D01*
X0157993Y0129094D02*
X0161865Y0129094D01*
X0160666Y0130292D02*
X0159192Y0130292D01*
X0159699Y0131491D02*
X0160159Y0131491D01*
X0160256Y0135086D02*
X0159602Y0135086D01*
X0158957Y0136285D02*
X0160901Y0136285D01*
X0162143Y0137483D02*
X0157715Y0137483D01*
X0152143Y0137483D02*
X0147715Y0137483D01*
X0148957Y0136285D02*
X0150901Y0136285D01*
X0150256Y0135086D02*
X0149602Y0135086D01*
X0149699Y0131491D02*
X0150159Y0131491D01*
X0150666Y0130292D02*
X0149192Y0130292D01*
X0148600Y0129094D02*
X0151865Y0129094D01*
X0140256Y0135086D02*
X0139602Y0135086D01*
X0138957Y0136285D02*
X0140901Y0136285D01*
X0142143Y0137483D02*
X0137715Y0137483D01*
X0132143Y0137483D02*
X0127715Y0137483D01*
X0128957Y0136285D02*
X0130901Y0136285D01*
X0130256Y0135086D02*
X0129602Y0135086D01*
X0134929Y0133171D02*
X0098500Y0096742D01*
X0098500Y0079750D01*
X0077000Y0064750D02*
X0064000Y0064750D01*
X0063543Y0064750D01*
X0047000Y0064750D01*
X0045500Y0063250D01*
X0044700Y0058382D02*
X0078320Y0058382D01*
X0079358Y0057183D02*
X0044700Y0057183D01*
X0044232Y0055984D02*
X0093558Y0055984D01*
X0089113Y0052389D02*
X0079104Y0052389D01*
X0079858Y0051190D02*
X0088426Y0051190D01*
X0088300Y0049992D02*
X0080000Y0049992D01*
X0079644Y0048793D02*
X0088640Y0048793D01*
X0089630Y0047595D02*
X0079400Y0047595D01*
X0079400Y0046396D02*
X0090621Y0046396D01*
X0089929Y0045198D02*
X0079400Y0045198D01*
X0079400Y0043999D02*
X0089800Y0043999D01*
X0090137Y0042801D02*
X0079400Y0042801D01*
X0079400Y0041602D02*
X0091122Y0041602D01*
X0094878Y0041602D02*
X0116400Y0041602D01*
X0116400Y0040404D02*
X0079400Y0040404D01*
X0079400Y0039205D02*
X0116400Y0039205D01*
X0116400Y0038007D02*
X0079400Y0038007D01*
X0079400Y0036808D02*
X0116400Y0036808D01*
X0116400Y0035610D02*
X0079400Y0035610D01*
X0079419Y0034411D02*
X0116400Y0034411D01*
X0116400Y0033213D02*
X0078857Y0033213D01*
X0077795Y0032014D02*
X0087739Y0032014D01*
X0086978Y0030816D02*
X0076747Y0030816D01*
X0075698Y0029617D02*
X0086800Y0029617D01*
X0087088Y0028419D02*
X0074649Y0028419D01*
X0073600Y0027220D02*
X0087400Y0027220D01*
X0087400Y0026022D02*
X0072552Y0026022D01*
X0071503Y0024823D02*
X0087400Y0024823D01*
X0087400Y0023625D02*
X0026455Y0023625D01*
X0026455Y0024823D02*
X0050806Y0024823D01*
X0051105Y0029617D02*
X0069320Y0029617D01*
X0068722Y0030816D02*
X0026455Y0030816D01*
X0026108Y0032014D02*
X0065825Y0032014D01*
X0072666Y0035610D02*
X0074563Y0035610D01*
X0074600Y0036808D02*
X0072600Y0036808D01*
X0072600Y0038007D02*
X0074600Y0038007D01*
X0074600Y0039205D02*
X0072600Y0039205D01*
X0072600Y0040404D02*
X0074600Y0040404D01*
X0074600Y0041602D02*
X0072600Y0041602D01*
X0072600Y0042801D02*
X0074600Y0042801D01*
X0074600Y0043999D02*
X0073153Y0043999D01*
X0073200Y0045198D02*
X0074600Y0045198D01*
X0074600Y0046396D02*
X0072782Y0046396D01*
X0071494Y0047595D02*
X0074600Y0047595D01*
X0077000Y0050250D02*
X0077000Y0034750D01*
X0070000Y0026750D01*
X0029500Y0027750D01*
X0025533Y0027750D01*
X0022656Y0027022D01*
X0018856Y0027220D02*
X0007306Y0027220D01*
X0007306Y0026622D02*
X0010505Y0026622D01*
X0010505Y0022911D01*
X0010396Y0022504D01*
X0010186Y0022139D01*
X0009888Y0021841D01*
X0009523Y0021631D01*
X0009116Y0021522D01*
X0007306Y0021522D01*
X0007306Y0026622D01*
X0007306Y0026022D02*
X0006505Y0026022D01*
X0006505Y0024823D02*
X0007306Y0024823D01*
X0007306Y0023625D02*
X0006505Y0023625D01*
X0006505Y0022426D02*
X0007306Y0022426D01*
X0004800Y0021228D02*
X0087400Y0021228D01*
X0087400Y0022426D02*
X0026455Y0022426D01*
X0026375Y0020150D02*
X0024625Y0020150D01*
X0023008Y0019480D01*
X0021770Y0018242D01*
X0021100Y0016625D01*
X0021100Y0014875D01*
X0021770Y0013258D01*
X0023008Y0012020D01*
X0024625Y0011350D01*
X0026375Y0011350D01*
X0027992Y0012020D01*
X0029230Y0013258D01*
X0029900Y0014875D01*
X0029900Y0016625D01*
X0029230Y0018242D01*
X0027992Y0019480D01*
X0026375Y0020150D01*
X0026667Y0020029D02*
X0043333Y0020029D01*
X0043625Y0020150D02*
X0042008Y0019480D01*
X0040770Y0018242D01*
X0040100Y0016625D01*
X0040100Y0014875D01*
X0040770Y0013258D01*
X0042008Y0012020D01*
X0043625Y0011350D01*
X0045375Y0011350D01*
X0046992Y0012020D01*
X0048230Y0013258D01*
X0048900Y0014875D01*
X0048900Y0016625D01*
X0048230Y0018242D01*
X0046992Y0019480D01*
X0045375Y0020150D01*
X0043625Y0020150D01*
X0045667Y0020029D02*
X0087400Y0020029D01*
X0087400Y0018831D02*
X0047642Y0018831D01*
X0048483Y0017632D02*
X0087400Y0017632D01*
X0087400Y0016434D02*
X0048900Y0016434D01*
X0048900Y0015235D02*
X0061898Y0015235D01*
X0062069Y0015405D02*
X0060648Y0013985D01*
X0059879Y0012129D01*
X0059879Y0010120D01*
X0060648Y0008263D01*
X0062069Y0006843D01*
X0063925Y0006074D01*
X0065934Y0006074D01*
X0067790Y0006843D01*
X0069210Y0008263D01*
X0069979Y0010120D01*
X0069979Y0012129D01*
X0069210Y0013985D01*
X0067790Y0015405D01*
X0065934Y0016174D01*
X0063925Y0016174D01*
X0062069Y0015405D01*
X0060700Y0014037D02*
X0048553Y0014037D01*
X0047811Y0012838D02*
X0060173Y0012838D01*
X0059879Y0011640D02*
X0046074Y0011640D01*
X0042926Y0011640D02*
X0027074Y0011640D01*
X0028811Y0012838D02*
X0041189Y0012838D01*
X0040447Y0014037D02*
X0029553Y0014037D01*
X0029900Y0015235D02*
X0040100Y0015235D01*
X0040100Y0016434D02*
X0029900Y0016434D01*
X0029483Y0017632D02*
X0040517Y0017632D01*
X0041358Y0018831D02*
X0028642Y0018831D01*
X0024333Y0020029D02*
X0004800Y0020029D01*
X0004800Y0018831D02*
X0008637Y0018831D01*
X0006774Y0018225D02*
X0006774Y0018225D01*
X0006115Y0017632D02*
X0004800Y0017632D01*
X0010351Y0022426D02*
X0018856Y0022426D01*
X0018856Y0023625D02*
X0010505Y0023625D01*
X0010505Y0024823D02*
X0018856Y0024823D01*
X0018856Y0026022D02*
X0010505Y0026022D01*
X0010505Y0028419D02*
X0018856Y0028419D01*
X0018856Y0029617D02*
X0010505Y0029617D01*
X0010505Y0030816D02*
X0018856Y0030816D01*
X0019203Y0032014D02*
X0010076Y0032014D01*
X0007306Y0032014D02*
X0006505Y0032014D01*
X0006505Y0030816D02*
X0007306Y0030816D01*
X0007306Y0029617D02*
X0006505Y0029617D01*
X0006505Y0028419D02*
X0007306Y0028419D01*
X0013408Y0018923D02*
X0013408Y0018923D01*
X0013567Y0018831D02*
X0022358Y0018831D01*
X0021517Y0017632D02*
X0015643Y0017632D01*
X0016931Y0016434D02*
X0021100Y0016434D01*
X0021100Y0015235D02*
X0017801Y0015235D01*
X0018455Y0014037D02*
X0021447Y0014037D01*
X0022189Y0012838D02*
X0018710Y0012838D01*
X0018964Y0011640D02*
X0023926Y0011640D01*
X0018929Y0010441D02*
X0059879Y0010441D01*
X0060242Y0009243D02*
X0018674Y0009243D01*
X0018419Y0008044D02*
X0060867Y0008044D01*
X0062066Y0006846D02*
X0017680Y0006846D01*
X0018365Y0007789D02*
X0018365Y0007789D01*
X0016809Y0005647D02*
X0089426Y0005647D01*
X0088228Y0006846D02*
X0087792Y0006846D01*
X0082066Y0006846D02*
X0077215Y0006846D01*
X0077471Y0006976D02*
X0078089Y0007425D01*
X0078628Y0007964D01*
X0079077Y0008582D01*
X0079424Y0009262D01*
X0079660Y0009988D01*
X0079779Y0010742D01*
X0079779Y0010849D01*
X0075204Y0010849D01*
X0075204Y0006274D01*
X0075311Y0006274D01*
X0076065Y0006393D01*
X0076791Y0006629D01*
X0077471Y0006976D01*
X0078686Y0008044D02*
X0080867Y0008044D01*
X0080242Y0009243D02*
X0079414Y0009243D01*
X0079731Y0010441D02*
X0079879Y0010441D01*
X0079779Y0011399D02*
X0079779Y0011506D01*
X0079660Y0012260D01*
X0079424Y0012986D01*
X0079077Y0013666D01*
X0078628Y0014284D01*
X0078089Y0014823D01*
X0077471Y0015272D01*
X0076791Y0015619D01*
X0076065Y0015855D01*
X0075311Y0015974D01*
X0075204Y0015974D01*
X0075204Y0011399D01*
X0074654Y0011399D01*
X0074654Y0010849D01*
X0070079Y0010849D01*
X0070079Y0010742D01*
X0070199Y0009988D01*
X0070434Y0009262D01*
X0070781Y0008582D01*
X0071230Y0007964D01*
X0071770Y0007425D01*
X0072387Y0006976D01*
X0073067Y0006629D01*
X0073793Y0006393D01*
X0074547Y0006274D01*
X0074654Y0006274D01*
X0074654Y0010849D01*
X0075204Y0010849D01*
X0075204Y0011399D01*
X0079779Y0011399D01*
X0079758Y0011640D02*
X0079879Y0011640D01*
X0080173Y0012838D02*
X0079472Y0012838D01*
X0078808Y0014037D02*
X0080700Y0014037D01*
X0081898Y0015235D02*
X0077522Y0015235D01*
X0075204Y0015235D02*
X0074654Y0015235D01*
X0074654Y0015974D02*
X0074547Y0015974D01*
X0073793Y0015855D01*
X0073067Y0015619D01*
X0072387Y0015272D01*
X0071770Y0014823D01*
X0071230Y0014284D01*
X0070781Y0013666D01*
X0070434Y0012986D01*
X0070199Y0012260D01*
X0070079Y0011506D01*
X0070079Y0011399D01*
X0074654Y0011399D01*
X0074654Y0015974D01*
X0072336Y0015235D02*
X0067960Y0015235D01*
X0069158Y0014037D02*
X0071050Y0014037D01*
X0070386Y0012838D02*
X0069685Y0012838D01*
X0069979Y0011640D02*
X0070100Y0011640D01*
X0070127Y0010441D02*
X0069979Y0010441D01*
X0069616Y0009243D02*
X0070444Y0009243D01*
X0071172Y0008044D02*
X0068991Y0008044D01*
X0067792Y0006846D02*
X0072643Y0006846D01*
X0074654Y0006846D02*
X0075204Y0006846D01*
X0075204Y0008044D02*
X0074654Y0008044D01*
X0074654Y0009243D02*
X0075204Y0009243D01*
X0075204Y0010441D02*
X0074654Y0010441D01*
X0074654Y0011640D02*
X0075204Y0011640D01*
X0075204Y0012838D02*
X0074654Y0012838D01*
X0074654Y0014037D02*
X0075204Y0014037D01*
X0092600Y0016434D02*
X0106562Y0016434D01*
X0107760Y0017632D02*
X0092600Y0017632D01*
X0092600Y0018831D02*
X0108959Y0018831D01*
X0110157Y0020029D02*
X0092600Y0020029D01*
X0092600Y0021228D02*
X0111356Y0021228D01*
X0112554Y0022426D02*
X0092600Y0022426D01*
X0092600Y0023625D02*
X0113753Y0023625D01*
X0114951Y0024823D02*
X0092600Y0024823D01*
X0092600Y0026022D02*
X0116150Y0026022D01*
X0116400Y0027220D02*
X0092600Y0027220D01*
X0092912Y0028419D02*
X0116400Y0028419D01*
X0116400Y0029617D02*
X0093200Y0029617D01*
X0093022Y0030816D02*
X0116400Y0030816D01*
X0116400Y0032014D02*
X0092261Y0032014D01*
X0095863Y0042801D02*
X0116400Y0042801D01*
X0116400Y0043999D02*
X0096426Y0043999D01*
X0097625Y0045198D02*
X0116400Y0045198D01*
X0116400Y0046396D02*
X0098823Y0046396D01*
X0100022Y0047595D02*
X0113130Y0047595D01*
X0121600Y0047595D02*
X0124400Y0047595D01*
X0124400Y0048793D02*
X0121600Y0048793D01*
X0121600Y0049992D02*
X0124400Y0049992D01*
X0124400Y0051190D02*
X0121600Y0051190D01*
X0121600Y0052389D02*
X0124400Y0052389D01*
X0124400Y0053587D02*
X0121600Y0053587D01*
X0121600Y0054786D02*
X0124400Y0054786D01*
X0124400Y0055984D02*
X0121600Y0055984D01*
X0121600Y0057183D02*
X0124400Y0057183D01*
X0124400Y0058382D02*
X0121600Y0058382D01*
X0121600Y0059580D02*
X0124400Y0059580D01*
X0124400Y0060779D02*
X0121600Y0060779D01*
X0121600Y0061977D02*
X0124400Y0061977D01*
X0124400Y0063176D02*
X0121600Y0063176D01*
X0121600Y0064374D02*
X0124400Y0064374D01*
X0124400Y0065573D02*
X0121600Y0065573D01*
X0121600Y0066771D02*
X0124400Y0066771D01*
X0124400Y0067970D02*
X0121600Y0067970D01*
X0121600Y0069168D02*
X0124400Y0069168D01*
X0124400Y0070367D02*
X0121600Y0070367D01*
X0121600Y0071565D02*
X0124400Y0071565D01*
X0124400Y0072764D02*
X0121600Y0072764D01*
X0121600Y0073962D02*
X0124400Y0073962D01*
X0124400Y0075161D02*
X0121600Y0075161D01*
X0121600Y0076359D02*
X0124400Y0076359D01*
X0124400Y0077558D02*
X0121600Y0077558D01*
X0121600Y0078756D02*
X0124400Y0078756D01*
X0124400Y0079955D02*
X0121600Y0079955D01*
X0121600Y0081153D02*
X0124400Y0081153D01*
X0124400Y0082352D02*
X0121600Y0082352D01*
X0121760Y0083550D02*
X0124240Y0083550D01*
X0123800Y0084749D02*
X0122200Y0084749D01*
X0122175Y0085947D02*
X0123825Y0085947D01*
X0124370Y0087146D02*
X0121630Y0087146D01*
X0129630Y0087146D02*
X0132370Y0087146D01*
X0131825Y0085947D02*
X0130175Y0085947D01*
X0130200Y0084749D02*
X0131800Y0084749D01*
X0132240Y0083550D02*
X0129760Y0083550D01*
X0129600Y0082352D02*
X0132400Y0082352D01*
X0132400Y0081153D02*
X0129600Y0081153D01*
X0129600Y0079955D02*
X0132400Y0079955D01*
X0132400Y0078756D02*
X0129600Y0078756D01*
X0129600Y0077558D02*
X0132400Y0077558D01*
X0132400Y0076359D02*
X0129600Y0076359D01*
X0129600Y0075161D02*
X0132400Y0075161D01*
X0132400Y0073962D02*
X0129600Y0073962D01*
X0129600Y0072764D02*
X0132400Y0072764D01*
X0132400Y0071565D02*
X0129600Y0071565D01*
X0129600Y0070367D02*
X0132400Y0070367D01*
X0132400Y0069168D02*
X0129600Y0069168D01*
X0129600Y0067970D02*
X0132400Y0067970D01*
X0132400Y0066771D02*
X0129600Y0066771D01*
X0129600Y0065573D02*
X0132400Y0065573D01*
X0132400Y0064374D02*
X0129600Y0064374D01*
X0129600Y0063176D02*
X0132400Y0063176D01*
X0132400Y0061977D02*
X0129600Y0061977D01*
X0129600Y0060779D02*
X0132400Y0060779D01*
X0132400Y0059580D02*
X0129600Y0059580D01*
X0129600Y0058382D02*
X0132400Y0058382D01*
X0132400Y0057183D02*
X0129600Y0057183D01*
X0129600Y0055984D02*
X0132400Y0055984D01*
X0132400Y0054786D02*
X0129600Y0054786D01*
X0129600Y0053587D02*
X0132400Y0053587D01*
X0132400Y0052389D02*
X0129600Y0052389D01*
X0129600Y0051190D02*
X0132400Y0051190D01*
X0132400Y0049992D02*
X0129600Y0049992D01*
X0129600Y0048793D02*
X0132400Y0048793D01*
X0132400Y0047595D02*
X0129600Y0047595D01*
X0129600Y0046396D02*
X0132400Y0046396D01*
X0132400Y0045198D02*
X0129600Y0045198D01*
X0129600Y0043999D02*
X0132400Y0043999D01*
X0132400Y0042801D02*
X0129600Y0042801D01*
X0129600Y0041602D02*
X0132400Y0041602D01*
X0132400Y0040404D02*
X0129600Y0040404D01*
X0129600Y0039205D02*
X0132400Y0039205D01*
X0132400Y0038007D02*
X0129600Y0038007D01*
X0129600Y0036808D02*
X0132400Y0036808D01*
X0132400Y0035610D02*
X0129600Y0035610D01*
X0129600Y0034411D02*
X0132400Y0034411D01*
X0132400Y0033213D02*
X0129600Y0033213D01*
X0129600Y0032014D02*
X0132400Y0032014D01*
X0132400Y0030816D02*
X0129600Y0030816D01*
X0129600Y0029617D02*
X0132400Y0029617D01*
X0132400Y0028419D02*
X0129600Y0028419D01*
X0129600Y0027220D02*
X0132400Y0027220D01*
X0132400Y0026022D02*
X0129600Y0026022D01*
X0129600Y0024823D02*
X0132400Y0024823D01*
X0132400Y0023625D02*
X0129600Y0023625D01*
X0129496Y0022426D02*
X0132400Y0022426D01*
X0131356Y0021228D02*
X0128710Y0021228D01*
X0127511Y0020029D02*
X0130157Y0020029D01*
X0128959Y0018831D02*
X0126313Y0018831D01*
X0125114Y0017632D02*
X0127760Y0017632D01*
X0126562Y0016434D02*
X0123916Y0016434D01*
X0120157Y0020029D02*
X0117511Y0020029D01*
X0116313Y0018831D02*
X0118959Y0018831D01*
X0117760Y0017632D02*
X0115114Y0017632D01*
X0113916Y0016434D02*
X0116562Y0016434D01*
X0118710Y0021228D02*
X0121356Y0021228D01*
X0122554Y0022426D02*
X0119908Y0022426D01*
X0121107Y0023625D02*
X0123753Y0023625D01*
X0124400Y0024823D02*
X0121600Y0024823D01*
X0121600Y0026022D02*
X0124400Y0026022D01*
X0124400Y0027220D02*
X0121600Y0027220D01*
X0121600Y0028419D02*
X0124400Y0028419D01*
X0124400Y0029617D02*
X0121600Y0029617D01*
X0121600Y0030816D02*
X0124400Y0030816D01*
X0124400Y0032014D02*
X0121600Y0032014D01*
X0121600Y0033213D02*
X0124400Y0033213D01*
X0124400Y0034411D02*
X0121600Y0034411D01*
X0121600Y0035610D02*
X0124400Y0035610D01*
X0124400Y0036808D02*
X0121600Y0036808D01*
X0121600Y0038007D02*
X0124400Y0038007D01*
X0124400Y0039205D02*
X0121600Y0039205D01*
X0121600Y0040404D02*
X0124400Y0040404D01*
X0124400Y0041602D02*
X0121600Y0041602D01*
X0121600Y0042801D02*
X0124400Y0042801D01*
X0124400Y0043999D02*
X0121600Y0043999D01*
X0121600Y0045198D02*
X0124400Y0045198D01*
X0124400Y0046396D02*
X0121600Y0046396D01*
X0137600Y0046396D02*
X0137900Y0046396D01*
X0137900Y0045198D02*
X0137600Y0045198D01*
X0137600Y0043999D02*
X0137900Y0043999D01*
X0137900Y0042801D02*
X0137600Y0042801D01*
X0137600Y0041602D02*
X0137900Y0041602D01*
X0137900Y0040404D02*
X0137600Y0040404D01*
X0137600Y0039205D02*
X0137900Y0039205D01*
X0137900Y0038007D02*
X0137600Y0038007D01*
X0137600Y0036808D02*
X0137900Y0036808D01*
X0137900Y0035610D02*
X0137600Y0035610D01*
X0137600Y0034411D02*
X0137900Y0034411D01*
X0137900Y0033733D02*
X0138296Y0032777D01*
X0151796Y0019277D01*
X0152527Y0018546D01*
X0153483Y0018150D01*
X0164226Y0018150D01*
X0166392Y0015984D01*
X0165934Y0016174D01*
X0163925Y0016174D01*
X0162069Y0015405D01*
X0160648Y0013985D01*
X0159929Y0012249D01*
X0159210Y0013985D01*
X0157790Y0015405D01*
X0155934Y0016174D01*
X0153925Y0016174D01*
X0152069Y0015405D01*
X0150648Y0013985D01*
X0149929Y0012249D01*
X0149210Y0013985D01*
X0147790Y0015405D01*
X0145934Y0016174D01*
X0143925Y0016174D01*
X0142069Y0015405D01*
X0140648Y0013985D01*
X0139929Y0012249D01*
X0139210Y0013985D01*
X0137790Y0015405D01*
X0135934Y0016174D01*
X0133925Y0016174D01*
X0133466Y0015984D01*
X0137204Y0019722D01*
X0137600Y0020678D01*
X0137600Y0021712D01*
X0137600Y0083325D01*
X0137713Y0083437D01*
X0137750Y0083527D01*
X0137787Y0083437D01*
X0137900Y0083325D01*
X0137900Y0033733D01*
X0138115Y0033213D02*
X0137600Y0033213D01*
X0137600Y0032014D02*
X0139059Y0032014D01*
X0140257Y0030816D02*
X0137600Y0030816D01*
X0137600Y0029617D02*
X0141456Y0029617D01*
X0142654Y0028419D02*
X0137600Y0028419D01*
X0137600Y0027220D02*
X0143853Y0027220D01*
X0145051Y0026022D02*
X0137600Y0026022D01*
X0137600Y0024823D02*
X0146250Y0024823D01*
X0147448Y0023625D02*
X0137600Y0023625D01*
X0137600Y0022426D02*
X0148647Y0022426D01*
X0149845Y0021228D02*
X0137600Y0021228D01*
X0137331Y0020029D02*
X0151044Y0020029D01*
X0152242Y0018831D02*
X0136313Y0018831D01*
X0135114Y0017632D02*
X0164744Y0017632D01*
X0165943Y0016434D02*
X0133916Y0016434D01*
X0137960Y0015235D02*
X0141898Y0015235D01*
X0140700Y0014037D02*
X0139158Y0014037D01*
X0139685Y0012838D02*
X0140173Y0012838D01*
X0147960Y0015235D02*
X0151898Y0015235D01*
X0150700Y0014037D02*
X0149158Y0014037D01*
X0149685Y0012838D02*
X0150173Y0012838D01*
X0157960Y0015235D02*
X0161898Y0015235D01*
X0160700Y0014037D02*
X0159158Y0014037D01*
X0159685Y0012838D02*
X0160173Y0012838D01*
X0169701Y0020029D02*
X0198050Y0020029D01*
X0198050Y0018831D02*
X0194670Y0018831D01*
X0194510Y0018923D02*
X0194510Y0018923D01*
X0196746Y0017632D02*
X0198050Y0017632D01*
X0197463Y0017218D02*
X0197463Y0017218D01*
X0198033Y0016434D02*
X0198050Y0016434D01*
X0198050Y0021228D02*
X0168502Y0021228D01*
X0167422Y0022426D02*
X0198050Y0022426D01*
X0198050Y0023625D02*
X0154802Y0023625D01*
X0153604Y0024823D02*
X0198050Y0024823D01*
X0198050Y0026022D02*
X0152405Y0026022D01*
X0151207Y0027220D02*
X0198050Y0027220D01*
X0198050Y0028419D02*
X0150008Y0028419D01*
X0148810Y0029617D02*
X0198050Y0029617D01*
X0198050Y0030816D02*
X0147611Y0030816D01*
X0146413Y0032014D02*
X0198050Y0032014D01*
X0198050Y0033213D02*
X0145214Y0033213D01*
X0144016Y0034411D02*
X0198050Y0034411D01*
X0198050Y0035610D02*
X0143100Y0035610D01*
X0143100Y0036808D02*
X0198050Y0036808D01*
X0198050Y0038007D02*
X0143100Y0038007D01*
X0143100Y0039205D02*
X0198050Y0039205D01*
X0176000Y0040404D02*
X0143100Y0040404D01*
X0143100Y0041602D02*
X0176000Y0041602D01*
X0176000Y0042801D02*
X0143100Y0042801D01*
X0143100Y0043999D02*
X0176000Y0043999D01*
X0176000Y0045198D02*
X0143100Y0045198D01*
X0143100Y0046396D02*
X0176000Y0046396D01*
X0176000Y0047595D02*
X0143100Y0047595D01*
X0143100Y0048793D02*
X0176000Y0048793D01*
X0176000Y0049992D02*
X0143100Y0049992D01*
X0143100Y0051190D02*
X0176000Y0051190D01*
X0176000Y0052389D02*
X0143100Y0052389D01*
X0143100Y0053587D02*
X0176000Y0053587D01*
X0176000Y0054786D02*
X0143100Y0054786D01*
X0143100Y0055984D02*
X0176000Y0055984D01*
X0176000Y0057183D02*
X0143100Y0057183D01*
X0143100Y0058382D02*
X0176000Y0058382D01*
X0176000Y0059580D02*
X0143100Y0059580D01*
X0143100Y0060779D02*
X0176000Y0060779D01*
X0176000Y0061977D02*
X0143100Y0061977D01*
X0143100Y0063176D02*
X0176000Y0063176D01*
X0176000Y0064374D02*
X0143100Y0064374D01*
X0143100Y0065573D02*
X0145309Y0065573D01*
X0146691Y0065573D02*
X0176000Y0065573D01*
X0176000Y0066771D02*
X0148547Y0066771D01*
X0149140Y0067970D02*
X0176000Y0067970D01*
X0176000Y0069168D02*
X0149200Y0069168D01*
X0148794Y0070367D02*
X0176000Y0070367D01*
X0176000Y0071565D02*
X0148600Y0071565D01*
X0148600Y0072764D02*
X0176000Y0072764D01*
X0176000Y0073962D02*
X0148600Y0073962D01*
X0148600Y0075161D02*
X0176000Y0075161D01*
X0176000Y0076359D02*
X0148600Y0076359D01*
X0148600Y0077558D02*
X0176000Y0077558D01*
X0176000Y0078756D02*
X0148600Y0078756D01*
X0148600Y0079955D02*
X0176000Y0079955D01*
X0176000Y0081153D02*
X0148600Y0081153D01*
X0137900Y0081153D02*
X0137600Y0081153D01*
X0137600Y0079955D02*
X0137900Y0079955D01*
X0137900Y0078756D02*
X0137600Y0078756D01*
X0137600Y0077558D02*
X0137900Y0077558D01*
X0137900Y0076359D02*
X0137600Y0076359D01*
X0137600Y0075161D02*
X0137900Y0075161D01*
X0137900Y0073962D02*
X0137600Y0073962D01*
X0137600Y0072764D02*
X0137900Y0072764D01*
X0137900Y0071565D02*
X0137600Y0071565D01*
X0137600Y0070367D02*
X0137900Y0070367D01*
X0137900Y0069168D02*
X0137600Y0069168D01*
X0137600Y0067970D02*
X0137900Y0067970D01*
X0137900Y0066771D02*
X0137600Y0066771D01*
X0137600Y0065573D02*
X0137900Y0065573D01*
X0137900Y0064374D02*
X0137600Y0064374D01*
X0137600Y0063176D02*
X0137900Y0063176D01*
X0137900Y0061977D02*
X0137600Y0061977D01*
X0137600Y0060779D02*
X0137900Y0060779D01*
X0137900Y0059580D02*
X0137600Y0059580D01*
X0137600Y0058382D02*
X0137900Y0058382D01*
X0137900Y0057183D02*
X0137600Y0057183D01*
X0137600Y0055984D02*
X0137900Y0055984D01*
X0137900Y0054786D02*
X0137600Y0054786D01*
X0137600Y0053587D02*
X0137900Y0053587D01*
X0137900Y0052389D02*
X0137600Y0052389D01*
X0137600Y0051190D02*
X0137900Y0051190D01*
X0137900Y0049992D02*
X0137600Y0049992D01*
X0137600Y0048793D02*
X0137900Y0048793D01*
X0137900Y0047595D02*
X0137600Y0047595D01*
X0143100Y0066771D02*
X0143453Y0066771D01*
X0137900Y0082352D02*
X0137600Y0082352D01*
X0137630Y0087146D02*
X0137870Y0087146D01*
X0109480Y0111116D02*
X0106268Y0111116D01*
X0105069Y0109918D02*
X0108281Y0109918D01*
X0107083Y0108719D02*
X0103871Y0108719D01*
X0102672Y0107520D02*
X0105884Y0107520D01*
X0104686Y0106322D02*
X0101474Y0106322D01*
X0100275Y0105123D02*
X0103487Y0105123D01*
X0102289Y0103925D02*
X0099077Y0103925D01*
X0097878Y0102726D02*
X0101090Y0102726D01*
X0099892Y0101528D02*
X0096900Y0101528D01*
X0096900Y0101748D02*
X0123464Y0128312D01*
X0123925Y0128121D01*
X0125934Y0128121D01*
X0126875Y0128511D01*
X0096900Y0098536D01*
X0096900Y0101748D01*
X0096900Y0100329D02*
X0098693Y0100329D01*
X0097495Y0099131D02*
X0096900Y0099131D01*
X0107467Y0112315D02*
X0110678Y0112315D01*
X0111877Y0113513D02*
X0108665Y0113513D01*
X0109864Y0114712D02*
X0113075Y0114712D01*
X0114274Y0115910D02*
X0111062Y0115910D01*
X0112261Y0117109D02*
X0115472Y0117109D01*
X0116671Y0118307D02*
X0113459Y0118307D01*
X0114658Y0119506D02*
X0117869Y0119506D01*
X0119068Y0120704D02*
X0115856Y0120704D01*
X0117055Y0121903D02*
X0120266Y0121903D01*
X0121465Y0123101D02*
X0118253Y0123101D01*
X0119452Y0124300D02*
X0122663Y0124300D01*
X0123862Y0125498D02*
X0120650Y0125498D01*
X0121849Y0126697D02*
X0125060Y0126697D01*
X0126259Y0127895D02*
X0123047Y0127895D01*
X0128253Y0123101D02*
X0137400Y0123101D01*
X0137400Y0121903D02*
X0127055Y0121903D01*
X0125856Y0120704D02*
X0137400Y0120704D01*
X0136849Y0119506D02*
X0124658Y0119506D01*
X0123459Y0118307D02*
X0136800Y0118307D01*
X0137216Y0117109D02*
X0122261Y0117109D01*
X0121062Y0115910D02*
X0138494Y0115910D01*
X0137400Y0124300D02*
X0129452Y0124300D01*
X0130650Y0125498D02*
X0137262Y0125498D01*
X0136800Y0126697D02*
X0131849Y0126697D01*
X0133047Y0127895D02*
X0136804Y0127895D01*
X0167993Y0129094D02*
X0169961Y0129094D01*
X0169879Y0130292D02*
X0169192Y0130292D01*
X0169699Y0131491D02*
X0169879Y0131491D01*
X0169879Y0135086D02*
X0169602Y0135086D01*
X0169879Y0136285D02*
X0168957Y0136285D01*
X0170196Y0137483D02*
X0167715Y0137483D01*
X0179663Y0137483D02*
X0185116Y0137483D01*
X0185342Y0137991D02*
X0185342Y0137991D01*
X0186110Y0138682D02*
X0016785Y0138682D01*
X0017655Y0137483D02*
X0062143Y0137483D01*
X0060901Y0136285D02*
X0018412Y0136285D01*
X0018667Y0135086D02*
X0060256Y0135086D01*
X0059879Y0133888D02*
X0018922Y0133888D01*
X0018972Y0132689D02*
X0059879Y0132689D01*
X0060159Y0131491D02*
X0018717Y0131491D01*
X0018462Y0130292D02*
X0060666Y0130292D01*
X0061865Y0129094D02*
X0017826Y0129094D01*
X0018365Y0129836D02*
X0018365Y0129836D01*
X0038403Y0090741D02*
X0062597Y0090741D01*
X0061399Y0089543D02*
X0039601Y0089543D01*
X0023400Y0073962D02*
X0021600Y0073962D01*
X0021600Y0072764D02*
X0023400Y0072764D01*
X0023400Y0071565D02*
X0021600Y0071565D01*
X0021600Y0070367D02*
X0023400Y0070367D01*
X0023400Y0069168D02*
X0021600Y0069168D01*
X0021600Y0067970D02*
X0023400Y0067970D01*
X0023400Y0066771D02*
X0021600Y0066771D01*
X0021600Y0065573D02*
X0023400Y0065573D01*
X0023400Y0064374D02*
X0021600Y0064374D01*
X0021600Y0063176D02*
X0023400Y0063176D01*
X0023400Y0061977D02*
X0021600Y0061977D01*
X0021600Y0060779D02*
X0023400Y0060779D01*
X0023400Y0059580D02*
X0021600Y0059580D01*
X0021600Y0058382D02*
X0023400Y0058382D01*
X0023400Y0057183D02*
X0021600Y0057183D01*
X0021600Y0055984D02*
X0023400Y0055984D01*
X0023400Y0054786D02*
X0021600Y0054786D01*
X0021600Y0053587D02*
X0023400Y0053587D01*
X0023400Y0052389D02*
X0021600Y0052389D01*
X0021600Y0051190D02*
X0023400Y0051190D01*
X0023400Y0049992D02*
X0021600Y0049992D01*
X0021600Y0048793D02*
X0023400Y0048793D01*
X0023400Y0047595D02*
X0021600Y0047595D01*
X0021600Y0046396D02*
X0023400Y0046396D01*
X0023400Y0045198D02*
X0021600Y0045198D01*
X0021928Y0043999D02*
X0023400Y0043999D01*
X0023400Y0042801D02*
X0023126Y0042801D01*
X0048614Y0067970D02*
X0074600Y0067970D01*
X0074600Y0069168D02*
X0049812Y0069168D01*
X0051901Y0070367D02*
X0074600Y0070367D01*
X0074600Y0071565D02*
X0053266Y0071565D01*
X0064975Y0042801D02*
X0067400Y0042801D01*
X0067400Y0041602D02*
X0065611Y0041602D01*
X0065700Y0040404D02*
X0067400Y0040404D01*
X0067400Y0039205D02*
X0065324Y0039205D01*
X0064239Y0038007D02*
X0067400Y0038007D01*
X0073190Y0034411D02*
X0073515Y0034411D01*
X0097960Y0015235D02*
X0101898Y0015235D01*
X0100700Y0014037D02*
X0099158Y0014037D01*
X0099685Y0012838D02*
X0100173Y0012838D01*
X0170899Y0018831D02*
X0189739Y0018831D01*
X0191119Y0019279D02*
X0191119Y0019279D01*
X0187876Y0018225D02*
X0187876Y0018225D01*
X0187217Y0017632D02*
X0172098Y0017632D01*
X0173296Y0016434D02*
X0185886Y0016434D01*
X0185342Y0015944D02*
X0185342Y0015944D01*
X0185027Y0015235D02*
X0179864Y0015235D01*
X0179979Y0014037D02*
X0184493Y0014037D01*
X0183960Y0012838D02*
X0179979Y0012838D01*
X0179979Y0011640D02*
X0183956Y0011640D01*
X0183956Y0010441D02*
X0179979Y0010441D01*
X0179979Y0009243D02*
X0184034Y0009243D01*
X0184568Y0008044D02*
X0179979Y0008044D01*
X0179696Y0006846D02*
X0185101Y0006846D01*
X0186072Y0005647D02*
X0173247Y0005647D01*
X0097238Y0115882D02*
X0102600Y0121244D01*
X0102600Y0128670D01*
X0102069Y0128890D01*
X0100648Y0130311D01*
X0099929Y0132046D01*
X0099210Y0130311D01*
X0097790Y0128890D01*
X0097400Y0128729D01*
X0097400Y0116273D01*
X0097238Y0115882D01*
X0097250Y0115910D02*
X0097266Y0115910D01*
X0097400Y0117109D02*
X0098464Y0117109D01*
X0097400Y0118307D02*
X0099663Y0118307D01*
X0100862Y0119506D02*
X0097400Y0119506D01*
X0097400Y0120704D02*
X0102060Y0120704D01*
X0102600Y0121903D02*
X0097400Y0121903D01*
X0097400Y0123101D02*
X0102600Y0123101D01*
X0102600Y0124300D02*
X0097400Y0124300D01*
X0097400Y0125498D02*
X0102600Y0125498D01*
X0102600Y0126697D02*
X0097400Y0126697D01*
X0097400Y0127895D02*
X0102600Y0127895D01*
X0101865Y0129094D02*
X0097993Y0129094D01*
X0099192Y0130292D02*
X0100666Y0130292D01*
X0100159Y0131491D02*
X0099699Y0131491D01*
X0179897Y0129094D02*
X0185012Y0129094D01*
X0184478Y0130292D02*
X0179979Y0130292D01*
X0179979Y0131491D02*
X0183956Y0131491D01*
X0183956Y0132689D02*
X0179979Y0132689D01*
X0179979Y0133888D02*
X0183956Y0133888D01*
X0184049Y0135086D02*
X0179979Y0135086D01*
X0179979Y0136285D02*
X0184583Y0136285D01*
D18*
X0155000Y0133124D02*
X0154976Y0133124D01*
X0154929Y0133171D01*
X0155000Y0133124D02*
X0155000Y0085250D01*
X0140500Y0085250D02*
X0140500Y0034250D01*
X0154000Y0020750D01*
X0165421Y0020750D01*
X0165421Y0020632D01*
X0174929Y0011124D01*
X0174929Y0011006D01*
X0169673Y0005750D01*
X0093000Y0005750D01*
X0090000Y0008750D01*
X0090000Y0029750D01*
X0093000Y0044250D02*
X0099000Y0050250D01*
X0115000Y0050250D01*
X0115000Y0055250D02*
X0096500Y0055250D01*
X0091500Y0050250D01*
X0070000Y0044750D02*
X0070000Y0033750D01*
X0061000Y0035750D01*
X0057500Y0036250D01*
X0025500Y0036750D01*
X0019000Y0043250D01*
X0019000Y0083750D01*
X0029000Y0093750D01*
X0032000Y0093750D01*
X0062500Y0093750D01*
X0071000Y0102250D01*
X0037000Y0110750D02*
X0037000Y0125250D01*
X0026000Y0077750D02*
X0026000Y0042250D01*
X0028250Y0040000D01*
X0046250Y0040000D01*
X0049500Y0040750D01*
X0062500Y0040750D01*
X0104929Y0011124D02*
X0119000Y0025195D01*
X0119000Y0085250D01*
X0127000Y0085250D02*
X0127000Y0023195D01*
X0114929Y0011124D01*
X0124929Y0011124D02*
X0135000Y0021195D01*
X0135000Y0085250D01*
X0146000Y0068750D02*
X0146000Y0132219D01*
X0145882Y0132219D01*
X0144929Y0133171D01*
X0140000Y0127250D02*
X0140000Y0118750D01*
D19*
X0113000Y0072250D03*
X0114000Y0064750D03*
X0114500Y0059250D03*
X0084500Y0072250D03*
X0081000Y0068750D03*
X0081000Y0059750D03*
X0077000Y0050250D03*
X0067000Y0076750D03*
X0055500Y0078750D03*
X0037000Y0110750D03*
X0037000Y0125250D03*
M02*
