G75*
%MOIN*%
%OFA0B0*%
%FSLAX25Y25*%
%IPPOS*%
%LPD*%
%AMOC8*
5,1,8,0,0,1.08239X$1,22.5*
%
%ADD10C,0.00000*%
%ADD11C,0.00100*%
%ADD12C,0.00975*%
%ADD13C,0.00850*%
%ADD14R,0.04900X0.04400*%
%ADD15R,0.04337X0.10243*%
%ADD16R,0.08274X0.04337*%
%ADD17R,0.09400X0.04900*%
%ADD18R,0.05124X0.03117*%
%ADD19R,0.05900X0.05900*%
%ADD20R,0.05124X0.02565*%
%ADD21R,0.06384X0.01896*%
%ADD22C,0.01920*%
%ADD23R,0.07880X0.07880*%
%ADD24R,0.04400X0.08200*%
%ADD25R,0.18510X0.04337*%
%ADD26R,0.13786X0.06699*%
%ADD27R,0.06900X0.06900*%
%ADD28C,0.06900*%
%ADD29C,0.05600*%
%ADD30R,0.04731X0.04337*%
%ADD31R,0.06400X0.02900*%
D10*
X0010874Y0003250D02*
X0191976Y0003250D01*
X0192166Y0003252D01*
X0192356Y0003259D01*
X0192546Y0003271D01*
X0192736Y0003287D01*
X0192925Y0003307D01*
X0193114Y0003333D01*
X0193302Y0003362D01*
X0193489Y0003397D01*
X0193675Y0003436D01*
X0193860Y0003479D01*
X0194045Y0003527D01*
X0194228Y0003579D01*
X0194409Y0003635D01*
X0194589Y0003696D01*
X0194768Y0003762D01*
X0194945Y0003831D01*
X0195121Y0003905D01*
X0195294Y0003983D01*
X0195466Y0004066D01*
X0195635Y0004152D01*
X0195803Y0004242D01*
X0195968Y0004337D01*
X0196131Y0004435D01*
X0196291Y0004538D01*
X0196449Y0004644D01*
X0196604Y0004754D01*
X0196757Y0004867D01*
X0196907Y0004985D01*
X0197053Y0005106D01*
X0197197Y0005230D01*
X0197338Y0005358D01*
X0197476Y0005489D01*
X0197611Y0005624D01*
X0197742Y0005762D01*
X0197870Y0005903D01*
X0197994Y0006047D01*
X0198115Y0006193D01*
X0198233Y0006343D01*
X0198346Y0006496D01*
X0198456Y0006651D01*
X0198562Y0006809D01*
X0198665Y0006969D01*
X0198763Y0007132D01*
X0198858Y0007297D01*
X0198948Y0007465D01*
X0199034Y0007634D01*
X0199117Y0007806D01*
X0199195Y0007979D01*
X0199269Y0008155D01*
X0199338Y0008332D01*
X0199404Y0008511D01*
X0199465Y0008691D01*
X0199521Y0008872D01*
X0199573Y0009055D01*
X0199621Y0009240D01*
X0199664Y0009425D01*
X0199703Y0009611D01*
X0199738Y0009798D01*
X0199767Y0009986D01*
X0199793Y0010175D01*
X0199813Y0010364D01*
X0199829Y0010554D01*
X0199841Y0010744D01*
X0199848Y0010934D01*
X0199850Y0011124D01*
X0199850Y0133171D01*
X0199848Y0133361D01*
X0199841Y0133551D01*
X0199829Y0133741D01*
X0199813Y0133931D01*
X0199793Y0134120D01*
X0199767Y0134309D01*
X0199738Y0134497D01*
X0199703Y0134684D01*
X0199664Y0134870D01*
X0199621Y0135055D01*
X0199573Y0135240D01*
X0199521Y0135423D01*
X0199465Y0135604D01*
X0199404Y0135784D01*
X0199338Y0135963D01*
X0199269Y0136140D01*
X0199195Y0136316D01*
X0199117Y0136489D01*
X0199034Y0136661D01*
X0198948Y0136830D01*
X0198858Y0136998D01*
X0198763Y0137163D01*
X0198665Y0137326D01*
X0198562Y0137486D01*
X0198456Y0137644D01*
X0198346Y0137799D01*
X0198233Y0137952D01*
X0198115Y0138102D01*
X0197994Y0138248D01*
X0197870Y0138392D01*
X0197742Y0138533D01*
X0197611Y0138671D01*
X0197476Y0138806D01*
X0197338Y0138937D01*
X0197197Y0139065D01*
X0197053Y0139189D01*
X0196907Y0139310D01*
X0196757Y0139428D01*
X0196604Y0139541D01*
X0196449Y0139651D01*
X0196291Y0139757D01*
X0196131Y0139860D01*
X0195968Y0139958D01*
X0195803Y0140053D01*
X0195635Y0140143D01*
X0195466Y0140229D01*
X0195294Y0140312D01*
X0195121Y0140390D01*
X0194945Y0140464D01*
X0194768Y0140533D01*
X0194589Y0140599D01*
X0194409Y0140660D01*
X0194228Y0140716D01*
X0194045Y0140768D01*
X0193860Y0140816D01*
X0193675Y0140859D01*
X0193489Y0140898D01*
X0193302Y0140933D01*
X0193114Y0140962D01*
X0192925Y0140988D01*
X0192736Y0141008D01*
X0192546Y0141024D01*
X0192356Y0141036D01*
X0192166Y0141043D01*
X0191976Y0141045D01*
X0010874Y0141045D01*
X0010684Y0141043D01*
X0010494Y0141036D01*
X0010304Y0141024D01*
X0010114Y0141008D01*
X0009925Y0140988D01*
X0009736Y0140962D01*
X0009548Y0140933D01*
X0009361Y0140898D01*
X0009175Y0140859D01*
X0008990Y0140816D01*
X0008805Y0140768D01*
X0008622Y0140716D01*
X0008441Y0140660D01*
X0008261Y0140599D01*
X0008082Y0140533D01*
X0007905Y0140464D01*
X0007729Y0140390D01*
X0007556Y0140312D01*
X0007384Y0140229D01*
X0007215Y0140143D01*
X0007047Y0140053D01*
X0006882Y0139958D01*
X0006719Y0139860D01*
X0006559Y0139757D01*
X0006401Y0139651D01*
X0006246Y0139541D01*
X0006093Y0139428D01*
X0005943Y0139310D01*
X0005797Y0139189D01*
X0005653Y0139065D01*
X0005512Y0138937D01*
X0005374Y0138806D01*
X0005239Y0138671D01*
X0005108Y0138533D01*
X0004980Y0138392D01*
X0004856Y0138248D01*
X0004735Y0138102D01*
X0004617Y0137952D01*
X0004504Y0137799D01*
X0004394Y0137644D01*
X0004288Y0137486D01*
X0004185Y0137326D01*
X0004087Y0137163D01*
X0003992Y0136998D01*
X0003902Y0136830D01*
X0003816Y0136661D01*
X0003733Y0136489D01*
X0003655Y0136316D01*
X0003581Y0136140D01*
X0003512Y0135963D01*
X0003446Y0135784D01*
X0003385Y0135604D01*
X0003329Y0135423D01*
X0003277Y0135240D01*
X0003229Y0135055D01*
X0003186Y0134870D01*
X0003147Y0134684D01*
X0003112Y0134497D01*
X0003083Y0134309D01*
X0003057Y0134120D01*
X0003037Y0133931D01*
X0003021Y0133741D01*
X0003009Y0133551D01*
X0003002Y0133361D01*
X0003000Y0133171D01*
X0003000Y0011124D01*
X0003002Y0010934D01*
X0003009Y0010744D01*
X0003021Y0010554D01*
X0003037Y0010364D01*
X0003057Y0010175D01*
X0003083Y0009986D01*
X0003112Y0009798D01*
X0003147Y0009611D01*
X0003186Y0009425D01*
X0003229Y0009240D01*
X0003277Y0009055D01*
X0003329Y0008872D01*
X0003385Y0008691D01*
X0003446Y0008511D01*
X0003512Y0008332D01*
X0003581Y0008155D01*
X0003655Y0007979D01*
X0003733Y0007806D01*
X0003816Y0007634D01*
X0003902Y0007465D01*
X0003992Y0007297D01*
X0004087Y0007132D01*
X0004185Y0006969D01*
X0004288Y0006809D01*
X0004394Y0006651D01*
X0004504Y0006496D01*
X0004617Y0006343D01*
X0004735Y0006193D01*
X0004856Y0006047D01*
X0004980Y0005903D01*
X0005108Y0005762D01*
X0005239Y0005624D01*
X0005374Y0005489D01*
X0005512Y0005358D01*
X0005653Y0005230D01*
X0005797Y0005106D01*
X0005943Y0004985D01*
X0006093Y0004867D01*
X0006246Y0004754D01*
X0006401Y0004644D01*
X0006559Y0004538D01*
X0006719Y0004435D01*
X0006882Y0004337D01*
X0007047Y0004242D01*
X0007215Y0004152D01*
X0007384Y0004066D01*
X0007556Y0003983D01*
X0007729Y0003905D01*
X0007905Y0003831D01*
X0008082Y0003762D01*
X0008261Y0003696D01*
X0008441Y0003635D01*
X0008622Y0003579D01*
X0008805Y0003527D01*
X0008990Y0003479D01*
X0009175Y0003436D01*
X0009361Y0003397D01*
X0009548Y0003362D01*
X0009736Y0003333D01*
X0009925Y0003307D01*
X0010114Y0003287D01*
X0010304Y0003271D01*
X0010494Y0003259D01*
X0010684Y0003252D01*
X0010874Y0003250D01*
D11*
X0187476Y0011124D02*
X0187478Y0011258D01*
X0187484Y0011392D01*
X0187494Y0011525D01*
X0187508Y0011659D01*
X0187526Y0011792D01*
X0187548Y0011924D01*
X0187573Y0012055D01*
X0187603Y0012186D01*
X0187637Y0012316D01*
X0187674Y0012444D01*
X0187715Y0012572D01*
X0187760Y0012698D01*
X0187809Y0012823D01*
X0187861Y0012946D01*
X0187917Y0013068D01*
X0187977Y0013188D01*
X0188040Y0013306D01*
X0188107Y0013422D01*
X0188177Y0013536D01*
X0188251Y0013648D01*
X0188328Y0013758D01*
X0188408Y0013866D01*
X0188491Y0013971D01*
X0188577Y0014073D01*
X0188666Y0014173D01*
X0188759Y0014270D01*
X0188854Y0014365D01*
X0188952Y0014456D01*
X0189052Y0014545D01*
X0189155Y0014630D01*
X0189261Y0014713D01*
X0189369Y0014792D01*
X0189479Y0014868D01*
X0189592Y0014941D01*
X0189707Y0015010D01*
X0189823Y0015076D01*
X0189942Y0015138D01*
X0190062Y0015197D01*
X0190185Y0015252D01*
X0190308Y0015304D01*
X0190433Y0015351D01*
X0190560Y0015395D01*
X0190688Y0015436D01*
X0190817Y0015472D01*
X0190947Y0015505D01*
X0191078Y0015533D01*
X0191209Y0015558D01*
X0191342Y0015579D01*
X0191475Y0015596D01*
X0191608Y0015609D01*
X0191742Y0015618D01*
X0191876Y0015623D01*
X0192010Y0015624D01*
X0192143Y0015621D01*
X0192277Y0015614D01*
X0192411Y0015603D01*
X0192544Y0015588D01*
X0192677Y0015569D01*
X0192809Y0015546D01*
X0192940Y0015520D01*
X0193070Y0015489D01*
X0193200Y0015454D01*
X0193328Y0015416D01*
X0193455Y0015374D01*
X0193581Y0015328D01*
X0193706Y0015278D01*
X0193829Y0015225D01*
X0193950Y0015168D01*
X0194070Y0015107D01*
X0194187Y0015043D01*
X0194303Y0014976D01*
X0194417Y0014905D01*
X0194528Y0014830D01*
X0194637Y0014753D01*
X0194744Y0014672D01*
X0194849Y0014588D01*
X0194950Y0014501D01*
X0195050Y0014411D01*
X0195146Y0014318D01*
X0195240Y0014222D01*
X0195331Y0014123D01*
X0195418Y0014022D01*
X0195503Y0013918D01*
X0195585Y0013812D01*
X0195663Y0013704D01*
X0195738Y0013593D01*
X0195810Y0013480D01*
X0195879Y0013364D01*
X0195944Y0013247D01*
X0196005Y0013128D01*
X0196063Y0013007D01*
X0196117Y0012885D01*
X0196168Y0012761D01*
X0196215Y0012635D01*
X0196258Y0012508D01*
X0196297Y0012380D01*
X0196333Y0012251D01*
X0196364Y0012121D01*
X0196392Y0011990D01*
X0196416Y0011858D01*
X0196436Y0011725D01*
X0196452Y0011592D01*
X0196464Y0011459D01*
X0196472Y0011325D01*
X0196476Y0011191D01*
X0196476Y0011057D01*
X0196472Y0010923D01*
X0196464Y0010789D01*
X0196452Y0010656D01*
X0196436Y0010523D01*
X0196416Y0010390D01*
X0196392Y0010258D01*
X0196364Y0010127D01*
X0196333Y0009997D01*
X0196297Y0009868D01*
X0196258Y0009740D01*
X0196215Y0009613D01*
X0196168Y0009487D01*
X0196117Y0009363D01*
X0196063Y0009241D01*
X0196005Y0009120D01*
X0195944Y0009001D01*
X0195879Y0008884D01*
X0195810Y0008768D01*
X0195738Y0008655D01*
X0195663Y0008544D01*
X0195585Y0008436D01*
X0195503Y0008330D01*
X0195418Y0008226D01*
X0195331Y0008125D01*
X0195240Y0008026D01*
X0195146Y0007930D01*
X0195050Y0007837D01*
X0194950Y0007747D01*
X0194849Y0007660D01*
X0194744Y0007576D01*
X0194637Y0007495D01*
X0194528Y0007418D01*
X0194417Y0007343D01*
X0194303Y0007272D01*
X0194187Y0007205D01*
X0194070Y0007141D01*
X0193950Y0007080D01*
X0193829Y0007023D01*
X0193706Y0006970D01*
X0193581Y0006920D01*
X0193455Y0006874D01*
X0193328Y0006832D01*
X0193200Y0006794D01*
X0193070Y0006759D01*
X0192940Y0006728D01*
X0192809Y0006702D01*
X0192677Y0006679D01*
X0192544Y0006660D01*
X0192411Y0006645D01*
X0192277Y0006634D01*
X0192143Y0006627D01*
X0192010Y0006624D01*
X0191876Y0006625D01*
X0191742Y0006630D01*
X0191608Y0006639D01*
X0191475Y0006652D01*
X0191342Y0006669D01*
X0191209Y0006690D01*
X0191078Y0006715D01*
X0190947Y0006743D01*
X0190817Y0006776D01*
X0190688Y0006812D01*
X0190560Y0006853D01*
X0190433Y0006897D01*
X0190308Y0006944D01*
X0190185Y0006996D01*
X0190062Y0007051D01*
X0189942Y0007110D01*
X0189823Y0007172D01*
X0189707Y0007238D01*
X0189592Y0007307D01*
X0189479Y0007380D01*
X0189369Y0007456D01*
X0189261Y0007535D01*
X0189155Y0007618D01*
X0189052Y0007703D01*
X0188952Y0007792D01*
X0188854Y0007883D01*
X0188759Y0007978D01*
X0188666Y0008075D01*
X0188577Y0008175D01*
X0188491Y0008277D01*
X0188408Y0008382D01*
X0188328Y0008490D01*
X0188251Y0008600D01*
X0188177Y0008712D01*
X0188107Y0008826D01*
X0188040Y0008942D01*
X0187977Y0009060D01*
X0187917Y0009180D01*
X0187861Y0009302D01*
X0187809Y0009425D01*
X0187760Y0009550D01*
X0187715Y0009676D01*
X0187674Y0009804D01*
X0187637Y0009932D01*
X0187603Y0010062D01*
X0187573Y0010193D01*
X0187548Y0010324D01*
X0187526Y0010456D01*
X0187508Y0010589D01*
X0187494Y0010723D01*
X0187484Y0010856D01*
X0187478Y0010990D01*
X0187476Y0011124D01*
X0187476Y0133171D02*
X0187478Y0133305D01*
X0187484Y0133439D01*
X0187494Y0133572D01*
X0187508Y0133706D01*
X0187526Y0133839D01*
X0187548Y0133971D01*
X0187573Y0134102D01*
X0187603Y0134233D01*
X0187637Y0134363D01*
X0187674Y0134491D01*
X0187715Y0134619D01*
X0187760Y0134745D01*
X0187809Y0134870D01*
X0187861Y0134993D01*
X0187917Y0135115D01*
X0187977Y0135235D01*
X0188040Y0135353D01*
X0188107Y0135469D01*
X0188177Y0135583D01*
X0188251Y0135695D01*
X0188328Y0135805D01*
X0188408Y0135913D01*
X0188491Y0136018D01*
X0188577Y0136120D01*
X0188666Y0136220D01*
X0188759Y0136317D01*
X0188854Y0136412D01*
X0188952Y0136503D01*
X0189052Y0136592D01*
X0189155Y0136677D01*
X0189261Y0136760D01*
X0189369Y0136839D01*
X0189479Y0136915D01*
X0189592Y0136988D01*
X0189707Y0137057D01*
X0189823Y0137123D01*
X0189942Y0137185D01*
X0190062Y0137244D01*
X0190185Y0137299D01*
X0190308Y0137351D01*
X0190433Y0137398D01*
X0190560Y0137442D01*
X0190688Y0137483D01*
X0190817Y0137519D01*
X0190947Y0137552D01*
X0191078Y0137580D01*
X0191209Y0137605D01*
X0191342Y0137626D01*
X0191475Y0137643D01*
X0191608Y0137656D01*
X0191742Y0137665D01*
X0191876Y0137670D01*
X0192010Y0137671D01*
X0192143Y0137668D01*
X0192277Y0137661D01*
X0192411Y0137650D01*
X0192544Y0137635D01*
X0192677Y0137616D01*
X0192809Y0137593D01*
X0192940Y0137567D01*
X0193070Y0137536D01*
X0193200Y0137501D01*
X0193328Y0137463D01*
X0193455Y0137421D01*
X0193581Y0137375D01*
X0193706Y0137325D01*
X0193829Y0137272D01*
X0193950Y0137215D01*
X0194070Y0137154D01*
X0194187Y0137090D01*
X0194303Y0137023D01*
X0194417Y0136952D01*
X0194528Y0136877D01*
X0194637Y0136800D01*
X0194744Y0136719D01*
X0194849Y0136635D01*
X0194950Y0136548D01*
X0195050Y0136458D01*
X0195146Y0136365D01*
X0195240Y0136269D01*
X0195331Y0136170D01*
X0195418Y0136069D01*
X0195503Y0135965D01*
X0195585Y0135859D01*
X0195663Y0135751D01*
X0195738Y0135640D01*
X0195810Y0135527D01*
X0195879Y0135411D01*
X0195944Y0135294D01*
X0196005Y0135175D01*
X0196063Y0135054D01*
X0196117Y0134932D01*
X0196168Y0134808D01*
X0196215Y0134682D01*
X0196258Y0134555D01*
X0196297Y0134427D01*
X0196333Y0134298D01*
X0196364Y0134168D01*
X0196392Y0134037D01*
X0196416Y0133905D01*
X0196436Y0133772D01*
X0196452Y0133639D01*
X0196464Y0133506D01*
X0196472Y0133372D01*
X0196476Y0133238D01*
X0196476Y0133104D01*
X0196472Y0132970D01*
X0196464Y0132836D01*
X0196452Y0132703D01*
X0196436Y0132570D01*
X0196416Y0132437D01*
X0196392Y0132305D01*
X0196364Y0132174D01*
X0196333Y0132044D01*
X0196297Y0131915D01*
X0196258Y0131787D01*
X0196215Y0131660D01*
X0196168Y0131534D01*
X0196117Y0131410D01*
X0196063Y0131288D01*
X0196005Y0131167D01*
X0195944Y0131048D01*
X0195879Y0130931D01*
X0195810Y0130815D01*
X0195738Y0130702D01*
X0195663Y0130591D01*
X0195585Y0130483D01*
X0195503Y0130377D01*
X0195418Y0130273D01*
X0195331Y0130172D01*
X0195240Y0130073D01*
X0195146Y0129977D01*
X0195050Y0129884D01*
X0194950Y0129794D01*
X0194849Y0129707D01*
X0194744Y0129623D01*
X0194637Y0129542D01*
X0194528Y0129465D01*
X0194417Y0129390D01*
X0194303Y0129319D01*
X0194187Y0129252D01*
X0194070Y0129188D01*
X0193950Y0129127D01*
X0193829Y0129070D01*
X0193706Y0129017D01*
X0193581Y0128967D01*
X0193455Y0128921D01*
X0193328Y0128879D01*
X0193200Y0128841D01*
X0193070Y0128806D01*
X0192940Y0128775D01*
X0192809Y0128749D01*
X0192677Y0128726D01*
X0192544Y0128707D01*
X0192411Y0128692D01*
X0192277Y0128681D01*
X0192143Y0128674D01*
X0192010Y0128671D01*
X0191876Y0128672D01*
X0191742Y0128677D01*
X0191608Y0128686D01*
X0191475Y0128699D01*
X0191342Y0128716D01*
X0191209Y0128737D01*
X0191078Y0128762D01*
X0190947Y0128790D01*
X0190817Y0128823D01*
X0190688Y0128859D01*
X0190560Y0128900D01*
X0190433Y0128944D01*
X0190308Y0128991D01*
X0190185Y0129043D01*
X0190062Y0129098D01*
X0189942Y0129157D01*
X0189823Y0129219D01*
X0189707Y0129285D01*
X0189592Y0129354D01*
X0189479Y0129427D01*
X0189369Y0129503D01*
X0189261Y0129582D01*
X0189155Y0129665D01*
X0189052Y0129750D01*
X0188952Y0129839D01*
X0188854Y0129930D01*
X0188759Y0130025D01*
X0188666Y0130122D01*
X0188577Y0130222D01*
X0188491Y0130324D01*
X0188408Y0130429D01*
X0188328Y0130537D01*
X0188251Y0130647D01*
X0188177Y0130759D01*
X0188107Y0130873D01*
X0188040Y0130989D01*
X0187977Y0131107D01*
X0187917Y0131227D01*
X0187861Y0131349D01*
X0187809Y0131472D01*
X0187760Y0131597D01*
X0187715Y0131723D01*
X0187674Y0131851D01*
X0187637Y0131979D01*
X0187603Y0132109D01*
X0187573Y0132240D01*
X0187548Y0132371D01*
X0187526Y0132503D01*
X0187508Y0132636D01*
X0187494Y0132770D01*
X0187484Y0132903D01*
X0187478Y0133037D01*
X0187476Y0133171D01*
X0006374Y0133171D02*
X0006376Y0133305D01*
X0006382Y0133439D01*
X0006392Y0133572D01*
X0006406Y0133706D01*
X0006424Y0133839D01*
X0006446Y0133971D01*
X0006471Y0134102D01*
X0006501Y0134233D01*
X0006535Y0134363D01*
X0006572Y0134491D01*
X0006613Y0134619D01*
X0006658Y0134745D01*
X0006707Y0134870D01*
X0006759Y0134993D01*
X0006815Y0135115D01*
X0006875Y0135235D01*
X0006938Y0135353D01*
X0007005Y0135469D01*
X0007075Y0135583D01*
X0007149Y0135695D01*
X0007226Y0135805D01*
X0007306Y0135913D01*
X0007389Y0136018D01*
X0007475Y0136120D01*
X0007564Y0136220D01*
X0007657Y0136317D01*
X0007752Y0136412D01*
X0007850Y0136503D01*
X0007950Y0136592D01*
X0008053Y0136677D01*
X0008159Y0136760D01*
X0008267Y0136839D01*
X0008377Y0136915D01*
X0008490Y0136988D01*
X0008605Y0137057D01*
X0008721Y0137123D01*
X0008840Y0137185D01*
X0008960Y0137244D01*
X0009083Y0137299D01*
X0009206Y0137351D01*
X0009331Y0137398D01*
X0009458Y0137442D01*
X0009586Y0137483D01*
X0009715Y0137519D01*
X0009845Y0137552D01*
X0009976Y0137580D01*
X0010107Y0137605D01*
X0010240Y0137626D01*
X0010373Y0137643D01*
X0010506Y0137656D01*
X0010640Y0137665D01*
X0010774Y0137670D01*
X0010908Y0137671D01*
X0011041Y0137668D01*
X0011175Y0137661D01*
X0011309Y0137650D01*
X0011442Y0137635D01*
X0011575Y0137616D01*
X0011707Y0137593D01*
X0011838Y0137567D01*
X0011968Y0137536D01*
X0012098Y0137501D01*
X0012226Y0137463D01*
X0012353Y0137421D01*
X0012479Y0137375D01*
X0012604Y0137325D01*
X0012727Y0137272D01*
X0012848Y0137215D01*
X0012968Y0137154D01*
X0013085Y0137090D01*
X0013201Y0137023D01*
X0013315Y0136952D01*
X0013426Y0136877D01*
X0013535Y0136800D01*
X0013642Y0136719D01*
X0013747Y0136635D01*
X0013848Y0136548D01*
X0013948Y0136458D01*
X0014044Y0136365D01*
X0014138Y0136269D01*
X0014229Y0136170D01*
X0014316Y0136069D01*
X0014401Y0135965D01*
X0014483Y0135859D01*
X0014561Y0135751D01*
X0014636Y0135640D01*
X0014708Y0135527D01*
X0014777Y0135411D01*
X0014842Y0135294D01*
X0014903Y0135175D01*
X0014961Y0135054D01*
X0015015Y0134932D01*
X0015066Y0134808D01*
X0015113Y0134682D01*
X0015156Y0134555D01*
X0015195Y0134427D01*
X0015231Y0134298D01*
X0015262Y0134168D01*
X0015290Y0134037D01*
X0015314Y0133905D01*
X0015334Y0133772D01*
X0015350Y0133639D01*
X0015362Y0133506D01*
X0015370Y0133372D01*
X0015374Y0133238D01*
X0015374Y0133104D01*
X0015370Y0132970D01*
X0015362Y0132836D01*
X0015350Y0132703D01*
X0015334Y0132570D01*
X0015314Y0132437D01*
X0015290Y0132305D01*
X0015262Y0132174D01*
X0015231Y0132044D01*
X0015195Y0131915D01*
X0015156Y0131787D01*
X0015113Y0131660D01*
X0015066Y0131534D01*
X0015015Y0131410D01*
X0014961Y0131288D01*
X0014903Y0131167D01*
X0014842Y0131048D01*
X0014777Y0130931D01*
X0014708Y0130815D01*
X0014636Y0130702D01*
X0014561Y0130591D01*
X0014483Y0130483D01*
X0014401Y0130377D01*
X0014316Y0130273D01*
X0014229Y0130172D01*
X0014138Y0130073D01*
X0014044Y0129977D01*
X0013948Y0129884D01*
X0013848Y0129794D01*
X0013747Y0129707D01*
X0013642Y0129623D01*
X0013535Y0129542D01*
X0013426Y0129465D01*
X0013315Y0129390D01*
X0013201Y0129319D01*
X0013085Y0129252D01*
X0012968Y0129188D01*
X0012848Y0129127D01*
X0012727Y0129070D01*
X0012604Y0129017D01*
X0012479Y0128967D01*
X0012353Y0128921D01*
X0012226Y0128879D01*
X0012098Y0128841D01*
X0011968Y0128806D01*
X0011838Y0128775D01*
X0011707Y0128749D01*
X0011575Y0128726D01*
X0011442Y0128707D01*
X0011309Y0128692D01*
X0011175Y0128681D01*
X0011041Y0128674D01*
X0010908Y0128671D01*
X0010774Y0128672D01*
X0010640Y0128677D01*
X0010506Y0128686D01*
X0010373Y0128699D01*
X0010240Y0128716D01*
X0010107Y0128737D01*
X0009976Y0128762D01*
X0009845Y0128790D01*
X0009715Y0128823D01*
X0009586Y0128859D01*
X0009458Y0128900D01*
X0009331Y0128944D01*
X0009206Y0128991D01*
X0009083Y0129043D01*
X0008960Y0129098D01*
X0008840Y0129157D01*
X0008721Y0129219D01*
X0008605Y0129285D01*
X0008490Y0129354D01*
X0008377Y0129427D01*
X0008267Y0129503D01*
X0008159Y0129582D01*
X0008053Y0129665D01*
X0007950Y0129750D01*
X0007850Y0129839D01*
X0007752Y0129930D01*
X0007657Y0130025D01*
X0007564Y0130122D01*
X0007475Y0130222D01*
X0007389Y0130324D01*
X0007306Y0130429D01*
X0007226Y0130537D01*
X0007149Y0130647D01*
X0007075Y0130759D01*
X0007005Y0130873D01*
X0006938Y0130989D01*
X0006875Y0131107D01*
X0006815Y0131227D01*
X0006759Y0131349D01*
X0006707Y0131472D01*
X0006658Y0131597D01*
X0006613Y0131723D01*
X0006572Y0131851D01*
X0006535Y0131979D01*
X0006501Y0132109D01*
X0006471Y0132240D01*
X0006446Y0132371D01*
X0006424Y0132503D01*
X0006406Y0132636D01*
X0006392Y0132770D01*
X0006382Y0132903D01*
X0006376Y0133037D01*
X0006374Y0133171D01*
D12*
X0040017Y0115453D02*
X0040017Y0112527D01*
X0040017Y0115453D02*
X0042943Y0115453D01*
X0042943Y0112527D01*
X0040017Y0112527D01*
X0040017Y0113501D02*
X0042943Y0113501D01*
X0042943Y0114475D02*
X0040017Y0114475D01*
X0040017Y0115449D02*
X0042943Y0115449D01*
X0040017Y0109453D02*
X0040017Y0106527D01*
X0040017Y0109453D02*
X0042943Y0109453D01*
X0042943Y0106527D01*
X0040017Y0106527D01*
X0040017Y0107501D02*
X0042943Y0107501D01*
X0042943Y0108475D02*
X0040017Y0108475D01*
X0040017Y0109449D02*
X0042943Y0109449D01*
X0049734Y0101335D02*
X0052660Y0101335D01*
X0052660Y0098409D01*
X0049734Y0098409D01*
X0049734Y0101335D01*
X0049734Y0099383D02*
X0052660Y0099383D01*
X0052660Y0100357D02*
X0049734Y0100357D01*
X0049734Y0101331D02*
X0052660Y0101331D01*
X0055734Y0101335D02*
X0058660Y0101335D01*
X0058660Y0098409D01*
X0055734Y0098409D01*
X0055734Y0101335D01*
X0055734Y0099383D02*
X0058660Y0099383D01*
X0058660Y0100357D02*
X0055734Y0100357D01*
X0055734Y0101331D02*
X0058660Y0101331D01*
X0058546Y0092822D02*
X0055620Y0092822D01*
X0055620Y0095748D01*
X0058546Y0095748D01*
X0058546Y0092822D01*
X0058546Y0093796D02*
X0055620Y0093796D01*
X0055620Y0094770D02*
X0058546Y0094770D01*
X0058546Y0095744D02*
X0055620Y0095744D01*
X0052546Y0092822D02*
X0049620Y0092822D01*
X0049620Y0095748D01*
X0052546Y0095748D01*
X0052546Y0092822D01*
X0052546Y0093796D02*
X0049620Y0093796D01*
X0049620Y0094770D02*
X0052546Y0094770D01*
X0052546Y0095744D02*
X0049620Y0095744D01*
X0048218Y0077567D02*
X0051144Y0077567D01*
X0048218Y0077567D02*
X0048218Y0080493D01*
X0051144Y0080493D01*
X0051144Y0077567D01*
X0051144Y0078541D02*
X0048218Y0078541D01*
X0048218Y0079515D02*
X0051144Y0079515D01*
X0051144Y0080489D02*
X0048218Y0080489D01*
X0054218Y0077567D02*
X0057144Y0077567D01*
X0054218Y0077567D02*
X0054218Y0080493D01*
X0057144Y0080493D01*
X0057144Y0077567D01*
X0057144Y0078541D02*
X0054218Y0078541D01*
X0054218Y0079515D02*
X0057144Y0079515D01*
X0057144Y0080489D02*
X0054218Y0080489D01*
X0062750Y0080654D02*
X0062750Y0077728D01*
X0059824Y0077728D01*
X0059824Y0080654D01*
X0062750Y0080654D01*
X0062750Y0078702D02*
X0059824Y0078702D01*
X0059824Y0079676D02*
X0062750Y0079676D01*
X0062750Y0080650D02*
X0059824Y0080650D01*
X0062750Y0074654D02*
X0062750Y0071728D01*
X0059824Y0071728D01*
X0059824Y0074654D01*
X0062750Y0074654D01*
X0062750Y0072702D02*
X0059824Y0072702D01*
X0059824Y0073676D02*
X0062750Y0073676D01*
X0062750Y0074650D02*
X0059824Y0074650D01*
X0068057Y0062047D02*
X0070983Y0062047D01*
X0068057Y0062047D02*
X0068057Y0064973D01*
X0070983Y0064973D01*
X0070983Y0062047D01*
X0070983Y0063021D02*
X0068057Y0063021D01*
X0068057Y0063995D02*
X0070983Y0063995D01*
X0070983Y0064969D02*
X0068057Y0064969D01*
X0074057Y0062047D02*
X0076983Y0062047D01*
X0074057Y0062047D02*
X0074057Y0064973D01*
X0076983Y0064973D01*
X0076983Y0062047D01*
X0076983Y0063021D02*
X0074057Y0063021D01*
X0074057Y0063995D02*
X0076983Y0063995D01*
X0076983Y0064969D02*
X0074057Y0064969D01*
X0062037Y0058213D02*
X0062037Y0055287D01*
X0062037Y0058213D02*
X0064963Y0058213D01*
X0064963Y0055287D01*
X0062037Y0055287D01*
X0062037Y0056261D02*
X0064963Y0056261D01*
X0064963Y0057235D02*
X0062037Y0057235D01*
X0062037Y0058209D02*
X0064963Y0058209D01*
X0062037Y0052213D02*
X0062037Y0049287D01*
X0062037Y0052213D02*
X0064963Y0052213D01*
X0064963Y0049287D01*
X0062037Y0049287D01*
X0062037Y0050261D02*
X0064963Y0050261D01*
X0064963Y0051235D02*
X0062037Y0051235D01*
X0062037Y0052209D02*
X0064963Y0052209D01*
X0079498Y0051493D02*
X0082424Y0051493D01*
X0082424Y0048567D01*
X0079498Y0048567D01*
X0079498Y0051493D01*
X0079498Y0049541D02*
X0082424Y0049541D01*
X0082424Y0050515D02*
X0079498Y0050515D01*
X0079498Y0051489D02*
X0082424Y0051489D01*
X0085498Y0051493D02*
X0088424Y0051493D01*
X0088424Y0048567D01*
X0085498Y0048567D01*
X0085498Y0051493D01*
X0085498Y0049541D02*
X0088424Y0049541D01*
X0088424Y0050515D02*
X0085498Y0050515D01*
X0085498Y0051489D02*
X0088424Y0051489D01*
X0088365Y0054011D02*
X0085439Y0054011D01*
X0085439Y0056937D01*
X0088365Y0056937D01*
X0088365Y0054011D01*
X0088365Y0054985D02*
X0085439Y0054985D01*
X0085439Y0055959D02*
X0088365Y0055959D01*
X0088365Y0056933D02*
X0085439Y0056933D01*
X0082365Y0054011D02*
X0079439Y0054011D01*
X0079439Y0056937D01*
X0082365Y0056937D01*
X0082365Y0054011D01*
X0082365Y0054985D02*
X0079439Y0054985D01*
X0079439Y0055959D02*
X0082365Y0055959D01*
X0082365Y0056933D02*
X0079439Y0056933D01*
X0079439Y0043023D02*
X0082365Y0043023D01*
X0079439Y0043023D02*
X0079439Y0045949D01*
X0082365Y0045949D01*
X0082365Y0043023D01*
X0082365Y0043997D02*
X0079439Y0043997D01*
X0079439Y0044971D02*
X0082365Y0044971D01*
X0082365Y0045945D02*
X0079439Y0045945D01*
X0085439Y0043023D02*
X0088365Y0043023D01*
X0085439Y0043023D02*
X0085439Y0045949D01*
X0088365Y0045949D01*
X0088365Y0043023D01*
X0088365Y0043997D02*
X0085439Y0043997D01*
X0085439Y0044971D02*
X0088365Y0044971D01*
X0088365Y0045945D02*
X0085439Y0045945D01*
X0077270Y0037444D02*
X0074344Y0037444D01*
X0074344Y0040370D01*
X0077270Y0040370D01*
X0077270Y0037444D01*
X0077270Y0038418D02*
X0074344Y0038418D01*
X0074344Y0039392D02*
X0077270Y0039392D01*
X0077270Y0040366D02*
X0074344Y0040366D01*
X0071270Y0037444D02*
X0068344Y0037444D01*
X0068344Y0040370D01*
X0071270Y0040370D01*
X0071270Y0037444D01*
X0071270Y0038418D02*
X0068344Y0038418D01*
X0068344Y0039392D02*
X0071270Y0039392D01*
X0071270Y0040366D02*
X0068344Y0040366D01*
X0068344Y0035101D02*
X0071270Y0035101D01*
X0071270Y0032175D01*
X0068344Y0032175D01*
X0068344Y0035101D01*
X0068344Y0033149D02*
X0071270Y0033149D01*
X0071270Y0034123D02*
X0068344Y0034123D01*
X0068344Y0035097D02*
X0071270Y0035097D01*
X0074344Y0035101D02*
X0077270Y0035101D01*
X0077270Y0032175D01*
X0074344Y0032175D01*
X0074344Y0035101D01*
X0074344Y0033149D02*
X0077270Y0033149D01*
X0077270Y0034123D02*
X0074344Y0034123D01*
X0074344Y0035097D02*
X0077270Y0035097D01*
X0110065Y0030401D02*
X0112991Y0030401D01*
X0110065Y0030401D02*
X0110065Y0033327D01*
X0112991Y0033327D01*
X0112991Y0030401D01*
X0112991Y0031375D02*
X0110065Y0031375D01*
X0110065Y0032349D02*
X0112991Y0032349D01*
X0112991Y0033323D02*
X0110065Y0033323D01*
X0116065Y0030401D02*
X0118991Y0030401D01*
X0116065Y0030401D02*
X0116065Y0033327D01*
X0118991Y0033327D01*
X0118991Y0030401D01*
X0118991Y0031375D02*
X0116065Y0031375D01*
X0116065Y0032349D02*
X0118991Y0032349D01*
X0118991Y0033323D02*
X0116065Y0033323D01*
X0087517Y0100618D02*
X0087517Y0103544D01*
X0090443Y0103544D01*
X0090443Y0100618D01*
X0087517Y0100618D01*
X0087517Y0101592D02*
X0090443Y0101592D01*
X0090443Y0102566D02*
X0087517Y0102566D01*
X0087517Y0103540D02*
X0090443Y0103540D01*
X0087517Y0106618D02*
X0087517Y0109544D01*
X0090443Y0109544D01*
X0090443Y0106618D01*
X0087517Y0106618D01*
X0087517Y0107592D02*
X0090443Y0107592D01*
X0090443Y0108566D02*
X0087517Y0108566D01*
X0087517Y0109540D02*
X0090443Y0109540D01*
X0081872Y0109410D02*
X0081872Y0106484D01*
X0081872Y0109410D02*
X0084798Y0109410D01*
X0084798Y0106484D01*
X0081872Y0106484D01*
X0081872Y0107458D02*
X0084798Y0107458D01*
X0084798Y0108432D02*
X0081872Y0108432D01*
X0081872Y0109406D02*
X0084798Y0109406D01*
X0081872Y0103410D02*
X0081872Y0100484D01*
X0081872Y0103410D02*
X0084798Y0103410D01*
X0084798Y0100484D01*
X0081872Y0100484D01*
X0081872Y0101458D02*
X0084798Y0101458D01*
X0084798Y0102432D02*
X0081872Y0102432D01*
X0081872Y0103406D02*
X0084798Y0103406D01*
X0058097Y0128193D02*
X0058097Y0131119D01*
X0058097Y0128193D02*
X0055171Y0128193D01*
X0055171Y0131119D01*
X0058097Y0131119D01*
X0058097Y0129167D02*
X0055171Y0129167D01*
X0055171Y0130141D02*
X0058097Y0130141D01*
X0058097Y0131115D02*
X0055171Y0131115D01*
X0058097Y0134193D02*
X0058097Y0137119D01*
X0058097Y0134193D02*
X0055171Y0134193D01*
X0055171Y0137119D01*
X0058097Y0137119D01*
X0058097Y0135167D02*
X0055171Y0135167D01*
X0055171Y0136141D02*
X0058097Y0136141D01*
X0058097Y0137115D02*
X0055171Y0137115D01*
X0051254Y0128767D02*
X0048328Y0128767D01*
X0048328Y0131693D01*
X0051254Y0131693D01*
X0051254Y0128767D01*
X0051254Y0129741D02*
X0048328Y0129741D01*
X0048328Y0130715D02*
X0051254Y0130715D01*
X0051254Y0131689D02*
X0048328Y0131689D01*
X0045254Y0128767D02*
X0042328Y0128767D01*
X0042328Y0131693D01*
X0045254Y0131693D01*
X0045254Y0128767D01*
X0045254Y0129741D02*
X0042328Y0129741D01*
X0042328Y0130715D02*
X0045254Y0130715D01*
X0045254Y0131689D02*
X0042328Y0131689D01*
X0142588Y0113232D02*
X0145514Y0113232D01*
X0142588Y0113232D02*
X0142588Y0116158D01*
X0145514Y0116158D01*
X0145514Y0113232D01*
X0145514Y0114206D02*
X0142588Y0114206D01*
X0142588Y0115180D02*
X0145514Y0115180D01*
X0145514Y0116154D02*
X0142588Y0116154D01*
X0148588Y0113232D02*
X0151514Y0113232D01*
X0148588Y0113232D02*
X0148588Y0116158D01*
X0151514Y0116158D01*
X0151514Y0113232D01*
X0151514Y0114206D02*
X0148588Y0114206D01*
X0148588Y0115180D02*
X0151514Y0115180D01*
X0151514Y0116154D02*
X0148588Y0116154D01*
X0154041Y0113413D02*
X0156967Y0113413D01*
X0154041Y0113413D02*
X0154041Y0116339D01*
X0156967Y0116339D01*
X0156967Y0113413D01*
X0156967Y0114387D02*
X0154041Y0114387D01*
X0154041Y0115361D02*
X0156967Y0115361D01*
X0156967Y0116335D02*
X0154041Y0116335D01*
X0160041Y0113413D02*
X0162967Y0113413D01*
X0160041Y0113413D02*
X0160041Y0116339D01*
X0162967Y0116339D01*
X0162967Y0113413D01*
X0162967Y0114387D02*
X0160041Y0114387D01*
X0160041Y0115361D02*
X0162967Y0115361D01*
X0162967Y0116335D02*
X0160041Y0116335D01*
X0165679Y0113519D02*
X0168605Y0113519D01*
X0165679Y0113519D02*
X0165679Y0116445D01*
X0168605Y0116445D01*
X0168605Y0113519D01*
X0168605Y0114493D02*
X0165679Y0114493D01*
X0165679Y0115467D02*
X0168605Y0115467D01*
X0168605Y0116441D02*
X0165679Y0116441D01*
X0171679Y0113519D02*
X0174605Y0113519D01*
X0171679Y0113519D02*
X0171679Y0116445D01*
X0174605Y0116445D01*
X0174605Y0113519D01*
X0174605Y0114493D02*
X0171679Y0114493D01*
X0171679Y0115467D02*
X0174605Y0115467D01*
X0174605Y0116441D02*
X0171679Y0116441D01*
X0177320Y0116508D02*
X0180246Y0116508D01*
X0180246Y0113582D01*
X0177320Y0113582D01*
X0177320Y0116508D01*
X0177320Y0114556D02*
X0180246Y0114556D01*
X0180246Y0115530D02*
X0177320Y0115530D01*
X0177320Y0116504D02*
X0180246Y0116504D01*
X0183320Y0116508D02*
X0186246Y0116508D01*
X0186246Y0113582D01*
X0183320Y0113582D01*
X0183320Y0116508D01*
X0183320Y0114556D02*
X0186246Y0114556D01*
X0186246Y0115530D02*
X0183320Y0115530D01*
X0183320Y0116504D02*
X0186246Y0116504D01*
D13*
X0088432Y0037520D02*
X0085882Y0037520D01*
X0085882Y0040570D01*
X0088432Y0040570D01*
X0088432Y0037520D01*
X0088432Y0038369D02*
X0085882Y0038369D01*
X0085882Y0039218D02*
X0088432Y0039218D01*
X0088432Y0040067D02*
X0085882Y0040067D01*
X0082432Y0037520D02*
X0079882Y0037520D01*
X0079882Y0040570D01*
X0082432Y0040570D01*
X0082432Y0037520D01*
X0082432Y0038369D02*
X0079882Y0038369D01*
X0079882Y0039218D02*
X0082432Y0039218D01*
X0082432Y0040067D02*
X0079882Y0040067D01*
X0079882Y0032166D02*
X0082432Y0032166D01*
X0079882Y0032166D02*
X0079882Y0035216D01*
X0082432Y0035216D01*
X0082432Y0032166D01*
X0082432Y0033015D02*
X0079882Y0033015D01*
X0079882Y0033864D02*
X0082432Y0033864D01*
X0082432Y0034713D02*
X0079882Y0034713D01*
X0085882Y0032166D02*
X0088432Y0032166D01*
X0085882Y0032166D02*
X0085882Y0035216D01*
X0088432Y0035216D01*
X0088432Y0032166D01*
X0088432Y0033015D02*
X0085882Y0033015D01*
X0085882Y0033864D02*
X0088432Y0033864D01*
X0088432Y0034713D02*
X0085882Y0034713D01*
X0039350Y0128721D02*
X0036800Y0128721D01*
X0036800Y0131771D01*
X0039350Y0131771D01*
X0039350Y0128721D01*
X0039350Y0129570D02*
X0036800Y0129570D01*
X0036800Y0130419D02*
X0039350Y0130419D01*
X0039350Y0131268D02*
X0036800Y0131268D01*
X0033350Y0128721D02*
X0030800Y0128721D01*
X0030800Y0131771D01*
X0033350Y0131771D01*
X0033350Y0128721D01*
X0033350Y0129570D02*
X0030800Y0129570D01*
X0030800Y0130419D02*
X0033350Y0130419D01*
X0033350Y0131268D02*
X0030800Y0131268D01*
D14*
X0067311Y0089404D03*
X0075311Y0085663D03*
X0067311Y0081923D03*
X0067311Y0076632D03*
X0075311Y0072892D03*
X0067311Y0069152D03*
D15*
X0111331Y0041856D03*
X0119205Y0041856D03*
X0127079Y0041856D03*
X0134953Y0041856D03*
X0142827Y0041856D03*
X0150701Y0041856D03*
X0158575Y0041856D03*
X0166449Y0041856D03*
X0166449Y0102880D03*
X0158575Y0102880D03*
X0150701Y0102880D03*
X0142827Y0102880D03*
X0134953Y0102880D03*
X0127079Y0102880D03*
X0119205Y0102880D03*
X0111331Y0102880D03*
D16*
X0105425Y0092053D03*
X0105425Y0084179D03*
X0105425Y0076305D03*
X0105425Y0068431D03*
X0105425Y0060557D03*
X0105425Y0052683D03*
D17*
X0098299Y0102571D03*
X0098299Y0114071D03*
D18*
X0075674Y0102108D03*
X0075674Y0094628D03*
X0065437Y0094628D03*
X0065437Y0098368D03*
X0065437Y0102108D03*
D19*
X0048394Y0108415D03*
X0048394Y0121415D03*
D20*
X0065307Y0114923D03*
X0065307Y0111183D03*
X0065307Y0107443D03*
X0075543Y0107443D03*
X0075543Y0114923D03*
D21*
X0025469Y0060659D03*
X0025469Y0058100D03*
X0025469Y0055541D03*
X0025469Y0052982D03*
X0025469Y0050423D03*
D22*
X0011729Y0049301D02*
X0011729Y0053781D01*
X0016209Y0053781D01*
X0016209Y0049301D01*
X0011729Y0049301D01*
X0011729Y0051220D02*
X0016209Y0051220D01*
X0016209Y0053139D02*
X0011729Y0053139D01*
X0011729Y0057301D02*
X0011729Y0061781D01*
X0016209Y0061781D01*
X0016209Y0057301D01*
X0011729Y0057301D01*
X0011729Y0059220D02*
X0016209Y0059220D01*
X0016209Y0061139D02*
X0011729Y0061139D01*
D23*
X0013969Y0071093D03*
X0013969Y0039990D03*
D24*
X0008906Y0118604D03*
X0024656Y0118604D03*
D25*
X0031346Y0096951D03*
X0031346Y0089077D03*
D26*
X0010874Y0079628D03*
X0010874Y0106400D03*
D27*
X0174929Y0133171D03*
X0174929Y0011124D03*
D28*
X0164929Y0011124D03*
X0154929Y0011124D03*
X0144929Y0011124D03*
X0134929Y0011124D03*
X0124929Y0011124D03*
X0114929Y0011124D03*
X0104929Y0011124D03*
X0094929Y0011124D03*
X0084929Y0011124D03*
X0074929Y0011124D03*
X0064929Y0011124D03*
X0064929Y0133171D03*
X0074929Y0133171D03*
X0084929Y0133171D03*
X0094929Y0133171D03*
X0104929Y0133171D03*
X0114929Y0133171D03*
X0124929Y0133171D03*
X0134929Y0133171D03*
X0144929Y0133171D03*
X0154929Y0133171D03*
X0164929Y0133171D03*
D29*
X0044500Y0015750D03*
X0025500Y0015750D03*
D30*
X0033654Y0031250D03*
X0040346Y0031250D03*
X0048654Y0031750D03*
X0055346Y0031750D03*
D31*
X0055000Y0038250D03*
X0055000Y0043250D03*
X0055000Y0048250D03*
X0055000Y0053250D03*
X0055000Y0058250D03*
X0055000Y0063250D03*
X0055000Y0068250D03*
X0055000Y0073250D03*
X0034000Y0073250D03*
X0034000Y0068250D03*
X0034000Y0063250D03*
X0034000Y0058250D03*
X0034000Y0053250D03*
X0034000Y0048250D03*
X0034000Y0043250D03*
X0034000Y0038250D03*
M02*
