G75*
%MOIN*%
%OFA0B0*%
%FSLAX25Y25*%
%IPPOS*%
%LPD*%
%AMOC8*
5,1,8,0,0,1.08239X$1,22.5*
%
%ADD10C,0.01000*%
%ADD11C,0.00800*%
%ADD12C,0.00000*%
%ADD13C,0.00100*%
%ADD14C,0.00600*%
%ADD15R,0.00850X0.00025*%
%ADD16R,0.01575X0.00025*%
%ADD17R,0.02050X0.00025*%
%ADD18R,0.02450X0.00025*%
%ADD19R,0.02775X0.00025*%
%ADD20R,0.03075X0.00025*%
%ADD21R,0.03350X0.00025*%
%ADD22R,0.03600X0.00025*%
%ADD23R,0.03825X0.00025*%
%ADD24R,0.04050X0.00025*%
%ADD25R,0.04250X0.00025*%
%ADD26R,0.04450X0.00025*%
%ADD27R,0.04625X0.00025*%
%ADD28R,0.04800X0.00025*%
%ADD29R,0.04975X0.00025*%
%ADD30R,0.05125X0.00025*%
%ADD31R,0.05275X0.00025*%
%ADD32R,0.05450X0.00025*%
%ADD33R,0.05575X0.00025*%
%ADD34R,0.05725X0.00025*%
%ADD35R,0.05875X0.00025*%
%ADD36R,0.06000X0.00025*%
%ADD37R,0.06150X0.00025*%
%ADD38R,0.06275X0.00025*%
%ADD39R,0.06400X0.00025*%
%ADD40R,0.06525X0.00025*%
%ADD41R,0.06625X0.00025*%
%ADD42R,0.06750X0.00025*%
%ADD43R,0.06850X0.00025*%
%ADD44R,0.06975X0.00025*%
%ADD45R,0.07075X0.00025*%
%ADD46R,0.07200X0.00025*%
%ADD47R,0.07300X0.00025*%
%ADD48R,0.07400X0.00025*%
%ADD49R,0.07500X0.00025*%
%ADD50R,0.07600X0.00025*%
%ADD51R,0.07700X0.00025*%
%ADD52R,0.07800X0.00025*%
%ADD53R,0.07875X0.00025*%
%ADD54R,0.07975X0.00025*%
%ADD55R,0.08050X0.00025*%
%ADD56R,0.08150X0.00025*%
%ADD57R,0.08225X0.00025*%
%ADD58R,0.08325X0.00025*%
%ADD59R,0.08425X0.00025*%
%ADD60R,0.08500X0.00025*%
%ADD61R,0.08600X0.00025*%
%ADD62R,0.08675X0.00025*%
%ADD63R,0.08750X0.00025*%
%ADD64R,0.08850X0.00025*%
%ADD65R,0.08900X0.00025*%
%ADD66R,0.08975X0.00025*%
%ADD67R,0.09050X0.00025*%
%ADD68R,0.09125X0.00025*%
%ADD69R,0.09225X0.00025*%
%ADD70R,0.09275X0.00025*%
%ADD71R,0.09350X0.00025*%
%ADD72R,0.09425X0.00025*%
%ADD73R,0.09500X0.00025*%
%ADD74R,0.09550X0.00025*%
%ADD75R,0.09600X0.00025*%
%ADD76R,0.09700X0.00025*%
%ADD77R,0.09750X0.00025*%
%ADD78R,0.09825X0.00025*%
%ADD79R,0.09900X0.00025*%
%ADD80R,0.09950X0.00025*%
%ADD81R,0.10000X0.00025*%
%ADD82R,0.10075X0.00025*%
%ADD83R,0.10125X0.00025*%
%ADD84R,0.10175X0.00025*%
%ADD85R,0.10275X0.00025*%
%ADD86R,0.10300X0.00025*%
%ADD87R,0.10350X0.00025*%
%ADD88R,0.10450X0.00025*%
%ADD89R,0.10475X0.00025*%
%ADD90R,0.10525X0.00025*%
%ADD91R,0.10600X0.00025*%
%ADD92R,0.10650X0.00025*%
%ADD93R,0.10725X0.00025*%
%ADD94R,0.10750X0.00025*%
%ADD95R,0.10775X0.00025*%
%ADD96R,0.10825X0.00025*%
%ADD97R,0.10850X0.00025*%
%ADD98R,0.10875X0.00025*%
%ADD99R,0.10925X0.00025*%
%ADD100R,0.10950X0.00025*%
%ADD101R,0.10975X0.00025*%
%ADD102R,0.11050X0.00025*%
%ADD103R,0.11075X0.00025*%
%ADD104R,0.11100X0.00025*%
%ADD105R,0.11150X0.00025*%
%ADD106R,0.11175X0.00025*%
%ADD107R,0.00025X0.00025*%
%ADD108R,0.06175X0.00025*%
%ADD109R,0.04125X0.00025*%
%ADD110R,0.00050X0.00025*%
%ADD111R,0.03875X0.00025*%
%ADD112R,0.00075X0.00025*%
%ADD113R,0.05700X0.00025*%
%ADD114R,0.03700X0.00025*%
%ADD115R,0.00125X0.00025*%
%ADD116R,0.05525X0.00025*%
%ADD117R,0.03575X0.00025*%
%ADD118R,0.00150X0.00025*%
%ADD119R,0.05375X0.00025*%
%ADD120R,0.03475X0.00025*%
%ADD121R,0.00175X0.00025*%
%ADD122R,0.05225X0.00025*%
%ADD123R,0.03375X0.00025*%
%ADD124R,0.00200X0.00025*%
%ADD125R,0.03300X0.00025*%
%ADD126R,0.00225X0.00025*%
%ADD127R,0.05025X0.00025*%
%ADD128R,0.03225X0.00025*%
%ADD129R,0.00250X0.00025*%
%ADD130R,0.04925X0.00025*%
%ADD131R,0.03150X0.00025*%
%ADD132R,0.00275X0.00025*%
%ADD133R,0.04825X0.00025*%
%ADD134R,0.00300X0.00025*%
%ADD135R,0.04750X0.00025*%
%ADD136R,0.03025X0.00025*%
%ADD137R,0.00325X0.00025*%
%ADD138R,0.04650X0.00025*%
%ADD139R,0.02975X0.00025*%
%ADD140R,0.00350X0.00025*%
%ADD141R,0.04550X0.00025*%
%ADD142R,0.02925X0.00025*%
%ADD143R,0.00375X0.00025*%
%ADD144R,0.04475X0.00025*%
%ADD145R,0.02875X0.00025*%
%ADD146R,0.00425X0.00025*%
%ADD147R,0.04400X0.00025*%
%ADD148R,0.02825X0.00025*%
%ADD149R,0.00450X0.00025*%
%ADD150R,0.04325X0.00025*%
%ADD151R,0.02800X0.00025*%
%ADD152R,0.02750X0.00025*%
%ADD153R,0.00500X0.00025*%
%ADD154R,0.04175X0.00025*%
%ADD155R,0.02700X0.00025*%
%ADD156R,0.00525X0.00025*%
%ADD157R,0.04100X0.00025*%
%ADD158R,0.02675X0.00025*%
%ADD159R,0.00550X0.00025*%
%ADD160R,0.02650X0.00025*%
%ADD161R,0.00575X0.00025*%
%ADD162R,0.03975X0.00025*%
%ADD163R,0.02600X0.00025*%
%ADD164R,0.00625X0.00025*%
%ADD165R,0.03900X0.00025*%
%ADD166R,0.02575X0.00025*%
%ADD167R,0.00650X0.00025*%
%ADD168R,0.02550X0.00025*%
%ADD169R,0.00675X0.00025*%
%ADD170R,0.03775X0.00025*%
%ADD171R,0.02525X0.00025*%
%ADD172R,0.00700X0.00025*%
%ADD173R,0.02500X0.00025*%
%ADD174R,0.00725X0.00025*%
%ADD175R,0.03650X0.00025*%
%ADD176R,0.02475X0.00025*%
%ADD177R,0.00750X0.00025*%
%ADD178R,0.03625X0.00025*%
%ADD179R,0.00775X0.00025*%
%ADD180R,0.02425X0.00025*%
%ADD181R,0.00800X0.00025*%
%ADD182R,0.02400X0.00025*%
%ADD183R,0.00825X0.00025*%
%ADD184R,0.02375X0.00025*%
%ADD185R,0.02350X0.00025*%
%ADD186R,0.00875X0.00025*%
%ADD187R,0.03550X0.00025*%
%ADD188R,0.02325X0.00025*%
%ADD189R,0.00900X0.00025*%
%ADD190R,0.02300X0.00025*%
%ADD191R,0.03525X0.00025*%
%ADD192R,0.00925X0.00025*%
%ADD193R,0.02275X0.00025*%
%ADD194R,0.00950X0.00025*%
%ADD195R,0.02250X0.00025*%
%ADD196R,0.00975X0.00025*%
%ADD197R,0.03500X0.00025*%
%ADD198R,0.01000X0.00025*%
%ADD199R,0.02225X0.00025*%
%ADD200R,0.01025X0.00025*%
%ADD201R,0.01075X0.00025*%
%ADD202R,0.02175X0.00025*%
%ADD203R,0.01100X0.00025*%
%ADD204R,0.01125X0.00025*%
%ADD205R,0.03450X0.00025*%
%ADD206R,0.02150X0.00025*%
%ADD207R,0.01150X0.00025*%
%ADD208R,0.03425X0.00025*%
%ADD209R,0.01175X0.00025*%
%ADD210R,0.02125X0.00025*%
%ADD211R,0.01200X0.00025*%
%ADD212R,0.03400X0.00025*%
%ADD213R,0.01225X0.00025*%
%ADD214R,0.02100X0.00025*%
%ADD215R,0.01250X0.00025*%
%ADD216R,0.01275X0.00025*%
%ADD217R,0.01325X0.00025*%
%ADD218R,0.01350X0.00025*%
%ADD219R,0.02025X0.00025*%
%ADD220R,0.01375X0.00025*%
%ADD221R,0.03325X0.00025*%
%ADD222R,0.01400X0.00025*%
%ADD223R,0.02000X0.00025*%
%ADD224R,0.01425X0.00025*%
%ADD225R,0.01975X0.00025*%
%ADD226R,0.01475X0.00025*%
%ADD227R,0.01500X0.00025*%
%ADD228R,0.01950X0.00025*%
%ADD229R,0.01925X0.00025*%
%ADD230R,0.01525X0.00025*%
%ADD231R,0.01550X0.00025*%
%ADD232R,0.03275X0.00025*%
%ADD233R,0.01625X0.00025*%
%ADD234R,0.01900X0.00025*%
%ADD235R,0.03250X0.00025*%
%ADD236R,0.01650X0.00025*%
%ADD237R,0.01675X0.00025*%
%ADD238R,0.01875X0.00025*%
%ADD239R,0.01700X0.00025*%
%ADD240R,0.01750X0.00025*%
%ADD241R,0.01850X0.00025*%
%ADD242R,0.01775X0.00025*%
%ADD243R,0.01800X0.00025*%
%ADD244R,0.03200X0.00025*%
%ADD245R,0.01825X0.00025*%
%ADD246R,0.03175X0.00025*%
%ADD247R,0.02075X0.00025*%
%ADD248R,0.01725X0.00025*%
%ADD249R,0.02200X0.00025*%
%ADD250R,0.01600X0.00025*%
%ADD251R,0.02625X0.00025*%
%ADD252R,0.02725X0.00025*%
%ADD253R,0.01450X0.00025*%
%ADD254R,0.00100X0.00025*%
%ADD255R,0.03675X0.00025*%
%ADD256R,0.02850X0.00025*%
%ADD257R,0.03725X0.00025*%
%ADD258R,0.03750X0.00025*%
%ADD259R,0.02900X0.00025*%
%ADD260R,0.03800X0.00025*%
%ADD261R,0.02950X0.00025*%
%ADD262R,0.03850X0.00025*%
%ADD263R,0.03000X0.00025*%
%ADD264R,0.03925X0.00025*%
%ADD265R,0.03950X0.00025*%
%ADD266R,0.00400X0.00025*%
%ADD267R,0.03050X0.00025*%
%ADD268R,0.04000X0.00025*%
%ADD269R,0.01300X0.00025*%
%ADD270R,0.03100X0.00025*%
%ADD271R,0.04025X0.00025*%
%ADD272R,0.03125X0.00025*%
%ADD273R,0.00475X0.00025*%
%ADD274R,0.04075X0.00025*%
%ADD275R,0.04150X0.00025*%
%ADD276R,0.00600X0.00025*%
%ADD277R,0.04200X0.00025*%
%ADD278R,0.04225X0.00025*%
%ADD279R,0.04375X0.00025*%
%ADD280R,0.04425X0.00025*%
%ADD281R,0.04500X0.00025*%
%ADD282R,0.04525X0.00025*%
%ADD283R,0.04575X0.00025*%
%ADD284R,0.04600X0.00025*%
%ADD285R,0.04700X0.00025*%
%ADD286R,0.04725X0.00025*%
%ADD287R,0.04775X0.00025*%
%ADD288R,0.04850X0.00025*%
%ADD289R,0.04875X0.00025*%
%ADD290R,0.04900X0.00025*%
%ADD291R,0.05000X0.00025*%
%ADD292R,0.05050X0.00025*%
%ADD293R,0.05075X0.00025*%
%ADD294R,0.05150X0.00025*%
%ADD295R,0.01050X0.00025*%
%ADD296R,0.05175X0.00025*%
%ADD297R,0.05200X0.00025*%
%ADD298R,0.05250X0.00025*%
%ADD299R,0.05300X0.00025*%
%ADD300R,0.05350X0.00025*%
%ADD301R,0.05400X0.00025*%
%ADD302R,0.05425X0.00025*%
%ADD303R,0.05475X0.00025*%
%ADD304R,0.05550X0.00025*%
%ADD305R,0.05600X0.00025*%
%ADD306R,0.05625X0.00025*%
%ADD307R,0.05650X0.00025*%
%ADD308R,0.05675X0.00025*%
%ADD309R,0.05750X0.00025*%
%ADD310R,0.05775X0.00025*%
%ADD311R,0.05800X0.00025*%
%ADD312R,0.05825X0.00025*%
%ADD313R,0.05850X0.00025*%
%ADD314R,0.04275X0.00025*%
%ADD315R,0.05900X0.00025*%
%ADD316R,0.04300X0.00025*%
%ADD317R,0.04350X0.00025*%
%ADD318R,0.04950X0.00025*%
%ADD319R,0.05500X0.00025*%
%ADD320R,0.05325X0.00025*%
%ADD321R,0.05100X0.00025*%
%ADD322R,0.04675X0.00025*%
%ADD323R,0.05925X0.00025*%
%ADD324R,0.05975X0.00025*%
%ADD325R,0.05950X0.00025*%
%ADD326R,0.06025X0.00025*%
%ADD327R,0.06050X0.00025*%
%ADD328R,0.06075X0.00025*%
%ADD329R,0.06250X0.00025*%
%ADD330R,0.06350X0.00025*%
%ADD331R,0.06100X0.00025*%
%ADD332R,0.06450X0.00025*%
%ADD333R,0.06125X0.00025*%
%ADD334R,0.06550X0.00025*%
%ADD335R,0.06675X0.00025*%
%ADD336R,0.06775X0.00025*%
%ADD337R,0.06875X0.00025*%
%ADD338R,0.07000X0.00025*%
%ADD339R,0.07100X0.00025*%
%ADD340R,0.07225X0.00025*%
%ADD341R,0.07375X0.00025*%
%ADD342R,0.06200X0.00025*%
%ADD343R,0.07650X0.00025*%
%ADD344R,0.07950X0.00025*%
%ADD345R,0.08125X0.00025*%
%ADD346R,0.08275X0.00025*%
%ADD347R,0.08475X0.00025*%
%ADD348R,0.08700X0.00025*%
%ADD349R,0.08950X0.00025*%
%ADD350R,0.09250X0.00025*%
%ADD351R,0.09650X0.00025*%
%ADD352R,0.12100X0.00025*%
%ADD353R,0.12125X0.00025*%
%ADD354R,0.12175X0.00025*%
%ADD355R,0.12200X0.00025*%
%ADD356R,0.12250X0.00025*%
%ADD357R,0.12275X0.00025*%
%ADD358R,0.12325X0.00025*%
%ADD359R,0.12350X0.00025*%
%ADD360R,0.12375X0.00025*%
%ADD361R,0.12425X0.00025*%
%ADD362R,0.12450X0.00025*%
%ADD363R,0.12475X0.00025*%
%ADD364R,0.12525X0.00025*%
%ADD365R,0.12575X0.00025*%
%ADD366R,0.12600X0.00025*%
%ADD367R,0.12625X0.00025*%
%ADD368R,0.12675X0.00025*%
%ADD369R,0.12725X0.00025*%
%ADD370R,0.12750X0.00025*%
%ADD371R,0.12775X0.00025*%
%ADD372R,0.12800X0.00025*%
%ADD373R,0.12850X0.00025*%
%ADD374R,0.12875X0.00025*%
%ADD375R,0.12925X0.00025*%
%ADD376R,0.12950X0.00025*%
%ADD377R,0.12975X0.00025*%
%ADD378R,0.13025X0.00025*%
%ADD379R,0.13100X0.00025*%
%ADD380R,0.13150X0.00025*%
%ADD381R,0.13200X0.00025*%
%ADD382R,0.13250X0.00025*%
%ADD383R,0.13325X0.00025*%
%ADD384R,0.13375X0.00025*%
%ADD385R,0.13400X0.00025*%
%ADD386R,0.13475X0.00025*%
%ADD387R,0.13525X0.00025*%
%ADD388R,0.13550X0.00025*%
%ADD389R,0.13625X0.00025*%
%ADD390R,0.13675X0.00025*%
%ADD391R,0.13700X0.00025*%
%ADD392R,0.13750X0.00025*%
%ADD393R,0.13775X0.00025*%
%ADD394R,0.13825X0.00025*%
%ADD395R,0.13875X0.00025*%
%ADD396R,0.13925X0.00025*%
%ADD397R,0.13975X0.00025*%
%ADD398R,0.14000X0.00025*%
%ADD399R,0.14025X0.00025*%
%ADD400R,0.14050X0.00025*%
%ADD401R,0.14075X0.00025*%
%ADD402R,0.14100X0.00025*%
%ADD403R,0.14125X0.00025*%
%ADD404R,0.14150X0.00025*%
%ADD405R,0.12300X0.00025*%
%ADD406R,0.12400X0.00025*%
%ADD407R,0.12500X0.00025*%
%ADD408R,0.12700X0.00025*%
%ADD409R,0.12825X0.00025*%
%ADD410R,0.13275X0.00025*%
%ADD411R,0.13350X0.00025*%
%ADD412R,0.13500X0.00025*%
%ADD413R,0.13950X0.00025*%
%ADD414R,0.14200X0.00025*%
%ADD415R,0.14700X0.00025*%
%ADD416R,0.14750X0.00025*%
%ADD417R,0.14800X0.00025*%
%ADD418R,0.14825X0.00025*%
%ADD419R,0.14850X0.00025*%
%ADD420R,0.14925X0.00025*%
%ADD421R,0.14975X0.00025*%
%ADD422R,0.15000X0.00025*%
%ADD423R,0.15050X0.00025*%
%ADD424R,0.15075X0.00025*%
%ADD425R,0.15125X0.00025*%
%ADD426R,0.15150X0.00025*%
%ADD427R,0.15175X0.00025*%
%ADD428R,0.15200X0.00025*%
%ADD429R,0.15250X0.00025*%
%ADD430R,0.15275X0.00025*%
%ADD431R,0.15300X0.00025*%
%ADD432R,0.15325X0.00025*%
%ADD433R,0.15350X0.00025*%
%ADD434R,0.09675X0.00025*%
%ADD435R,0.08450X0.00025*%
%ADD436R,0.08250X0.00025*%
%ADD437R,0.07850X0.00025*%
%ADD438R,0.07675X0.00025*%
%ADD439R,0.06950X0.00025*%
%ADD440R,0.06725X0.00025*%
%ADD441R,0.06500X0.00025*%
%ADD442R,0.06425X0.00025*%
%ADD443R,0.06300X0.00025*%
%ADD444R,0.06225X0.00025*%
%ADD445R,0.08025X0.00025*%
%ADD446R,0.07900X0.00025*%
%ADD447R,0.07575X0.00025*%
%ADD448R,0.07475X0.00025*%
%ADD449R,0.07325X0.00025*%
%ADD450R,0.06825X0.00025*%
%ADD451R,0.06575X0.00025*%
%ADD452C,0.00500*%
D10*
X0037755Y0083077D02*
X0041558Y0083077D01*
X0042826Y0084345D01*
X0042826Y0086880D01*
X0041558Y0088148D01*
X0037755Y0088148D01*
X0037755Y0090683D02*
X0037755Y0083077D01*
X0045622Y0088148D02*
X0046890Y0088148D01*
X0049425Y0085612D01*
X0052273Y0085612D02*
X0056076Y0085612D01*
X0057344Y0084345D01*
X0056076Y0083077D01*
X0052273Y0083077D01*
X0052273Y0086880D01*
X0053541Y0088148D01*
X0056076Y0088148D01*
X0060192Y0086880D02*
X0061459Y0088148D01*
X0063995Y0088148D01*
X0065263Y0086880D01*
X0065263Y0084345D01*
X0063995Y0083077D01*
X0061459Y0083077D01*
X0060192Y0084345D01*
X0060192Y0086880D01*
X0068110Y0085612D02*
X0068110Y0084345D01*
X0069378Y0083077D01*
X0073181Y0083077D01*
X0073181Y0090683D01*
X0069378Y0090683D01*
X0068110Y0089416D01*
X0068110Y0088148D01*
X0069378Y0086880D01*
X0073181Y0086880D01*
X0069378Y0086880D02*
X0068110Y0085612D01*
X0083948Y0090683D02*
X0089019Y0090683D01*
X0086483Y0090683D02*
X0086483Y0083077D01*
X0091867Y0084345D02*
X0093134Y0083077D01*
X0095670Y0083077D01*
X0096938Y0084345D01*
X0096938Y0089416D01*
X0095670Y0090683D01*
X0093134Y0090683D01*
X0091867Y0089416D01*
X0091867Y0084345D01*
X0099681Y0083077D02*
X0102217Y0083077D01*
X0100949Y0083077D02*
X0100949Y0090683D01*
X0102217Y0090683D02*
X0099681Y0090683D01*
X0112983Y0090683D02*
X0115519Y0089416D01*
X0118054Y0086880D01*
X0114251Y0086880D01*
X0112983Y0085612D01*
X0112983Y0084345D01*
X0114251Y0083077D01*
X0116787Y0083077D01*
X0118054Y0084345D01*
X0118054Y0086880D01*
X0120902Y0085612D02*
X0122170Y0086880D01*
X0125973Y0086880D01*
X0125973Y0084345D01*
X0124705Y0083077D01*
X0122170Y0083077D01*
X0120902Y0084345D01*
X0120902Y0085612D01*
X0123438Y0089416D02*
X0125973Y0086880D01*
X0128821Y0088148D02*
X0128821Y0089416D01*
X0130089Y0090683D01*
X0132624Y0090683D01*
X0133892Y0089416D01*
X0136740Y0089416D02*
X0136740Y0088148D01*
X0138007Y0086880D01*
X0140543Y0086880D01*
X0141811Y0088148D01*
X0141811Y0089416D01*
X0140543Y0090683D01*
X0138007Y0090683D01*
X0136740Y0089416D01*
X0138007Y0086880D02*
X0136740Y0085612D01*
X0136740Y0084345D01*
X0138007Y0083077D01*
X0140543Y0083077D01*
X0141811Y0084345D01*
X0141811Y0085612D01*
X0140543Y0086880D01*
X0144658Y0086880D02*
X0145926Y0085612D01*
X0149729Y0085612D01*
X0149729Y0083077D02*
X0149729Y0090683D01*
X0145926Y0090683D01*
X0144658Y0089416D01*
X0144658Y0086880D01*
X0152577Y0085612D02*
X0152577Y0084345D01*
X0153845Y0083077D01*
X0156380Y0083077D01*
X0157648Y0084345D01*
X0156380Y0086880D02*
X0153845Y0086880D01*
X0152577Y0085612D01*
X0152577Y0089416D02*
X0153845Y0090683D01*
X0156380Y0090683D01*
X0157648Y0089416D01*
X0157648Y0088148D01*
X0156380Y0086880D01*
X0160496Y0090683D02*
X0165567Y0090683D01*
X0165567Y0083077D01*
X0160496Y0083077D01*
X0163031Y0086880D02*
X0165567Y0086880D01*
X0133892Y0083077D02*
X0128821Y0088148D01*
X0123438Y0089416D02*
X0120902Y0090683D01*
X0128821Y0083077D02*
X0133892Y0083077D01*
X0049425Y0083077D02*
X0049425Y0088148D01*
D11*
X0048063Y0077952D02*
X0048063Y0072347D01*
X0049931Y0072347D02*
X0046195Y0072347D01*
X0044038Y0072347D02*
X0043104Y0072347D01*
X0043104Y0073281D01*
X0044038Y0073281D01*
X0044038Y0072347D01*
X0041092Y0073281D02*
X0037355Y0077018D01*
X0037355Y0073281D01*
X0038289Y0072347D01*
X0040158Y0072347D01*
X0041092Y0073281D01*
X0041092Y0077018D01*
X0040158Y0077952D01*
X0038289Y0077952D01*
X0037355Y0077018D01*
X0048063Y0077952D02*
X0049931Y0076083D01*
X0052088Y0076083D02*
X0053956Y0072347D01*
X0055824Y0076083D01*
X0057712Y0066658D02*
X0057712Y0063856D01*
X0058646Y0062922D01*
X0059580Y0063856D01*
X0060514Y0062922D01*
X0061448Y0063856D01*
X0061448Y0066658D01*
X0063605Y0065724D02*
X0064539Y0066658D01*
X0066407Y0066658D01*
X0067342Y0065724D01*
X0067342Y0063856D01*
X0066407Y0062922D01*
X0064539Y0062922D01*
X0063605Y0063856D01*
X0063605Y0065724D01*
X0069450Y0066658D02*
X0070384Y0066658D01*
X0072252Y0064790D01*
X0072252Y0062922D02*
X0072252Y0066658D01*
X0074409Y0066658D02*
X0077211Y0066658D01*
X0078145Y0065724D01*
X0078145Y0063856D01*
X0077211Y0062922D01*
X0074409Y0062922D01*
X0080302Y0064790D02*
X0084038Y0064790D01*
X0084038Y0063856D02*
X0084038Y0065724D01*
X0083104Y0066658D01*
X0081236Y0066658D01*
X0080302Y0065724D01*
X0080302Y0064790D01*
X0081236Y0062922D02*
X0083104Y0062922D01*
X0084038Y0063856D01*
X0086099Y0062922D02*
X0087967Y0062922D01*
X0087033Y0062922D02*
X0087033Y0068526D01*
X0087967Y0068526D01*
X0090124Y0065724D02*
X0091058Y0066658D01*
X0092926Y0066658D01*
X0093860Y0065724D01*
X0093860Y0063856D01*
X0092926Y0062922D01*
X0091058Y0062922D01*
X0090124Y0064790D02*
X0093860Y0064790D01*
X0095873Y0063856D02*
X0095873Y0062922D01*
X0096807Y0062922D01*
X0096807Y0063856D01*
X0095873Y0063856D01*
X0098963Y0063856D02*
X0098963Y0066658D01*
X0098963Y0063856D02*
X0099897Y0062922D01*
X0100831Y0063856D01*
X0101766Y0062922D01*
X0102700Y0063856D01*
X0102700Y0066658D01*
X0104856Y0066658D02*
X0104856Y0063856D01*
X0105790Y0062922D01*
X0106725Y0063856D01*
X0107659Y0062922D01*
X0108593Y0063856D01*
X0108593Y0066658D01*
X0110749Y0066658D02*
X0110749Y0063856D01*
X0111683Y0062922D01*
X0112618Y0063856D01*
X0113552Y0062922D01*
X0114486Y0063856D01*
X0114486Y0066658D01*
X0090124Y0065724D02*
X0090124Y0064790D01*
X0055555Y0063856D02*
X0055555Y0062922D01*
X0054621Y0062922D01*
X0054621Y0063856D01*
X0055555Y0063856D01*
X0052609Y0063856D02*
X0051675Y0062922D01*
X0048872Y0062922D01*
X0046716Y0063856D02*
X0045782Y0062922D01*
X0043914Y0062922D01*
X0042979Y0063856D01*
X0042979Y0065724D01*
X0043914Y0066658D01*
X0045782Y0066658D01*
X0046716Y0065724D01*
X0046716Y0063856D01*
X0048872Y0066658D02*
X0051675Y0066658D01*
X0052609Y0065724D01*
X0052609Y0063856D01*
X0040823Y0062922D02*
X0040823Y0066658D01*
X0039889Y0066658D01*
X0038955Y0065724D01*
X0038020Y0066658D01*
X0037086Y0065724D01*
X0037086Y0062922D01*
X0038955Y0062922D02*
X0038955Y0065724D01*
X0018906Y0032022D02*
X0010906Y0032022D01*
X0011705Y0027022D02*
X0011707Y0027135D01*
X0011713Y0027248D01*
X0011723Y0027360D01*
X0011737Y0027472D01*
X0011755Y0027584D01*
X0011777Y0027695D01*
X0011802Y0027805D01*
X0011832Y0027914D01*
X0011865Y0028022D01*
X0011902Y0028129D01*
X0011943Y0028234D01*
X0011988Y0028338D01*
X0012036Y0028440D01*
X0012088Y0028540D01*
X0012143Y0028639D01*
X0012202Y0028735D01*
X0012264Y0028830D01*
X0012330Y0028922D01*
X0012398Y0029011D01*
X0012470Y0029099D01*
X0012545Y0029183D01*
X0012623Y0029265D01*
X0012703Y0029345D01*
X0012787Y0029421D01*
X0012873Y0029494D01*
X0012961Y0029564D01*
X0013052Y0029631D01*
X0013145Y0029695D01*
X0013241Y0029756D01*
X0013338Y0029813D01*
X0013438Y0029866D01*
X0013539Y0029916D01*
X0013642Y0029963D01*
X0013747Y0030006D01*
X0013853Y0030045D01*
X0013960Y0030080D01*
X0014068Y0030111D01*
X0014178Y0030139D01*
X0014288Y0030163D01*
X0014400Y0030183D01*
X0014512Y0030199D01*
X0014624Y0030211D01*
X0014737Y0030219D01*
X0014850Y0030223D01*
X0014962Y0030223D01*
X0015075Y0030219D01*
X0015188Y0030211D01*
X0015300Y0030199D01*
X0015412Y0030183D01*
X0015524Y0030163D01*
X0015634Y0030139D01*
X0015744Y0030111D01*
X0015852Y0030080D01*
X0015959Y0030045D01*
X0016065Y0030006D01*
X0016170Y0029963D01*
X0016273Y0029916D01*
X0016374Y0029866D01*
X0016474Y0029813D01*
X0016571Y0029756D01*
X0016667Y0029695D01*
X0016760Y0029631D01*
X0016851Y0029564D01*
X0016939Y0029494D01*
X0017025Y0029421D01*
X0017109Y0029345D01*
X0017189Y0029265D01*
X0017267Y0029183D01*
X0017342Y0029099D01*
X0017414Y0029011D01*
X0017482Y0028922D01*
X0017548Y0028830D01*
X0017610Y0028735D01*
X0017669Y0028639D01*
X0017724Y0028540D01*
X0017776Y0028440D01*
X0017824Y0028338D01*
X0017869Y0028234D01*
X0017910Y0028129D01*
X0017947Y0028022D01*
X0017980Y0027914D01*
X0018010Y0027805D01*
X0018035Y0027695D01*
X0018057Y0027584D01*
X0018075Y0027472D01*
X0018089Y0027360D01*
X0018099Y0027248D01*
X0018105Y0027135D01*
X0018107Y0027022D01*
X0018105Y0026909D01*
X0018099Y0026796D01*
X0018089Y0026684D01*
X0018075Y0026572D01*
X0018057Y0026460D01*
X0018035Y0026349D01*
X0018010Y0026239D01*
X0017980Y0026130D01*
X0017947Y0026022D01*
X0017910Y0025915D01*
X0017869Y0025810D01*
X0017824Y0025706D01*
X0017776Y0025604D01*
X0017724Y0025504D01*
X0017669Y0025405D01*
X0017610Y0025309D01*
X0017548Y0025214D01*
X0017482Y0025122D01*
X0017414Y0025033D01*
X0017342Y0024945D01*
X0017267Y0024861D01*
X0017189Y0024779D01*
X0017109Y0024699D01*
X0017025Y0024623D01*
X0016939Y0024550D01*
X0016851Y0024480D01*
X0016760Y0024413D01*
X0016667Y0024349D01*
X0016571Y0024288D01*
X0016474Y0024231D01*
X0016374Y0024178D01*
X0016273Y0024128D01*
X0016170Y0024081D01*
X0016065Y0024038D01*
X0015959Y0023999D01*
X0015852Y0023964D01*
X0015744Y0023933D01*
X0015634Y0023905D01*
X0015524Y0023881D01*
X0015412Y0023861D01*
X0015300Y0023845D01*
X0015188Y0023833D01*
X0015075Y0023825D01*
X0014962Y0023821D01*
X0014850Y0023821D01*
X0014737Y0023825D01*
X0014624Y0023833D01*
X0014512Y0023845D01*
X0014400Y0023861D01*
X0014288Y0023881D01*
X0014178Y0023905D01*
X0014068Y0023933D01*
X0013960Y0023964D01*
X0013853Y0023999D01*
X0013747Y0024038D01*
X0013642Y0024081D01*
X0013539Y0024128D01*
X0013438Y0024178D01*
X0013338Y0024231D01*
X0013241Y0024288D01*
X0013145Y0024349D01*
X0013052Y0024413D01*
X0012961Y0024480D01*
X0012873Y0024550D01*
X0012787Y0024623D01*
X0012703Y0024699D01*
X0012623Y0024779D01*
X0012545Y0024861D01*
X0012470Y0024945D01*
X0012398Y0025033D01*
X0012330Y0025122D01*
X0012264Y0025214D01*
X0012202Y0025309D01*
X0012143Y0025405D01*
X0012088Y0025504D01*
X0012036Y0025604D01*
X0011988Y0025706D01*
X0011943Y0025810D01*
X0011902Y0025915D01*
X0011865Y0026022D01*
X0011832Y0026130D01*
X0011802Y0026239D01*
X0011777Y0026349D01*
X0011755Y0026460D01*
X0011737Y0026572D01*
X0011723Y0026684D01*
X0011713Y0026796D01*
X0011707Y0026909D01*
X0011705Y0027022D01*
X0010906Y0022022D02*
X0018906Y0022022D01*
X0004874Y0011124D02*
X0004876Y0011278D01*
X0004882Y0011433D01*
X0004892Y0011587D01*
X0004906Y0011741D01*
X0004924Y0011894D01*
X0004945Y0012047D01*
X0004971Y0012200D01*
X0005001Y0012351D01*
X0005034Y0012502D01*
X0005072Y0012652D01*
X0005113Y0012801D01*
X0005158Y0012949D01*
X0005207Y0013095D01*
X0005260Y0013241D01*
X0005316Y0013384D01*
X0005376Y0013527D01*
X0005440Y0013667D01*
X0005507Y0013807D01*
X0005578Y0013944D01*
X0005652Y0014079D01*
X0005730Y0014213D01*
X0005811Y0014344D01*
X0005896Y0014473D01*
X0005984Y0014601D01*
X0006075Y0014725D01*
X0006169Y0014848D01*
X0006267Y0014968D01*
X0006367Y0015085D01*
X0006471Y0015200D01*
X0006577Y0015312D01*
X0006686Y0015421D01*
X0006798Y0015527D01*
X0006913Y0015631D01*
X0007030Y0015731D01*
X0007150Y0015829D01*
X0007273Y0015923D01*
X0007397Y0016014D01*
X0007525Y0016102D01*
X0007654Y0016187D01*
X0007785Y0016268D01*
X0007919Y0016346D01*
X0008054Y0016420D01*
X0008191Y0016491D01*
X0008331Y0016558D01*
X0008471Y0016622D01*
X0008614Y0016682D01*
X0008757Y0016738D01*
X0008903Y0016791D01*
X0009049Y0016840D01*
X0009197Y0016885D01*
X0009346Y0016926D01*
X0009496Y0016964D01*
X0009647Y0016997D01*
X0009798Y0017027D01*
X0009951Y0017053D01*
X0010104Y0017074D01*
X0010257Y0017092D01*
X0010411Y0017106D01*
X0010565Y0017116D01*
X0010720Y0017122D01*
X0010874Y0017124D01*
X0011028Y0017122D01*
X0011183Y0017116D01*
X0011337Y0017106D01*
X0011491Y0017092D01*
X0011644Y0017074D01*
X0011797Y0017053D01*
X0011950Y0017027D01*
X0012101Y0016997D01*
X0012252Y0016964D01*
X0012402Y0016926D01*
X0012551Y0016885D01*
X0012699Y0016840D01*
X0012845Y0016791D01*
X0012991Y0016738D01*
X0013134Y0016682D01*
X0013277Y0016622D01*
X0013417Y0016558D01*
X0013557Y0016491D01*
X0013694Y0016420D01*
X0013829Y0016346D01*
X0013963Y0016268D01*
X0014094Y0016187D01*
X0014223Y0016102D01*
X0014351Y0016014D01*
X0014475Y0015923D01*
X0014598Y0015829D01*
X0014718Y0015731D01*
X0014835Y0015631D01*
X0014950Y0015527D01*
X0015062Y0015421D01*
X0015171Y0015312D01*
X0015277Y0015200D01*
X0015381Y0015085D01*
X0015481Y0014968D01*
X0015579Y0014848D01*
X0015673Y0014725D01*
X0015764Y0014601D01*
X0015852Y0014473D01*
X0015937Y0014344D01*
X0016018Y0014213D01*
X0016096Y0014079D01*
X0016170Y0013944D01*
X0016241Y0013807D01*
X0016308Y0013667D01*
X0016372Y0013527D01*
X0016432Y0013384D01*
X0016488Y0013241D01*
X0016541Y0013095D01*
X0016590Y0012949D01*
X0016635Y0012801D01*
X0016676Y0012652D01*
X0016714Y0012502D01*
X0016747Y0012351D01*
X0016777Y0012200D01*
X0016803Y0012047D01*
X0016824Y0011894D01*
X0016842Y0011741D01*
X0016856Y0011587D01*
X0016866Y0011433D01*
X0016872Y0011278D01*
X0016874Y0011124D01*
X0016872Y0010970D01*
X0016866Y0010815D01*
X0016856Y0010661D01*
X0016842Y0010507D01*
X0016824Y0010354D01*
X0016803Y0010201D01*
X0016777Y0010048D01*
X0016747Y0009897D01*
X0016714Y0009746D01*
X0016676Y0009596D01*
X0016635Y0009447D01*
X0016590Y0009299D01*
X0016541Y0009153D01*
X0016488Y0009007D01*
X0016432Y0008864D01*
X0016372Y0008721D01*
X0016308Y0008581D01*
X0016241Y0008441D01*
X0016170Y0008304D01*
X0016096Y0008169D01*
X0016018Y0008035D01*
X0015937Y0007904D01*
X0015852Y0007775D01*
X0015764Y0007647D01*
X0015673Y0007523D01*
X0015579Y0007400D01*
X0015481Y0007280D01*
X0015381Y0007163D01*
X0015277Y0007048D01*
X0015171Y0006936D01*
X0015062Y0006827D01*
X0014950Y0006721D01*
X0014835Y0006617D01*
X0014718Y0006517D01*
X0014598Y0006419D01*
X0014475Y0006325D01*
X0014351Y0006234D01*
X0014223Y0006146D01*
X0014094Y0006061D01*
X0013963Y0005980D01*
X0013829Y0005902D01*
X0013694Y0005828D01*
X0013557Y0005757D01*
X0013417Y0005690D01*
X0013277Y0005626D01*
X0013134Y0005566D01*
X0012991Y0005510D01*
X0012845Y0005457D01*
X0012699Y0005408D01*
X0012551Y0005363D01*
X0012402Y0005322D01*
X0012252Y0005284D01*
X0012101Y0005251D01*
X0011950Y0005221D01*
X0011797Y0005195D01*
X0011644Y0005174D01*
X0011491Y0005156D01*
X0011337Y0005142D01*
X0011183Y0005132D01*
X0011028Y0005126D01*
X0010874Y0005124D01*
X0010720Y0005126D01*
X0010565Y0005132D01*
X0010411Y0005142D01*
X0010257Y0005156D01*
X0010104Y0005174D01*
X0009951Y0005195D01*
X0009798Y0005221D01*
X0009647Y0005251D01*
X0009496Y0005284D01*
X0009346Y0005322D01*
X0009197Y0005363D01*
X0009049Y0005408D01*
X0008903Y0005457D01*
X0008757Y0005510D01*
X0008614Y0005566D01*
X0008471Y0005626D01*
X0008331Y0005690D01*
X0008191Y0005757D01*
X0008054Y0005828D01*
X0007919Y0005902D01*
X0007785Y0005980D01*
X0007654Y0006061D01*
X0007525Y0006146D01*
X0007397Y0006234D01*
X0007273Y0006325D01*
X0007150Y0006419D01*
X0007030Y0006517D01*
X0006913Y0006617D01*
X0006798Y0006721D01*
X0006686Y0006827D01*
X0006577Y0006936D01*
X0006471Y0007048D01*
X0006367Y0007163D01*
X0006267Y0007280D01*
X0006169Y0007400D01*
X0006075Y0007523D01*
X0005984Y0007647D01*
X0005896Y0007775D01*
X0005811Y0007904D01*
X0005730Y0008035D01*
X0005652Y0008169D01*
X0005578Y0008304D01*
X0005507Y0008441D01*
X0005440Y0008581D01*
X0005376Y0008721D01*
X0005316Y0008864D01*
X0005260Y0009007D01*
X0005207Y0009153D01*
X0005158Y0009299D01*
X0005113Y0009447D01*
X0005072Y0009596D01*
X0005034Y0009746D01*
X0005001Y0009897D01*
X0004971Y0010048D01*
X0004945Y0010201D01*
X0004924Y0010354D01*
X0004906Y0010507D01*
X0004892Y0010661D01*
X0004882Y0010815D01*
X0004876Y0010970D01*
X0004874Y0011124D01*
X0004874Y0133171D02*
X0004876Y0133325D01*
X0004882Y0133480D01*
X0004892Y0133634D01*
X0004906Y0133788D01*
X0004924Y0133941D01*
X0004945Y0134094D01*
X0004971Y0134247D01*
X0005001Y0134398D01*
X0005034Y0134549D01*
X0005072Y0134699D01*
X0005113Y0134848D01*
X0005158Y0134996D01*
X0005207Y0135142D01*
X0005260Y0135288D01*
X0005316Y0135431D01*
X0005376Y0135574D01*
X0005440Y0135714D01*
X0005507Y0135854D01*
X0005578Y0135991D01*
X0005652Y0136126D01*
X0005730Y0136260D01*
X0005811Y0136391D01*
X0005896Y0136520D01*
X0005984Y0136648D01*
X0006075Y0136772D01*
X0006169Y0136895D01*
X0006267Y0137015D01*
X0006367Y0137132D01*
X0006471Y0137247D01*
X0006577Y0137359D01*
X0006686Y0137468D01*
X0006798Y0137574D01*
X0006913Y0137678D01*
X0007030Y0137778D01*
X0007150Y0137876D01*
X0007273Y0137970D01*
X0007397Y0138061D01*
X0007525Y0138149D01*
X0007654Y0138234D01*
X0007785Y0138315D01*
X0007919Y0138393D01*
X0008054Y0138467D01*
X0008191Y0138538D01*
X0008331Y0138605D01*
X0008471Y0138669D01*
X0008614Y0138729D01*
X0008757Y0138785D01*
X0008903Y0138838D01*
X0009049Y0138887D01*
X0009197Y0138932D01*
X0009346Y0138973D01*
X0009496Y0139011D01*
X0009647Y0139044D01*
X0009798Y0139074D01*
X0009951Y0139100D01*
X0010104Y0139121D01*
X0010257Y0139139D01*
X0010411Y0139153D01*
X0010565Y0139163D01*
X0010720Y0139169D01*
X0010874Y0139171D01*
X0011028Y0139169D01*
X0011183Y0139163D01*
X0011337Y0139153D01*
X0011491Y0139139D01*
X0011644Y0139121D01*
X0011797Y0139100D01*
X0011950Y0139074D01*
X0012101Y0139044D01*
X0012252Y0139011D01*
X0012402Y0138973D01*
X0012551Y0138932D01*
X0012699Y0138887D01*
X0012845Y0138838D01*
X0012991Y0138785D01*
X0013134Y0138729D01*
X0013277Y0138669D01*
X0013417Y0138605D01*
X0013557Y0138538D01*
X0013694Y0138467D01*
X0013829Y0138393D01*
X0013963Y0138315D01*
X0014094Y0138234D01*
X0014223Y0138149D01*
X0014351Y0138061D01*
X0014475Y0137970D01*
X0014598Y0137876D01*
X0014718Y0137778D01*
X0014835Y0137678D01*
X0014950Y0137574D01*
X0015062Y0137468D01*
X0015171Y0137359D01*
X0015277Y0137247D01*
X0015381Y0137132D01*
X0015481Y0137015D01*
X0015579Y0136895D01*
X0015673Y0136772D01*
X0015764Y0136648D01*
X0015852Y0136520D01*
X0015937Y0136391D01*
X0016018Y0136260D01*
X0016096Y0136126D01*
X0016170Y0135991D01*
X0016241Y0135854D01*
X0016308Y0135714D01*
X0016372Y0135574D01*
X0016432Y0135431D01*
X0016488Y0135288D01*
X0016541Y0135142D01*
X0016590Y0134996D01*
X0016635Y0134848D01*
X0016676Y0134699D01*
X0016714Y0134549D01*
X0016747Y0134398D01*
X0016777Y0134247D01*
X0016803Y0134094D01*
X0016824Y0133941D01*
X0016842Y0133788D01*
X0016856Y0133634D01*
X0016866Y0133480D01*
X0016872Y0133325D01*
X0016874Y0133171D01*
X0016872Y0133017D01*
X0016866Y0132862D01*
X0016856Y0132708D01*
X0016842Y0132554D01*
X0016824Y0132401D01*
X0016803Y0132248D01*
X0016777Y0132095D01*
X0016747Y0131944D01*
X0016714Y0131793D01*
X0016676Y0131643D01*
X0016635Y0131494D01*
X0016590Y0131346D01*
X0016541Y0131200D01*
X0016488Y0131054D01*
X0016432Y0130911D01*
X0016372Y0130768D01*
X0016308Y0130628D01*
X0016241Y0130488D01*
X0016170Y0130351D01*
X0016096Y0130216D01*
X0016018Y0130082D01*
X0015937Y0129951D01*
X0015852Y0129822D01*
X0015764Y0129694D01*
X0015673Y0129570D01*
X0015579Y0129447D01*
X0015481Y0129327D01*
X0015381Y0129210D01*
X0015277Y0129095D01*
X0015171Y0128983D01*
X0015062Y0128874D01*
X0014950Y0128768D01*
X0014835Y0128664D01*
X0014718Y0128564D01*
X0014598Y0128466D01*
X0014475Y0128372D01*
X0014351Y0128281D01*
X0014223Y0128193D01*
X0014094Y0128108D01*
X0013963Y0128027D01*
X0013829Y0127949D01*
X0013694Y0127875D01*
X0013557Y0127804D01*
X0013417Y0127737D01*
X0013277Y0127673D01*
X0013134Y0127613D01*
X0012991Y0127557D01*
X0012845Y0127504D01*
X0012699Y0127455D01*
X0012551Y0127410D01*
X0012402Y0127369D01*
X0012252Y0127331D01*
X0012101Y0127298D01*
X0011950Y0127268D01*
X0011797Y0127242D01*
X0011644Y0127221D01*
X0011491Y0127203D01*
X0011337Y0127189D01*
X0011183Y0127179D01*
X0011028Y0127173D01*
X0010874Y0127171D01*
X0010720Y0127173D01*
X0010565Y0127179D01*
X0010411Y0127189D01*
X0010257Y0127203D01*
X0010104Y0127221D01*
X0009951Y0127242D01*
X0009798Y0127268D01*
X0009647Y0127298D01*
X0009496Y0127331D01*
X0009346Y0127369D01*
X0009197Y0127410D01*
X0009049Y0127455D01*
X0008903Y0127504D01*
X0008757Y0127557D01*
X0008614Y0127613D01*
X0008471Y0127673D01*
X0008331Y0127737D01*
X0008191Y0127804D01*
X0008054Y0127875D01*
X0007919Y0127949D01*
X0007785Y0128027D01*
X0007654Y0128108D01*
X0007525Y0128193D01*
X0007397Y0128281D01*
X0007273Y0128372D01*
X0007150Y0128466D01*
X0007030Y0128564D01*
X0006913Y0128664D01*
X0006798Y0128768D01*
X0006686Y0128874D01*
X0006577Y0128983D01*
X0006471Y0129095D01*
X0006367Y0129210D01*
X0006267Y0129327D01*
X0006169Y0129447D01*
X0006075Y0129570D01*
X0005984Y0129694D01*
X0005896Y0129822D01*
X0005811Y0129951D01*
X0005730Y0130082D01*
X0005652Y0130216D01*
X0005578Y0130351D01*
X0005507Y0130488D01*
X0005440Y0130628D01*
X0005376Y0130768D01*
X0005316Y0130911D01*
X0005260Y0131054D01*
X0005207Y0131200D01*
X0005158Y0131346D01*
X0005113Y0131494D01*
X0005072Y0131643D01*
X0005034Y0131793D01*
X0005001Y0131944D01*
X0004971Y0132095D01*
X0004945Y0132248D01*
X0004924Y0132401D01*
X0004906Y0132554D01*
X0004892Y0132708D01*
X0004882Y0132862D01*
X0004876Y0133017D01*
X0004874Y0133171D01*
X0185976Y0133171D02*
X0185978Y0133325D01*
X0185984Y0133480D01*
X0185994Y0133634D01*
X0186008Y0133788D01*
X0186026Y0133941D01*
X0186047Y0134094D01*
X0186073Y0134247D01*
X0186103Y0134398D01*
X0186136Y0134549D01*
X0186174Y0134699D01*
X0186215Y0134848D01*
X0186260Y0134996D01*
X0186309Y0135142D01*
X0186362Y0135288D01*
X0186418Y0135431D01*
X0186478Y0135574D01*
X0186542Y0135714D01*
X0186609Y0135854D01*
X0186680Y0135991D01*
X0186754Y0136126D01*
X0186832Y0136260D01*
X0186913Y0136391D01*
X0186998Y0136520D01*
X0187086Y0136648D01*
X0187177Y0136772D01*
X0187271Y0136895D01*
X0187369Y0137015D01*
X0187469Y0137132D01*
X0187573Y0137247D01*
X0187679Y0137359D01*
X0187788Y0137468D01*
X0187900Y0137574D01*
X0188015Y0137678D01*
X0188132Y0137778D01*
X0188252Y0137876D01*
X0188375Y0137970D01*
X0188499Y0138061D01*
X0188627Y0138149D01*
X0188756Y0138234D01*
X0188887Y0138315D01*
X0189021Y0138393D01*
X0189156Y0138467D01*
X0189293Y0138538D01*
X0189433Y0138605D01*
X0189573Y0138669D01*
X0189716Y0138729D01*
X0189859Y0138785D01*
X0190005Y0138838D01*
X0190151Y0138887D01*
X0190299Y0138932D01*
X0190448Y0138973D01*
X0190598Y0139011D01*
X0190749Y0139044D01*
X0190900Y0139074D01*
X0191053Y0139100D01*
X0191206Y0139121D01*
X0191359Y0139139D01*
X0191513Y0139153D01*
X0191667Y0139163D01*
X0191822Y0139169D01*
X0191976Y0139171D01*
X0192130Y0139169D01*
X0192285Y0139163D01*
X0192439Y0139153D01*
X0192593Y0139139D01*
X0192746Y0139121D01*
X0192899Y0139100D01*
X0193052Y0139074D01*
X0193203Y0139044D01*
X0193354Y0139011D01*
X0193504Y0138973D01*
X0193653Y0138932D01*
X0193801Y0138887D01*
X0193947Y0138838D01*
X0194093Y0138785D01*
X0194236Y0138729D01*
X0194379Y0138669D01*
X0194519Y0138605D01*
X0194659Y0138538D01*
X0194796Y0138467D01*
X0194931Y0138393D01*
X0195065Y0138315D01*
X0195196Y0138234D01*
X0195325Y0138149D01*
X0195453Y0138061D01*
X0195577Y0137970D01*
X0195700Y0137876D01*
X0195820Y0137778D01*
X0195937Y0137678D01*
X0196052Y0137574D01*
X0196164Y0137468D01*
X0196273Y0137359D01*
X0196379Y0137247D01*
X0196483Y0137132D01*
X0196583Y0137015D01*
X0196681Y0136895D01*
X0196775Y0136772D01*
X0196866Y0136648D01*
X0196954Y0136520D01*
X0197039Y0136391D01*
X0197120Y0136260D01*
X0197198Y0136126D01*
X0197272Y0135991D01*
X0197343Y0135854D01*
X0197410Y0135714D01*
X0197474Y0135574D01*
X0197534Y0135431D01*
X0197590Y0135288D01*
X0197643Y0135142D01*
X0197692Y0134996D01*
X0197737Y0134848D01*
X0197778Y0134699D01*
X0197816Y0134549D01*
X0197849Y0134398D01*
X0197879Y0134247D01*
X0197905Y0134094D01*
X0197926Y0133941D01*
X0197944Y0133788D01*
X0197958Y0133634D01*
X0197968Y0133480D01*
X0197974Y0133325D01*
X0197976Y0133171D01*
X0197974Y0133017D01*
X0197968Y0132862D01*
X0197958Y0132708D01*
X0197944Y0132554D01*
X0197926Y0132401D01*
X0197905Y0132248D01*
X0197879Y0132095D01*
X0197849Y0131944D01*
X0197816Y0131793D01*
X0197778Y0131643D01*
X0197737Y0131494D01*
X0197692Y0131346D01*
X0197643Y0131200D01*
X0197590Y0131054D01*
X0197534Y0130911D01*
X0197474Y0130768D01*
X0197410Y0130628D01*
X0197343Y0130488D01*
X0197272Y0130351D01*
X0197198Y0130216D01*
X0197120Y0130082D01*
X0197039Y0129951D01*
X0196954Y0129822D01*
X0196866Y0129694D01*
X0196775Y0129570D01*
X0196681Y0129447D01*
X0196583Y0129327D01*
X0196483Y0129210D01*
X0196379Y0129095D01*
X0196273Y0128983D01*
X0196164Y0128874D01*
X0196052Y0128768D01*
X0195937Y0128664D01*
X0195820Y0128564D01*
X0195700Y0128466D01*
X0195577Y0128372D01*
X0195453Y0128281D01*
X0195325Y0128193D01*
X0195196Y0128108D01*
X0195065Y0128027D01*
X0194931Y0127949D01*
X0194796Y0127875D01*
X0194659Y0127804D01*
X0194519Y0127737D01*
X0194379Y0127673D01*
X0194236Y0127613D01*
X0194093Y0127557D01*
X0193947Y0127504D01*
X0193801Y0127455D01*
X0193653Y0127410D01*
X0193504Y0127369D01*
X0193354Y0127331D01*
X0193203Y0127298D01*
X0193052Y0127268D01*
X0192899Y0127242D01*
X0192746Y0127221D01*
X0192593Y0127203D01*
X0192439Y0127189D01*
X0192285Y0127179D01*
X0192130Y0127173D01*
X0191976Y0127171D01*
X0191822Y0127173D01*
X0191667Y0127179D01*
X0191513Y0127189D01*
X0191359Y0127203D01*
X0191206Y0127221D01*
X0191053Y0127242D01*
X0190900Y0127268D01*
X0190749Y0127298D01*
X0190598Y0127331D01*
X0190448Y0127369D01*
X0190299Y0127410D01*
X0190151Y0127455D01*
X0190005Y0127504D01*
X0189859Y0127557D01*
X0189716Y0127613D01*
X0189573Y0127673D01*
X0189433Y0127737D01*
X0189293Y0127804D01*
X0189156Y0127875D01*
X0189021Y0127949D01*
X0188887Y0128027D01*
X0188756Y0128108D01*
X0188627Y0128193D01*
X0188499Y0128281D01*
X0188375Y0128372D01*
X0188252Y0128466D01*
X0188132Y0128564D01*
X0188015Y0128664D01*
X0187900Y0128768D01*
X0187788Y0128874D01*
X0187679Y0128983D01*
X0187573Y0129095D01*
X0187469Y0129210D01*
X0187369Y0129327D01*
X0187271Y0129447D01*
X0187177Y0129570D01*
X0187086Y0129694D01*
X0186998Y0129822D01*
X0186913Y0129951D01*
X0186832Y0130082D01*
X0186754Y0130216D01*
X0186680Y0130351D01*
X0186609Y0130488D01*
X0186542Y0130628D01*
X0186478Y0130768D01*
X0186418Y0130911D01*
X0186362Y0131054D01*
X0186309Y0131200D01*
X0186260Y0131346D01*
X0186215Y0131494D01*
X0186174Y0131643D01*
X0186136Y0131793D01*
X0186103Y0131944D01*
X0186073Y0132095D01*
X0186047Y0132248D01*
X0186026Y0132401D01*
X0186008Y0132554D01*
X0185994Y0132708D01*
X0185984Y0132862D01*
X0185978Y0133017D01*
X0185976Y0133171D01*
X0185976Y0011124D02*
X0185978Y0011278D01*
X0185984Y0011433D01*
X0185994Y0011587D01*
X0186008Y0011741D01*
X0186026Y0011894D01*
X0186047Y0012047D01*
X0186073Y0012200D01*
X0186103Y0012351D01*
X0186136Y0012502D01*
X0186174Y0012652D01*
X0186215Y0012801D01*
X0186260Y0012949D01*
X0186309Y0013095D01*
X0186362Y0013241D01*
X0186418Y0013384D01*
X0186478Y0013527D01*
X0186542Y0013667D01*
X0186609Y0013807D01*
X0186680Y0013944D01*
X0186754Y0014079D01*
X0186832Y0014213D01*
X0186913Y0014344D01*
X0186998Y0014473D01*
X0187086Y0014601D01*
X0187177Y0014725D01*
X0187271Y0014848D01*
X0187369Y0014968D01*
X0187469Y0015085D01*
X0187573Y0015200D01*
X0187679Y0015312D01*
X0187788Y0015421D01*
X0187900Y0015527D01*
X0188015Y0015631D01*
X0188132Y0015731D01*
X0188252Y0015829D01*
X0188375Y0015923D01*
X0188499Y0016014D01*
X0188627Y0016102D01*
X0188756Y0016187D01*
X0188887Y0016268D01*
X0189021Y0016346D01*
X0189156Y0016420D01*
X0189293Y0016491D01*
X0189433Y0016558D01*
X0189573Y0016622D01*
X0189716Y0016682D01*
X0189859Y0016738D01*
X0190005Y0016791D01*
X0190151Y0016840D01*
X0190299Y0016885D01*
X0190448Y0016926D01*
X0190598Y0016964D01*
X0190749Y0016997D01*
X0190900Y0017027D01*
X0191053Y0017053D01*
X0191206Y0017074D01*
X0191359Y0017092D01*
X0191513Y0017106D01*
X0191667Y0017116D01*
X0191822Y0017122D01*
X0191976Y0017124D01*
X0192130Y0017122D01*
X0192285Y0017116D01*
X0192439Y0017106D01*
X0192593Y0017092D01*
X0192746Y0017074D01*
X0192899Y0017053D01*
X0193052Y0017027D01*
X0193203Y0016997D01*
X0193354Y0016964D01*
X0193504Y0016926D01*
X0193653Y0016885D01*
X0193801Y0016840D01*
X0193947Y0016791D01*
X0194093Y0016738D01*
X0194236Y0016682D01*
X0194379Y0016622D01*
X0194519Y0016558D01*
X0194659Y0016491D01*
X0194796Y0016420D01*
X0194931Y0016346D01*
X0195065Y0016268D01*
X0195196Y0016187D01*
X0195325Y0016102D01*
X0195453Y0016014D01*
X0195577Y0015923D01*
X0195700Y0015829D01*
X0195820Y0015731D01*
X0195937Y0015631D01*
X0196052Y0015527D01*
X0196164Y0015421D01*
X0196273Y0015312D01*
X0196379Y0015200D01*
X0196483Y0015085D01*
X0196583Y0014968D01*
X0196681Y0014848D01*
X0196775Y0014725D01*
X0196866Y0014601D01*
X0196954Y0014473D01*
X0197039Y0014344D01*
X0197120Y0014213D01*
X0197198Y0014079D01*
X0197272Y0013944D01*
X0197343Y0013807D01*
X0197410Y0013667D01*
X0197474Y0013527D01*
X0197534Y0013384D01*
X0197590Y0013241D01*
X0197643Y0013095D01*
X0197692Y0012949D01*
X0197737Y0012801D01*
X0197778Y0012652D01*
X0197816Y0012502D01*
X0197849Y0012351D01*
X0197879Y0012200D01*
X0197905Y0012047D01*
X0197926Y0011894D01*
X0197944Y0011741D01*
X0197958Y0011587D01*
X0197968Y0011433D01*
X0197974Y0011278D01*
X0197976Y0011124D01*
X0197974Y0010970D01*
X0197968Y0010815D01*
X0197958Y0010661D01*
X0197944Y0010507D01*
X0197926Y0010354D01*
X0197905Y0010201D01*
X0197879Y0010048D01*
X0197849Y0009897D01*
X0197816Y0009746D01*
X0197778Y0009596D01*
X0197737Y0009447D01*
X0197692Y0009299D01*
X0197643Y0009153D01*
X0197590Y0009007D01*
X0197534Y0008864D01*
X0197474Y0008721D01*
X0197410Y0008581D01*
X0197343Y0008441D01*
X0197272Y0008304D01*
X0197198Y0008169D01*
X0197120Y0008035D01*
X0197039Y0007904D01*
X0196954Y0007775D01*
X0196866Y0007647D01*
X0196775Y0007523D01*
X0196681Y0007400D01*
X0196583Y0007280D01*
X0196483Y0007163D01*
X0196379Y0007048D01*
X0196273Y0006936D01*
X0196164Y0006827D01*
X0196052Y0006721D01*
X0195937Y0006617D01*
X0195820Y0006517D01*
X0195700Y0006419D01*
X0195577Y0006325D01*
X0195453Y0006234D01*
X0195325Y0006146D01*
X0195196Y0006061D01*
X0195065Y0005980D01*
X0194931Y0005902D01*
X0194796Y0005828D01*
X0194659Y0005757D01*
X0194519Y0005690D01*
X0194379Y0005626D01*
X0194236Y0005566D01*
X0194093Y0005510D01*
X0193947Y0005457D01*
X0193801Y0005408D01*
X0193653Y0005363D01*
X0193504Y0005322D01*
X0193354Y0005284D01*
X0193203Y0005251D01*
X0193052Y0005221D01*
X0192899Y0005195D01*
X0192746Y0005174D01*
X0192593Y0005156D01*
X0192439Y0005142D01*
X0192285Y0005132D01*
X0192130Y0005126D01*
X0191976Y0005124D01*
X0191822Y0005126D01*
X0191667Y0005132D01*
X0191513Y0005142D01*
X0191359Y0005156D01*
X0191206Y0005174D01*
X0191053Y0005195D01*
X0190900Y0005221D01*
X0190749Y0005251D01*
X0190598Y0005284D01*
X0190448Y0005322D01*
X0190299Y0005363D01*
X0190151Y0005408D01*
X0190005Y0005457D01*
X0189859Y0005510D01*
X0189716Y0005566D01*
X0189573Y0005626D01*
X0189433Y0005690D01*
X0189293Y0005757D01*
X0189156Y0005828D01*
X0189021Y0005902D01*
X0188887Y0005980D01*
X0188756Y0006061D01*
X0188627Y0006146D01*
X0188499Y0006234D01*
X0188375Y0006325D01*
X0188252Y0006419D01*
X0188132Y0006517D01*
X0188015Y0006617D01*
X0187900Y0006721D01*
X0187788Y0006827D01*
X0187679Y0006936D01*
X0187573Y0007048D01*
X0187469Y0007163D01*
X0187369Y0007280D01*
X0187271Y0007400D01*
X0187177Y0007523D01*
X0187086Y0007647D01*
X0186998Y0007775D01*
X0186913Y0007904D01*
X0186832Y0008035D01*
X0186754Y0008169D01*
X0186680Y0008304D01*
X0186609Y0008441D01*
X0186542Y0008581D01*
X0186478Y0008721D01*
X0186418Y0008864D01*
X0186362Y0009007D01*
X0186309Y0009153D01*
X0186260Y0009299D01*
X0186215Y0009447D01*
X0186174Y0009596D01*
X0186136Y0009746D01*
X0186103Y0009897D01*
X0186073Y0010048D01*
X0186047Y0010201D01*
X0186026Y0010354D01*
X0186008Y0010507D01*
X0185994Y0010661D01*
X0185984Y0010815D01*
X0185978Y0010970D01*
X0185976Y0011124D01*
D12*
X0191976Y0003250D02*
X0010874Y0003250D01*
X0010684Y0003252D01*
X0010494Y0003259D01*
X0010304Y0003271D01*
X0010114Y0003287D01*
X0009925Y0003307D01*
X0009736Y0003333D01*
X0009548Y0003362D01*
X0009361Y0003397D01*
X0009175Y0003436D01*
X0008990Y0003479D01*
X0008805Y0003527D01*
X0008622Y0003579D01*
X0008441Y0003635D01*
X0008261Y0003696D01*
X0008082Y0003762D01*
X0007905Y0003831D01*
X0007729Y0003905D01*
X0007556Y0003983D01*
X0007384Y0004066D01*
X0007215Y0004152D01*
X0007047Y0004242D01*
X0006882Y0004337D01*
X0006719Y0004435D01*
X0006559Y0004538D01*
X0006401Y0004644D01*
X0006246Y0004754D01*
X0006093Y0004867D01*
X0005943Y0004985D01*
X0005797Y0005106D01*
X0005653Y0005230D01*
X0005512Y0005358D01*
X0005374Y0005489D01*
X0005239Y0005624D01*
X0005108Y0005762D01*
X0004980Y0005903D01*
X0004856Y0006047D01*
X0004735Y0006193D01*
X0004617Y0006343D01*
X0004504Y0006496D01*
X0004394Y0006651D01*
X0004288Y0006809D01*
X0004185Y0006969D01*
X0004087Y0007132D01*
X0003992Y0007297D01*
X0003902Y0007465D01*
X0003816Y0007634D01*
X0003733Y0007806D01*
X0003655Y0007979D01*
X0003581Y0008155D01*
X0003512Y0008332D01*
X0003446Y0008511D01*
X0003385Y0008691D01*
X0003329Y0008872D01*
X0003277Y0009055D01*
X0003229Y0009240D01*
X0003186Y0009425D01*
X0003147Y0009611D01*
X0003112Y0009798D01*
X0003083Y0009986D01*
X0003057Y0010175D01*
X0003037Y0010364D01*
X0003021Y0010554D01*
X0003009Y0010744D01*
X0003002Y0010934D01*
X0003000Y0011124D01*
X0003000Y0133171D01*
X0003002Y0133361D01*
X0003009Y0133551D01*
X0003021Y0133741D01*
X0003037Y0133931D01*
X0003057Y0134120D01*
X0003083Y0134309D01*
X0003112Y0134497D01*
X0003147Y0134684D01*
X0003186Y0134870D01*
X0003229Y0135055D01*
X0003277Y0135240D01*
X0003329Y0135423D01*
X0003385Y0135604D01*
X0003446Y0135784D01*
X0003512Y0135963D01*
X0003581Y0136140D01*
X0003655Y0136316D01*
X0003733Y0136489D01*
X0003816Y0136661D01*
X0003902Y0136830D01*
X0003992Y0136998D01*
X0004087Y0137163D01*
X0004185Y0137326D01*
X0004288Y0137486D01*
X0004394Y0137644D01*
X0004504Y0137799D01*
X0004617Y0137952D01*
X0004735Y0138102D01*
X0004856Y0138248D01*
X0004980Y0138392D01*
X0005108Y0138533D01*
X0005239Y0138671D01*
X0005374Y0138806D01*
X0005512Y0138937D01*
X0005653Y0139065D01*
X0005797Y0139189D01*
X0005943Y0139310D01*
X0006093Y0139428D01*
X0006246Y0139541D01*
X0006401Y0139651D01*
X0006559Y0139757D01*
X0006719Y0139860D01*
X0006882Y0139958D01*
X0007047Y0140053D01*
X0007215Y0140143D01*
X0007384Y0140229D01*
X0007556Y0140312D01*
X0007729Y0140390D01*
X0007905Y0140464D01*
X0008082Y0140533D01*
X0008261Y0140599D01*
X0008441Y0140660D01*
X0008622Y0140716D01*
X0008805Y0140768D01*
X0008990Y0140816D01*
X0009175Y0140859D01*
X0009361Y0140898D01*
X0009548Y0140933D01*
X0009736Y0140962D01*
X0009925Y0140988D01*
X0010114Y0141008D01*
X0010304Y0141024D01*
X0010494Y0141036D01*
X0010684Y0141043D01*
X0010874Y0141045D01*
X0191976Y0141045D01*
X0192166Y0141043D01*
X0192356Y0141036D01*
X0192546Y0141024D01*
X0192736Y0141008D01*
X0192925Y0140988D01*
X0193114Y0140962D01*
X0193302Y0140933D01*
X0193489Y0140898D01*
X0193675Y0140859D01*
X0193860Y0140816D01*
X0194045Y0140768D01*
X0194228Y0140716D01*
X0194409Y0140660D01*
X0194589Y0140599D01*
X0194768Y0140533D01*
X0194945Y0140464D01*
X0195121Y0140390D01*
X0195294Y0140312D01*
X0195466Y0140229D01*
X0195635Y0140143D01*
X0195803Y0140053D01*
X0195968Y0139958D01*
X0196131Y0139860D01*
X0196291Y0139757D01*
X0196449Y0139651D01*
X0196604Y0139541D01*
X0196757Y0139428D01*
X0196907Y0139310D01*
X0197053Y0139189D01*
X0197197Y0139065D01*
X0197338Y0138937D01*
X0197476Y0138806D01*
X0197611Y0138671D01*
X0197742Y0138533D01*
X0197870Y0138392D01*
X0197994Y0138248D01*
X0198115Y0138102D01*
X0198233Y0137952D01*
X0198346Y0137799D01*
X0198456Y0137644D01*
X0198562Y0137486D01*
X0198665Y0137326D01*
X0198763Y0137163D01*
X0198858Y0136998D01*
X0198948Y0136830D01*
X0199034Y0136661D01*
X0199117Y0136489D01*
X0199195Y0136316D01*
X0199269Y0136140D01*
X0199338Y0135963D01*
X0199404Y0135784D01*
X0199465Y0135604D01*
X0199521Y0135423D01*
X0199573Y0135240D01*
X0199621Y0135055D01*
X0199664Y0134870D01*
X0199703Y0134684D01*
X0199738Y0134497D01*
X0199767Y0134309D01*
X0199793Y0134120D01*
X0199813Y0133931D01*
X0199829Y0133741D01*
X0199841Y0133551D01*
X0199848Y0133361D01*
X0199850Y0133171D01*
X0199850Y0011124D01*
X0199848Y0010934D01*
X0199841Y0010744D01*
X0199829Y0010554D01*
X0199813Y0010364D01*
X0199793Y0010175D01*
X0199767Y0009986D01*
X0199738Y0009798D01*
X0199703Y0009611D01*
X0199664Y0009425D01*
X0199621Y0009240D01*
X0199573Y0009055D01*
X0199521Y0008872D01*
X0199465Y0008691D01*
X0199404Y0008511D01*
X0199338Y0008332D01*
X0199269Y0008155D01*
X0199195Y0007979D01*
X0199117Y0007806D01*
X0199034Y0007634D01*
X0198948Y0007465D01*
X0198858Y0007297D01*
X0198763Y0007132D01*
X0198665Y0006969D01*
X0198562Y0006809D01*
X0198456Y0006651D01*
X0198346Y0006496D01*
X0198233Y0006343D01*
X0198115Y0006193D01*
X0197994Y0006047D01*
X0197870Y0005903D01*
X0197742Y0005762D01*
X0197611Y0005624D01*
X0197476Y0005489D01*
X0197338Y0005358D01*
X0197197Y0005230D01*
X0197053Y0005106D01*
X0196907Y0004985D01*
X0196757Y0004867D01*
X0196604Y0004754D01*
X0196449Y0004644D01*
X0196291Y0004538D01*
X0196131Y0004435D01*
X0195968Y0004337D01*
X0195803Y0004242D01*
X0195635Y0004152D01*
X0195466Y0004066D01*
X0195294Y0003983D01*
X0195121Y0003905D01*
X0194945Y0003831D01*
X0194768Y0003762D01*
X0194589Y0003696D01*
X0194409Y0003635D01*
X0194228Y0003579D01*
X0194045Y0003527D01*
X0193860Y0003479D01*
X0193675Y0003436D01*
X0193489Y0003397D01*
X0193302Y0003362D01*
X0193114Y0003333D01*
X0192925Y0003307D01*
X0192736Y0003287D01*
X0192546Y0003271D01*
X0192356Y0003259D01*
X0192166Y0003252D01*
X0191976Y0003250D01*
D13*
X0187476Y0011124D02*
X0187478Y0011258D01*
X0187484Y0011392D01*
X0187494Y0011525D01*
X0187508Y0011659D01*
X0187526Y0011792D01*
X0187548Y0011924D01*
X0187573Y0012055D01*
X0187603Y0012186D01*
X0187637Y0012316D01*
X0187674Y0012444D01*
X0187715Y0012572D01*
X0187760Y0012698D01*
X0187809Y0012823D01*
X0187861Y0012946D01*
X0187917Y0013068D01*
X0187977Y0013188D01*
X0188040Y0013306D01*
X0188107Y0013422D01*
X0188177Y0013536D01*
X0188251Y0013648D01*
X0188328Y0013758D01*
X0188408Y0013866D01*
X0188491Y0013971D01*
X0188577Y0014073D01*
X0188666Y0014173D01*
X0188759Y0014270D01*
X0188854Y0014365D01*
X0188952Y0014456D01*
X0189052Y0014545D01*
X0189155Y0014630D01*
X0189261Y0014713D01*
X0189369Y0014792D01*
X0189479Y0014868D01*
X0189592Y0014941D01*
X0189707Y0015010D01*
X0189823Y0015076D01*
X0189942Y0015138D01*
X0190062Y0015197D01*
X0190185Y0015252D01*
X0190308Y0015304D01*
X0190433Y0015351D01*
X0190560Y0015395D01*
X0190688Y0015436D01*
X0190817Y0015472D01*
X0190947Y0015505D01*
X0191078Y0015533D01*
X0191209Y0015558D01*
X0191342Y0015579D01*
X0191475Y0015596D01*
X0191608Y0015609D01*
X0191742Y0015618D01*
X0191876Y0015623D01*
X0192010Y0015624D01*
X0192143Y0015621D01*
X0192277Y0015614D01*
X0192411Y0015603D01*
X0192544Y0015588D01*
X0192677Y0015569D01*
X0192809Y0015546D01*
X0192940Y0015520D01*
X0193070Y0015489D01*
X0193200Y0015454D01*
X0193328Y0015416D01*
X0193455Y0015374D01*
X0193581Y0015328D01*
X0193706Y0015278D01*
X0193829Y0015225D01*
X0193950Y0015168D01*
X0194070Y0015107D01*
X0194187Y0015043D01*
X0194303Y0014976D01*
X0194417Y0014905D01*
X0194528Y0014830D01*
X0194637Y0014753D01*
X0194744Y0014672D01*
X0194849Y0014588D01*
X0194950Y0014501D01*
X0195050Y0014411D01*
X0195146Y0014318D01*
X0195240Y0014222D01*
X0195331Y0014123D01*
X0195418Y0014022D01*
X0195503Y0013918D01*
X0195585Y0013812D01*
X0195663Y0013704D01*
X0195738Y0013593D01*
X0195810Y0013480D01*
X0195879Y0013364D01*
X0195944Y0013247D01*
X0196005Y0013128D01*
X0196063Y0013007D01*
X0196117Y0012885D01*
X0196168Y0012761D01*
X0196215Y0012635D01*
X0196258Y0012508D01*
X0196297Y0012380D01*
X0196333Y0012251D01*
X0196364Y0012121D01*
X0196392Y0011990D01*
X0196416Y0011858D01*
X0196436Y0011725D01*
X0196452Y0011592D01*
X0196464Y0011459D01*
X0196472Y0011325D01*
X0196476Y0011191D01*
X0196476Y0011057D01*
X0196472Y0010923D01*
X0196464Y0010789D01*
X0196452Y0010656D01*
X0196436Y0010523D01*
X0196416Y0010390D01*
X0196392Y0010258D01*
X0196364Y0010127D01*
X0196333Y0009997D01*
X0196297Y0009868D01*
X0196258Y0009740D01*
X0196215Y0009613D01*
X0196168Y0009487D01*
X0196117Y0009363D01*
X0196063Y0009241D01*
X0196005Y0009120D01*
X0195944Y0009001D01*
X0195879Y0008884D01*
X0195810Y0008768D01*
X0195738Y0008655D01*
X0195663Y0008544D01*
X0195585Y0008436D01*
X0195503Y0008330D01*
X0195418Y0008226D01*
X0195331Y0008125D01*
X0195240Y0008026D01*
X0195146Y0007930D01*
X0195050Y0007837D01*
X0194950Y0007747D01*
X0194849Y0007660D01*
X0194744Y0007576D01*
X0194637Y0007495D01*
X0194528Y0007418D01*
X0194417Y0007343D01*
X0194303Y0007272D01*
X0194187Y0007205D01*
X0194070Y0007141D01*
X0193950Y0007080D01*
X0193829Y0007023D01*
X0193706Y0006970D01*
X0193581Y0006920D01*
X0193455Y0006874D01*
X0193328Y0006832D01*
X0193200Y0006794D01*
X0193070Y0006759D01*
X0192940Y0006728D01*
X0192809Y0006702D01*
X0192677Y0006679D01*
X0192544Y0006660D01*
X0192411Y0006645D01*
X0192277Y0006634D01*
X0192143Y0006627D01*
X0192010Y0006624D01*
X0191876Y0006625D01*
X0191742Y0006630D01*
X0191608Y0006639D01*
X0191475Y0006652D01*
X0191342Y0006669D01*
X0191209Y0006690D01*
X0191078Y0006715D01*
X0190947Y0006743D01*
X0190817Y0006776D01*
X0190688Y0006812D01*
X0190560Y0006853D01*
X0190433Y0006897D01*
X0190308Y0006944D01*
X0190185Y0006996D01*
X0190062Y0007051D01*
X0189942Y0007110D01*
X0189823Y0007172D01*
X0189707Y0007238D01*
X0189592Y0007307D01*
X0189479Y0007380D01*
X0189369Y0007456D01*
X0189261Y0007535D01*
X0189155Y0007618D01*
X0189052Y0007703D01*
X0188952Y0007792D01*
X0188854Y0007883D01*
X0188759Y0007978D01*
X0188666Y0008075D01*
X0188577Y0008175D01*
X0188491Y0008277D01*
X0188408Y0008382D01*
X0188328Y0008490D01*
X0188251Y0008600D01*
X0188177Y0008712D01*
X0188107Y0008826D01*
X0188040Y0008942D01*
X0187977Y0009060D01*
X0187917Y0009180D01*
X0187861Y0009302D01*
X0187809Y0009425D01*
X0187760Y0009550D01*
X0187715Y0009676D01*
X0187674Y0009804D01*
X0187637Y0009932D01*
X0187603Y0010062D01*
X0187573Y0010193D01*
X0187548Y0010324D01*
X0187526Y0010456D01*
X0187508Y0010589D01*
X0187494Y0010723D01*
X0187484Y0010856D01*
X0187478Y0010990D01*
X0187476Y0011124D01*
X0187476Y0133171D02*
X0187478Y0133305D01*
X0187484Y0133439D01*
X0187494Y0133572D01*
X0187508Y0133706D01*
X0187526Y0133839D01*
X0187548Y0133971D01*
X0187573Y0134102D01*
X0187603Y0134233D01*
X0187637Y0134363D01*
X0187674Y0134491D01*
X0187715Y0134619D01*
X0187760Y0134745D01*
X0187809Y0134870D01*
X0187861Y0134993D01*
X0187917Y0135115D01*
X0187977Y0135235D01*
X0188040Y0135353D01*
X0188107Y0135469D01*
X0188177Y0135583D01*
X0188251Y0135695D01*
X0188328Y0135805D01*
X0188408Y0135913D01*
X0188491Y0136018D01*
X0188577Y0136120D01*
X0188666Y0136220D01*
X0188759Y0136317D01*
X0188854Y0136412D01*
X0188952Y0136503D01*
X0189052Y0136592D01*
X0189155Y0136677D01*
X0189261Y0136760D01*
X0189369Y0136839D01*
X0189479Y0136915D01*
X0189592Y0136988D01*
X0189707Y0137057D01*
X0189823Y0137123D01*
X0189942Y0137185D01*
X0190062Y0137244D01*
X0190185Y0137299D01*
X0190308Y0137351D01*
X0190433Y0137398D01*
X0190560Y0137442D01*
X0190688Y0137483D01*
X0190817Y0137519D01*
X0190947Y0137552D01*
X0191078Y0137580D01*
X0191209Y0137605D01*
X0191342Y0137626D01*
X0191475Y0137643D01*
X0191608Y0137656D01*
X0191742Y0137665D01*
X0191876Y0137670D01*
X0192010Y0137671D01*
X0192143Y0137668D01*
X0192277Y0137661D01*
X0192411Y0137650D01*
X0192544Y0137635D01*
X0192677Y0137616D01*
X0192809Y0137593D01*
X0192940Y0137567D01*
X0193070Y0137536D01*
X0193200Y0137501D01*
X0193328Y0137463D01*
X0193455Y0137421D01*
X0193581Y0137375D01*
X0193706Y0137325D01*
X0193829Y0137272D01*
X0193950Y0137215D01*
X0194070Y0137154D01*
X0194187Y0137090D01*
X0194303Y0137023D01*
X0194417Y0136952D01*
X0194528Y0136877D01*
X0194637Y0136800D01*
X0194744Y0136719D01*
X0194849Y0136635D01*
X0194950Y0136548D01*
X0195050Y0136458D01*
X0195146Y0136365D01*
X0195240Y0136269D01*
X0195331Y0136170D01*
X0195418Y0136069D01*
X0195503Y0135965D01*
X0195585Y0135859D01*
X0195663Y0135751D01*
X0195738Y0135640D01*
X0195810Y0135527D01*
X0195879Y0135411D01*
X0195944Y0135294D01*
X0196005Y0135175D01*
X0196063Y0135054D01*
X0196117Y0134932D01*
X0196168Y0134808D01*
X0196215Y0134682D01*
X0196258Y0134555D01*
X0196297Y0134427D01*
X0196333Y0134298D01*
X0196364Y0134168D01*
X0196392Y0134037D01*
X0196416Y0133905D01*
X0196436Y0133772D01*
X0196452Y0133639D01*
X0196464Y0133506D01*
X0196472Y0133372D01*
X0196476Y0133238D01*
X0196476Y0133104D01*
X0196472Y0132970D01*
X0196464Y0132836D01*
X0196452Y0132703D01*
X0196436Y0132570D01*
X0196416Y0132437D01*
X0196392Y0132305D01*
X0196364Y0132174D01*
X0196333Y0132044D01*
X0196297Y0131915D01*
X0196258Y0131787D01*
X0196215Y0131660D01*
X0196168Y0131534D01*
X0196117Y0131410D01*
X0196063Y0131288D01*
X0196005Y0131167D01*
X0195944Y0131048D01*
X0195879Y0130931D01*
X0195810Y0130815D01*
X0195738Y0130702D01*
X0195663Y0130591D01*
X0195585Y0130483D01*
X0195503Y0130377D01*
X0195418Y0130273D01*
X0195331Y0130172D01*
X0195240Y0130073D01*
X0195146Y0129977D01*
X0195050Y0129884D01*
X0194950Y0129794D01*
X0194849Y0129707D01*
X0194744Y0129623D01*
X0194637Y0129542D01*
X0194528Y0129465D01*
X0194417Y0129390D01*
X0194303Y0129319D01*
X0194187Y0129252D01*
X0194070Y0129188D01*
X0193950Y0129127D01*
X0193829Y0129070D01*
X0193706Y0129017D01*
X0193581Y0128967D01*
X0193455Y0128921D01*
X0193328Y0128879D01*
X0193200Y0128841D01*
X0193070Y0128806D01*
X0192940Y0128775D01*
X0192809Y0128749D01*
X0192677Y0128726D01*
X0192544Y0128707D01*
X0192411Y0128692D01*
X0192277Y0128681D01*
X0192143Y0128674D01*
X0192010Y0128671D01*
X0191876Y0128672D01*
X0191742Y0128677D01*
X0191608Y0128686D01*
X0191475Y0128699D01*
X0191342Y0128716D01*
X0191209Y0128737D01*
X0191078Y0128762D01*
X0190947Y0128790D01*
X0190817Y0128823D01*
X0190688Y0128859D01*
X0190560Y0128900D01*
X0190433Y0128944D01*
X0190308Y0128991D01*
X0190185Y0129043D01*
X0190062Y0129098D01*
X0189942Y0129157D01*
X0189823Y0129219D01*
X0189707Y0129285D01*
X0189592Y0129354D01*
X0189479Y0129427D01*
X0189369Y0129503D01*
X0189261Y0129582D01*
X0189155Y0129665D01*
X0189052Y0129750D01*
X0188952Y0129839D01*
X0188854Y0129930D01*
X0188759Y0130025D01*
X0188666Y0130122D01*
X0188577Y0130222D01*
X0188491Y0130324D01*
X0188408Y0130429D01*
X0188328Y0130537D01*
X0188251Y0130647D01*
X0188177Y0130759D01*
X0188107Y0130873D01*
X0188040Y0130989D01*
X0187977Y0131107D01*
X0187917Y0131227D01*
X0187861Y0131349D01*
X0187809Y0131472D01*
X0187760Y0131597D01*
X0187715Y0131723D01*
X0187674Y0131851D01*
X0187637Y0131979D01*
X0187603Y0132109D01*
X0187573Y0132240D01*
X0187548Y0132371D01*
X0187526Y0132503D01*
X0187508Y0132636D01*
X0187494Y0132770D01*
X0187484Y0132903D01*
X0187478Y0133037D01*
X0187476Y0133171D01*
X0006374Y0133171D02*
X0006376Y0133305D01*
X0006382Y0133439D01*
X0006392Y0133572D01*
X0006406Y0133706D01*
X0006424Y0133839D01*
X0006446Y0133971D01*
X0006471Y0134102D01*
X0006501Y0134233D01*
X0006535Y0134363D01*
X0006572Y0134491D01*
X0006613Y0134619D01*
X0006658Y0134745D01*
X0006707Y0134870D01*
X0006759Y0134993D01*
X0006815Y0135115D01*
X0006875Y0135235D01*
X0006938Y0135353D01*
X0007005Y0135469D01*
X0007075Y0135583D01*
X0007149Y0135695D01*
X0007226Y0135805D01*
X0007306Y0135913D01*
X0007389Y0136018D01*
X0007475Y0136120D01*
X0007564Y0136220D01*
X0007657Y0136317D01*
X0007752Y0136412D01*
X0007850Y0136503D01*
X0007950Y0136592D01*
X0008053Y0136677D01*
X0008159Y0136760D01*
X0008267Y0136839D01*
X0008377Y0136915D01*
X0008490Y0136988D01*
X0008605Y0137057D01*
X0008721Y0137123D01*
X0008840Y0137185D01*
X0008960Y0137244D01*
X0009083Y0137299D01*
X0009206Y0137351D01*
X0009331Y0137398D01*
X0009458Y0137442D01*
X0009586Y0137483D01*
X0009715Y0137519D01*
X0009845Y0137552D01*
X0009976Y0137580D01*
X0010107Y0137605D01*
X0010240Y0137626D01*
X0010373Y0137643D01*
X0010506Y0137656D01*
X0010640Y0137665D01*
X0010774Y0137670D01*
X0010908Y0137671D01*
X0011041Y0137668D01*
X0011175Y0137661D01*
X0011309Y0137650D01*
X0011442Y0137635D01*
X0011575Y0137616D01*
X0011707Y0137593D01*
X0011838Y0137567D01*
X0011968Y0137536D01*
X0012098Y0137501D01*
X0012226Y0137463D01*
X0012353Y0137421D01*
X0012479Y0137375D01*
X0012604Y0137325D01*
X0012727Y0137272D01*
X0012848Y0137215D01*
X0012968Y0137154D01*
X0013085Y0137090D01*
X0013201Y0137023D01*
X0013315Y0136952D01*
X0013426Y0136877D01*
X0013535Y0136800D01*
X0013642Y0136719D01*
X0013747Y0136635D01*
X0013848Y0136548D01*
X0013948Y0136458D01*
X0014044Y0136365D01*
X0014138Y0136269D01*
X0014229Y0136170D01*
X0014316Y0136069D01*
X0014401Y0135965D01*
X0014483Y0135859D01*
X0014561Y0135751D01*
X0014636Y0135640D01*
X0014708Y0135527D01*
X0014777Y0135411D01*
X0014842Y0135294D01*
X0014903Y0135175D01*
X0014961Y0135054D01*
X0015015Y0134932D01*
X0015066Y0134808D01*
X0015113Y0134682D01*
X0015156Y0134555D01*
X0015195Y0134427D01*
X0015231Y0134298D01*
X0015262Y0134168D01*
X0015290Y0134037D01*
X0015314Y0133905D01*
X0015334Y0133772D01*
X0015350Y0133639D01*
X0015362Y0133506D01*
X0015370Y0133372D01*
X0015374Y0133238D01*
X0015374Y0133104D01*
X0015370Y0132970D01*
X0015362Y0132836D01*
X0015350Y0132703D01*
X0015334Y0132570D01*
X0015314Y0132437D01*
X0015290Y0132305D01*
X0015262Y0132174D01*
X0015231Y0132044D01*
X0015195Y0131915D01*
X0015156Y0131787D01*
X0015113Y0131660D01*
X0015066Y0131534D01*
X0015015Y0131410D01*
X0014961Y0131288D01*
X0014903Y0131167D01*
X0014842Y0131048D01*
X0014777Y0130931D01*
X0014708Y0130815D01*
X0014636Y0130702D01*
X0014561Y0130591D01*
X0014483Y0130483D01*
X0014401Y0130377D01*
X0014316Y0130273D01*
X0014229Y0130172D01*
X0014138Y0130073D01*
X0014044Y0129977D01*
X0013948Y0129884D01*
X0013848Y0129794D01*
X0013747Y0129707D01*
X0013642Y0129623D01*
X0013535Y0129542D01*
X0013426Y0129465D01*
X0013315Y0129390D01*
X0013201Y0129319D01*
X0013085Y0129252D01*
X0012968Y0129188D01*
X0012848Y0129127D01*
X0012727Y0129070D01*
X0012604Y0129017D01*
X0012479Y0128967D01*
X0012353Y0128921D01*
X0012226Y0128879D01*
X0012098Y0128841D01*
X0011968Y0128806D01*
X0011838Y0128775D01*
X0011707Y0128749D01*
X0011575Y0128726D01*
X0011442Y0128707D01*
X0011309Y0128692D01*
X0011175Y0128681D01*
X0011041Y0128674D01*
X0010908Y0128671D01*
X0010774Y0128672D01*
X0010640Y0128677D01*
X0010506Y0128686D01*
X0010373Y0128699D01*
X0010240Y0128716D01*
X0010107Y0128737D01*
X0009976Y0128762D01*
X0009845Y0128790D01*
X0009715Y0128823D01*
X0009586Y0128859D01*
X0009458Y0128900D01*
X0009331Y0128944D01*
X0009206Y0128991D01*
X0009083Y0129043D01*
X0008960Y0129098D01*
X0008840Y0129157D01*
X0008721Y0129219D01*
X0008605Y0129285D01*
X0008490Y0129354D01*
X0008377Y0129427D01*
X0008267Y0129503D01*
X0008159Y0129582D01*
X0008053Y0129665D01*
X0007950Y0129750D01*
X0007850Y0129839D01*
X0007752Y0129930D01*
X0007657Y0130025D01*
X0007564Y0130122D01*
X0007475Y0130222D01*
X0007389Y0130324D01*
X0007306Y0130429D01*
X0007226Y0130537D01*
X0007149Y0130647D01*
X0007075Y0130759D01*
X0007005Y0130873D01*
X0006938Y0130989D01*
X0006875Y0131107D01*
X0006815Y0131227D01*
X0006759Y0131349D01*
X0006707Y0131472D01*
X0006658Y0131597D01*
X0006613Y0131723D01*
X0006572Y0131851D01*
X0006535Y0131979D01*
X0006501Y0132109D01*
X0006471Y0132240D01*
X0006446Y0132371D01*
X0006424Y0132503D01*
X0006406Y0132636D01*
X0006392Y0132770D01*
X0006382Y0132903D01*
X0006376Y0133037D01*
X0006374Y0133171D01*
D14*
X0102251Y0106078D02*
X0102251Y0103478D01*
X0105251Y0102978D01*
X0105630Y0103201D02*
X0109828Y0103201D01*
X0109551Y0103478D02*
X0109551Y0105978D01*
X0111051Y0108478D01*
X0113551Y0108978D01*
X0116551Y0107978D01*
X0116051Y0107978D01*
X0117551Y0105478D01*
X0116551Y0102478D01*
X0115551Y0101478D01*
X0117051Y0097478D01*
X0118051Y0097978D01*
X0120051Y0096478D01*
X0121551Y0097978D01*
X0120051Y0100478D01*
X0121051Y0102978D01*
X0124051Y0103978D01*
X0124051Y0103478D01*
X0124051Y0105978D01*
X0121051Y0106478D01*
X0120051Y0109478D01*
X0122051Y0111478D01*
X0120551Y0112978D01*
X0117551Y0111478D01*
X0114551Y0112978D01*
X0115051Y0112978D01*
X0114551Y0115478D01*
X0112051Y0115478D01*
X0112051Y0112478D01*
X0109051Y0111478D01*
X0106551Y0112978D01*
X0105051Y0111978D01*
X0106551Y0108978D01*
X0105551Y0106478D01*
X0102551Y0105978D01*
X0102551Y0103478D01*
X0105551Y0103478D01*
X0106551Y0099978D01*
X0105051Y0097978D01*
X0106551Y0096478D01*
X0108551Y0097978D01*
X0109551Y0097478D01*
X0111551Y0101478D01*
X0109551Y0103478D01*
X0109551Y0103800D02*
X0102551Y0103800D01*
X0102551Y0104398D02*
X0109551Y0104398D01*
X0109551Y0104997D02*
X0102551Y0104997D01*
X0102551Y0105595D02*
X0109551Y0105595D01*
X0109681Y0106194D02*
X0103845Y0106194D01*
X0105251Y0106678D02*
X0102251Y0106078D01*
X0105677Y0106792D02*
X0110040Y0106792D01*
X0110399Y0107391D02*
X0105916Y0107391D01*
X0106156Y0107989D02*
X0110758Y0107989D01*
X0111599Y0108588D02*
X0106395Y0108588D01*
X0106351Y0109178D02*
X0104551Y0111778D01*
X0106451Y0113578D01*
X0109051Y0111778D01*
X0108881Y0111581D02*
X0105250Y0111581D01*
X0105352Y0112179D02*
X0107883Y0112179D01*
X0106886Y0112778D02*
X0106250Y0112778D01*
X0109358Y0111581D02*
X0117347Y0111581D01*
X0117756Y0111581D02*
X0121949Y0111581D01*
X0122251Y0111778D02*
X0120351Y0113578D01*
X0117751Y0111778D01*
X0118953Y0112179D02*
X0121350Y0112179D01*
X0120752Y0112778D02*
X0120150Y0112778D01*
X0122251Y0111778D02*
X0120451Y0109178D01*
X0120148Y0109187D02*
X0106447Y0109187D01*
X0106148Y0109785D02*
X0120358Y0109785D01*
X0120956Y0110384D02*
X0105849Y0110384D01*
X0105549Y0110982D02*
X0121555Y0110982D01*
X0120348Y0108588D02*
X0114722Y0108588D01*
X0116518Y0107989D02*
X0120547Y0107989D01*
X0120747Y0107391D02*
X0116404Y0107391D01*
X0116763Y0106792D02*
X0120946Y0106792D01*
X0121551Y0106678D02*
X0124551Y0106078D01*
X0124551Y0103478D01*
X0121551Y0102978D01*
X0121720Y0103201D02*
X0116792Y0103201D01*
X0116593Y0102603D02*
X0120901Y0102603D01*
X0120662Y0102004D02*
X0116077Y0102004D01*
X0115578Y0101406D02*
X0120422Y0101406D01*
X0120183Y0100807D02*
X0115803Y0100807D01*
X0116027Y0100209D02*
X0120213Y0100209D01*
X0120551Y0100278D02*
X0122151Y0097878D01*
X0120351Y0095978D01*
X0117951Y0097678D01*
X0116951Y0097078D01*
X0114951Y0101578D01*
X0116252Y0099610D02*
X0120572Y0099610D01*
X0120931Y0099012D02*
X0116476Y0099012D01*
X0116701Y0098413D02*
X0121290Y0098413D01*
X0121388Y0097815D02*
X0118269Y0097815D01*
X0117724Y0097815D02*
X0116925Y0097815D01*
X0119067Y0097216D02*
X0120789Y0097216D01*
X0120191Y0096618D02*
X0119865Y0096618D01*
X0111751Y0101578D02*
X0109851Y0097078D01*
X0108851Y0097678D01*
X0106451Y0095978D01*
X0104551Y0097878D01*
X0106251Y0100278D01*
X0106485Y0100209D02*
X0110916Y0100209D01*
X0110617Y0099610D02*
X0106275Y0099610D01*
X0105826Y0099012D02*
X0110318Y0099012D01*
X0110019Y0098413D02*
X0105377Y0098413D01*
X0105215Y0097815D02*
X0108333Y0097815D01*
X0108878Y0097815D02*
X0109719Y0097815D01*
X0107535Y0097216D02*
X0105813Y0097216D01*
X0106412Y0096618D02*
X0106737Y0096618D01*
X0106314Y0100807D02*
X0111216Y0100807D01*
X0111515Y0101406D02*
X0106143Y0101406D01*
X0105972Y0102004D02*
X0111025Y0102004D01*
X0110427Y0102603D02*
X0105801Y0102603D01*
X0105261Y0106679D02*
X0105311Y0106867D01*
X0105366Y0107054D01*
X0105425Y0107240D01*
X0105489Y0107424D01*
X0105557Y0107607D01*
X0105630Y0107788D01*
X0105707Y0107967D01*
X0105788Y0108144D01*
X0105874Y0108320D01*
X0105963Y0108493D01*
X0106057Y0108664D01*
X0106155Y0108832D01*
X0106257Y0108999D01*
X0106362Y0109162D01*
X0111153Y0112179D02*
X0116150Y0112179D01*
X0115251Y0112778D02*
X0114751Y0115978D01*
X0112051Y0115978D01*
X0111551Y0112778D01*
X0112051Y0112778D02*
X0114953Y0112778D01*
X0114972Y0113376D02*
X0112051Y0113376D01*
X0112051Y0113975D02*
X0114852Y0113975D01*
X0114732Y0114573D02*
X0112051Y0114573D01*
X0112051Y0115172D02*
X0114613Y0115172D01*
X0117122Y0106194D02*
X0122758Y0106194D01*
X0124051Y0105595D02*
X0117481Y0105595D01*
X0117391Y0104997D02*
X0124051Y0104997D01*
X0124051Y0104398D02*
X0117191Y0104398D01*
X0116992Y0103800D02*
X0123516Y0103800D01*
X0117717Y0111815D02*
X0117545Y0111915D01*
X0117370Y0112012D01*
X0117194Y0112104D01*
X0117015Y0112192D01*
X0116834Y0112276D01*
X0116651Y0112355D01*
X0116467Y0112430D01*
X0116280Y0112501D01*
X0116092Y0112567D01*
X0115903Y0112628D01*
X0115712Y0112685D01*
X0115519Y0112738D01*
X0115326Y0112785D01*
X0114951Y0101678D02*
X0115058Y0101733D01*
X0115164Y0101790D01*
X0115267Y0101852D01*
X0115369Y0101916D01*
X0115468Y0101984D01*
X0115565Y0102055D01*
X0115660Y0102129D01*
X0115752Y0102206D01*
X0115842Y0102287D01*
X0115929Y0102370D01*
X0116013Y0102456D01*
X0116094Y0102544D01*
X0116172Y0102636D01*
X0116248Y0102730D01*
X0116320Y0102826D01*
X0116389Y0102924D01*
X0116455Y0103025D01*
X0116517Y0103128D01*
X0116576Y0103233D01*
X0116632Y0103339D01*
X0116684Y0103448D01*
X0116732Y0103558D01*
X0116777Y0103670D01*
X0116818Y0103783D01*
X0116855Y0103897D01*
X0116889Y0104013D01*
X0116918Y0104129D01*
X0116944Y0104247D01*
X0116966Y0104365D01*
X0116985Y0104484D01*
X0116999Y0104603D01*
X0117009Y0104723D01*
X0117016Y0104843D01*
X0117018Y0104964D01*
X0117016Y0105084D01*
X0117011Y0105204D01*
X0117002Y0105324D01*
X0116988Y0105444D01*
X0116971Y0105563D01*
X0116950Y0105681D01*
X0116925Y0105799D01*
X0116896Y0105916D01*
X0116863Y0106031D01*
X0116827Y0106146D01*
X0116787Y0106259D01*
X0116743Y0106371D01*
X0116695Y0106482D01*
X0116644Y0106591D01*
X0116590Y0106698D01*
X0116531Y0106803D01*
X0116470Y0106907D01*
X0116405Y0107008D01*
X0116337Y0107107D01*
X0116265Y0107204D01*
X0116191Y0107298D01*
X0116113Y0107390D01*
X0116033Y0107479D01*
X0115949Y0107566D01*
X0115863Y0107650D01*
X0115774Y0107731D01*
X0115682Y0107809D01*
X0115588Y0107884D01*
X0115492Y0107955D01*
X0115393Y0108024D01*
X0115292Y0108089D01*
X0115189Y0108151D01*
X0115084Y0108210D01*
X0114977Y0108265D01*
X0114868Y0108317D01*
X0114758Y0108364D01*
X0114646Y0108409D01*
X0114533Y0108449D01*
X0114418Y0108486D01*
X0114302Y0108519D01*
X0114186Y0108549D01*
X0114068Y0108574D01*
X0113950Y0108596D01*
X0113831Y0108613D01*
X0113711Y0108627D01*
X0113591Y0108637D01*
X0113471Y0108643D01*
X0113351Y0108645D01*
X0113231Y0108643D01*
X0113111Y0108637D01*
X0112991Y0108627D01*
X0112871Y0108613D01*
X0112752Y0108596D01*
X0112634Y0108574D01*
X0112516Y0108549D01*
X0112400Y0108519D01*
X0112284Y0108486D01*
X0112169Y0108449D01*
X0112056Y0108409D01*
X0111944Y0108364D01*
X0111834Y0108317D01*
X0111725Y0108265D01*
X0111618Y0108210D01*
X0111513Y0108151D01*
X0111410Y0108089D01*
X0111309Y0108024D01*
X0111210Y0107955D01*
X0111114Y0107884D01*
X0111020Y0107809D01*
X0110928Y0107731D01*
X0110839Y0107650D01*
X0110753Y0107566D01*
X0110669Y0107479D01*
X0110589Y0107390D01*
X0110511Y0107298D01*
X0110437Y0107204D01*
X0110365Y0107107D01*
X0110297Y0107008D01*
X0110232Y0106907D01*
X0110171Y0106803D01*
X0110112Y0106698D01*
X0110058Y0106591D01*
X0110007Y0106482D01*
X0109959Y0106371D01*
X0109915Y0106259D01*
X0109875Y0106146D01*
X0109839Y0106031D01*
X0109806Y0105916D01*
X0109777Y0105799D01*
X0109752Y0105681D01*
X0109731Y0105563D01*
X0109714Y0105444D01*
X0109700Y0105324D01*
X0109691Y0105204D01*
X0109686Y0105084D01*
X0109684Y0104964D01*
X0109686Y0104843D01*
X0109693Y0104723D01*
X0109703Y0104603D01*
X0109717Y0104484D01*
X0109736Y0104365D01*
X0109758Y0104247D01*
X0109784Y0104129D01*
X0109813Y0104013D01*
X0109847Y0103897D01*
X0109884Y0103783D01*
X0109925Y0103670D01*
X0109970Y0103558D01*
X0110018Y0103448D01*
X0110070Y0103339D01*
X0110126Y0103233D01*
X0110185Y0103128D01*
X0110247Y0103025D01*
X0110313Y0102924D01*
X0110382Y0102826D01*
X0110454Y0102730D01*
X0110530Y0102636D01*
X0110608Y0102544D01*
X0110689Y0102456D01*
X0110773Y0102370D01*
X0110860Y0102287D01*
X0110950Y0102206D01*
X0111042Y0102129D01*
X0111137Y0102055D01*
X0111234Y0101984D01*
X0111333Y0101916D01*
X0111435Y0101852D01*
X0111538Y0101790D01*
X0111644Y0101733D01*
X0111751Y0101678D01*
X0106251Y0100273D02*
X0106155Y0100439D01*
X0106062Y0100606D01*
X0105974Y0100776D01*
X0105890Y0100948D01*
X0105810Y0101121D01*
X0105734Y0101297D01*
X0105662Y0101474D01*
X0105595Y0101653D01*
X0105531Y0101834D01*
X0105472Y0102016D01*
X0105418Y0102199D01*
X0105367Y0102384D01*
X0105321Y0102569D01*
X0105280Y0102756D01*
X0105243Y0102944D01*
X0109014Y0111795D02*
X0109179Y0111893D01*
X0109347Y0111987D01*
X0109517Y0112077D01*
X0109689Y0112164D01*
X0109862Y0112246D01*
X0110038Y0112325D01*
X0110215Y0112399D01*
X0110394Y0112469D01*
X0110575Y0112535D01*
X0110757Y0112597D01*
X0110940Y0112655D01*
X0111125Y0112709D01*
X0111311Y0112758D01*
X0111498Y0112803D01*
X0120443Y0109125D02*
X0120543Y0108963D01*
X0120640Y0108798D01*
X0120733Y0108631D01*
X0120821Y0108462D01*
X0120906Y0108292D01*
X0120987Y0108119D01*
X0121064Y0107944D01*
X0121137Y0107768D01*
X0121206Y0107590D01*
X0121271Y0107410D01*
X0121332Y0107230D01*
X0121388Y0107047D01*
X0121441Y0106864D01*
X0121489Y0106679D01*
X0121545Y0102962D02*
X0121502Y0102762D01*
X0121455Y0102564D01*
X0121403Y0102367D01*
X0121345Y0102171D01*
X0121284Y0101976D01*
X0121217Y0101783D01*
X0121146Y0101592D01*
X0121070Y0101402D01*
X0120989Y0101215D01*
X0120904Y0101029D01*
X0120814Y0100846D01*
X0120720Y0100665D01*
X0120621Y0100486D01*
X0120518Y0100310D01*
D15*
X0084022Y0103328D03*
X0084022Y0103353D03*
X0081672Y0098553D03*
X0075397Y0095478D03*
X0066247Y0104353D03*
X0066247Y0104378D03*
X0066247Y0104403D03*
X0065347Y0111028D03*
X0065322Y0111053D03*
X0064322Y0114428D03*
X0063197Y0119203D03*
X0063197Y0119228D03*
D16*
X0063959Y0117603D03*
X0063984Y0117578D03*
X0063984Y0117553D03*
X0065309Y0113153D03*
X0065334Y0113128D03*
X0066234Y0109653D03*
X0066259Y0109628D03*
X0067409Y0101153D03*
X0067434Y0101103D03*
X0067459Y0101078D03*
X0067459Y0101053D03*
X0067484Y0101028D03*
X0067509Y0100978D03*
X0075384Y0095503D03*
X0081959Y0099403D03*
X0083809Y0104528D03*
D17*
X0083697Y0105003D03*
X0083697Y0105028D03*
X0075372Y0095528D03*
X0069097Y0099003D03*
X0069072Y0099028D03*
X0069047Y0099053D03*
X0069022Y0099078D03*
X0066047Y0112378D03*
X0064872Y0116278D03*
X0064847Y0116303D03*
X0064822Y0116328D03*
D18*
X0065922Y0115103D03*
X0065947Y0115078D03*
X0065972Y0115053D03*
X0065997Y0115028D03*
X0066022Y0115003D03*
X0066047Y0114978D03*
X0067522Y0108328D03*
X0067547Y0108303D03*
X0069772Y0098453D03*
X0075372Y0095553D03*
X0082072Y0100728D03*
X0082072Y0100753D03*
X0082072Y0100778D03*
X0082172Y0110953D03*
X0082172Y0110978D03*
X0082147Y0111003D03*
D19*
X0081409Y0111878D03*
X0081384Y0111903D03*
X0081359Y0111928D03*
X0081834Y0101728D03*
X0081834Y0101703D03*
X0081859Y0101653D03*
X0081859Y0101628D03*
X0075359Y0095578D03*
X0068034Y0107903D03*
X0067284Y0111278D03*
X0067259Y0111303D03*
X0067159Y0114028D03*
X0067059Y0114103D03*
D20*
X0068209Y0113278D03*
X0068284Y0113228D03*
X0068334Y0113203D03*
X0068434Y0107603D03*
X0076034Y0114753D03*
X0080409Y0112778D03*
X0080434Y0112753D03*
X0085934Y0110203D03*
X0083559Y0105753D03*
X0081534Y0102478D03*
X0081559Y0102428D03*
X0075359Y0095603D03*
X0070509Y0098028D03*
D21*
X0075347Y0095628D03*
X0078897Y0099078D03*
X0078897Y0099103D03*
X0078897Y0099128D03*
X0078472Y0101103D03*
X0078472Y0101128D03*
X0078447Y0101153D03*
X0081222Y0103078D03*
X0081247Y0103053D03*
X0083522Y0105903D03*
X0076022Y0114728D03*
X0069197Y0112678D03*
X0068397Y0110478D03*
X0068422Y0110453D03*
X0068797Y0107353D03*
X0068847Y0107328D03*
D22*
X0069022Y0110078D03*
X0068972Y0110103D03*
X0079072Y0113553D03*
X0083497Y0106028D03*
X0080947Y0103528D03*
X0080922Y0103553D03*
X0078047Y0101728D03*
X0078022Y0101753D03*
X0078747Y0098503D03*
X0075347Y0095653D03*
D23*
X0075334Y0095678D03*
X0078609Y0098353D03*
X0077684Y0102128D03*
X0077659Y0102153D03*
X0080659Y0103928D03*
X0080634Y0103953D03*
X0083484Y0106153D03*
X0078709Y0113703D03*
X0070609Y0111953D03*
X0069509Y0109778D03*
X0069459Y0106928D03*
D24*
X0069822Y0106728D03*
X0069872Y0106703D03*
X0070097Y0109453D03*
X0071097Y0111728D03*
X0078422Y0113803D03*
X0083472Y0106253D03*
X0080372Y0104278D03*
X0080347Y0104303D03*
X0077297Y0102528D03*
X0077272Y0102553D03*
X0078497Y0098278D03*
X0075322Y0095703D03*
D25*
X0075322Y0095728D03*
X0078372Y0098203D03*
X0076922Y0102853D03*
X0080072Y0104603D03*
X0080097Y0104578D03*
X0070197Y0106528D03*
X0071522Y0111553D03*
D26*
X0070997Y0109003D03*
X0071047Y0108978D03*
X0071097Y0108953D03*
X0070497Y0106378D03*
X0076722Y0102978D03*
X0079772Y0104878D03*
X0083447Y0106428D03*
X0075322Y0095753D03*
D27*
X0075309Y0095778D03*
X0076484Y0103128D03*
X0079509Y0105128D03*
X0079534Y0105103D03*
X0085634Y0110053D03*
X0072309Y0111253D03*
X0071484Y0108778D03*
X0071534Y0108753D03*
X0070784Y0106228D03*
D28*
X0071047Y0106103D03*
X0071097Y0106078D03*
X0071997Y0108553D03*
X0071947Y0108578D03*
X0072572Y0111153D03*
X0079197Y0105378D03*
X0079222Y0105353D03*
X0083447Y0106553D03*
X0075297Y0095803D03*
D29*
X0075284Y0095828D03*
X0076084Y0103378D03*
X0078934Y0105578D03*
X0072409Y0108378D03*
X0072359Y0108403D03*
X0071359Y0105953D03*
X0071409Y0105928D03*
X0076034Y0114553D03*
D30*
X0072809Y0108228D03*
X0071609Y0105828D03*
X0075834Y0103528D03*
X0078684Y0105753D03*
X0077884Y0097953D03*
X0075284Y0095853D03*
D31*
X0075284Y0095878D03*
X0078384Y0105953D03*
X0073134Y0108103D03*
D32*
X0073497Y0107978D03*
X0073572Y0107953D03*
X0078097Y0106128D03*
X0075322Y0103853D03*
X0075272Y0095903D03*
D33*
X0075259Y0095928D03*
X0075109Y0103978D03*
X0072384Y0105478D03*
X0073784Y0107878D03*
D34*
X0072709Y0105328D03*
X0072759Y0105303D03*
X0074734Y0104203D03*
X0077434Y0106503D03*
X0075259Y0095953D03*
D35*
X0075259Y0095978D03*
X0077459Y0097828D03*
X0074184Y0104528D03*
X0074109Y0104578D03*
X0074059Y0104603D03*
X0074009Y0104628D03*
X0073434Y0104953D03*
X0073384Y0104978D03*
X0073334Y0105003D03*
X0073234Y0105053D03*
X0077084Y0106678D03*
X0083459Y0106903D03*
D36*
X0076622Y0106878D03*
X0074672Y0107603D03*
X0076047Y0114403D03*
X0075247Y0096003D03*
D37*
X0075247Y0096028D03*
X0076097Y0107103D03*
X0076022Y0107128D03*
X0075947Y0107153D03*
X0075122Y0107453D03*
X0074397Y0110603D03*
X0076022Y0114378D03*
X0083472Y0106978D03*
D38*
X0076034Y0114353D03*
X0075234Y0096053D03*
D39*
X0075222Y0096078D03*
D40*
X0075209Y0096103D03*
D41*
X0075209Y0096128D03*
X0074934Y0110478D03*
D42*
X0075197Y0096153D03*
D43*
X0075197Y0096178D03*
X0075147Y0110428D03*
D44*
X0076034Y0114228D03*
X0075184Y0096203D03*
D45*
X0075184Y0096228D03*
X0075384Y0110378D03*
X0076034Y0114203D03*
D46*
X0075172Y0096253D03*
D47*
X0075172Y0096278D03*
D48*
X0075172Y0096303D03*
D49*
X0075172Y0096328D03*
X0083622Y0107278D03*
X0075772Y0110303D03*
D50*
X0075147Y0096353D03*
D51*
X0075147Y0096378D03*
X0076047Y0114078D03*
D52*
X0076047Y0114053D03*
X0083672Y0107328D03*
X0075147Y0096403D03*
D53*
X0075134Y0096428D03*
D54*
X0075134Y0096453D03*
D55*
X0075122Y0096478D03*
X0076222Y0110228D03*
D56*
X0075122Y0096503D03*
D57*
X0075109Y0096528D03*
D58*
X0075109Y0096553D03*
D59*
X0075109Y0096578D03*
D60*
X0075097Y0096603D03*
D61*
X0075097Y0096628D03*
D62*
X0075084Y0096653D03*
D63*
X0075072Y0096678D03*
D64*
X0075072Y0096703D03*
D65*
X0075072Y0096728D03*
D66*
X0075059Y0096753D03*
X0076934Y0110128D03*
D67*
X0075072Y0096778D03*
D68*
X0075059Y0096803D03*
D69*
X0075059Y0096828D03*
D70*
X0075059Y0096853D03*
X0077134Y0110103D03*
D71*
X0075047Y0096878D03*
D72*
X0075034Y0096903D03*
D73*
X0075022Y0096928D03*
D74*
X0075022Y0096953D03*
D75*
X0075022Y0096978D03*
D76*
X0075022Y0097003D03*
D77*
X0075022Y0097028D03*
D78*
X0075009Y0097053D03*
D79*
X0074997Y0097078D03*
D80*
X0074997Y0097103D03*
D81*
X0074997Y0097128D03*
D82*
X0074984Y0097153D03*
D83*
X0074984Y0097178D03*
X0077684Y0110053D03*
D84*
X0074984Y0097203D03*
D85*
X0074984Y0097228D03*
D86*
X0074972Y0097253D03*
D87*
X0074972Y0097278D03*
D88*
X0074972Y0097303D03*
D89*
X0074959Y0097328D03*
D90*
X0074959Y0097353D03*
D91*
X0074947Y0097378D03*
D92*
X0074947Y0097403D03*
X0074947Y0097428D03*
D93*
X0074934Y0097453D03*
D94*
X0074922Y0097478D03*
D95*
X0074909Y0097503D03*
D96*
X0074909Y0097528D03*
D97*
X0074897Y0097553D03*
D98*
X0074884Y0097578D03*
D99*
X0074884Y0097603D03*
D100*
X0074872Y0097628D03*
D101*
X0074859Y0097653D03*
D102*
X0074847Y0097678D03*
D103*
X0074834Y0097703D03*
D104*
X0074822Y0097728D03*
D105*
X0074822Y0097753D03*
D106*
X0074809Y0097778D03*
D107*
X0081284Y0097803D03*
X0083984Y0101678D03*
X0083984Y0101703D03*
X0071284Y0113578D03*
X0068209Y0111578D03*
X0066834Y0110378D03*
X0065784Y0107778D03*
X0065784Y0107753D03*
X0065784Y0107728D03*
X0065784Y0107703D03*
X0064559Y0112778D03*
X0063259Y0116378D03*
X0063259Y0116403D03*
X0063234Y0116428D03*
X0063234Y0116453D03*
X0062734Y0120778D03*
X0062734Y0120803D03*
X0062734Y0120828D03*
D108*
X0075209Y0107428D03*
X0075409Y0107353D03*
X0075484Y0107328D03*
X0075759Y0107228D03*
X0075834Y0107203D03*
X0075884Y0107178D03*
X0077309Y0097803D03*
D109*
X0071259Y0097803D03*
X0077109Y0102703D03*
X0077134Y0102678D03*
X0077159Y0102653D03*
X0080209Y0104453D03*
X0080234Y0104428D03*
X0080259Y0104403D03*
X0069959Y0106653D03*
X0070209Y0109403D03*
X0071334Y0111628D03*
X0071284Y0111653D03*
D110*
X0065797Y0107678D03*
X0065797Y0107653D03*
X0065797Y0107628D03*
X0065797Y0107603D03*
X0065797Y0107578D03*
X0064597Y0112678D03*
X0064597Y0112703D03*
X0064572Y0112728D03*
X0064572Y0112753D03*
X0063297Y0116303D03*
X0063297Y0116328D03*
X0063272Y0116353D03*
X0062747Y0120753D03*
X0081197Y0110728D03*
X0083997Y0101778D03*
X0083997Y0101753D03*
X0083997Y0101728D03*
X0081297Y0097828D03*
D111*
X0077584Y0102228D03*
X0080584Y0104028D03*
X0083484Y0106178D03*
X0071109Y0097828D03*
X0069559Y0106878D03*
X0070709Y0111903D03*
D112*
X0064609Y0112628D03*
X0064609Y0112653D03*
X0063334Y0116228D03*
X0063309Y0116253D03*
X0063309Y0116278D03*
X0062759Y0120703D03*
X0062759Y0120728D03*
X0065809Y0107553D03*
X0065809Y0107528D03*
X0065809Y0107503D03*
X0065809Y0107478D03*
X0065809Y0107453D03*
X0065834Y0107328D03*
X0081309Y0097853D03*
D113*
X0077572Y0097853D03*
X0074697Y0104228D03*
X0077472Y0106478D03*
X0077522Y0106453D03*
X0074097Y0107778D03*
X0073847Y0110753D03*
X0083447Y0106853D03*
D114*
X0080797Y0103753D03*
X0080822Y0103728D03*
X0077897Y0101903D03*
X0077872Y0101928D03*
X0077847Y0101953D03*
X0078672Y0098403D03*
X0070997Y0097853D03*
X0069297Y0107028D03*
X0069222Y0109953D03*
X0070247Y0112128D03*
X0078922Y0113628D03*
D115*
X0071334Y0113603D03*
X0064659Y0112528D03*
X0064659Y0112503D03*
X0064634Y0112578D03*
X0063409Y0116053D03*
X0063384Y0116103D03*
X0063384Y0116128D03*
X0063359Y0116153D03*
X0062759Y0120628D03*
X0062759Y0120653D03*
X0065859Y0107178D03*
X0065859Y0107153D03*
X0065859Y0107128D03*
X0065859Y0107103D03*
X0081334Y0097878D03*
X0084009Y0101853D03*
X0084009Y0101878D03*
X0084009Y0101903D03*
X0091434Y0107428D03*
D116*
X0077884Y0106253D03*
X0075184Y0103928D03*
X0072334Y0105503D03*
X0072284Y0105528D03*
X0073709Y0107903D03*
X0077659Y0097878D03*
D117*
X0078759Y0098528D03*
X0078759Y0098553D03*
X0078084Y0101678D03*
X0078059Y0101703D03*
X0080959Y0103503D03*
X0080984Y0103478D03*
X0070909Y0097878D03*
X0069134Y0107128D03*
X0068934Y0110128D03*
X0069934Y0112278D03*
X0069884Y0112303D03*
D118*
X0064672Y0112478D03*
X0063447Y0115978D03*
X0063422Y0116028D03*
X0063397Y0116078D03*
X0062772Y0120603D03*
X0065872Y0107078D03*
X0065872Y0107053D03*
X0065872Y0107028D03*
X0065872Y0107003D03*
X0065872Y0106978D03*
X0081347Y0097903D03*
X0084022Y0101928D03*
X0084022Y0101953D03*
D119*
X0083434Y0106753D03*
X0078184Y0106078D03*
X0075434Y0103778D03*
X0072109Y0105603D03*
X0077734Y0097903D03*
D120*
X0078834Y0098778D03*
X0078834Y0098803D03*
X0078234Y0101478D03*
X0081084Y0103328D03*
X0083509Y0105978D03*
X0079359Y0113428D03*
X0069659Y0112428D03*
X0069609Y0112453D03*
X0068684Y0110278D03*
X0068734Y0110253D03*
X0068984Y0107228D03*
X0070834Y0097903D03*
D121*
X0081359Y0097928D03*
X0084009Y0101978D03*
X0071409Y0113628D03*
X0064709Y0112403D03*
X0064684Y0112428D03*
X0064684Y0112453D03*
X0063459Y0115928D03*
X0063459Y0115953D03*
X0063434Y0116003D03*
X0062784Y0120553D03*
X0062784Y0120578D03*
X0065884Y0106953D03*
X0065884Y0106928D03*
X0065884Y0106903D03*
X0065884Y0106878D03*
X0065884Y0106853D03*
D122*
X0071834Y0105728D03*
X0073009Y0108153D03*
X0073084Y0108128D03*
X0073259Y0110928D03*
X0078509Y0105878D03*
X0078534Y0105853D03*
X0083434Y0106703D03*
X0077809Y0097928D03*
D123*
X0078884Y0099003D03*
X0078884Y0099028D03*
X0078884Y0099053D03*
X0078434Y0101178D03*
X0078409Y0101203D03*
X0081209Y0103103D03*
X0081209Y0103128D03*
X0081184Y0103153D03*
X0085884Y0110178D03*
X0079584Y0113303D03*
X0069284Y0112628D03*
X0069234Y0112653D03*
X0068459Y0110428D03*
X0068509Y0110403D03*
X0068559Y0110378D03*
X0070759Y0097928D03*
D124*
X0065897Y0106753D03*
X0065897Y0106778D03*
X0065897Y0106803D03*
X0065897Y0106828D03*
X0064722Y0112353D03*
X0064722Y0112378D03*
X0063497Y0115853D03*
X0063497Y0115878D03*
X0063472Y0115903D03*
X0062797Y0120503D03*
X0062797Y0120528D03*
X0084022Y0102053D03*
X0084022Y0102028D03*
X0084022Y0102003D03*
X0081372Y0097953D03*
D125*
X0078922Y0099253D03*
X0078922Y0099278D03*
X0078922Y0099303D03*
X0078922Y0099328D03*
X0078572Y0100928D03*
X0078547Y0100978D03*
X0078522Y0101028D03*
X0081297Y0102953D03*
X0081297Y0102978D03*
X0081272Y0103003D03*
X0083522Y0105878D03*
X0079772Y0113203D03*
X0079722Y0113228D03*
X0069072Y0112753D03*
X0068322Y0110528D03*
X0068772Y0107378D03*
X0070697Y0097953D03*
D126*
X0065909Y0106628D03*
X0065909Y0106653D03*
X0065909Y0106678D03*
X0065909Y0106703D03*
X0065909Y0106728D03*
X0064734Y0112328D03*
X0063534Y0115778D03*
X0063534Y0115803D03*
X0063509Y0115828D03*
X0062809Y0120453D03*
X0062809Y0120478D03*
X0084034Y0102103D03*
X0084034Y0102078D03*
X0081384Y0097978D03*
D127*
X0077934Y0097978D03*
X0076009Y0103428D03*
X0075959Y0103453D03*
X0078834Y0105653D03*
X0072484Y0108353D03*
X0071459Y0105903D03*
X0077584Y0113978D03*
D128*
X0079934Y0113103D03*
X0079959Y0113078D03*
X0083534Y0105828D03*
X0081384Y0102803D03*
X0078684Y0100703D03*
X0078684Y0100678D03*
X0078709Y0100653D03*
X0078709Y0100628D03*
X0078734Y0100578D03*
X0078734Y0100553D03*
X0078759Y0100503D03*
X0078934Y0099678D03*
X0078934Y0099653D03*
X0078934Y0099628D03*
X0078934Y0099603D03*
X0078934Y0099578D03*
X0078934Y0099553D03*
X0078934Y0099528D03*
X0070634Y0097978D03*
X0068834Y0112878D03*
X0068809Y0112903D03*
X0068759Y0112928D03*
D129*
X0071497Y0113653D03*
X0064772Y0112253D03*
X0064772Y0112228D03*
X0064747Y0112278D03*
X0064747Y0112303D03*
X0063572Y0115703D03*
X0063547Y0115753D03*
X0062822Y0120403D03*
X0062822Y0120428D03*
X0065922Y0106603D03*
X0065922Y0106578D03*
X0065922Y0106553D03*
X0065922Y0106528D03*
X0081397Y0098003D03*
X0084022Y0102128D03*
D130*
X0083434Y0106603D03*
X0079034Y0105503D03*
X0076134Y0103353D03*
X0071309Y0105978D03*
X0072234Y0108453D03*
X0077984Y0098003D03*
D131*
X0081472Y0102628D03*
X0081447Y0102653D03*
X0081447Y0102678D03*
X0083547Y0105803D03*
X0080122Y0112978D03*
X0068597Y0113028D03*
X0068522Y0113078D03*
X0067997Y0110753D03*
X0068022Y0110728D03*
X0068547Y0107528D03*
X0070572Y0098003D03*
D132*
X0065934Y0106428D03*
X0065934Y0106453D03*
X0065934Y0106478D03*
X0065934Y0106503D03*
X0064784Y0112203D03*
X0063609Y0115628D03*
X0063584Y0115678D03*
X0063559Y0115728D03*
X0062834Y0120353D03*
X0062834Y0120378D03*
X0084034Y0102203D03*
X0084034Y0102178D03*
X0084034Y0102153D03*
X0081409Y0098028D03*
D133*
X0078059Y0098028D03*
X0076284Y0103253D03*
X0071134Y0106053D03*
X0072059Y0108528D03*
D134*
X0071572Y0113678D03*
X0064797Y0112178D03*
X0064797Y0112153D03*
X0063647Y0115553D03*
X0063622Y0115603D03*
X0063597Y0115653D03*
X0062847Y0120303D03*
X0062847Y0120328D03*
X0065947Y0106403D03*
X0065947Y0106378D03*
X0065947Y0106353D03*
X0065947Y0106328D03*
X0081422Y0098053D03*
X0084047Y0102228D03*
X0084047Y0102253D03*
X0091322Y0107453D03*
D135*
X0079322Y0105278D03*
X0071822Y0108628D03*
X0077797Y0113953D03*
X0078097Y0098053D03*
D136*
X0081609Y0102328D03*
X0081584Y0102353D03*
X0081584Y0102378D03*
X0083559Y0105728D03*
X0080534Y0112678D03*
X0068134Y0113328D03*
X0068059Y0113378D03*
X0067984Y0113428D03*
X0068359Y0107653D03*
X0070459Y0098053D03*
D137*
X0065959Y0106228D03*
X0065959Y0106253D03*
X0065959Y0106278D03*
X0065959Y0106303D03*
X0064834Y0112078D03*
X0064834Y0112103D03*
X0064809Y0112128D03*
X0063659Y0115528D03*
X0063634Y0115578D03*
X0062859Y0120253D03*
X0062859Y0120278D03*
X0084034Y0102278D03*
X0081434Y0098078D03*
D138*
X0078147Y0098078D03*
X0076447Y0103153D03*
X0079447Y0105178D03*
X0079472Y0105153D03*
X0083447Y0106503D03*
X0071597Y0108728D03*
X0070847Y0106203D03*
D139*
X0067684Y0110978D03*
X0067659Y0111003D03*
X0067909Y0113478D03*
X0080659Y0112578D03*
X0080684Y0112553D03*
X0080709Y0112528D03*
X0080784Y0112478D03*
X0083559Y0105703D03*
X0081634Y0102253D03*
X0081659Y0102203D03*
X0070409Y0098078D03*
D140*
X0065972Y0106128D03*
X0065972Y0106153D03*
X0065972Y0106178D03*
X0065972Y0106203D03*
X0064847Y0112053D03*
X0063697Y0115453D03*
X0063697Y0115478D03*
X0063672Y0115503D03*
X0062872Y0120203D03*
X0062872Y0120228D03*
X0084047Y0102353D03*
X0084047Y0102328D03*
X0084047Y0102303D03*
X0081447Y0098103D03*
D141*
X0078197Y0098103D03*
X0079647Y0105003D03*
X0079622Y0105028D03*
X0083447Y0106453D03*
X0077922Y0113928D03*
X0071372Y0108828D03*
X0071322Y0108853D03*
D142*
X0068234Y0107753D03*
X0067584Y0111053D03*
X0067759Y0113578D03*
X0067734Y0113603D03*
X0067684Y0113628D03*
X0067659Y0113653D03*
X0080834Y0112428D03*
X0080859Y0112403D03*
X0081684Y0102128D03*
X0081709Y0102103D03*
X0081709Y0102078D03*
X0070359Y0098103D03*
D143*
X0065984Y0106028D03*
X0065984Y0106053D03*
X0065984Y0106078D03*
X0065984Y0106103D03*
X0064884Y0111978D03*
X0064859Y0112003D03*
X0064859Y0112028D03*
X0063734Y0115403D03*
X0063709Y0115428D03*
X0062884Y0120178D03*
X0084059Y0102378D03*
X0081459Y0098128D03*
D144*
X0078234Y0098128D03*
X0076684Y0103003D03*
X0079734Y0104928D03*
X0079759Y0104903D03*
X0070534Y0106353D03*
X0071959Y0111378D03*
D145*
X0067484Y0111128D03*
X0067584Y0113703D03*
X0067559Y0113728D03*
X0067484Y0113778D03*
X0068134Y0107828D03*
X0068159Y0107803D03*
X0080984Y0112303D03*
X0081009Y0112278D03*
X0081034Y0112253D03*
X0081059Y0112228D03*
X0081084Y0112203D03*
X0083584Y0105628D03*
X0081734Y0102003D03*
X0081734Y0101978D03*
X0081759Y0101953D03*
X0081759Y0101928D03*
X0070309Y0098128D03*
D146*
X0066009Y0105828D03*
X0066009Y0105853D03*
X0066009Y0105878D03*
X0066009Y0105903D03*
X0064934Y0111853D03*
X0064909Y0111903D03*
X0063809Y0115253D03*
X0063784Y0115303D03*
X0062909Y0120078D03*
X0062909Y0120103D03*
X0084059Y0102503D03*
X0084059Y0102478D03*
X0081484Y0098153D03*
D147*
X0078297Y0098153D03*
X0079872Y0104803D03*
X0085697Y0110078D03*
X0078047Y0113903D03*
X0071897Y0111403D03*
X0070947Y0109028D03*
X0070447Y0106403D03*
D148*
X0067384Y0111203D03*
X0067384Y0113853D03*
X0067359Y0113878D03*
X0067309Y0113903D03*
X0067284Y0113928D03*
X0081159Y0112128D03*
X0081184Y0112103D03*
X0081209Y0112078D03*
X0081234Y0112053D03*
X0081259Y0112028D03*
X0083584Y0105603D03*
X0081784Y0101878D03*
X0081784Y0101853D03*
X0081809Y0101803D03*
X0070259Y0098153D03*
D149*
X0066022Y0105753D03*
X0066022Y0105778D03*
X0066022Y0105803D03*
X0064947Y0111828D03*
X0064922Y0111878D03*
X0063822Y0115228D03*
X0063797Y0115278D03*
X0062922Y0120028D03*
X0062922Y0120053D03*
X0084047Y0102553D03*
X0084047Y0102528D03*
X0081497Y0098203D03*
X0081497Y0098178D03*
D150*
X0078334Y0098178D03*
X0076884Y0102878D03*
X0076834Y0102903D03*
X0070734Y0109128D03*
X0071709Y0111478D03*
X0078159Y0113878D03*
D151*
X0081297Y0112003D03*
X0081322Y0111978D03*
X0081347Y0111953D03*
X0083597Y0105578D03*
X0081797Y0101828D03*
X0081822Y0101778D03*
X0081822Y0101753D03*
X0070222Y0098178D03*
X0068072Y0107878D03*
X0067347Y0111228D03*
X0067322Y0111253D03*
X0067247Y0113953D03*
X0067222Y0113978D03*
X0067197Y0114003D03*
X0067122Y0114053D03*
D152*
X0067097Y0114078D03*
X0067022Y0114128D03*
X0066997Y0114153D03*
X0067222Y0111328D03*
X0067997Y0107928D03*
X0070172Y0098203D03*
X0081872Y0101578D03*
X0081872Y0101603D03*
X0081847Y0101678D03*
X0083597Y0105553D03*
X0085972Y0110228D03*
X0081422Y0111853D03*
D153*
X0084047Y0102628D03*
X0081522Y0098228D03*
X0066047Y0105553D03*
X0066047Y0105578D03*
X0066047Y0105603D03*
X0066047Y0105628D03*
X0064997Y0111728D03*
X0064972Y0111753D03*
X0064972Y0111778D03*
X0063897Y0115103D03*
X0063872Y0115128D03*
X0063872Y0115153D03*
X0062947Y0119928D03*
X0062947Y0119953D03*
D154*
X0071409Y0111603D03*
X0070334Y0109328D03*
X0070009Y0106628D03*
X0070059Y0106603D03*
X0077034Y0102778D03*
X0077059Y0102753D03*
X0080159Y0104503D03*
X0078409Y0098228D03*
X0085734Y0110103D03*
D155*
X0081597Y0111678D03*
X0081572Y0111703D03*
X0081547Y0111728D03*
X0083597Y0105528D03*
X0081897Y0101528D03*
X0081897Y0101503D03*
X0081922Y0101478D03*
X0081922Y0101453D03*
X0081922Y0101428D03*
X0070122Y0098228D03*
X0067897Y0108003D03*
X0067872Y0108028D03*
X0067172Y0111378D03*
X0066897Y0114228D03*
X0066872Y0114253D03*
D156*
X0063909Y0115078D03*
X0065009Y0111703D03*
X0065009Y0111678D03*
X0066059Y0105528D03*
X0066059Y0105503D03*
X0066059Y0105478D03*
X0081534Y0098253D03*
X0084059Y0102653D03*
X0084059Y0102678D03*
X0084059Y0102703D03*
X0062984Y0119853D03*
X0062959Y0119903D03*
D157*
X0071222Y0111678D03*
X0070147Y0109428D03*
X0069922Y0106678D03*
X0077197Y0102628D03*
X0077222Y0102603D03*
X0080272Y0104378D03*
X0083472Y0106278D03*
X0078447Y0098253D03*
D158*
X0081934Y0101378D03*
X0081934Y0101403D03*
X0083609Y0105503D03*
X0081634Y0111628D03*
X0081609Y0111653D03*
X0067134Y0111403D03*
X0067109Y0111428D03*
X0066834Y0114278D03*
X0066809Y0114303D03*
X0066784Y0114328D03*
X0070084Y0098253D03*
D159*
X0066072Y0105378D03*
X0066072Y0105403D03*
X0066072Y0105428D03*
X0066072Y0105453D03*
X0065047Y0111603D03*
X0065022Y0111653D03*
X0063947Y0115003D03*
X0063947Y0115028D03*
X0063922Y0115053D03*
X0062997Y0119803D03*
X0062997Y0119828D03*
X0062972Y0119878D03*
X0084047Y0102753D03*
X0084047Y0102728D03*
X0081547Y0098278D03*
X0091197Y0107478D03*
X0088272Y0109203D03*
D160*
X0081747Y0111503D03*
X0081722Y0111528D03*
X0081697Y0111553D03*
X0081697Y0111578D03*
X0081672Y0111603D03*
X0081947Y0101353D03*
X0081947Y0101328D03*
X0081972Y0101253D03*
X0070047Y0098278D03*
X0067847Y0108053D03*
X0067072Y0111453D03*
X0067047Y0111478D03*
X0066747Y0114353D03*
X0066722Y0114378D03*
X0066697Y0114403D03*
D161*
X0063984Y0114953D03*
X0063959Y0114978D03*
X0065034Y0111628D03*
X0065059Y0111578D03*
X0071834Y0113753D03*
X0063009Y0119753D03*
X0063009Y0119778D03*
X0066084Y0105353D03*
X0066084Y0105328D03*
X0066084Y0105303D03*
X0081559Y0098303D03*
X0084059Y0102778D03*
D162*
X0080459Y0104178D03*
X0077434Y0102403D03*
X0078534Y0098303D03*
X0069734Y0106778D03*
X0069884Y0109578D03*
X0070934Y0111803D03*
X0078509Y0113778D03*
D163*
X0081822Y0111403D03*
X0081847Y0111378D03*
X0081872Y0111353D03*
X0081897Y0111328D03*
X0083622Y0105453D03*
X0081997Y0101178D03*
X0081997Y0101153D03*
X0081997Y0101128D03*
X0069997Y0098303D03*
X0067747Y0108128D03*
X0067722Y0108153D03*
X0066947Y0111553D03*
X0066547Y0114528D03*
X0066522Y0114553D03*
X0066497Y0114578D03*
D164*
X0064059Y0114828D03*
X0064034Y0114853D03*
X0064034Y0114878D03*
X0065084Y0111528D03*
X0065109Y0111478D03*
X0066109Y0105178D03*
X0066109Y0105153D03*
X0066109Y0105128D03*
X0081559Y0098328D03*
X0063034Y0119678D03*
X0063034Y0119703D03*
D165*
X0070772Y0111878D03*
X0069697Y0109678D03*
X0069647Y0109703D03*
X0069597Y0106853D03*
X0069647Y0106828D03*
X0077522Y0102303D03*
X0077547Y0102278D03*
X0077572Y0102253D03*
X0080547Y0104078D03*
X0078572Y0098328D03*
X0078647Y0113728D03*
X0076022Y0114678D03*
D166*
X0081909Y0111303D03*
X0081934Y0111278D03*
X0082009Y0101103D03*
X0082009Y0101078D03*
X0082034Y0101003D03*
X0069959Y0098328D03*
X0066884Y0111603D03*
X0066859Y0111628D03*
X0066459Y0114603D03*
X0066434Y0114628D03*
X0066409Y0114653D03*
X0066384Y0114678D03*
D167*
X0064072Y0114803D03*
X0065122Y0111453D03*
X0065122Y0111428D03*
X0065147Y0111403D03*
X0071922Y0113778D03*
X0063047Y0119628D03*
X0063047Y0119653D03*
X0066122Y0105103D03*
X0066122Y0105078D03*
X0066122Y0105053D03*
X0081572Y0098353D03*
X0084047Y0102903D03*
X0084047Y0102928D03*
X0084047Y0102953D03*
X0084047Y0102978D03*
D168*
X0082022Y0101053D03*
X0082022Y0101028D03*
X0082047Y0100978D03*
X0082047Y0100953D03*
X0082047Y0100928D03*
X0083622Y0105403D03*
X0083622Y0105428D03*
X0081972Y0111228D03*
X0081947Y0111253D03*
X0067697Y0108178D03*
X0066897Y0111578D03*
X0066347Y0114703D03*
X0066322Y0114728D03*
X0066297Y0114753D03*
X0066272Y0114778D03*
X0069922Y0098353D03*
D169*
X0066134Y0104978D03*
X0066134Y0105003D03*
X0066134Y0105028D03*
X0065159Y0111378D03*
X0064109Y0114753D03*
X0064084Y0114778D03*
X0063059Y0119603D03*
X0081584Y0098378D03*
D170*
X0078634Y0098378D03*
X0077784Y0102028D03*
X0077759Y0102053D03*
X0077734Y0102078D03*
X0080709Y0103853D03*
X0080709Y0103878D03*
X0080734Y0103828D03*
X0083484Y0106128D03*
X0078784Y0113678D03*
X0070509Y0112003D03*
X0069434Y0109828D03*
X0069384Y0109853D03*
X0069384Y0106978D03*
D171*
X0067659Y0108203D03*
X0067634Y0108228D03*
X0066834Y0111653D03*
X0066234Y0114803D03*
X0066209Y0114828D03*
X0081984Y0111203D03*
X0082009Y0111178D03*
X0082034Y0111153D03*
X0082059Y0100903D03*
X0082059Y0100878D03*
X0082059Y0100853D03*
X0069884Y0098378D03*
D172*
X0066147Y0104878D03*
X0066147Y0104903D03*
X0066147Y0104928D03*
X0066147Y0104953D03*
X0065197Y0111303D03*
X0065172Y0111328D03*
X0065172Y0111353D03*
X0064147Y0114678D03*
X0064122Y0114728D03*
X0063097Y0119503D03*
X0063097Y0119528D03*
X0063072Y0119553D03*
X0063072Y0119578D03*
X0084047Y0103053D03*
X0084047Y0103028D03*
X0084047Y0103003D03*
X0081597Y0098403D03*
D173*
X0082072Y0100803D03*
X0082072Y0100828D03*
X0083622Y0105378D03*
X0082072Y0111103D03*
X0082047Y0111128D03*
X0067597Y0108253D03*
X0067572Y0108278D03*
X0066797Y0111678D03*
X0066772Y0111703D03*
X0069847Y0098403D03*
D174*
X0066159Y0104803D03*
X0066159Y0104828D03*
X0066159Y0104853D03*
X0065209Y0111278D03*
X0064184Y0114628D03*
X0064159Y0114653D03*
X0064134Y0114703D03*
X0063109Y0119453D03*
X0063109Y0119478D03*
X0084034Y0103128D03*
X0084034Y0103103D03*
X0084034Y0103078D03*
X0081609Y0098428D03*
D175*
X0078697Y0098428D03*
X0077972Y0101803D03*
X0077947Y0101828D03*
X0077947Y0101853D03*
X0080897Y0103603D03*
X0080872Y0103653D03*
X0069222Y0107078D03*
X0069097Y0110028D03*
X0069047Y0110053D03*
X0070122Y0112178D03*
X0076022Y0114703D03*
D176*
X0082084Y0111078D03*
X0082109Y0111053D03*
X0082134Y0111028D03*
X0083634Y0105353D03*
X0069809Y0098428D03*
X0066734Y0111728D03*
X0066709Y0111753D03*
X0066184Y0114853D03*
X0066159Y0114878D03*
X0066134Y0114903D03*
X0066109Y0114928D03*
X0066084Y0114953D03*
D177*
X0064197Y0114603D03*
X0065222Y0111253D03*
X0065247Y0111203D03*
X0066172Y0104778D03*
X0066172Y0104753D03*
X0066172Y0104728D03*
X0081622Y0098453D03*
X0063122Y0119428D03*
D178*
X0069984Y0112253D03*
X0070034Y0112228D03*
X0070084Y0112203D03*
X0069184Y0107103D03*
X0078009Y0101778D03*
X0080909Y0103578D03*
X0080884Y0103628D03*
X0083484Y0106053D03*
X0079034Y0113578D03*
X0078734Y0098478D03*
X0078734Y0098453D03*
D179*
X0081634Y0098478D03*
X0084034Y0103153D03*
X0084034Y0103178D03*
X0084034Y0103203D03*
X0072009Y0113803D03*
X0065259Y0111178D03*
X0065234Y0111228D03*
X0064234Y0114553D03*
X0064209Y0114578D03*
X0063134Y0119378D03*
X0063134Y0119403D03*
X0066184Y0104703D03*
X0066184Y0104678D03*
X0066184Y0104653D03*
X0066209Y0104628D03*
X0066209Y0104603D03*
X0066209Y0104578D03*
D180*
X0067484Y0108353D03*
X0067459Y0108378D03*
X0066684Y0111778D03*
X0066659Y0111803D03*
X0065909Y0115128D03*
X0082209Y0110928D03*
X0082234Y0110878D03*
X0083634Y0105328D03*
X0082084Y0100703D03*
X0069734Y0098478D03*
D181*
X0066222Y0104503D03*
X0066222Y0104528D03*
X0066222Y0104553D03*
X0065297Y0111103D03*
X0065272Y0111153D03*
X0064272Y0114503D03*
X0064247Y0114528D03*
X0063172Y0119303D03*
X0063147Y0119328D03*
X0063147Y0119353D03*
X0084022Y0103278D03*
X0084022Y0103253D03*
X0084022Y0103228D03*
X0081647Y0098503D03*
D182*
X0082072Y0100628D03*
X0082072Y0100653D03*
X0082072Y0100678D03*
X0083647Y0105303D03*
X0082272Y0110828D03*
X0082247Y0110853D03*
X0082222Y0110903D03*
X0066622Y0111828D03*
X0066597Y0111853D03*
X0066572Y0111878D03*
X0065872Y0115153D03*
X0065847Y0115178D03*
X0065822Y0115203D03*
X0065797Y0115228D03*
X0065772Y0115253D03*
X0069722Y0098503D03*
D183*
X0066234Y0104428D03*
X0066234Y0104453D03*
X0066234Y0104478D03*
X0065309Y0111078D03*
X0065284Y0111128D03*
X0064309Y0114453D03*
X0064284Y0114478D03*
X0063184Y0119253D03*
X0063184Y0119278D03*
X0084009Y0103303D03*
X0081659Y0098528D03*
D184*
X0082084Y0100603D03*
X0069684Y0098528D03*
X0067434Y0108403D03*
X0067409Y0108428D03*
X0065734Y0115278D03*
X0082284Y0110803D03*
X0082309Y0110778D03*
D185*
X0086022Y0110253D03*
X0083647Y0105278D03*
X0082072Y0100578D03*
X0082072Y0100553D03*
X0069647Y0098553D03*
X0067372Y0108453D03*
X0066547Y0111903D03*
X0066522Y0111928D03*
X0065722Y0115303D03*
X0065697Y0115328D03*
X0065672Y0115353D03*
X0065647Y0115378D03*
X0065622Y0115403D03*
X0065597Y0115428D03*
D186*
X0064359Y0114378D03*
X0064359Y0114353D03*
X0064334Y0114403D03*
X0065359Y0111003D03*
X0072109Y0113828D03*
X0063209Y0119178D03*
X0066259Y0104328D03*
X0066259Y0104303D03*
X0066259Y0104278D03*
X0066284Y0104228D03*
X0066284Y0104203D03*
X0081684Y0098578D03*
X0084009Y0103378D03*
X0084009Y0103403D03*
X0091034Y0107503D03*
X0088284Y0109178D03*
D187*
X0080997Y0103453D03*
X0078122Y0101628D03*
X0078097Y0101653D03*
X0078772Y0098603D03*
X0078772Y0098578D03*
X0069097Y0107153D03*
X0068897Y0110153D03*
X0079147Y0113528D03*
X0079197Y0113503D03*
D188*
X0076034Y0114803D03*
X0067334Y0108478D03*
X0066484Y0111953D03*
X0066459Y0111978D03*
X0065584Y0115453D03*
X0065559Y0115478D03*
X0065509Y0115528D03*
X0083659Y0105253D03*
X0082084Y0100528D03*
X0082084Y0100503D03*
X0069609Y0098578D03*
D189*
X0066297Y0104128D03*
X0066297Y0104153D03*
X0066297Y0104178D03*
X0066272Y0104253D03*
X0065397Y0110928D03*
X0065372Y0110953D03*
X0065372Y0110978D03*
X0064422Y0114278D03*
X0064397Y0114303D03*
X0064397Y0114328D03*
X0063247Y0119103D03*
X0063222Y0119128D03*
X0063222Y0119153D03*
X0083997Y0103478D03*
X0083997Y0103453D03*
X0083997Y0103428D03*
X0081697Y0098628D03*
X0081697Y0098603D03*
D190*
X0082072Y0100478D03*
X0083647Y0105228D03*
X0082297Y0110753D03*
X0067322Y0108503D03*
X0066422Y0112003D03*
X0065522Y0115503D03*
X0065472Y0115553D03*
X0069547Y0098628D03*
X0069572Y0098603D03*
D191*
X0078134Y0101603D03*
X0078159Y0101578D03*
X0081009Y0103428D03*
X0081034Y0103403D03*
X0078809Y0098678D03*
X0078784Y0098653D03*
X0078784Y0098628D03*
X0069059Y0107178D03*
X0068859Y0110178D03*
X0068809Y0110203D03*
X0069834Y0112328D03*
X0069784Y0112353D03*
X0079259Y0113478D03*
D192*
X0065434Y0110853D03*
X0065409Y0110878D03*
X0065409Y0110903D03*
X0064434Y0114253D03*
X0063259Y0119053D03*
X0063259Y0119078D03*
X0066309Y0104103D03*
X0066309Y0104078D03*
X0081709Y0098653D03*
D193*
X0082084Y0100428D03*
X0082084Y0100453D03*
X0083659Y0105203D03*
X0069509Y0098653D03*
X0067284Y0108528D03*
X0067259Y0108553D03*
X0066409Y0112028D03*
X0066384Y0112053D03*
X0065459Y0115578D03*
X0065434Y0115603D03*
X0065409Y0115628D03*
X0065384Y0115653D03*
D194*
X0064447Y0114228D03*
X0064472Y0114203D03*
X0065447Y0110828D03*
X0066322Y0104053D03*
X0066322Y0104028D03*
X0066322Y0104003D03*
X0066347Y0103953D03*
X0066347Y0103928D03*
X0081722Y0098678D03*
X0083997Y0103503D03*
X0083997Y0103528D03*
X0063272Y0119003D03*
X0063272Y0119028D03*
D195*
X0065322Y0115728D03*
X0065347Y0115703D03*
X0065372Y0115678D03*
X0066322Y0112103D03*
X0066347Y0112078D03*
X0067247Y0108578D03*
X0069447Y0098703D03*
X0069472Y0098678D03*
X0082072Y0100378D03*
X0082072Y0100403D03*
X0083672Y0105178D03*
D196*
X0083984Y0103603D03*
X0083984Y0103578D03*
X0083984Y0103553D03*
X0081734Y0098703D03*
X0066359Y0103853D03*
X0066359Y0103878D03*
X0066359Y0103903D03*
X0066334Y0103978D03*
X0065484Y0110778D03*
X0065459Y0110803D03*
X0064509Y0114153D03*
X0064484Y0114178D03*
X0063309Y0118928D03*
X0063309Y0118953D03*
X0063284Y0118978D03*
D197*
X0069697Y0112403D03*
X0069747Y0112378D03*
X0068772Y0110228D03*
X0069022Y0107203D03*
X0078172Y0101553D03*
X0078197Y0101528D03*
X0078222Y0101503D03*
X0078247Y0101453D03*
X0078822Y0098753D03*
X0078822Y0098728D03*
X0078822Y0098703D03*
X0081072Y0103353D03*
X0081047Y0103378D03*
X0083522Y0106003D03*
X0079297Y0113453D03*
D198*
X0072222Y0113853D03*
X0065522Y0110703D03*
X0065497Y0110753D03*
X0064547Y0114103D03*
X0064522Y0114128D03*
X0063322Y0118903D03*
X0066372Y0103828D03*
X0066372Y0103803D03*
X0066397Y0103728D03*
X0081747Y0098728D03*
X0083972Y0103628D03*
X0083972Y0103653D03*
D199*
X0082084Y0100353D03*
X0069409Y0098728D03*
X0069384Y0098753D03*
X0067209Y0108603D03*
X0067184Y0108628D03*
X0065309Y0115753D03*
X0065284Y0115778D03*
D200*
X0064559Y0114078D03*
X0064584Y0114053D03*
X0065509Y0110728D03*
X0065534Y0110678D03*
X0066384Y0103778D03*
X0066384Y0103753D03*
X0066409Y0103703D03*
X0066409Y0103678D03*
X0081759Y0098753D03*
X0063359Y0118828D03*
X0063334Y0118853D03*
X0063334Y0118878D03*
D201*
X0063384Y0118753D03*
X0063409Y0118703D03*
X0064609Y0114003D03*
X0064634Y0113978D03*
X0065584Y0110603D03*
X0066434Y0103578D03*
X0066459Y0103528D03*
X0066459Y0103503D03*
X0066459Y0103478D03*
X0081759Y0098778D03*
X0083959Y0103753D03*
X0083959Y0103778D03*
D202*
X0083684Y0105128D03*
X0069359Y0098778D03*
X0069334Y0098803D03*
X0067134Y0108678D03*
X0067109Y0108703D03*
X0065184Y0115878D03*
X0065184Y0115903D03*
D203*
X0064647Y0113953D03*
X0064672Y0113928D03*
X0065597Y0110578D03*
X0065622Y0110553D03*
X0065622Y0110528D03*
X0072322Y0113878D03*
X0063422Y0118678D03*
X0063397Y0118728D03*
X0066472Y0103453D03*
X0066472Y0103428D03*
X0066497Y0103378D03*
X0066497Y0103353D03*
X0081772Y0098803D03*
X0083947Y0103803D03*
X0083947Y0103828D03*
D204*
X0083934Y0103853D03*
X0083934Y0103878D03*
X0081784Y0098853D03*
X0081784Y0098828D03*
X0066534Y0103228D03*
X0066509Y0103303D03*
X0066509Y0103328D03*
X0066484Y0103403D03*
X0065659Y0110478D03*
X0065634Y0110503D03*
X0064709Y0113878D03*
X0064684Y0113903D03*
X0063434Y0118628D03*
X0063434Y0118653D03*
D205*
X0069572Y0112478D03*
X0068647Y0110303D03*
X0068947Y0107253D03*
X0078272Y0101428D03*
X0078297Y0101403D03*
X0078297Y0101378D03*
X0078322Y0101353D03*
X0078847Y0098853D03*
X0078847Y0098828D03*
X0081122Y0103253D03*
X0081122Y0103278D03*
X0081097Y0103303D03*
X0079397Y0113403D03*
D206*
X0083672Y0105103D03*
X0082072Y0100253D03*
X0082072Y0100228D03*
X0082072Y0100203D03*
X0069297Y0098828D03*
X0069272Y0098853D03*
X0069247Y0098878D03*
X0067072Y0108728D03*
X0066222Y0112203D03*
X0066197Y0112228D03*
X0065147Y0115928D03*
X0065122Y0115953D03*
X0065122Y0115978D03*
X0065097Y0116003D03*
D207*
X0064722Y0113853D03*
X0064747Y0113828D03*
X0065672Y0110453D03*
X0065697Y0110428D03*
X0066522Y0103278D03*
X0066522Y0103253D03*
X0066547Y0103203D03*
X0066547Y0103178D03*
X0081797Y0098878D03*
X0088297Y0109153D03*
X0063472Y0118553D03*
X0063472Y0118578D03*
X0063447Y0118603D03*
D208*
X0069459Y0112528D03*
X0069509Y0112503D03*
X0068584Y0110353D03*
X0068609Y0110328D03*
X0068909Y0107278D03*
X0078334Y0101328D03*
X0078359Y0101303D03*
X0078859Y0098903D03*
X0078859Y0098878D03*
X0081159Y0103203D03*
X0081134Y0103228D03*
X0083509Y0105953D03*
X0079459Y0113378D03*
D209*
X0083934Y0103953D03*
X0083934Y0103928D03*
X0083934Y0103903D03*
X0081809Y0098903D03*
X0066584Y0103078D03*
X0066584Y0103103D03*
X0066559Y0103128D03*
X0066559Y0103153D03*
X0065709Y0110403D03*
X0063509Y0118478D03*
X0063484Y0118528D03*
D210*
X0064984Y0116128D03*
X0065059Y0116053D03*
X0065059Y0116028D03*
X0066134Y0112278D03*
X0066159Y0112253D03*
X0067034Y0108778D03*
X0067059Y0108753D03*
X0069184Y0098928D03*
X0069209Y0098903D03*
X0083684Y0105078D03*
D211*
X0083922Y0104003D03*
X0083922Y0103978D03*
X0081822Y0098928D03*
X0066622Y0102953D03*
X0066622Y0102978D03*
X0066597Y0103003D03*
X0066597Y0103028D03*
X0066597Y0103053D03*
X0065747Y0110353D03*
X0065722Y0110378D03*
X0064797Y0113778D03*
X0064772Y0113803D03*
X0063522Y0118453D03*
X0063497Y0118503D03*
X0076022Y0114853D03*
D212*
X0079497Y0113353D03*
X0079547Y0113328D03*
X0083522Y0105928D03*
X0081172Y0103178D03*
X0078397Y0101253D03*
X0078397Y0101228D03*
X0078372Y0101278D03*
X0078872Y0098978D03*
X0078872Y0098953D03*
X0078872Y0098928D03*
X0068872Y0107303D03*
X0069422Y0112553D03*
X0069372Y0112578D03*
X0069322Y0112603D03*
D213*
X0065784Y0110303D03*
X0065759Y0110328D03*
X0064834Y0113728D03*
X0064809Y0113753D03*
X0063559Y0118378D03*
X0063534Y0118403D03*
X0063534Y0118428D03*
X0083909Y0104028D03*
X0081834Y0098978D03*
X0081834Y0098953D03*
X0066659Y0102828D03*
X0066659Y0102853D03*
X0066634Y0102903D03*
X0066634Y0102928D03*
D214*
X0069122Y0098978D03*
X0069147Y0098953D03*
X0082072Y0100153D03*
X0082072Y0100178D03*
X0066997Y0108803D03*
X0066122Y0112303D03*
X0065022Y0116078D03*
X0064997Y0116103D03*
X0064972Y0116153D03*
X0064922Y0116203D03*
D215*
X0063572Y0118328D03*
X0063572Y0118353D03*
X0064847Y0113703D03*
X0064872Y0113678D03*
X0065797Y0110278D03*
X0065797Y0110253D03*
X0065822Y0110228D03*
X0072447Y0113903D03*
X0083897Y0104078D03*
X0083897Y0104053D03*
X0090822Y0107528D03*
X0086122Y0110303D03*
X0081847Y0099003D03*
X0066697Y0102728D03*
X0066697Y0102753D03*
X0066672Y0102778D03*
X0066672Y0102803D03*
X0066647Y0102878D03*
D216*
X0066709Y0102703D03*
X0066709Y0102678D03*
X0066734Y0102653D03*
X0066734Y0102628D03*
X0065834Y0110203D03*
X0064909Y0113628D03*
X0064884Y0113653D03*
X0063609Y0118278D03*
X0063584Y0118303D03*
X0081859Y0099028D03*
D217*
X0081859Y0099053D03*
X0081859Y0099078D03*
X0083884Y0104153D03*
X0083884Y0104178D03*
X0066834Y0102378D03*
X0066834Y0102353D03*
X0066809Y0102403D03*
X0066809Y0102428D03*
X0066784Y0102478D03*
X0066784Y0102503D03*
X0065909Y0110103D03*
X0065884Y0110128D03*
X0064984Y0113528D03*
X0064959Y0113553D03*
X0063659Y0118153D03*
X0063659Y0118178D03*
X0063634Y0118203D03*
D218*
X0063672Y0118128D03*
X0063697Y0118103D03*
X0065922Y0110078D03*
X0065947Y0110053D03*
X0066847Y0102328D03*
X0066847Y0102303D03*
X0066872Y0102278D03*
X0066872Y0102253D03*
X0081872Y0099103D03*
X0083872Y0104203D03*
X0083872Y0104228D03*
D219*
X0083709Y0104978D03*
X0082059Y0100053D03*
X0082059Y0100028D03*
X0068984Y0099103D03*
X0068959Y0099128D03*
X0068934Y0099153D03*
X0066934Y0108878D03*
X0066909Y0108903D03*
X0066884Y0108928D03*
X0066009Y0112403D03*
X0065984Y0112428D03*
X0064809Y0116353D03*
X0064784Y0116378D03*
D220*
X0063734Y0118028D03*
X0063709Y0118053D03*
X0063709Y0118078D03*
X0065009Y0113503D03*
X0065034Y0113478D03*
X0065959Y0110028D03*
X0065984Y0110003D03*
X0066884Y0102228D03*
X0066909Y0102203D03*
X0066909Y0102178D03*
X0066934Y0102128D03*
X0081884Y0099153D03*
X0081884Y0099128D03*
X0083859Y0104253D03*
D221*
X0081259Y0103028D03*
X0078509Y0101053D03*
X0078484Y0101078D03*
X0078534Y0101003D03*
X0078909Y0099228D03*
X0078909Y0099203D03*
X0078909Y0099178D03*
X0078909Y0099153D03*
X0068359Y0110503D03*
X0069134Y0112703D03*
X0069109Y0112728D03*
X0079634Y0113278D03*
X0079684Y0113253D03*
D222*
X0088322Y0109128D03*
X0083847Y0104303D03*
X0083847Y0104278D03*
X0081897Y0099178D03*
X0066997Y0101978D03*
X0066972Y0102028D03*
X0066972Y0102053D03*
X0066947Y0102078D03*
X0066947Y0102103D03*
X0066922Y0102153D03*
X0066022Y0109953D03*
X0065997Y0109978D03*
X0065072Y0113428D03*
X0065047Y0113453D03*
X0063772Y0117953D03*
X0063747Y0117978D03*
X0063747Y0118003D03*
D223*
X0064747Y0116428D03*
X0064772Y0116403D03*
X0065972Y0112453D03*
X0066872Y0108953D03*
X0068922Y0099178D03*
X0082047Y0099978D03*
X0082047Y0100003D03*
D224*
X0081909Y0099228D03*
X0081909Y0099203D03*
X0067059Y0101828D03*
X0067034Y0101878D03*
X0067034Y0101903D03*
X0067009Y0101928D03*
X0067009Y0101953D03*
X0066984Y0102003D03*
X0066034Y0109928D03*
X0065109Y0113378D03*
X0065084Y0113403D03*
X0063784Y0117928D03*
X0072584Y0113928D03*
D225*
X0065934Y0112478D03*
X0065909Y0112503D03*
X0066809Y0109003D03*
X0066834Y0108978D03*
X0064734Y0116453D03*
X0064709Y0116478D03*
X0064684Y0116503D03*
X0083709Y0104953D03*
X0082059Y0099953D03*
X0068884Y0099203D03*
X0068859Y0099228D03*
X0068834Y0099253D03*
D226*
X0067209Y0101528D03*
X0067184Y0101578D03*
X0067159Y0101628D03*
X0067159Y0101653D03*
X0067134Y0101678D03*
X0067109Y0101728D03*
X0066109Y0109828D03*
X0066084Y0109853D03*
X0063859Y0117803D03*
X0063834Y0117828D03*
X0063809Y0117878D03*
X0083834Y0104403D03*
X0083834Y0104378D03*
X0081909Y0099253D03*
D227*
X0081922Y0099278D03*
X0081922Y0099303D03*
X0083822Y0104428D03*
X0067247Y0101478D03*
X0067247Y0101453D03*
X0067222Y0101503D03*
X0067197Y0101553D03*
X0067172Y0101603D03*
X0066147Y0109778D03*
X0066122Y0109803D03*
X0065222Y0113253D03*
X0065197Y0113278D03*
X0063872Y0117778D03*
D228*
X0064597Y0116628D03*
X0064647Y0116553D03*
X0064672Y0116528D03*
X0065897Y0112528D03*
X0072947Y0113978D03*
X0083722Y0104928D03*
X0082047Y0099928D03*
X0082047Y0099903D03*
X0088322Y0109078D03*
X0068822Y0099278D03*
D229*
X0068784Y0099303D03*
X0068759Y0099328D03*
X0068734Y0099353D03*
X0068709Y0099378D03*
X0068684Y0099403D03*
X0066784Y0109028D03*
X0066759Y0109053D03*
X0066734Y0109078D03*
X0065859Y0112553D03*
X0065834Y0112578D03*
X0065809Y0112603D03*
X0064634Y0116578D03*
X0064609Y0116603D03*
X0064584Y0116653D03*
X0064559Y0116678D03*
X0083734Y0104903D03*
X0082034Y0099878D03*
X0082034Y0099853D03*
D230*
X0081934Y0099328D03*
X0083809Y0104453D03*
X0083809Y0104478D03*
X0067334Y0101278D03*
X0067309Y0101328D03*
X0067309Y0101353D03*
X0067284Y0101378D03*
X0067284Y0101403D03*
X0067259Y0101428D03*
X0066184Y0109728D03*
X0066159Y0109753D03*
X0065259Y0113203D03*
X0065234Y0113228D03*
X0063934Y0117653D03*
X0063909Y0117703D03*
X0063884Y0117728D03*
X0063884Y0117753D03*
D231*
X0063922Y0117678D03*
X0063947Y0117628D03*
X0065272Y0113178D03*
X0066197Y0109703D03*
X0066222Y0109678D03*
X0067322Y0101303D03*
X0067347Y0101253D03*
X0067372Y0101228D03*
X0067372Y0101203D03*
X0067397Y0101178D03*
X0067422Y0101128D03*
X0081947Y0099378D03*
X0081947Y0099353D03*
X0083797Y0104503D03*
D232*
X0083534Y0105853D03*
X0081309Y0102928D03*
X0081334Y0102903D03*
X0078559Y0100953D03*
X0078584Y0100903D03*
X0078609Y0100853D03*
X0078634Y0100803D03*
X0078934Y0099428D03*
X0078934Y0099403D03*
X0078934Y0099378D03*
X0078934Y0099353D03*
X0068734Y0107403D03*
X0068284Y0110553D03*
X0068234Y0110578D03*
X0069009Y0112778D03*
X0068984Y0112803D03*
X0079809Y0113178D03*
D233*
X0083784Y0104603D03*
X0083784Y0104578D03*
X0081959Y0099453D03*
X0081959Y0099428D03*
X0067734Y0100628D03*
X0067709Y0100653D03*
X0067684Y0100703D03*
X0067659Y0100728D03*
X0067634Y0100778D03*
X0067609Y0100803D03*
X0067584Y0100853D03*
X0066309Y0109578D03*
X0065409Y0113028D03*
X0065384Y0113053D03*
X0065359Y0113078D03*
X0064084Y0117403D03*
X0064059Y0117428D03*
X0064059Y0117453D03*
X0064034Y0117478D03*
D234*
X0064522Y0116728D03*
X0064547Y0116703D03*
X0066722Y0109103D03*
X0068597Y0099503D03*
X0068622Y0099478D03*
X0068647Y0099453D03*
X0068672Y0099428D03*
X0083722Y0104878D03*
D235*
X0081347Y0102878D03*
X0081347Y0102853D03*
X0081372Y0102828D03*
X0078597Y0100878D03*
X0078622Y0100828D03*
X0078647Y0100778D03*
X0078647Y0100753D03*
X0078672Y0100728D03*
X0078922Y0099503D03*
X0078922Y0099478D03*
X0078922Y0099453D03*
X0068697Y0107428D03*
X0068197Y0110603D03*
X0068922Y0112828D03*
X0068897Y0112853D03*
X0079847Y0113153D03*
X0079897Y0113128D03*
D236*
X0072747Y0113953D03*
X0066347Y0109528D03*
X0066322Y0109553D03*
X0064097Y0117378D03*
X0083772Y0104628D03*
X0081972Y0099478D03*
X0067797Y0100528D03*
X0067772Y0100553D03*
X0067772Y0100578D03*
X0067747Y0100603D03*
X0067697Y0100678D03*
X0067647Y0100753D03*
D237*
X0067809Y0100503D03*
X0067834Y0100478D03*
X0067859Y0100453D03*
X0067859Y0100428D03*
X0067884Y0100403D03*
X0066409Y0109453D03*
X0066384Y0109478D03*
X0066359Y0109503D03*
X0065459Y0112978D03*
X0065434Y0113003D03*
X0064159Y0117278D03*
X0064134Y0117303D03*
X0064134Y0117328D03*
X0064109Y0117353D03*
X0083784Y0104653D03*
X0088334Y0109103D03*
X0081984Y0099528D03*
X0081984Y0099503D03*
D238*
X0082034Y0099803D03*
X0082034Y0099828D03*
X0083734Y0104853D03*
X0086059Y0110278D03*
X0068584Y0099528D03*
X0068559Y0099553D03*
X0068534Y0099578D03*
X0068509Y0099603D03*
X0066684Y0109128D03*
X0066659Y0109153D03*
X0065784Y0112628D03*
X0065759Y0112653D03*
X0065734Y0112678D03*
X0064509Y0116753D03*
X0064484Y0116778D03*
X0064459Y0116828D03*
D239*
X0064197Y0117228D03*
X0064172Y0117253D03*
X0065472Y0112953D03*
X0066422Y0109428D03*
X0067897Y0100378D03*
X0067922Y0100353D03*
X0067947Y0100303D03*
X0067972Y0100278D03*
X0068047Y0100178D03*
X0081997Y0099578D03*
X0081997Y0099553D03*
X0083772Y0104678D03*
D240*
X0083772Y0104728D03*
X0081997Y0099628D03*
X0081997Y0099603D03*
X0068197Y0099978D03*
X0068172Y0100003D03*
X0068147Y0100028D03*
X0068122Y0100078D03*
X0068097Y0100103D03*
X0066497Y0109353D03*
X0066472Y0109378D03*
X0065597Y0112828D03*
X0065572Y0112853D03*
X0065547Y0112878D03*
X0064272Y0117103D03*
X0064247Y0117128D03*
D241*
X0064422Y0116878D03*
X0064472Y0116803D03*
X0065722Y0112703D03*
X0066622Y0109203D03*
X0066647Y0109178D03*
X0076022Y0114828D03*
X0083747Y0104828D03*
X0082022Y0099778D03*
X0082022Y0099753D03*
X0068472Y0099653D03*
X0068472Y0099628D03*
X0068447Y0099678D03*
X0068422Y0099703D03*
D242*
X0068259Y0099903D03*
X0068234Y0099928D03*
X0068209Y0099953D03*
X0068134Y0100053D03*
X0066559Y0109278D03*
X0066534Y0109303D03*
X0066509Y0109328D03*
X0064309Y0117053D03*
X0064284Y0117078D03*
X0083759Y0104753D03*
X0082009Y0099678D03*
X0082009Y0099653D03*
D243*
X0082022Y0099703D03*
X0083747Y0104778D03*
X0083747Y0104803D03*
X0068322Y0099828D03*
X0068297Y0099853D03*
X0068272Y0099878D03*
X0065672Y0112753D03*
X0065647Y0112778D03*
X0065622Y0112803D03*
X0064372Y0116953D03*
X0064347Y0117003D03*
X0064322Y0117028D03*
D244*
X0068722Y0112953D03*
X0068097Y0110678D03*
X0068122Y0110653D03*
X0068172Y0110628D03*
X0068647Y0107453D03*
X0078722Y0100603D03*
X0078747Y0100528D03*
X0078772Y0100478D03*
X0078772Y0100453D03*
X0078797Y0100403D03*
X0078797Y0100378D03*
X0078822Y0100328D03*
X0078822Y0100303D03*
X0078847Y0100228D03*
X0078872Y0100103D03*
X0078897Y0100003D03*
X0078897Y0099978D03*
X0078897Y0099953D03*
X0078897Y0099928D03*
X0078922Y0099853D03*
X0078922Y0099828D03*
X0078922Y0099803D03*
X0078922Y0099778D03*
X0078922Y0099753D03*
X0078922Y0099728D03*
X0078922Y0099703D03*
X0081422Y0102728D03*
X0081397Y0102753D03*
X0081397Y0102778D03*
D245*
X0082009Y0099728D03*
X0068409Y0099728D03*
X0068384Y0099753D03*
X0068359Y0099778D03*
X0068334Y0099803D03*
X0066609Y0109228D03*
X0066584Y0109253D03*
X0065684Y0112728D03*
X0064434Y0116853D03*
X0064409Y0116903D03*
X0064384Y0116928D03*
X0064359Y0116978D03*
D246*
X0068634Y0113003D03*
X0068684Y0112978D03*
X0068059Y0110703D03*
X0068584Y0107503D03*
X0068609Y0107478D03*
X0078784Y0100428D03*
X0078809Y0100353D03*
X0078834Y0100278D03*
X0078834Y0100253D03*
X0078859Y0100203D03*
X0078859Y0100178D03*
X0078859Y0100153D03*
X0078859Y0100128D03*
X0078884Y0100078D03*
X0078884Y0100053D03*
X0078884Y0100028D03*
X0078909Y0099903D03*
X0078909Y0099878D03*
X0081434Y0102703D03*
X0080084Y0113003D03*
X0080034Y0113028D03*
X0080009Y0113053D03*
D247*
X0083684Y0105053D03*
X0082059Y0100128D03*
X0082059Y0100103D03*
X0082059Y0100078D03*
X0066984Y0108828D03*
X0066959Y0108853D03*
X0066084Y0112328D03*
X0066059Y0112353D03*
X0064934Y0116178D03*
X0064909Y0116228D03*
X0064884Y0116253D03*
D248*
X0064234Y0117153D03*
X0064209Y0117178D03*
X0064209Y0117203D03*
X0065509Y0112928D03*
X0065534Y0112903D03*
X0066459Y0109403D03*
X0067934Y0100328D03*
X0067984Y0100253D03*
X0068009Y0100228D03*
X0068034Y0100203D03*
X0068059Y0100153D03*
X0068084Y0100128D03*
X0083759Y0104703D03*
D249*
X0083672Y0105153D03*
X0082072Y0100328D03*
X0082072Y0100303D03*
X0082072Y0100278D03*
X0067147Y0108653D03*
X0066297Y0112128D03*
X0066272Y0112153D03*
X0066247Y0112178D03*
X0065247Y0115803D03*
X0065247Y0115828D03*
X0065222Y0115853D03*
D250*
X0064022Y0117503D03*
X0063997Y0117528D03*
X0065347Y0113103D03*
X0066272Y0109603D03*
X0067497Y0101003D03*
X0067522Y0100953D03*
X0067547Y0100928D03*
X0067547Y0100903D03*
X0067572Y0100878D03*
X0067597Y0100828D03*
X0083797Y0104553D03*
D251*
X0083609Y0105478D03*
X0081959Y0101303D03*
X0081959Y0101278D03*
X0081984Y0101228D03*
X0081984Y0101203D03*
X0081809Y0111428D03*
X0081784Y0111453D03*
X0081759Y0111478D03*
X0067809Y0108078D03*
X0067784Y0108103D03*
X0067009Y0111503D03*
X0066984Y0111528D03*
X0066659Y0114428D03*
X0066634Y0114453D03*
X0066609Y0114478D03*
X0066584Y0114503D03*
D252*
X0066934Y0114203D03*
X0066959Y0114178D03*
X0067184Y0111353D03*
X0067934Y0107978D03*
X0067959Y0107953D03*
X0076034Y0114778D03*
X0081459Y0111828D03*
X0081484Y0111803D03*
X0081509Y0111778D03*
X0081534Y0111753D03*
X0081884Y0101553D03*
D253*
X0083847Y0104328D03*
X0083847Y0104353D03*
X0067122Y0101703D03*
X0067097Y0101753D03*
X0067097Y0101778D03*
X0067072Y0101803D03*
X0067047Y0101853D03*
X0066072Y0109878D03*
X0066047Y0109903D03*
X0065172Y0113303D03*
X0065147Y0113328D03*
X0065122Y0113353D03*
X0063822Y0117853D03*
X0063797Y0117903D03*
D254*
X0063347Y0116203D03*
X0063347Y0116178D03*
X0064622Y0112603D03*
X0064647Y0112553D03*
X0065822Y0107428D03*
X0065822Y0107403D03*
X0065822Y0107378D03*
X0065822Y0107353D03*
X0065847Y0107303D03*
X0065847Y0107278D03*
X0065847Y0107253D03*
X0065847Y0107228D03*
X0065847Y0107203D03*
X0062747Y0120678D03*
X0083997Y0101828D03*
X0083997Y0101803D03*
D255*
X0080834Y0103678D03*
X0080834Y0103703D03*
X0077909Y0101878D03*
X0083484Y0106078D03*
X0085834Y0110153D03*
X0078984Y0113603D03*
X0070184Y0112153D03*
X0069134Y0110003D03*
X0069184Y0109978D03*
X0069259Y0107053D03*
D256*
X0068097Y0107853D03*
X0067447Y0111153D03*
X0067422Y0111178D03*
X0067522Y0113753D03*
X0067447Y0113803D03*
X0067422Y0113828D03*
X0081122Y0112178D03*
X0081147Y0112153D03*
X0081772Y0101903D03*
D257*
X0080784Y0103778D03*
X0077834Y0101978D03*
X0083484Y0106103D03*
X0070334Y0112078D03*
X0070284Y0112103D03*
X0069259Y0109928D03*
D258*
X0069297Y0109903D03*
X0069347Y0109878D03*
X0070447Y0112028D03*
X0070397Y0112053D03*
X0069347Y0107003D03*
X0077797Y0102003D03*
X0080747Y0103803D03*
X0078847Y0113653D03*
D259*
X0080897Y0112378D03*
X0080922Y0112353D03*
X0080947Y0112328D03*
X0083572Y0105653D03*
X0081722Y0102053D03*
X0081722Y0102028D03*
X0068197Y0107778D03*
X0067547Y0111078D03*
X0067522Y0111103D03*
X0067622Y0113678D03*
D260*
X0070547Y0111978D03*
X0069472Y0109803D03*
X0069422Y0106953D03*
X0077722Y0102103D03*
X0080672Y0103903D03*
D261*
X0081647Y0102228D03*
X0081672Y0102178D03*
X0081672Y0102153D03*
X0083572Y0105678D03*
X0080797Y0112453D03*
X0080747Y0112503D03*
X0067872Y0113503D03*
X0067847Y0113528D03*
X0067797Y0113553D03*
X0067622Y0111028D03*
X0068272Y0107728D03*
D262*
X0069497Y0106903D03*
X0069597Y0109728D03*
X0069547Y0109753D03*
X0070672Y0111928D03*
X0080572Y0104053D03*
X0080597Y0104003D03*
X0080622Y0103978D03*
X0077647Y0102178D03*
X0077622Y0102203D03*
D263*
X0081622Y0102278D03*
X0081622Y0102303D03*
X0068322Y0107678D03*
X0068297Y0107703D03*
X0067747Y0110928D03*
X0067722Y0110953D03*
X0068022Y0113403D03*
X0067947Y0113453D03*
X0080572Y0112653D03*
X0080597Y0112628D03*
X0080622Y0112603D03*
D264*
X0078584Y0113753D03*
X0070809Y0111853D03*
X0069734Y0109653D03*
X0077484Y0102328D03*
X0080509Y0104103D03*
X0085784Y0110128D03*
D265*
X0083472Y0106203D03*
X0080447Y0104203D03*
X0080472Y0104153D03*
X0080497Y0104128D03*
X0077472Y0102353D03*
X0077447Y0102378D03*
X0069697Y0106803D03*
X0069822Y0109603D03*
X0069772Y0109628D03*
X0070872Y0111828D03*
D266*
X0071647Y0113703D03*
X0064897Y0111953D03*
X0064897Y0111928D03*
X0063772Y0115328D03*
X0063747Y0115353D03*
X0063747Y0115378D03*
X0062897Y0120128D03*
X0062897Y0120153D03*
X0065997Y0106003D03*
X0065997Y0105978D03*
X0065997Y0105953D03*
X0065997Y0105928D03*
X0084047Y0102453D03*
X0084047Y0102428D03*
X0084047Y0102403D03*
D267*
X0081572Y0102403D03*
X0081547Y0102453D03*
X0068397Y0107628D03*
X0067847Y0110853D03*
X0067822Y0110878D03*
X0067772Y0110903D03*
X0068247Y0113253D03*
X0068172Y0113303D03*
X0068097Y0113353D03*
X0080472Y0112728D03*
X0080497Y0112703D03*
D268*
X0071047Y0111753D03*
X0070997Y0111778D03*
X0069922Y0109553D03*
X0069972Y0109528D03*
X0077347Y0102478D03*
X0077372Y0102453D03*
X0077397Y0102428D03*
X0080422Y0104228D03*
X0083472Y0106228D03*
D269*
X0083897Y0104128D03*
X0083897Y0104103D03*
X0066797Y0102453D03*
X0066772Y0102528D03*
X0066772Y0102553D03*
X0066747Y0102578D03*
X0066747Y0102603D03*
X0065872Y0110153D03*
X0065847Y0110178D03*
X0064947Y0113578D03*
X0064922Y0113603D03*
X0063622Y0118228D03*
X0063622Y0118253D03*
D270*
X0068372Y0113178D03*
X0068447Y0113128D03*
X0067897Y0110828D03*
X0067922Y0110803D03*
X0068472Y0107578D03*
X0080297Y0112853D03*
X0080347Y0112828D03*
X0080372Y0112803D03*
X0081522Y0102528D03*
X0081522Y0102503D03*
D271*
X0080384Y0104253D03*
X0077334Y0102503D03*
X0069784Y0106753D03*
X0070059Y0109478D03*
X0070009Y0109503D03*
D272*
X0067959Y0110778D03*
X0068584Y0113053D03*
X0068484Y0113103D03*
X0068409Y0113153D03*
X0068509Y0107553D03*
X0080159Y0112953D03*
X0080184Y0112928D03*
X0080234Y0112903D03*
X0080259Y0112878D03*
X0083559Y0105778D03*
X0081484Y0102603D03*
X0081484Y0102578D03*
X0081509Y0102553D03*
D273*
X0084059Y0102578D03*
X0084059Y0102603D03*
X0071734Y0113728D03*
X0064959Y0111803D03*
X0063859Y0115178D03*
X0063834Y0115203D03*
X0062934Y0119978D03*
X0062934Y0120003D03*
X0066034Y0105728D03*
X0066034Y0105703D03*
X0066034Y0105678D03*
X0066034Y0105653D03*
D274*
X0071159Y0111703D03*
X0080309Y0104353D03*
X0080334Y0104328D03*
X0077234Y0102578D03*
D275*
X0077072Y0102728D03*
X0080197Y0104478D03*
X0083472Y0106303D03*
X0078347Y0113828D03*
X0076022Y0114653D03*
X0070297Y0109353D03*
X0070247Y0109378D03*
D276*
X0065097Y0111503D03*
X0065072Y0111553D03*
X0064022Y0114903D03*
X0063997Y0114928D03*
X0063022Y0119728D03*
X0066097Y0105278D03*
X0066097Y0105253D03*
X0066097Y0105228D03*
X0066097Y0105203D03*
X0084047Y0102878D03*
X0084047Y0102853D03*
X0084047Y0102828D03*
X0084047Y0102803D03*
D277*
X0080147Y0104528D03*
X0080122Y0104553D03*
X0076997Y0102803D03*
X0070097Y0106578D03*
X0070447Y0109278D03*
X0070397Y0109303D03*
D278*
X0070484Y0109253D03*
X0070534Y0109228D03*
X0071459Y0111578D03*
X0078259Y0113853D03*
X0083459Y0106328D03*
X0076959Y0102828D03*
X0070159Y0106553D03*
D279*
X0070384Y0106428D03*
X0070884Y0109053D03*
X0070834Y0109078D03*
X0071834Y0111428D03*
X0076034Y0114628D03*
X0079884Y0104778D03*
X0076809Y0102928D03*
D280*
X0076759Y0102953D03*
X0079809Y0104853D03*
X0079834Y0104828D03*
X0083459Y0106403D03*
D281*
X0079697Y0104953D03*
X0076647Y0103028D03*
X0070597Y0106328D03*
X0071222Y0108903D03*
X0071147Y0108928D03*
X0072022Y0111353D03*
D282*
X0072084Y0111328D03*
X0071259Y0108878D03*
X0070634Y0106303D03*
X0076609Y0103053D03*
X0079684Y0104978D03*
D283*
X0079584Y0105053D03*
X0079559Y0105078D03*
X0076559Y0103078D03*
X0070734Y0106253D03*
X0070684Y0106278D03*
X0072159Y0111303D03*
X0076034Y0114603D03*
D284*
X0072222Y0111278D03*
X0071422Y0108803D03*
X0076522Y0103103D03*
X0083447Y0106478D03*
D285*
X0079422Y0105203D03*
X0076397Y0103178D03*
X0071697Y0108678D03*
X0072372Y0111228D03*
D286*
X0072434Y0111203D03*
X0071759Y0108653D03*
X0070934Y0106153D03*
X0070984Y0106128D03*
X0076359Y0103203D03*
X0079359Y0105253D03*
X0079384Y0105228D03*
X0083434Y0106528D03*
D287*
X0079284Y0105303D03*
X0079259Y0105328D03*
X0076334Y0103228D03*
X0071884Y0108603D03*
X0072509Y0111178D03*
X0076034Y0114578D03*
D288*
X0072647Y0111128D03*
X0071197Y0106028D03*
X0076247Y0103278D03*
X0079172Y0105403D03*
X0083447Y0106578D03*
D289*
X0079134Y0105428D03*
X0079109Y0105453D03*
X0076209Y0103303D03*
X0072109Y0108503D03*
D290*
X0072172Y0108478D03*
X0072722Y0111103D03*
X0071247Y0106003D03*
X0076172Y0103328D03*
X0079072Y0105478D03*
D291*
X0078897Y0105603D03*
X0078872Y0105628D03*
X0076047Y0103403D03*
X0083447Y0106628D03*
X0072872Y0111053D03*
D292*
X0072947Y0111028D03*
X0072547Y0108328D03*
X0072622Y0108303D03*
X0071497Y0105878D03*
X0075922Y0103478D03*
X0078797Y0105678D03*
D293*
X0078759Y0105703D03*
X0075884Y0103503D03*
X0072684Y0108278D03*
X0083434Y0106653D03*
D294*
X0078647Y0105778D03*
X0075797Y0103553D03*
X0071722Y0105778D03*
X0071672Y0105803D03*
X0073097Y0110978D03*
D295*
X0065572Y0110628D03*
X0065547Y0110653D03*
X0064597Y0114028D03*
X0063372Y0118778D03*
X0063372Y0118803D03*
X0066422Y0103653D03*
X0066422Y0103628D03*
X0066422Y0103603D03*
X0066447Y0103553D03*
X0083972Y0103678D03*
X0083972Y0103703D03*
X0083972Y0103728D03*
D296*
X0083434Y0106678D03*
X0078609Y0105803D03*
X0078584Y0105828D03*
X0075759Y0103578D03*
X0072884Y0108203D03*
X0073184Y0110953D03*
X0076034Y0114528D03*
D297*
X0072947Y0108178D03*
X0071772Y0105753D03*
X0075672Y0103628D03*
X0075722Y0103603D03*
D298*
X0075647Y0103653D03*
X0078422Y0105928D03*
X0078472Y0105903D03*
X0071897Y0105703D03*
D299*
X0071947Y0105678D03*
X0075572Y0103703D03*
X0075597Y0103678D03*
X0078347Y0105978D03*
X0073347Y0110903D03*
D300*
X0073422Y0110878D03*
X0073347Y0108028D03*
X0072047Y0105628D03*
X0075472Y0103753D03*
X0075522Y0103728D03*
X0078222Y0106053D03*
X0078272Y0106028D03*
D301*
X0078147Y0106103D03*
X0075397Y0103803D03*
X0073422Y0108003D03*
D302*
X0072159Y0105578D03*
X0075359Y0103828D03*
X0073509Y0110853D03*
D303*
X0073584Y0110828D03*
X0078009Y0106178D03*
X0078059Y0106153D03*
X0075284Y0103878D03*
X0075234Y0103903D03*
X0083434Y0106778D03*
D304*
X0083447Y0106803D03*
X0077847Y0106278D03*
X0077797Y0106303D03*
X0075147Y0103953D03*
X0073672Y0110803D03*
D305*
X0073772Y0110778D03*
X0073872Y0107853D03*
X0072447Y0105453D03*
X0074947Y0104078D03*
X0074997Y0104053D03*
X0075022Y0104028D03*
X0075072Y0104003D03*
X0077747Y0106328D03*
D306*
X0077709Y0106353D03*
X0077659Y0106378D03*
X0074909Y0104103D03*
X0072509Y0105428D03*
X0083434Y0106828D03*
D307*
X0077622Y0106403D03*
X0074872Y0104128D03*
X0074822Y0104153D03*
X0072597Y0105378D03*
X0072547Y0105403D03*
X0073947Y0107828D03*
X0074022Y0107803D03*
D308*
X0072659Y0105353D03*
X0074784Y0104178D03*
X0077559Y0106428D03*
X0076034Y0114453D03*
D309*
X0073947Y0110728D03*
X0074172Y0107753D03*
X0077322Y0106553D03*
X0077372Y0106528D03*
X0074647Y0104253D03*
X0074572Y0104303D03*
D310*
X0074609Y0104278D03*
X0074534Y0104328D03*
X0074484Y0104353D03*
X0072909Y0105228D03*
X0072859Y0105253D03*
X0072809Y0105278D03*
X0074259Y0107728D03*
D311*
X0072947Y0105203D03*
X0074447Y0104378D03*
X0077222Y0106603D03*
X0077272Y0106578D03*
X0083447Y0106878D03*
D312*
X0077159Y0106628D03*
X0074334Y0107703D03*
X0073059Y0105153D03*
X0073009Y0105178D03*
X0074359Y0104428D03*
X0074409Y0104403D03*
X0074034Y0110703D03*
X0076034Y0114428D03*
D313*
X0074422Y0107678D03*
X0073147Y0105103D03*
X0073197Y0105078D03*
X0073297Y0105028D03*
X0073097Y0105128D03*
X0074147Y0104553D03*
X0074222Y0104503D03*
X0074272Y0104478D03*
X0074322Y0104453D03*
X0077122Y0106653D03*
D314*
X0080009Y0104653D03*
X0080034Y0104628D03*
X0083459Y0106353D03*
X0071584Y0111528D03*
X0070584Y0109203D03*
X0070634Y0109178D03*
D315*
X0074122Y0110678D03*
X0076972Y0106728D03*
X0077022Y0106703D03*
X0073972Y0104653D03*
X0073922Y0104678D03*
X0073897Y0104703D03*
X0073847Y0104728D03*
X0073797Y0104753D03*
X0073747Y0104778D03*
X0073697Y0104803D03*
X0073672Y0104828D03*
X0073597Y0104853D03*
X0073572Y0104878D03*
X0073522Y0104903D03*
X0073472Y0104928D03*
D316*
X0070297Y0106478D03*
X0070247Y0106503D03*
X0070697Y0109153D03*
X0071647Y0111503D03*
X0079972Y0104703D03*
X0079997Y0104678D03*
D317*
X0079947Y0104728D03*
X0079922Y0104753D03*
X0083447Y0106378D03*
X0071772Y0111453D03*
X0070797Y0109103D03*
X0070347Y0106453D03*
D318*
X0072297Y0108428D03*
X0072797Y0111078D03*
X0078972Y0105553D03*
X0078997Y0105528D03*
D319*
X0077972Y0106203D03*
X0077922Y0106228D03*
X0073647Y0107928D03*
X0072222Y0105553D03*
X0076022Y0114478D03*
D320*
X0076034Y0114503D03*
X0073284Y0108053D03*
X0073209Y0108078D03*
X0071984Y0105653D03*
X0078309Y0106003D03*
X0083434Y0106728D03*
D321*
X0078722Y0105728D03*
X0072747Y0108253D03*
X0071572Y0105853D03*
X0073022Y0111003D03*
D322*
X0071634Y0108703D03*
X0070884Y0106178D03*
D323*
X0074509Y0107653D03*
X0076859Y0106778D03*
X0076909Y0106753D03*
D324*
X0076809Y0106803D03*
X0076684Y0106853D03*
X0074584Y0107628D03*
X0074209Y0110653D03*
X0083459Y0106928D03*
D325*
X0076747Y0106828D03*
D326*
X0076584Y0106903D03*
D327*
X0076522Y0106928D03*
X0076472Y0106953D03*
X0074822Y0107553D03*
X0074747Y0107578D03*
X0083472Y0106953D03*
D328*
X0076409Y0106978D03*
X0076334Y0107003D03*
X0074909Y0107528D03*
X0074309Y0110628D03*
D329*
X0083472Y0107003D03*
D330*
X0083472Y0107028D03*
D331*
X0076272Y0107028D03*
X0074972Y0107503D03*
D332*
X0083497Y0107053D03*
X0076022Y0114328D03*
D333*
X0075059Y0107478D03*
X0076159Y0107078D03*
X0076209Y0107053D03*
D334*
X0083497Y0107078D03*
D335*
X0083509Y0107103D03*
D336*
X0083534Y0107128D03*
D337*
X0083534Y0107153D03*
D338*
X0083547Y0107178D03*
D339*
X0083572Y0107203D03*
D340*
X0083584Y0107228D03*
X0075509Y0110353D03*
X0076034Y0114178D03*
D341*
X0075634Y0110328D03*
X0083609Y0107253D03*
D342*
X0075697Y0107253D03*
X0075622Y0107278D03*
X0075547Y0107303D03*
X0075347Y0107378D03*
X0075272Y0107403D03*
D343*
X0083647Y0107303D03*
D344*
X0083697Y0107353D03*
D345*
X0083734Y0107378D03*
D346*
X0083784Y0107403D03*
D347*
X0083834Y0107428D03*
D348*
X0083897Y0107453D03*
X0076722Y0110153D03*
D349*
X0083972Y0107478D03*
D350*
X0084072Y0107503D03*
D351*
X0084222Y0107528D03*
D352*
X0085397Y0107553D03*
D353*
X0085359Y0107578D03*
X0081259Y0109078D03*
D354*
X0085334Y0107603D03*
D355*
X0085297Y0107628D03*
X0081247Y0109103D03*
D356*
X0085272Y0107653D03*
D357*
X0085234Y0107678D03*
D358*
X0085209Y0107703D03*
D359*
X0085172Y0107728D03*
D360*
X0085134Y0107753D03*
D361*
X0085109Y0107778D03*
D362*
X0085072Y0107803D03*
D363*
X0085034Y0107828D03*
D364*
X0085009Y0107853D03*
D365*
X0084959Y0107878D03*
D366*
X0084922Y0107903D03*
D367*
X0084884Y0107928D03*
X0081159Y0109203D03*
D368*
X0084859Y0107953D03*
D369*
X0084809Y0107978D03*
D370*
X0084772Y0108003D03*
D371*
X0084734Y0108028D03*
D372*
X0084697Y0108053D03*
D373*
X0084672Y0108078D03*
D374*
X0084634Y0108103D03*
D375*
X0084584Y0108128D03*
X0081109Y0109278D03*
D376*
X0084547Y0108153D03*
D377*
X0084509Y0108178D03*
D378*
X0084459Y0108203D03*
X0081084Y0109303D03*
D379*
X0084397Y0108228D03*
D380*
X0084347Y0108253D03*
X0081072Y0109328D03*
D381*
X0084297Y0108278D03*
D382*
X0084247Y0108303D03*
D383*
X0084184Y0108328D03*
D384*
X0084134Y0108353D03*
D385*
X0084072Y0108378D03*
D386*
X0084009Y0108403D03*
D387*
X0083959Y0108428D03*
D388*
X0083897Y0108453D03*
D389*
X0083834Y0108478D03*
X0081034Y0109428D03*
D390*
X0083784Y0108503D03*
D391*
X0083722Y0108528D03*
D392*
X0083672Y0108553D03*
X0081047Y0109453D03*
D393*
X0083609Y0108578D03*
D394*
X0083559Y0108603D03*
D395*
X0083484Y0108628D03*
D396*
X0083434Y0108653D03*
X0083384Y0108678D03*
D397*
X0083309Y0108703D03*
D398*
X0083247Y0108728D03*
D399*
X0083184Y0108753D03*
D400*
X0083122Y0108778D03*
D401*
X0083059Y0108803D03*
D402*
X0082997Y0108828D03*
X0082922Y0108853D03*
D403*
X0082859Y0108878D03*
X0082334Y0109053D03*
D404*
X0082422Y0109028D03*
X0082497Y0109003D03*
X0082572Y0108978D03*
X0082647Y0108953D03*
X0082722Y0108928D03*
X0082797Y0108903D03*
D405*
X0081222Y0109128D03*
D406*
X0081197Y0109153D03*
D407*
X0081172Y0109178D03*
D408*
X0081147Y0109228D03*
D409*
X0081134Y0109253D03*
D410*
X0081059Y0109353D03*
D411*
X0081047Y0109378D03*
D412*
X0081047Y0109403D03*
D413*
X0081072Y0109478D03*
D414*
X0081122Y0109503D03*
D415*
X0081297Y0109528D03*
D416*
X0081272Y0109553D03*
D417*
X0081222Y0109578D03*
D418*
X0081184Y0109603D03*
D419*
X0081122Y0109628D03*
D420*
X0081084Y0109653D03*
D421*
X0081034Y0109678D03*
D422*
X0080997Y0109703D03*
D423*
X0080947Y0109728D03*
D424*
X0080909Y0109753D03*
D425*
X0080859Y0109778D03*
D426*
X0080822Y0109803D03*
D427*
X0080759Y0109828D03*
D428*
X0080722Y0109853D03*
D429*
X0080672Y0109878D03*
D430*
X0080609Y0109903D03*
D431*
X0080572Y0109928D03*
X0080522Y0109953D03*
D432*
X0080459Y0109978D03*
X0080409Y0110003D03*
D433*
X0080347Y0110028D03*
D434*
X0077384Y0110078D03*
D435*
X0076547Y0110178D03*
D436*
X0076372Y0110203D03*
D437*
X0076072Y0110253D03*
D438*
X0075909Y0110278D03*
D439*
X0075272Y0110403D03*
D440*
X0075034Y0110453D03*
X0076034Y0114278D03*
D441*
X0074822Y0110503D03*
D442*
X0074709Y0110528D03*
D443*
X0074597Y0110553D03*
D444*
X0074509Y0110578D03*
D445*
X0076034Y0114003D03*
D446*
X0076047Y0114028D03*
D447*
X0076034Y0114103D03*
D448*
X0076034Y0114128D03*
D449*
X0076034Y0114153D03*
D450*
X0076034Y0114253D03*
D451*
X0076034Y0114303D03*
D452*
X0033071Y0021275D02*
X0030736Y0021275D01*
X0029388Y0021275D02*
X0029388Y0017772D01*
X0027053Y0017772D01*
X0025705Y0017772D02*
X0025705Y0020107D01*
X0024537Y0021275D01*
X0023370Y0020107D01*
X0023370Y0017772D01*
X0022022Y0018355D02*
X0021438Y0017772D01*
X0020270Y0017772D01*
X0019686Y0018355D01*
X0019686Y0018939D01*
X0020270Y0019523D01*
X0021438Y0019523D01*
X0022022Y0020107D01*
X0022022Y0020691D01*
X0021438Y0021275D01*
X0020270Y0021275D01*
X0019686Y0020691D01*
X0018339Y0021275D02*
X0018339Y0017772D01*
X0018339Y0019523D02*
X0016003Y0019523D01*
X0016003Y0017772D02*
X0016003Y0021275D01*
X0023370Y0019523D02*
X0025705Y0019523D01*
X0031904Y0019523D02*
X0033071Y0019523D01*
X0033071Y0017772D02*
X0033071Y0021275D01*
M02*
