G75*
%MOIN*%
%OFA0B0*%
%FSLAX25Y25*%
%IPPOS*%
%LPD*%
%AMOC8*
5,1,8,0,0,1.08239X$1,22.5*
%
%ADD10C,0.00700*%
%ADD11C,0.00600*%
%ADD12C,0.00000*%
%ADD13C,0.00100*%
%ADD14C,0.00800*%
%ADD15C,0.00400*%
%ADD16C,0.01200*%
%ADD17C,0.00500*%
%ADD18C,0.00300*%
%ADD19C,0.01600*%
%ADD20C,0.02200*%
%ADD21C,0.03000*%
D10*
X0082927Y0113502D02*
X0082927Y0115954D01*
X0083744Y0116771D01*
X0085379Y0116771D01*
X0086196Y0115954D01*
X0086196Y0113502D01*
X0086196Y0115136D02*
X0087831Y0116771D01*
X0087014Y0118658D02*
X0087831Y0119475D01*
X0087831Y0121110D01*
X0087014Y0121927D01*
X0086196Y0121927D01*
X0085379Y0121110D01*
X0085379Y0119475D01*
X0084562Y0118658D01*
X0083744Y0118658D01*
X0082927Y0119475D01*
X0082927Y0121110D01*
X0083744Y0121927D01*
X0082927Y0123814D02*
X0082927Y0127084D01*
X0082927Y0125449D02*
X0087831Y0125449D01*
X0092427Y0126110D02*
X0092427Y0124475D01*
X0093244Y0123658D01*
X0096514Y0123658D01*
X0097331Y0124475D01*
X0097331Y0126110D01*
X0096514Y0126927D01*
X0093244Y0126927D01*
X0092427Y0126110D01*
X0093244Y0121771D02*
X0092427Y0120954D01*
X0092427Y0119319D01*
X0093244Y0118502D01*
X0096514Y0118502D01*
X0097331Y0119319D01*
X0097331Y0120954D01*
X0096514Y0121771D01*
X0102427Y0121771D02*
X0107331Y0121771D01*
X0106514Y0123658D02*
X0107331Y0124475D01*
X0107331Y0126110D01*
X0106514Y0126927D01*
X0103244Y0126927D01*
X0102427Y0126110D01*
X0102427Y0124475D01*
X0103244Y0123658D01*
X0106514Y0123658D01*
X0104062Y0120136D02*
X0102427Y0121771D01*
X0104062Y0120136D02*
X0102427Y0118502D01*
X0107331Y0118502D01*
X0111927Y0118502D02*
X0116831Y0118502D01*
X0116831Y0121771D01*
X0116831Y0123658D02*
X0111927Y0123658D01*
X0116831Y0126927D01*
X0111927Y0126927D01*
X0111927Y0121771D02*
X0111927Y0118502D01*
X0114379Y0118502D02*
X0114379Y0120136D01*
X0122927Y0119319D02*
X0123744Y0118502D01*
X0124562Y0118502D01*
X0125379Y0119319D01*
X0125379Y0120954D01*
X0126196Y0121771D01*
X0127014Y0121771D01*
X0127831Y0120954D01*
X0127831Y0119319D01*
X0127014Y0118502D01*
X0122927Y0119319D02*
X0122927Y0120954D01*
X0123744Y0121771D01*
X0122927Y0123658D02*
X0127831Y0123658D01*
X0126196Y0123658D02*
X0122927Y0126927D01*
X0125379Y0124475D02*
X0127831Y0126927D01*
X0132927Y0125293D02*
X0132927Y0123658D01*
X0132927Y0124475D02*
X0137831Y0124475D01*
X0137831Y0123658D02*
X0137831Y0125293D01*
X0137831Y0121771D02*
X0132927Y0121771D01*
X0134562Y0120136D01*
X0132927Y0118502D01*
X0137831Y0118502D01*
X0162427Y0120136D02*
X0164062Y0118502D01*
X0167331Y0118502D01*
X0164879Y0118502D02*
X0164879Y0121771D01*
X0164062Y0121771D02*
X0162427Y0120136D01*
X0164062Y0121771D02*
X0167331Y0121771D01*
X0166514Y0123658D02*
X0167331Y0124475D01*
X0167331Y0126110D01*
X0166514Y0126927D01*
X0166514Y0123658D02*
X0163244Y0123658D01*
X0162427Y0124475D01*
X0162427Y0126110D01*
X0163244Y0126927D01*
X0172927Y0126110D02*
X0172927Y0124475D01*
X0173744Y0123658D01*
X0177014Y0123658D01*
X0173744Y0126927D01*
X0177014Y0126927D01*
X0177831Y0126110D01*
X0177831Y0124475D01*
X0177014Y0123658D01*
X0177831Y0121771D02*
X0174562Y0121771D01*
X0172927Y0120136D01*
X0174562Y0118502D01*
X0177831Y0118502D01*
X0175379Y0118502D02*
X0175379Y0121771D01*
X0172927Y0126110D02*
X0173744Y0126927D01*
X0087831Y0113502D02*
X0082927Y0113502D01*
X0077650Y0118100D02*
X0072746Y0118100D01*
X0072746Y0120552D01*
X0073563Y0121369D01*
X0075198Y0121369D01*
X0076015Y0120552D01*
X0076015Y0118100D01*
X0076015Y0119735D02*
X0077650Y0121369D01*
X0077650Y0123256D02*
X0072746Y0126526D01*
X0072746Y0123256D02*
X0077650Y0126526D01*
X0067633Y0126574D02*
X0062728Y0123304D01*
X0062728Y0121417D02*
X0062728Y0118148D01*
X0062728Y0119783D02*
X0067633Y0119783D01*
X0067633Y0123304D02*
X0062728Y0126574D01*
X0172927Y0026110D02*
X0173744Y0026927D01*
X0177014Y0023658D01*
X0177831Y0024475D01*
X0177831Y0026110D01*
X0177014Y0026927D01*
X0173744Y0026927D01*
X0172927Y0026110D02*
X0172927Y0024475D01*
X0173744Y0023658D01*
X0177014Y0023658D01*
X0177014Y0021771D02*
X0173744Y0021771D01*
X0172927Y0020954D01*
X0172927Y0018502D01*
X0177831Y0018502D01*
X0177831Y0020954D01*
X0177014Y0021771D01*
D11*
X0167720Y0020851D02*
X0167720Y0018349D01*
X0162715Y0018349D01*
X0162715Y0020851D01*
X0163549Y0021685D01*
X0166886Y0021685D01*
X0167720Y0020851D01*
X0167720Y0023506D02*
X0167720Y0026842D01*
X0167720Y0025174D02*
X0162715Y0025174D01*
X0164384Y0023506D01*
X0157743Y0023482D02*
X0154407Y0026818D01*
X0153573Y0026818D01*
X0152739Y0025984D01*
X0152739Y0024316D01*
X0153573Y0023482D01*
X0153573Y0021662D02*
X0152739Y0020828D01*
X0152739Y0018326D01*
X0157743Y0018326D01*
X0157743Y0020828D01*
X0156909Y0021662D01*
X0153573Y0021662D01*
X0157743Y0023482D02*
X0157743Y0026818D01*
X0147743Y0025984D02*
X0147743Y0024316D01*
X0146909Y0023482D01*
X0146909Y0021662D02*
X0143573Y0021662D01*
X0142739Y0020828D01*
X0142739Y0018326D01*
X0147743Y0018326D01*
X0147743Y0020828D01*
X0146909Y0021662D01*
X0143573Y0023482D02*
X0142739Y0024316D01*
X0142739Y0025984D01*
X0143573Y0026818D01*
X0144407Y0026818D01*
X0145241Y0025984D01*
X0146075Y0026818D01*
X0146909Y0026818D01*
X0147743Y0025984D01*
X0145241Y0025984D02*
X0145241Y0025150D01*
X0137743Y0025984D02*
X0132739Y0025984D01*
X0135241Y0023482D01*
X0135241Y0026818D01*
X0133573Y0021662D02*
X0132739Y0020828D01*
X0132739Y0018326D01*
X0137743Y0018326D01*
X0137743Y0020828D01*
X0136909Y0021662D01*
X0133573Y0021662D01*
X0127700Y0021052D02*
X0126866Y0021886D01*
X0123530Y0021886D01*
X0122696Y0021052D01*
X0122696Y0018550D01*
X0127700Y0018550D01*
X0127700Y0021052D01*
X0126866Y0023706D02*
X0127700Y0024540D01*
X0127700Y0026209D01*
X0126866Y0027043D01*
X0125198Y0027043D01*
X0124364Y0026209D01*
X0124364Y0025374D01*
X0125198Y0023706D01*
X0122696Y0023706D01*
X0122696Y0027043D01*
X0117700Y0026209D02*
X0117700Y0024540D01*
X0116866Y0023706D01*
X0115198Y0023706D01*
X0115198Y0026209D01*
X0116032Y0027043D01*
X0116866Y0027043D01*
X0117700Y0026209D01*
X0115198Y0023706D02*
X0113530Y0025374D01*
X0112696Y0027043D01*
X0108200Y0023706D02*
X0107366Y0023706D01*
X0104030Y0027043D01*
X0103196Y0027043D01*
X0103196Y0023706D01*
X0104030Y0021886D02*
X0103196Y0021052D01*
X0103196Y0018550D01*
X0108200Y0018550D01*
X0108200Y0021052D01*
X0107366Y0021886D01*
X0104030Y0021886D01*
X0097700Y0021052D02*
X0097700Y0018550D01*
X0092696Y0018550D01*
X0092696Y0021052D01*
X0093530Y0021886D01*
X0096866Y0021886D01*
X0097700Y0021052D01*
X0096866Y0023706D02*
X0096032Y0023706D01*
X0095198Y0024540D01*
X0095198Y0026209D01*
X0096032Y0027043D01*
X0096866Y0027043D01*
X0097700Y0026209D01*
X0097700Y0024540D01*
X0096866Y0023706D01*
X0095198Y0024540D02*
X0094364Y0023706D01*
X0093530Y0023706D01*
X0092696Y0024540D01*
X0092696Y0026209D01*
X0093530Y0027043D01*
X0094364Y0027043D01*
X0095198Y0026209D01*
X0087381Y0027393D02*
X0086647Y0026659D01*
X0087381Y0027393D02*
X0087381Y0028861D01*
X0086647Y0029595D01*
X0085913Y0029595D01*
X0085179Y0028861D01*
X0085179Y0028127D01*
X0085179Y0028861D02*
X0084445Y0029595D01*
X0083711Y0029595D01*
X0082977Y0028861D01*
X0082977Y0027393D01*
X0083711Y0026659D01*
X0082977Y0024991D02*
X0085913Y0024991D01*
X0087381Y0023523D01*
X0085913Y0022055D01*
X0082977Y0022055D01*
X0083711Y0020387D02*
X0084445Y0020387D01*
X0085179Y0019653D01*
X0085913Y0020387D01*
X0086647Y0020387D01*
X0087381Y0019653D01*
X0087381Y0018186D01*
X0086647Y0017452D01*
X0085179Y0018919D02*
X0085179Y0019653D01*
X0083711Y0020387D02*
X0082977Y0019653D01*
X0082977Y0018186D01*
X0083711Y0017452D01*
X0077381Y0018186D02*
X0077381Y0019653D01*
X0076647Y0020387D01*
X0075179Y0020387D01*
X0075179Y0018919D01*
X0073711Y0017452D02*
X0076647Y0017452D01*
X0077381Y0018186D01*
X0073711Y0017452D02*
X0072977Y0018186D01*
X0072977Y0019653D01*
X0073711Y0020387D01*
X0072977Y0022055D02*
X0077381Y0024991D01*
X0072977Y0024991D01*
X0072977Y0026659D02*
X0072977Y0028861D01*
X0073711Y0029595D01*
X0076647Y0029595D01*
X0077381Y0028861D01*
X0077381Y0026659D01*
X0072977Y0026659D01*
X0072977Y0022055D02*
X0077381Y0022055D01*
X0067381Y0022055D02*
X0067381Y0023523D01*
X0067381Y0022789D02*
X0062977Y0022789D01*
X0062977Y0022055D02*
X0062977Y0023523D01*
X0062977Y0025125D02*
X0067381Y0028061D01*
X0062977Y0028061D01*
X0062977Y0025125D02*
X0067381Y0025125D01*
X0065913Y0020387D02*
X0062977Y0020387D01*
X0065913Y0020387D02*
X0067381Y0018919D01*
X0065913Y0017452D01*
X0062977Y0017452D01*
X0047000Y0023750D02*
X0047195Y0023748D01*
X0047390Y0023741D01*
X0047584Y0023729D01*
X0047778Y0023712D01*
X0047972Y0023691D01*
X0048165Y0023665D01*
X0048357Y0023634D01*
X0048549Y0023599D01*
X0048739Y0023559D01*
X0048929Y0023514D01*
X0049118Y0023465D01*
X0049305Y0023411D01*
X0049491Y0023352D01*
X0049675Y0023290D01*
X0049858Y0023222D01*
X0050039Y0023150D01*
X0050218Y0023074D01*
X0050396Y0022994D01*
X0050571Y0022909D01*
X0050744Y0022820D01*
X0050915Y0022726D01*
X0051084Y0022629D01*
X0051250Y0022527D01*
X0051414Y0022422D01*
X0051575Y0022313D01*
X0051734Y0022199D01*
X0051889Y0022082D01*
X0052042Y0021961D01*
X0052192Y0021836D01*
X0052339Y0021708D01*
X0052482Y0021576D01*
X0052622Y0021441D01*
X0052759Y0021303D01*
X0052893Y0021161D01*
X0053023Y0021016D01*
X0053149Y0020867D01*
X0053272Y0020716D01*
X0053391Y0020562D01*
X0053506Y0020405D01*
X0053618Y0020245D01*
X0053725Y0020083D01*
X0053829Y0019918D01*
X0053928Y0019750D01*
X0054024Y0019580D01*
X0054115Y0019408D01*
X0054202Y0019234D01*
X0054284Y0019057D01*
X0054363Y0018879D01*
X0054437Y0018699D01*
X0054506Y0018517D01*
X0054572Y0018333D01*
X0054632Y0018148D01*
X0054688Y0017961D01*
X0054740Y0017773D01*
X0054787Y0017584D01*
X0054829Y0017394D01*
X0054867Y0017203D01*
X0054900Y0017011D01*
X0054928Y0016818D01*
X0054952Y0016625D01*
X0054971Y0016431D01*
X0054985Y0016237D01*
X0054995Y0016042D01*
X0054999Y0015847D01*
X0054999Y0015653D01*
X0054995Y0015458D01*
X0054985Y0015263D01*
X0054971Y0015069D01*
X0054952Y0014875D01*
X0054928Y0014682D01*
X0054900Y0014489D01*
X0054867Y0014297D01*
X0054829Y0014106D01*
X0054787Y0013916D01*
X0054740Y0013727D01*
X0054688Y0013539D01*
X0054632Y0013352D01*
X0054572Y0013167D01*
X0054506Y0012983D01*
X0054437Y0012801D01*
X0054363Y0012621D01*
X0054284Y0012443D01*
X0054202Y0012266D01*
X0054115Y0012092D01*
X0054024Y0011920D01*
X0053928Y0011750D01*
X0053829Y0011582D01*
X0053725Y0011417D01*
X0053618Y0011255D01*
X0053506Y0011095D01*
X0053391Y0010938D01*
X0053272Y0010784D01*
X0053149Y0010633D01*
X0053023Y0010484D01*
X0052893Y0010339D01*
X0052759Y0010197D01*
X0052622Y0010059D01*
X0052482Y0009924D01*
X0052339Y0009792D01*
X0052192Y0009664D01*
X0052042Y0009539D01*
X0051889Y0009418D01*
X0051734Y0009301D01*
X0051575Y0009187D01*
X0051414Y0009078D01*
X0051250Y0008973D01*
X0051084Y0008871D01*
X0050915Y0008774D01*
X0050744Y0008680D01*
X0050571Y0008591D01*
X0050396Y0008506D01*
X0050218Y0008426D01*
X0050039Y0008350D01*
X0049858Y0008278D01*
X0049675Y0008210D01*
X0049491Y0008148D01*
X0049305Y0008089D01*
X0049118Y0008035D01*
X0048929Y0007986D01*
X0048739Y0007941D01*
X0048549Y0007901D01*
X0048357Y0007866D01*
X0048165Y0007835D01*
X0047972Y0007809D01*
X0047778Y0007788D01*
X0047584Y0007771D01*
X0047390Y0007759D01*
X0047195Y0007752D01*
X0047000Y0007750D01*
X0023000Y0007750D01*
X0032300Y0011750D02*
X0032300Y0015750D01*
X0032300Y0019750D01*
X0033800Y0019750D02*
X0033800Y0011750D01*
X0036300Y0011750D01*
X0036300Y0019750D01*
X0033800Y0019750D01*
X0037700Y0019750D02*
X0037700Y0015750D01*
X0040500Y0015750D01*
X0037700Y0015750D02*
X0037700Y0011750D01*
X0032300Y0015750D02*
X0029500Y0015750D01*
X0023000Y0023750D02*
X0022805Y0023748D01*
X0022610Y0023741D01*
X0022416Y0023729D01*
X0022222Y0023712D01*
X0022028Y0023691D01*
X0021835Y0023665D01*
X0021643Y0023634D01*
X0021451Y0023599D01*
X0021261Y0023559D01*
X0021071Y0023514D01*
X0020882Y0023465D01*
X0020695Y0023411D01*
X0020509Y0023352D01*
X0020325Y0023290D01*
X0020142Y0023222D01*
X0019961Y0023150D01*
X0019782Y0023074D01*
X0019604Y0022994D01*
X0019429Y0022909D01*
X0019256Y0022820D01*
X0019085Y0022726D01*
X0018916Y0022629D01*
X0018750Y0022527D01*
X0018586Y0022422D01*
X0018425Y0022313D01*
X0018266Y0022199D01*
X0018111Y0022082D01*
X0017958Y0021961D01*
X0017808Y0021836D01*
X0017661Y0021708D01*
X0017518Y0021576D01*
X0017378Y0021441D01*
X0017241Y0021303D01*
X0017107Y0021161D01*
X0016977Y0021016D01*
X0016851Y0020867D01*
X0016728Y0020716D01*
X0016609Y0020562D01*
X0016494Y0020405D01*
X0016382Y0020245D01*
X0016275Y0020083D01*
X0016171Y0019918D01*
X0016072Y0019750D01*
X0015976Y0019580D01*
X0015885Y0019408D01*
X0015798Y0019234D01*
X0015716Y0019057D01*
X0015637Y0018879D01*
X0015563Y0018699D01*
X0015494Y0018517D01*
X0015428Y0018333D01*
X0015368Y0018148D01*
X0015312Y0017961D01*
X0015260Y0017773D01*
X0015213Y0017584D01*
X0015171Y0017394D01*
X0015133Y0017203D01*
X0015100Y0017011D01*
X0015072Y0016818D01*
X0015048Y0016625D01*
X0015029Y0016431D01*
X0015015Y0016237D01*
X0015005Y0016042D01*
X0015001Y0015847D01*
X0015001Y0015653D01*
X0015005Y0015458D01*
X0015015Y0015263D01*
X0015029Y0015069D01*
X0015048Y0014875D01*
X0015072Y0014682D01*
X0015100Y0014489D01*
X0015133Y0014297D01*
X0015171Y0014106D01*
X0015213Y0013916D01*
X0015260Y0013727D01*
X0015312Y0013539D01*
X0015368Y0013352D01*
X0015428Y0013167D01*
X0015494Y0012983D01*
X0015563Y0012801D01*
X0015637Y0012621D01*
X0015716Y0012443D01*
X0015798Y0012266D01*
X0015885Y0012092D01*
X0015976Y0011920D01*
X0016072Y0011750D01*
X0016171Y0011582D01*
X0016275Y0011417D01*
X0016382Y0011255D01*
X0016494Y0011095D01*
X0016609Y0010938D01*
X0016728Y0010784D01*
X0016851Y0010633D01*
X0016977Y0010484D01*
X0017107Y0010339D01*
X0017241Y0010197D01*
X0017378Y0010059D01*
X0017518Y0009924D01*
X0017661Y0009792D01*
X0017808Y0009664D01*
X0017958Y0009539D01*
X0018111Y0009418D01*
X0018266Y0009301D01*
X0018425Y0009187D01*
X0018586Y0009078D01*
X0018750Y0008973D01*
X0018916Y0008871D01*
X0019085Y0008774D01*
X0019256Y0008680D01*
X0019429Y0008591D01*
X0019604Y0008506D01*
X0019782Y0008426D01*
X0019961Y0008350D01*
X0020142Y0008278D01*
X0020325Y0008210D01*
X0020509Y0008148D01*
X0020695Y0008089D01*
X0020882Y0008035D01*
X0021071Y0007986D01*
X0021261Y0007941D01*
X0021451Y0007901D01*
X0021643Y0007866D01*
X0021835Y0007835D01*
X0022028Y0007809D01*
X0022222Y0007788D01*
X0022416Y0007771D01*
X0022610Y0007759D01*
X0022805Y0007752D01*
X0023000Y0007750D01*
X0023000Y0023750D02*
X0047000Y0023750D01*
X0112696Y0021052D02*
X0112696Y0018550D01*
X0117700Y0018550D01*
X0117700Y0021052D01*
X0116866Y0021886D01*
X0113530Y0021886D01*
X0112696Y0021052D01*
X0073746Y0092659D02*
X0067365Y0092659D01*
X0067365Y0093141D01*
X0067365Y0096311D02*
X0067365Y0096685D01*
X0067365Y0100052D02*
X0067365Y0100425D01*
X0067365Y0103595D02*
X0067365Y0104077D01*
X0073746Y0104077D01*
X0073746Y0103595D01*
X0073614Y0105585D02*
X0073614Y0105955D01*
X0073614Y0105585D02*
X0067236Y0105585D01*
X0067236Y0105955D01*
X0067236Y0109128D02*
X0067236Y0109498D01*
X0067236Y0112868D02*
X0067236Y0113238D01*
X0067236Y0116411D02*
X0067236Y0116781D01*
X0073614Y0116781D01*
X0073614Y0116411D01*
X0073614Y0113238D02*
X0073614Y0109128D01*
X0073746Y0100425D02*
X0073746Y0096311D01*
X0073746Y0093141D02*
X0073746Y0092659D01*
D12*
X0010874Y0003250D02*
X0191976Y0003250D01*
X0192166Y0003252D01*
X0192356Y0003259D01*
X0192546Y0003271D01*
X0192736Y0003287D01*
X0192925Y0003307D01*
X0193114Y0003333D01*
X0193302Y0003362D01*
X0193489Y0003397D01*
X0193675Y0003436D01*
X0193860Y0003479D01*
X0194045Y0003527D01*
X0194228Y0003579D01*
X0194409Y0003635D01*
X0194589Y0003696D01*
X0194768Y0003762D01*
X0194945Y0003831D01*
X0195121Y0003905D01*
X0195294Y0003983D01*
X0195466Y0004066D01*
X0195635Y0004152D01*
X0195803Y0004242D01*
X0195968Y0004337D01*
X0196131Y0004435D01*
X0196291Y0004538D01*
X0196449Y0004644D01*
X0196604Y0004754D01*
X0196757Y0004867D01*
X0196907Y0004985D01*
X0197053Y0005106D01*
X0197197Y0005230D01*
X0197338Y0005358D01*
X0197476Y0005489D01*
X0197611Y0005624D01*
X0197742Y0005762D01*
X0197870Y0005903D01*
X0197994Y0006047D01*
X0198115Y0006193D01*
X0198233Y0006343D01*
X0198346Y0006496D01*
X0198456Y0006651D01*
X0198562Y0006809D01*
X0198665Y0006969D01*
X0198763Y0007132D01*
X0198858Y0007297D01*
X0198948Y0007465D01*
X0199034Y0007634D01*
X0199117Y0007806D01*
X0199195Y0007979D01*
X0199269Y0008155D01*
X0199338Y0008332D01*
X0199404Y0008511D01*
X0199465Y0008691D01*
X0199521Y0008872D01*
X0199573Y0009055D01*
X0199621Y0009240D01*
X0199664Y0009425D01*
X0199703Y0009611D01*
X0199738Y0009798D01*
X0199767Y0009986D01*
X0199793Y0010175D01*
X0199813Y0010364D01*
X0199829Y0010554D01*
X0199841Y0010744D01*
X0199848Y0010934D01*
X0199850Y0011124D01*
X0199850Y0133171D01*
X0199848Y0133361D01*
X0199841Y0133551D01*
X0199829Y0133741D01*
X0199813Y0133931D01*
X0199793Y0134120D01*
X0199767Y0134309D01*
X0199738Y0134497D01*
X0199703Y0134684D01*
X0199664Y0134870D01*
X0199621Y0135055D01*
X0199573Y0135240D01*
X0199521Y0135423D01*
X0199465Y0135604D01*
X0199404Y0135784D01*
X0199338Y0135963D01*
X0199269Y0136140D01*
X0199195Y0136316D01*
X0199117Y0136489D01*
X0199034Y0136661D01*
X0198948Y0136830D01*
X0198858Y0136998D01*
X0198763Y0137163D01*
X0198665Y0137326D01*
X0198562Y0137486D01*
X0198456Y0137644D01*
X0198346Y0137799D01*
X0198233Y0137952D01*
X0198115Y0138102D01*
X0197994Y0138248D01*
X0197870Y0138392D01*
X0197742Y0138533D01*
X0197611Y0138671D01*
X0197476Y0138806D01*
X0197338Y0138937D01*
X0197197Y0139065D01*
X0197053Y0139189D01*
X0196907Y0139310D01*
X0196757Y0139428D01*
X0196604Y0139541D01*
X0196449Y0139651D01*
X0196291Y0139757D01*
X0196131Y0139860D01*
X0195968Y0139958D01*
X0195803Y0140053D01*
X0195635Y0140143D01*
X0195466Y0140229D01*
X0195294Y0140312D01*
X0195121Y0140390D01*
X0194945Y0140464D01*
X0194768Y0140533D01*
X0194589Y0140599D01*
X0194409Y0140660D01*
X0194228Y0140716D01*
X0194045Y0140768D01*
X0193860Y0140816D01*
X0193675Y0140859D01*
X0193489Y0140898D01*
X0193302Y0140933D01*
X0193114Y0140962D01*
X0192925Y0140988D01*
X0192736Y0141008D01*
X0192546Y0141024D01*
X0192356Y0141036D01*
X0192166Y0141043D01*
X0191976Y0141045D01*
X0010874Y0141045D01*
X0010684Y0141043D01*
X0010494Y0141036D01*
X0010304Y0141024D01*
X0010114Y0141008D01*
X0009925Y0140988D01*
X0009736Y0140962D01*
X0009548Y0140933D01*
X0009361Y0140898D01*
X0009175Y0140859D01*
X0008990Y0140816D01*
X0008805Y0140768D01*
X0008622Y0140716D01*
X0008441Y0140660D01*
X0008261Y0140599D01*
X0008082Y0140533D01*
X0007905Y0140464D01*
X0007729Y0140390D01*
X0007556Y0140312D01*
X0007384Y0140229D01*
X0007215Y0140143D01*
X0007047Y0140053D01*
X0006882Y0139958D01*
X0006719Y0139860D01*
X0006559Y0139757D01*
X0006401Y0139651D01*
X0006246Y0139541D01*
X0006093Y0139428D01*
X0005943Y0139310D01*
X0005797Y0139189D01*
X0005653Y0139065D01*
X0005512Y0138937D01*
X0005374Y0138806D01*
X0005239Y0138671D01*
X0005108Y0138533D01*
X0004980Y0138392D01*
X0004856Y0138248D01*
X0004735Y0138102D01*
X0004617Y0137952D01*
X0004504Y0137799D01*
X0004394Y0137644D01*
X0004288Y0137486D01*
X0004185Y0137326D01*
X0004087Y0137163D01*
X0003992Y0136998D01*
X0003902Y0136830D01*
X0003816Y0136661D01*
X0003733Y0136489D01*
X0003655Y0136316D01*
X0003581Y0136140D01*
X0003512Y0135963D01*
X0003446Y0135784D01*
X0003385Y0135604D01*
X0003329Y0135423D01*
X0003277Y0135240D01*
X0003229Y0135055D01*
X0003186Y0134870D01*
X0003147Y0134684D01*
X0003112Y0134497D01*
X0003083Y0134309D01*
X0003057Y0134120D01*
X0003037Y0133931D01*
X0003021Y0133741D01*
X0003009Y0133551D01*
X0003002Y0133361D01*
X0003000Y0133171D01*
X0003000Y0011124D01*
X0003002Y0010934D01*
X0003009Y0010744D01*
X0003021Y0010554D01*
X0003037Y0010364D01*
X0003057Y0010175D01*
X0003083Y0009986D01*
X0003112Y0009798D01*
X0003147Y0009611D01*
X0003186Y0009425D01*
X0003229Y0009240D01*
X0003277Y0009055D01*
X0003329Y0008872D01*
X0003385Y0008691D01*
X0003446Y0008511D01*
X0003512Y0008332D01*
X0003581Y0008155D01*
X0003655Y0007979D01*
X0003733Y0007806D01*
X0003816Y0007634D01*
X0003902Y0007465D01*
X0003992Y0007297D01*
X0004087Y0007132D01*
X0004185Y0006969D01*
X0004288Y0006809D01*
X0004394Y0006651D01*
X0004504Y0006496D01*
X0004617Y0006343D01*
X0004735Y0006193D01*
X0004856Y0006047D01*
X0004980Y0005903D01*
X0005108Y0005762D01*
X0005239Y0005624D01*
X0005374Y0005489D01*
X0005512Y0005358D01*
X0005653Y0005230D01*
X0005797Y0005106D01*
X0005943Y0004985D01*
X0006093Y0004867D01*
X0006246Y0004754D01*
X0006401Y0004644D01*
X0006559Y0004538D01*
X0006719Y0004435D01*
X0006882Y0004337D01*
X0007047Y0004242D01*
X0007215Y0004152D01*
X0007384Y0004066D01*
X0007556Y0003983D01*
X0007729Y0003905D01*
X0007905Y0003831D01*
X0008082Y0003762D01*
X0008261Y0003696D01*
X0008441Y0003635D01*
X0008622Y0003579D01*
X0008805Y0003527D01*
X0008990Y0003479D01*
X0009175Y0003436D01*
X0009361Y0003397D01*
X0009548Y0003362D01*
X0009736Y0003333D01*
X0009925Y0003307D01*
X0010114Y0003287D01*
X0010304Y0003271D01*
X0010494Y0003259D01*
X0010684Y0003252D01*
X0010874Y0003250D01*
D13*
X0033800Y0034300D02*
X0034301Y0034300D01*
X0034551Y0034550D01*
X0035023Y0034550D02*
X0035023Y0034800D01*
X0035273Y0035051D01*
X0035774Y0035051D01*
X0036024Y0034800D01*
X0036024Y0034550D01*
X0035774Y0034300D01*
X0035273Y0034300D01*
X0035023Y0034550D01*
X0035273Y0035051D02*
X0035023Y0035301D01*
X0035023Y0035551D01*
X0035273Y0035801D01*
X0035774Y0035801D01*
X0036024Y0035551D01*
X0036024Y0035301D01*
X0035774Y0035051D01*
X0034551Y0035551D02*
X0034301Y0035801D01*
X0033800Y0035801D01*
X0033550Y0035551D01*
X0033550Y0034550D01*
X0033800Y0034300D01*
X0048550Y0035050D02*
X0048800Y0034800D01*
X0049301Y0034800D01*
X0049551Y0035050D01*
X0050023Y0034800D02*
X0051024Y0034800D01*
X0051497Y0034800D02*
X0052497Y0035801D01*
X0052497Y0036051D01*
X0052247Y0036301D01*
X0051747Y0036301D01*
X0051497Y0036051D01*
X0050524Y0036301D02*
X0050524Y0034800D01*
X0051497Y0034800D02*
X0052497Y0034800D01*
X0050524Y0036301D02*
X0050023Y0035801D01*
X0049551Y0036051D02*
X0049301Y0036301D01*
X0048800Y0036301D01*
X0048550Y0036051D01*
X0048550Y0035050D01*
X0006374Y0133171D02*
X0006376Y0133305D01*
X0006382Y0133439D01*
X0006392Y0133572D01*
X0006406Y0133706D01*
X0006424Y0133839D01*
X0006446Y0133971D01*
X0006471Y0134102D01*
X0006501Y0134233D01*
X0006535Y0134363D01*
X0006572Y0134491D01*
X0006613Y0134619D01*
X0006658Y0134745D01*
X0006707Y0134870D01*
X0006759Y0134993D01*
X0006815Y0135115D01*
X0006875Y0135235D01*
X0006938Y0135353D01*
X0007005Y0135469D01*
X0007075Y0135583D01*
X0007149Y0135695D01*
X0007226Y0135805D01*
X0007306Y0135913D01*
X0007389Y0136018D01*
X0007475Y0136120D01*
X0007564Y0136220D01*
X0007657Y0136317D01*
X0007752Y0136412D01*
X0007850Y0136503D01*
X0007950Y0136592D01*
X0008053Y0136677D01*
X0008159Y0136760D01*
X0008267Y0136839D01*
X0008377Y0136915D01*
X0008490Y0136988D01*
X0008605Y0137057D01*
X0008721Y0137123D01*
X0008840Y0137185D01*
X0008960Y0137244D01*
X0009083Y0137299D01*
X0009206Y0137351D01*
X0009331Y0137398D01*
X0009458Y0137442D01*
X0009586Y0137483D01*
X0009715Y0137519D01*
X0009845Y0137552D01*
X0009976Y0137580D01*
X0010107Y0137605D01*
X0010240Y0137626D01*
X0010373Y0137643D01*
X0010506Y0137656D01*
X0010640Y0137665D01*
X0010774Y0137670D01*
X0010908Y0137671D01*
X0011041Y0137668D01*
X0011175Y0137661D01*
X0011309Y0137650D01*
X0011442Y0137635D01*
X0011575Y0137616D01*
X0011707Y0137593D01*
X0011838Y0137567D01*
X0011968Y0137536D01*
X0012098Y0137501D01*
X0012226Y0137463D01*
X0012353Y0137421D01*
X0012479Y0137375D01*
X0012604Y0137325D01*
X0012727Y0137272D01*
X0012848Y0137215D01*
X0012968Y0137154D01*
X0013085Y0137090D01*
X0013201Y0137023D01*
X0013315Y0136952D01*
X0013426Y0136877D01*
X0013535Y0136800D01*
X0013642Y0136719D01*
X0013747Y0136635D01*
X0013848Y0136548D01*
X0013948Y0136458D01*
X0014044Y0136365D01*
X0014138Y0136269D01*
X0014229Y0136170D01*
X0014316Y0136069D01*
X0014401Y0135965D01*
X0014483Y0135859D01*
X0014561Y0135751D01*
X0014636Y0135640D01*
X0014708Y0135527D01*
X0014777Y0135411D01*
X0014842Y0135294D01*
X0014903Y0135175D01*
X0014961Y0135054D01*
X0015015Y0134932D01*
X0015066Y0134808D01*
X0015113Y0134682D01*
X0015156Y0134555D01*
X0015195Y0134427D01*
X0015231Y0134298D01*
X0015262Y0134168D01*
X0015290Y0134037D01*
X0015314Y0133905D01*
X0015334Y0133772D01*
X0015350Y0133639D01*
X0015362Y0133506D01*
X0015370Y0133372D01*
X0015374Y0133238D01*
X0015374Y0133104D01*
X0015370Y0132970D01*
X0015362Y0132836D01*
X0015350Y0132703D01*
X0015334Y0132570D01*
X0015314Y0132437D01*
X0015290Y0132305D01*
X0015262Y0132174D01*
X0015231Y0132044D01*
X0015195Y0131915D01*
X0015156Y0131787D01*
X0015113Y0131660D01*
X0015066Y0131534D01*
X0015015Y0131410D01*
X0014961Y0131288D01*
X0014903Y0131167D01*
X0014842Y0131048D01*
X0014777Y0130931D01*
X0014708Y0130815D01*
X0014636Y0130702D01*
X0014561Y0130591D01*
X0014483Y0130483D01*
X0014401Y0130377D01*
X0014316Y0130273D01*
X0014229Y0130172D01*
X0014138Y0130073D01*
X0014044Y0129977D01*
X0013948Y0129884D01*
X0013848Y0129794D01*
X0013747Y0129707D01*
X0013642Y0129623D01*
X0013535Y0129542D01*
X0013426Y0129465D01*
X0013315Y0129390D01*
X0013201Y0129319D01*
X0013085Y0129252D01*
X0012968Y0129188D01*
X0012848Y0129127D01*
X0012727Y0129070D01*
X0012604Y0129017D01*
X0012479Y0128967D01*
X0012353Y0128921D01*
X0012226Y0128879D01*
X0012098Y0128841D01*
X0011968Y0128806D01*
X0011838Y0128775D01*
X0011707Y0128749D01*
X0011575Y0128726D01*
X0011442Y0128707D01*
X0011309Y0128692D01*
X0011175Y0128681D01*
X0011041Y0128674D01*
X0010908Y0128671D01*
X0010774Y0128672D01*
X0010640Y0128677D01*
X0010506Y0128686D01*
X0010373Y0128699D01*
X0010240Y0128716D01*
X0010107Y0128737D01*
X0009976Y0128762D01*
X0009845Y0128790D01*
X0009715Y0128823D01*
X0009586Y0128859D01*
X0009458Y0128900D01*
X0009331Y0128944D01*
X0009206Y0128991D01*
X0009083Y0129043D01*
X0008960Y0129098D01*
X0008840Y0129157D01*
X0008721Y0129219D01*
X0008605Y0129285D01*
X0008490Y0129354D01*
X0008377Y0129427D01*
X0008267Y0129503D01*
X0008159Y0129582D01*
X0008053Y0129665D01*
X0007950Y0129750D01*
X0007850Y0129839D01*
X0007752Y0129930D01*
X0007657Y0130025D01*
X0007564Y0130122D01*
X0007475Y0130222D01*
X0007389Y0130324D01*
X0007306Y0130429D01*
X0007226Y0130537D01*
X0007149Y0130647D01*
X0007075Y0130759D01*
X0007005Y0130873D01*
X0006938Y0130989D01*
X0006875Y0131107D01*
X0006815Y0131227D01*
X0006759Y0131349D01*
X0006707Y0131472D01*
X0006658Y0131597D01*
X0006613Y0131723D01*
X0006572Y0131851D01*
X0006535Y0131979D01*
X0006501Y0132109D01*
X0006471Y0132240D01*
X0006446Y0132371D01*
X0006424Y0132503D01*
X0006406Y0132636D01*
X0006392Y0132770D01*
X0006382Y0132903D01*
X0006376Y0133037D01*
X0006374Y0133171D01*
X0187476Y0133171D02*
X0187478Y0133305D01*
X0187484Y0133439D01*
X0187494Y0133572D01*
X0187508Y0133706D01*
X0187526Y0133839D01*
X0187548Y0133971D01*
X0187573Y0134102D01*
X0187603Y0134233D01*
X0187637Y0134363D01*
X0187674Y0134491D01*
X0187715Y0134619D01*
X0187760Y0134745D01*
X0187809Y0134870D01*
X0187861Y0134993D01*
X0187917Y0135115D01*
X0187977Y0135235D01*
X0188040Y0135353D01*
X0188107Y0135469D01*
X0188177Y0135583D01*
X0188251Y0135695D01*
X0188328Y0135805D01*
X0188408Y0135913D01*
X0188491Y0136018D01*
X0188577Y0136120D01*
X0188666Y0136220D01*
X0188759Y0136317D01*
X0188854Y0136412D01*
X0188952Y0136503D01*
X0189052Y0136592D01*
X0189155Y0136677D01*
X0189261Y0136760D01*
X0189369Y0136839D01*
X0189479Y0136915D01*
X0189592Y0136988D01*
X0189707Y0137057D01*
X0189823Y0137123D01*
X0189942Y0137185D01*
X0190062Y0137244D01*
X0190185Y0137299D01*
X0190308Y0137351D01*
X0190433Y0137398D01*
X0190560Y0137442D01*
X0190688Y0137483D01*
X0190817Y0137519D01*
X0190947Y0137552D01*
X0191078Y0137580D01*
X0191209Y0137605D01*
X0191342Y0137626D01*
X0191475Y0137643D01*
X0191608Y0137656D01*
X0191742Y0137665D01*
X0191876Y0137670D01*
X0192010Y0137671D01*
X0192143Y0137668D01*
X0192277Y0137661D01*
X0192411Y0137650D01*
X0192544Y0137635D01*
X0192677Y0137616D01*
X0192809Y0137593D01*
X0192940Y0137567D01*
X0193070Y0137536D01*
X0193200Y0137501D01*
X0193328Y0137463D01*
X0193455Y0137421D01*
X0193581Y0137375D01*
X0193706Y0137325D01*
X0193829Y0137272D01*
X0193950Y0137215D01*
X0194070Y0137154D01*
X0194187Y0137090D01*
X0194303Y0137023D01*
X0194417Y0136952D01*
X0194528Y0136877D01*
X0194637Y0136800D01*
X0194744Y0136719D01*
X0194849Y0136635D01*
X0194950Y0136548D01*
X0195050Y0136458D01*
X0195146Y0136365D01*
X0195240Y0136269D01*
X0195331Y0136170D01*
X0195418Y0136069D01*
X0195503Y0135965D01*
X0195585Y0135859D01*
X0195663Y0135751D01*
X0195738Y0135640D01*
X0195810Y0135527D01*
X0195879Y0135411D01*
X0195944Y0135294D01*
X0196005Y0135175D01*
X0196063Y0135054D01*
X0196117Y0134932D01*
X0196168Y0134808D01*
X0196215Y0134682D01*
X0196258Y0134555D01*
X0196297Y0134427D01*
X0196333Y0134298D01*
X0196364Y0134168D01*
X0196392Y0134037D01*
X0196416Y0133905D01*
X0196436Y0133772D01*
X0196452Y0133639D01*
X0196464Y0133506D01*
X0196472Y0133372D01*
X0196476Y0133238D01*
X0196476Y0133104D01*
X0196472Y0132970D01*
X0196464Y0132836D01*
X0196452Y0132703D01*
X0196436Y0132570D01*
X0196416Y0132437D01*
X0196392Y0132305D01*
X0196364Y0132174D01*
X0196333Y0132044D01*
X0196297Y0131915D01*
X0196258Y0131787D01*
X0196215Y0131660D01*
X0196168Y0131534D01*
X0196117Y0131410D01*
X0196063Y0131288D01*
X0196005Y0131167D01*
X0195944Y0131048D01*
X0195879Y0130931D01*
X0195810Y0130815D01*
X0195738Y0130702D01*
X0195663Y0130591D01*
X0195585Y0130483D01*
X0195503Y0130377D01*
X0195418Y0130273D01*
X0195331Y0130172D01*
X0195240Y0130073D01*
X0195146Y0129977D01*
X0195050Y0129884D01*
X0194950Y0129794D01*
X0194849Y0129707D01*
X0194744Y0129623D01*
X0194637Y0129542D01*
X0194528Y0129465D01*
X0194417Y0129390D01*
X0194303Y0129319D01*
X0194187Y0129252D01*
X0194070Y0129188D01*
X0193950Y0129127D01*
X0193829Y0129070D01*
X0193706Y0129017D01*
X0193581Y0128967D01*
X0193455Y0128921D01*
X0193328Y0128879D01*
X0193200Y0128841D01*
X0193070Y0128806D01*
X0192940Y0128775D01*
X0192809Y0128749D01*
X0192677Y0128726D01*
X0192544Y0128707D01*
X0192411Y0128692D01*
X0192277Y0128681D01*
X0192143Y0128674D01*
X0192010Y0128671D01*
X0191876Y0128672D01*
X0191742Y0128677D01*
X0191608Y0128686D01*
X0191475Y0128699D01*
X0191342Y0128716D01*
X0191209Y0128737D01*
X0191078Y0128762D01*
X0190947Y0128790D01*
X0190817Y0128823D01*
X0190688Y0128859D01*
X0190560Y0128900D01*
X0190433Y0128944D01*
X0190308Y0128991D01*
X0190185Y0129043D01*
X0190062Y0129098D01*
X0189942Y0129157D01*
X0189823Y0129219D01*
X0189707Y0129285D01*
X0189592Y0129354D01*
X0189479Y0129427D01*
X0189369Y0129503D01*
X0189261Y0129582D01*
X0189155Y0129665D01*
X0189052Y0129750D01*
X0188952Y0129839D01*
X0188854Y0129930D01*
X0188759Y0130025D01*
X0188666Y0130122D01*
X0188577Y0130222D01*
X0188491Y0130324D01*
X0188408Y0130429D01*
X0188328Y0130537D01*
X0188251Y0130647D01*
X0188177Y0130759D01*
X0188107Y0130873D01*
X0188040Y0130989D01*
X0187977Y0131107D01*
X0187917Y0131227D01*
X0187861Y0131349D01*
X0187809Y0131472D01*
X0187760Y0131597D01*
X0187715Y0131723D01*
X0187674Y0131851D01*
X0187637Y0131979D01*
X0187603Y0132109D01*
X0187573Y0132240D01*
X0187548Y0132371D01*
X0187526Y0132503D01*
X0187508Y0132636D01*
X0187494Y0132770D01*
X0187484Y0132903D01*
X0187478Y0133037D01*
X0187476Y0133171D01*
X0187476Y0011124D02*
X0187478Y0011258D01*
X0187484Y0011392D01*
X0187494Y0011525D01*
X0187508Y0011659D01*
X0187526Y0011792D01*
X0187548Y0011924D01*
X0187573Y0012055D01*
X0187603Y0012186D01*
X0187637Y0012316D01*
X0187674Y0012444D01*
X0187715Y0012572D01*
X0187760Y0012698D01*
X0187809Y0012823D01*
X0187861Y0012946D01*
X0187917Y0013068D01*
X0187977Y0013188D01*
X0188040Y0013306D01*
X0188107Y0013422D01*
X0188177Y0013536D01*
X0188251Y0013648D01*
X0188328Y0013758D01*
X0188408Y0013866D01*
X0188491Y0013971D01*
X0188577Y0014073D01*
X0188666Y0014173D01*
X0188759Y0014270D01*
X0188854Y0014365D01*
X0188952Y0014456D01*
X0189052Y0014545D01*
X0189155Y0014630D01*
X0189261Y0014713D01*
X0189369Y0014792D01*
X0189479Y0014868D01*
X0189592Y0014941D01*
X0189707Y0015010D01*
X0189823Y0015076D01*
X0189942Y0015138D01*
X0190062Y0015197D01*
X0190185Y0015252D01*
X0190308Y0015304D01*
X0190433Y0015351D01*
X0190560Y0015395D01*
X0190688Y0015436D01*
X0190817Y0015472D01*
X0190947Y0015505D01*
X0191078Y0015533D01*
X0191209Y0015558D01*
X0191342Y0015579D01*
X0191475Y0015596D01*
X0191608Y0015609D01*
X0191742Y0015618D01*
X0191876Y0015623D01*
X0192010Y0015624D01*
X0192143Y0015621D01*
X0192277Y0015614D01*
X0192411Y0015603D01*
X0192544Y0015588D01*
X0192677Y0015569D01*
X0192809Y0015546D01*
X0192940Y0015520D01*
X0193070Y0015489D01*
X0193200Y0015454D01*
X0193328Y0015416D01*
X0193455Y0015374D01*
X0193581Y0015328D01*
X0193706Y0015278D01*
X0193829Y0015225D01*
X0193950Y0015168D01*
X0194070Y0015107D01*
X0194187Y0015043D01*
X0194303Y0014976D01*
X0194417Y0014905D01*
X0194528Y0014830D01*
X0194637Y0014753D01*
X0194744Y0014672D01*
X0194849Y0014588D01*
X0194950Y0014501D01*
X0195050Y0014411D01*
X0195146Y0014318D01*
X0195240Y0014222D01*
X0195331Y0014123D01*
X0195418Y0014022D01*
X0195503Y0013918D01*
X0195585Y0013812D01*
X0195663Y0013704D01*
X0195738Y0013593D01*
X0195810Y0013480D01*
X0195879Y0013364D01*
X0195944Y0013247D01*
X0196005Y0013128D01*
X0196063Y0013007D01*
X0196117Y0012885D01*
X0196168Y0012761D01*
X0196215Y0012635D01*
X0196258Y0012508D01*
X0196297Y0012380D01*
X0196333Y0012251D01*
X0196364Y0012121D01*
X0196392Y0011990D01*
X0196416Y0011858D01*
X0196436Y0011725D01*
X0196452Y0011592D01*
X0196464Y0011459D01*
X0196472Y0011325D01*
X0196476Y0011191D01*
X0196476Y0011057D01*
X0196472Y0010923D01*
X0196464Y0010789D01*
X0196452Y0010656D01*
X0196436Y0010523D01*
X0196416Y0010390D01*
X0196392Y0010258D01*
X0196364Y0010127D01*
X0196333Y0009997D01*
X0196297Y0009868D01*
X0196258Y0009740D01*
X0196215Y0009613D01*
X0196168Y0009487D01*
X0196117Y0009363D01*
X0196063Y0009241D01*
X0196005Y0009120D01*
X0195944Y0009001D01*
X0195879Y0008884D01*
X0195810Y0008768D01*
X0195738Y0008655D01*
X0195663Y0008544D01*
X0195585Y0008436D01*
X0195503Y0008330D01*
X0195418Y0008226D01*
X0195331Y0008125D01*
X0195240Y0008026D01*
X0195146Y0007930D01*
X0195050Y0007837D01*
X0194950Y0007747D01*
X0194849Y0007660D01*
X0194744Y0007576D01*
X0194637Y0007495D01*
X0194528Y0007418D01*
X0194417Y0007343D01*
X0194303Y0007272D01*
X0194187Y0007205D01*
X0194070Y0007141D01*
X0193950Y0007080D01*
X0193829Y0007023D01*
X0193706Y0006970D01*
X0193581Y0006920D01*
X0193455Y0006874D01*
X0193328Y0006832D01*
X0193200Y0006794D01*
X0193070Y0006759D01*
X0192940Y0006728D01*
X0192809Y0006702D01*
X0192677Y0006679D01*
X0192544Y0006660D01*
X0192411Y0006645D01*
X0192277Y0006634D01*
X0192143Y0006627D01*
X0192010Y0006624D01*
X0191876Y0006625D01*
X0191742Y0006630D01*
X0191608Y0006639D01*
X0191475Y0006652D01*
X0191342Y0006669D01*
X0191209Y0006690D01*
X0191078Y0006715D01*
X0190947Y0006743D01*
X0190817Y0006776D01*
X0190688Y0006812D01*
X0190560Y0006853D01*
X0190433Y0006897D01*
X0190308Y0006944D01*
X0190185Y0006996D01*
X0190062Y0007051D01*
X0189942Y0007110D01*
X0189823Y0007172D01*
X0189707Y0007238D01*
X0189592Y0007307D01*
X0189479Y0007380D01*
X0189369Y0007456D01*
X0189261Y0007535D01*
X0189155Y0007618D01*
X0189052Y0007703D01*
X0188952Y0007792D01*
X0188854Y0007883D01*
X0188759Y0007978D01*
X0188666Y0008075D01*
X0188577Y0008175D01*
X0188491Y0008277D01*
X0188408Y0008382D01*
X0188328Y0008490D01*
X0188251Y0008600D01*
X0188177Y0008712D01*
X0188107Y0008826D01*
X0188040Y0008942D01*
X0187977Y0009060D01*
X0187917Y0009180D01*
X0187861Y0009302D01*
X0187809Y0009425D01*
X0187760Y0009550D01*
X0187715Y0009676D01*
X0187674Y0009804D01*
X0187637Y0009932D01*
X0187603Y0010062D01*
X0187573Y0010193D01*
X0187548Y0010324D01*
X0187526Y0010456D01*
X0187508Y0010589D01*
X0187494Y0010723D01*
X0187484Y0010856D01*
X0187478Y0010990D01*
X0187476Y0011124D01*
D14*
X0185976Y0011124D02*
X0185978Y0011278D01*
X0185984Y0011433D01*
X0185994Y0011587D01*
X0186008Y0011741D01*
X0186026Y0011894D01*
X0186047Y0012047D01*
X0186073Y0012200D01*
X0186103Y0012351D01*
X0186136Y0012502D01*
X0186174Y0012652D01*
X0186215Y0012801D01*
X0186260Y0012949D01*
X0186309Y0013095D01*
X0186362Y0013241D01*
X0186418Y0013384D01*
X0186478Y0013527D01*
X0186542Y0013667D01*
X0186609Y0013807D01*
X0186680Y0013944D01*
X0186754Y0014079D01*
X0186832Y0014213D01*
X0186913Y0014344D01*
X0186998Y0014473D01*
X0187086Y0014601D01*
X0187177Y0014725D01*
X0187271Y0014848D01*
X0187369Y0014968D01*
X0187469Y0015085D01*
X0187573Y0015200D01*
X0187679Y0015312D01*
X0187788Y0015421D01*
X0187900Y0015527D01*
X0188015Y0015631D01*
X0188132Y0015731D01*
X0188252Y0015829D01*
X0188375Y0015923D01*
X0188499Y0016014D01*
X0188627Y0016102D01*
X0188756Y0016187D01*
X0188887Y0016268D01*
X0189021Y0016346D01*
X0189156Y0016420D01*
X0189293Y0016491D01*
X0189433Y0016558D01*
X0189573Y0016622D01*
X0189716Y0016682D01*
X0189859Y0016738D01*
X0190005Y0016791D01*
X0190151Y0016840D01*
X0190299Y0016885D01*
X0190448Y0016926D01*
X0190598Y0016964D01*
X0190749Y0016997D01*
X0190900Y0017027D01*
X0191053Y0017053D01*
X0191206Y0017074D01*
X0191359Y0017092D01*
X0191513Y0017106D01*
X0191667Y0017116D01*
X0191822Y0017122D01*
X0191976Y0017124D01*
X0192130Y0017122D01*
X0192285Y0017116D01*
X0192439Y0017106D01*
X0192593Y0017092D01*
X0192746Y0017074D01*
X0192899Y0017053D01*
X0193052Y0017027D01*
X0193203Y0016997D01*
X0193354Y0016964D01*
X0193504Y0016926D01*
X0193653Y0016885D01*
X0193801Y0016840D01*
X0193947Y0016791D01*
X0194093Y0016738D01*
X0194236Y0016682D01*
X0194379Y0016622D01*
X0194519Y0016558D01*
X0194659Y0016491D01*
X0194796Y0016420D01*
X0194931Y0016346D01*
X0195065Y0016268D01*
X0195196Y0016187D01*
X0195325Y0016102D01*
X0195453Y0016014D01*
X0195577Y0015923D01*
X0195700Y0015829D01*
X0195820Y0015731D01*
X0195937Y0015631D01*
X0196052Y0015527D01*
X0196164Y0015421D01*
X0196273Y0015312D01*
X0196379Y0015200D01*
X0196483Y0015085D01*
X0196583Y0014968D01*
X0196681Y0014848D01*
X0196775Y0014725D01*
X0196866Y0014601D01*
X0196954Y0014473D01*
X0197039Y0014344D01*
X0197120Y0014213D01*
X0197198Y0014079D01*
X0197272Y0013944D01*
X0197343Y0013807D01*
X0197410Y0013667D01*
X0197474Y0013527D01*
X0197534Y0013384D01*
X0197590Y0013241D01*
X0197643Y0013095D01*
X0197692Y0012949D01*
X0197737Y0012801D01*
X0197778Y0012652D01*
X0197816Y0012502D01*
X0197849Y0012351D01*
X0197879Y0012200D01*
X0197905Y0012047D01*
X0197926Y0011894D01*
X0197944Y0011741D01*
X0197958Y0011587D01*
X0197968Y0011433D01*
X0197974Y0011278D01*
X0197976Y0011124D01*
X0197974Y0010970D01*
X0197968Y0010815D01*
X0197958Y0010661D01*
X0197944Y0010507D01*
X0197926Y0010354D01*
X0197905Y0010201D01*
X0197879Y0010048D01*
X0197849Y0009897D01*
X0197816Y0009746D01*
X0197778Y0009596D01*
X0197737Y0009447D01*
X0197692Y0009299D01*
X0197643Y0009153D01*
X0197590Y0009007D01*
X0197534Y0008864D01*
X0197474Y0008721D01*
X0197410Y0008581D01*
X0197343Y0008441D01*
X0197272Y0008304D01*
X0197198Y0008169D01*
X0197120Y0008035D01*
X0197039Y0007904D01*
X0196954Y0007775D01*
X0196866Y0007647D01*
X0196775Y0007523D01*
X0196681Y0007400D01*
X0196583Y0007280D01*
X0196483Y0007163D01*
X0196379Y0007048D01*
X0196273Y0006936D01*
X0196164Y0006827D01*
X0196052Y0006721D01*
X0195937Y0006617D01*
X0195820Y0006517D01*
X0195700Y0006419D01*
X0195577Y0006325D01*
X0195453Y0006234D01*
X0195325Y0006146D01*
X0195196Y0006061D01*
X0195065Y0005980D01*
X0194931Y0005902D01*
X0194796Y0005828D01*
X0194659Y0005757D01*
X0194519Y0005690D01*
X0194379Y0005626D01*
X0194236Y0005566D01*
X0194093Y0005510D01*
X0193947Y0005457D01*
X0193801Y0005408D01*
X0193653Y0005363D01*
X0193504Y0005322D01*
X0193354Y0005284D01*
X0193203Y0005251D01*
X0193052Y0005221D01*
X0192899Y0005195D01*
X0192746Y0005174D01*
X0192593Y0005156D01*
X0192439Y0005142D01*
X0192285Y0005132D01*
X0192130Y0005126D01*
X0191976Y0005124D01*
X0191822Y0005126D01*
X0191667Y0005132D01*
X0191513Y0005142D01*
X0191359Y0005156D01*
X0191206Y0005174D01*
X0191053Y0005195D01*
X0190900Y0005221D01*
X0190749Y0005251D01*
X0190598Y0005284D01*
X0190448Y0005322D01*
X0190299Y0005363D01*
X0190151Y0005408D01*
X0190005Y0005457D01*
X0189859Y0005510D01*
X0189716Y0005566D01*
X0189573Y0005626D01*
X0189433Y0005690D01*
X0189293Y0005757D01*
X0189156Y0005828D01*
X0189021Y0005902D01*
X0188887Y0005980D01*
X0188756Y0006061D01*
X0188627Y0006146D01*
X0188499Y0006234D01*
X0188375Y0006325D01*
X0188252Y0006419D01*
X0188132Y0006517D01*
X0188015Y0006617D01*
X0187900Y0006721D01*
X0187788Y0006827D01*
X0187679Y0006936D01*
X0187573Y0007048D01*
X0187469Y0007163D01*
X0187369Y0007280D01*
X0187271Y0007400D01*
X0187177Y0007523D01*
X0187086Y0007647D01*
X0186998Y0007775D01*
X0186913Y0007904D01*
X0186832Y0008035D01*
X0186754Y0008169D01*
X0186680Y0008304D01*
X0186609Y0008441D01*
X0186542Y0008581D01*
X0186478Y0008721D01*
X0186418Y0008864D01*
X0186362Y0009007D01*
X0186309Y0009153D01*
X0186260Y0009299D01*
X0186215Y0009447D01*
X0186174Y0009596D01*
X0186136Y0009746D01*
X0186103Y0009897D01*
X0186073Y0010048D01*
X0186047Y0010201D01*
X0186026Y0010354D01*
X0186008Y0010507D01*
X0185994Y0010661D01*
X0185984Y0010815D01*
X0185978Y0010970D01*
X0185976Y0011124D01*
X0034496Y0077266D02*
X0034496Y0080415D01*
X0024654Y0080415D01*
X0024654Y0085140D01*
X0020717Y0077266D02*
X0034496Y0077266D01*
X0004969Y0085140D02*
X0004969Y0100888D01*
X0020717Y0108762D02*
X0034496Y0108762D01*
X0034496Y0105612D01*
X0024654Y0105612D01*
X0024654Y0100888D01*
X0020906Y0113604D02*
X0012906Y0113604D01*
X0013705Y0118604D02*
X0013707Y0118717D01*
X0013713Y0118830D01*
X0013723Y0118942D01*
X0013737Y0119054D01*
X0013755Y0119166D01*
X0013777Y0119277D01*
X0013802Y0119387D01*
X0013832Y0119496D01*
X0013865Y0119604D01*
X0013902Y0119711D01*
X0013943Y0119816D01*
X0013988Y0119920D01*
X0014036Y0120022D01*
X0014088Y0120122D01*
X0014143Y0120221D01*
X0014202Y0120317D01*
X0014264Y0120412D01*
X0014330Y0120504D01*
X0014398Y0120593D01*
X0014470Y0120681D01*
X0014545Y0120765D01*
X0014623Y0120847D01*
X0014703Y0120927D01*
X0014787Y0121003D01*
X0014873Y0121076D01*
X0014961Y0121146D01*
X0015052Y0121213D01*
X0015145Y0121277D01*
X0015241Y0121338D01*
X0015338Y0121395D01*
X0015438Y0121448D01*
X0015539Y0121498D01*
X0015642Y0121545D01*
X0015747Y0121588D01*
X0015853Y0121627D01*
X0015960Y0121662D01*
X0016068Y0121693D01*
X0016178Y0121721D01*
X0016288Y0121745D01*
X0016400Y0121765D01*
X0016512Y0121781D01*
X0016624Y0121793D01*
X0016737Y0121801D01*
X0016850Y0121805D01*
X0016962Y0121805D01*
X0017075Y0121801D01*
X0017188Y0121793D01*
X0017300Y0121781D01*
X0017412Y0121765D01*
X0017524Y0121745D01*
X0017634Y0121721D01*
X0017744Y0121693D01*
X0017852Y0121662D01*
X0017959Y0121627D01*
X0018065Y0121588D01*
X0018170Y0121545D01*
X0018273Y0121498D01*
X0018374Y0121448D01*
X0018474Y0121395D01*
X0018571Y0121338D01*
X0018667Y0121277D01*
X0018760Y0121213D01*
X0018851Y0121146D01*
X0018939Y0121076D01*
X0019025Y0121003D01*
X0019109Y0120927D01*
X0019189Y0120847D01*
X0019267Y0120765D01*
X0019342Y0120681D01*
X0019414Y0120593D01*
X0019482Y0120504D01*
X0019548Y0120412D01*
X0019610Y0120317D01*
X0019669Y0120221D01*
X0019724Y0120122D01*
X0019776Y0120022D01*
X0019824Y0119920D01*
X0019869Y0119816D01*
X0019910Y0119711D01*
X0019947Y0119604D01*
X0019980Y0119496D01*
X0020010Y0119387D01*
X0020035Y0119277D01*
X0020057Y0119166D01*
X0020075Y0119054D01*
X0020089Y0118942D01*
X0020099Y0118830D01*
X0020105Y0118717D01*
X0020107Y0118604D01*
X0020105Y0118491D01*
X0020099Y0118378D01*
X0020089Y0118266D01*
X0020075Y0118154D01*
X0020057Y0118042D01*
X0020035Y0117931D01*
X0020010Y0117821D01*
X0019980Y0117712D01*
X0019947Y0117604D01*
X0019910Y0117497D01*
X0019869Y0117392D01*
X0019824Y0117288D01*
X0019776Y0117186D01*
X0019724Y0117086D01*
X0019669Y0116987D01*
X0019610Y0116891D01*
X0019548Y0116796D01*
X0019482Y0116704D01*
X0019414Y0116615D01*
X0019342Y0116527D01*
X0019267Y0116443D01*
X0019189Y0116361D01*
X0019109Y0116281D01*
X0019025Y0116205D01*
X0018939Y0116132D01*
X0018851Y0116062D01*
X0018760Y0115995D01*
X0018667Y0115931D01*
X0018571Y0115870D01*
X0018474Y0115813D01*
X0018374Y0115760D01*
X0018273Y0115710D01*
X0018170Y0115663D01*
X0018065Y0115620D01*
X0017959Y0115581D01*
X0017852Y0115546D01*
X0017744Y0115515D01*
X0017634Y0115487D01*
X0017524Y0115463D01*
X0017412Y0115443D01*
X0017300Y0115427D01*
X0017188Y0115415D01*
X0017075Y0115407D01*
X0016962Y0115403D01*
X0016850Y0115403D01*
X0016737Y0115407D01*
X0016624Y0115415D01*
X0016512Y0115427D01*
X0016400Y0115443D01*
X0016288Y0115463D01*
X0016178Y0115487D01*
X0016068Y0115515D01*
X0015960Y0115546D01*
X0015853Y0115581D01*
X0015747Y0115620D01*
X0015642Y0115663D01*
X0015539Y0115710D01*
X0015438Y0115760D01*
X0015338Y0115813D01*
X0015241Y0115870D01*
X0015145Y0115931D01*
X0015052Y0115995D01*
X0014961Y0116062D01*
X0014873Y0116132D01*
X0014787Y0116205D01*
X0014703Y0116281D01*
X0014623Y0116361D01*
X0014545Y0116443D01*
X0014470Y0116527D01*
X0014398Y0116615D01*
X0014330Y0116704D01*
X0014264Y0116796D01*
X0014202Y0116891D01*
X0014143Y0116987D01*
X0014088Y0117086D01*
X0014036Y0117186D01*
X0013988Y0117288D01*
X0013943Y0117392D01*
X0013902Y0117497D01*
X0013865Y0117604D01*
X0013832Y0117712D01*
X0013802Y0117821D01*
X0013777Y0117931D01*
X0013755Y0118042D01*
X0013737Y0118154D01*
X0013723Y0118266D01*
X0013713Y0118378D01*
X0013707Y0118491D01*
X0013705Y0118604D01*
X0012906Y0123604D02*
X0020906Y0123604D01*
X0004874Y0133171D02*
X0004876Y0133325D01*
X0004882Y0133480D01*
X0004892Y0133634D01*
X0004906Y0133788D01*
X0004924Y0133941D01*
X0004945Y0134094D01*
X0004971Y0134247D01*
X0005001Y0134398D01*
X0005034Y0134549D01*
X0005072Y0134699D01*
X0005113Y0134848D01*
X0005158Y0134996D01*
X0005207Y0135142D01*
X0005260Y0135288D01*
X0005316Y0135431D01*
X0005376Y0135574D01*
X0005440Y0135714D01*
X0005507Y0135854D01*
X0005578Y0135991D01*
X0005652Y0136126D01*
X0005730Y0136260D01*
X0005811Y0136391D01*
X0005896Y0136520D01*
X0005984Y0136648D01*
X0006075Y0136772D01*
X0006169Y0136895D01*
X0006267Y0137015D01*
X0006367Y0137132D01*
X0006471Y0137247D01*
X0006577Y0137359D01*
X0006686Y0137468D01*
X0006798Y0137574D01*
X0006913Y0137678D01*
X0007030Y0137778D01*
X0007150Y0137876D01*
X0007273Y0137970D01*
X0007397Y0138061D01*
X0007525Y0138149D01*
X0007654Y0138234D01*
X0007785Y0138315D01*
X0007919Y0138393D01*
X0008054Y0138467D01*
X0008191Y0138538D01*
X0008331Y0138605D01*
X0008471Y0138669D01*
X0008614Y0138729D01*
X0008757Y0138785D01*
X0008903Y0138838D01*
X0009049Y0138887D01*
X0009197Y0138932D01*
X0009346Y0138973D01*
X0009496Y0139011D01*
X0009647Y0139044D01*
X0009798Y0139074D01*
X0009951Y0139100D01*
X0010104Y0139121D01*
X0010257Y0139139D01*
X0010411Y0139153D01*
X0010565Y0139163D01*
X0010720Y0139169D01*
X0010874Y0139171D01*
X0011028Y0139169D01*
X0011183Y0139163D01*
X0011337Y0139153D01*
X0011491Y0139139D01*
X0011644Y0139121D01*
X0011797Y0139100D01*
X0011950Y0139074D01*
X0012101Y0139044D01*
X0012252Y0139011D01*
X0012402Y0138973D01*
X0012551Y0138932D01*
X0012699Y0138887D01*
X0012845Y0138838D01*
X0012991Y0138785D01*
X0013134Y0138729D01*
X0013277Y0138669D01*
X0013417Y0138605D01*
X0013557Y0138538D01*
X0013694Y0138467D01*
X0013829Y0138393D01*
X0013963Y0138315D01*
X0014094Y0138234D01*
X0014223Y0138149D01*
X0014351Y0138061D01*
X0014475Y0137970D01*
X0014598Y0137876D01*
X0014718Y0137778D01*
X0014835Y0137678D01*
X0014950Y0137574D01*
X0015062Y0137468D01*
X0015171Y0137359D01*
X0015277Y0137247D01*
X0015381Y0137132D01*
X0015481Y0137015D01*
X0015579Y0136895D01*
X0015673Y0136772D01*
X0015764Y0136648D01*
X0015852Y0136520D01*
X0015937Y0136391D01*
X0016018Y0136260D01*
X0016096Y0136126D01*
X0016170Y0135991D01*
X0016241Y0135854D01*
X0016308Y0135714D01*
X0016372Y0135574D01*
X0016432Y0135431D01*
X0016488Y0135288D01*
X0016541Y0135142D01*
X0016590Y0134996D01*
X0016635Y0134848D01*
X0016676Y0134699D01*
X0016714Y0134549D01*
X0016747Y0134398D01*
X0016777Y0134247D01*
X0016803Y0134094D01*
X0016824Y0133941D01*
X0016842Y0133788D01*
X0016856Y0133634D01*
X0016866Y0133480D01*
X0016872Y0133325D01*
X0016874Y0133171D01*
X0016872Y0133017D01*
X0016866Y0132862D01*
X0016856Y0132708D01*
X0016842Y0132554D01*
X0016824Y0132401D01*
X0016803Y0132248D01*
X0016777Y0132095D01*
X0016747Y0131944D01*
X0016714Y0131793D01*
X0016676Y0131643D01*
X0016635Y0131494D01*
X0016590Y0131346D01*
X0016541Y0131200D01*
X0016488Y0131054D01*
X0016432Y0130911D01*
X0016372Y0130768D01*
X0016308Y0130628D01*
X0016241Y0130488D01*
X0016170Y0130351D01*
X0016096Y0130216D01*
X0016018Y0130082D01*
X0015937Y0129951D01*
X0015852Y0129822D01*
X0015764Y0129694D01*
X0015673Y0129570D01*
X0015579Y0129447D01*
X0015481Y0129327D01*
X0015381Y0129210D01*
X0015277Y0129095D01*
X0015171Y0128983D01*
X0015062Y0128874D01*
X0014950Y0128768D01*
X0014835Y0128664D01*
X0014718Y0128564D01*
X0014598Y0128466D01*
X0014475Y0128372D01*
X0014351Y0128281D01*
X0014223Y0128193D01*
X0014094Y0128108D01*
X0013963Y0128027D01*
X0013829Y0127949D01*
X0013694Y0127875D01*
X0013557Y0127804D01*
X0013417Y0127737D01*
X0013277Y0127673D01*
X0013134Y0127613D01*
X0012991Y0127557D01*
X0012845Y0127504D01*
X0012699Y0127455D01*
X0012551Y0127410D01*
X0012402Y0127369D01*
X0012252Y0127331D01*
X0012101Y0127298D01*
X0011950Y0127268D01*
X0011797Y0127242D01*
X0011644Y0127221D01*
X0011491Y0127203D01*
X0011337Y0127189D01*
X0011183Y0127179D01*
X0011028Y0127173D01*
X0010874Y0127171D01*
X0010720Y0127173D01*
X0010565Y0127179D01*
X0010411Y0127189D01*
X0010257Y0127203D01*
X0010104Y0127221D01*
X0009951Y0127242D01*
X0009798Y0127268D01*
X0009647Y0127298D01*
X0009496Y0127331D01*
X0009346Y0127369D01*
X0009197Y0127410D01*
X0009049Y0127455D01*
X0008903Y0127504D01*
X0008757Y0127557D01*
X0008614Y0127613D01*
X0008471Y0127673D01*
X0008331Y0127737D01*
X0008191Y0127804D01*
X0008054Y0127875D01*
X0007919Y0127949D01*
X0007785Y0128027D01*
X0007654Y0128108D01*
X0007525Y0128193D01*
X0007397Y0128281D01*
X0007273Y0128372D01*
X0007150Y0128466D01*
X0007030Y0128564D01*
X0006913Y0128664D01*
X0006798Y0128768D01*
X0006686Y0128874D01*
X0006577Y0128983D01*
X0006471Y0129095D01*
X0006367Y0129210D01*
X0006267Y0129327D01*
X0006169Y0129447D01*
X0006075Y0129570D01*
X0005984Y0129694D01*
X0005896Y0129822D01*
X0005811Y0129951D01*
X0005730Y0130082D01*
X0005652Y0130216D01*
X0005578Y0130351D01*
X0005507Y0130488D01*
X0005440Y0130628D01*
X0005376Y0130768D01*
X0005316Y0130911D01*
X0005260Y0131054D01*
X0005207Y0131200D01*
X0005158Y0131346D01*
X0005113Y0131494D01*
X0005072Y0131643D01*
X0005034Y0131793D01*
X0005001Y0131944D01*
X0004971Y0132095D01*
X0004945Y0132248D01*
X0004924Y0132401D01*
X0004906Y0132554D01*
X0004892Y0132708D01*
X0004882Y0132862D01*
X0004876Y0133017D01*
X0004874Y0133171D01*
X0185976Y0133171D02*
X0185978Y0133325D01*
X0185984Y0133480D01*
X0185994Y0133634D01*
X0186008Y0133788D01*
X0186026Y0133941D01*
X0186047Y0134094D01*
X0186073Y0134247D01*
X0186103Y0134398D01*
X0186136Y0134549D01*
X0186174Y0134699D01*
X0186215Y0134848D01*
X0186260Y0134996D01*
X0186309Y0135142D01*
X0186362Y0135288D01*
X0186418Y0135431D01*
X0186478Y0135574D01*
X0186542Y0135714D01*
X0186609Y0135854D01*
X0186680Y0135991D01*
X0186754Y0136126D01*
X0186832Y0136260D01*
X0186913Y0136391D01*
X0186998Y0136520D01*
X0187086Y0136648D01*
X0187177Y0136772D01*
X0187271Y0136895D01*
X0187369Y0137015D01*
X0187469Y0137132D01*
X0187573Y0137247D01*
X0187679Y0137359D01*
X0187788Y0137468D01*
X0187900Y0137574D01*
X0188015Y0137678D01*
X0188132Y0137778D01*
X0188252Y0137876D01*
X0188375Y0137970D01*
X0188499Y0138061D01*
X0188627Y0138149D01*
X0188756Y0138234D01*
X0188887Y0138315D01*
X0189021Y0138393D01*
X0189156Y0138467D01*
X0189293Y0138538D01*
X0189433Y0138605D01*
X0189573Y0138669D01*
X0189716Y0138729D01*
X0189859Y0138785D01*
X0190005Y0138838D01*
X0190151Y0138887D01*
X0190299Y0138932D01*
X0190448Y0138973D01*
X0190598Y0139011D01*
X0190749Y0139044D01*
X0190900Y0139074D01*
X0191053Y0139100D01*
X0191206Y0139121D01*
X0191359Y0139139D01*
X0191513Y0139153D01*
X0191667Y0139163D01*
X0191822Y0139169D01*
X0191976Y0139171D01*
X0192130Y0139169D01*
X0192285Y0139163D01*
X0192439Y0139153D01*
X0192593Y0139139D01*
X0192746Y0139121D01*
X0192899Y0139100D01*
X0193052Y0139074D01*
X0193203Y0139044D01*
X0193354Y0139011D01*
X0193504Y0138973D01*
X0193653Y0138932D01*
X0193801Y0138887D01*
X0193947Y0138838D01*
X0194093Y0138785D01*
X0194236Y0138729D01*
X0194379Y0138669D01*
X0194519Y0138605D01*
X0194659Y0138538D01*
X0194796Y0138467D01*
X0194931Y0138393D01*
X0195065Y0138315D01*
X0195196Y0138234D01*
X0195325Y0138149D01*
X0195453Y0138061D01*
X0195577Y0137970D01*
X0195700Y0137876D01*
X0195820Y0137778D01*
X0195937Y0137678D01*
X0196052Y0137574D01*
X0196164Y0137468D01*
X0196273Y0137359D01*
X0196379Y0137247D01*
X0196483Y0137132D01*
X0196583Y0137015D01*
X0196681Y0136895D01*
X0196775Y0136772D01*
X0196866Y0136648D01*
X0196954Y0136520D01*
X0197039Y0136391D01*
X0197120Y0136260D01*
X0197198Y0136126D01*
X0197272Y0135991D01*
X0197343Y0135854D01*
X0197410Y0135714D01*
X0197474Y0135574D01*
X0197534Y0135431D01*
X0197590Y0135288D01*
X0197643Y0135142D01*
X0197692Y0134996D01*
X0197737Y0134848D01*
X0197778Y0134699D01*
X0197816Y0134549D01*
X0197849Y0134398D01*
X0197879Y0134247D01*
X0197905Y0134094D01*
X0197926Y0133941D01*
X0197944Y0133788D01*
X0197958Y0133634D01*
X0197968Y0133480D01*
X0197974Y0133325D01*
X0197976Y0133171D01*
X0197974Y0133017D01*
X0197968Y0132862D01*
X0197958Y0132708D01*
X0197944Y0132554D01*
X0197926Y0132401D01*
X0197905Y0132248D01*
X0197879Y0132095D01*
X0197849Y0131944D01*
X0197816Y0131793D01*
X0197778Y0131643D01*
X0197737Y0131494D01*
X0197692Y0131346D01*
X0197643Y0131200D01*
X0197590Y0131054D01*
X0197534Y0130911D01*
X0197474Y0130768D01*
X0197410Y0130628D01*
X0197343Y0130488D01*
X0197272Y0130351D01*
X0197198Y0130216D01*
X0197120Y0130082D01*
X0197039Y0129951D01*
X0196954Y0129822D01*
X0196866Y0129694D01*
X0196775Y0129570D01*
X0196681Y0129447D01*
X0196583Y0129327D01*
X0196483Y0129210D01*
X0196379Y0129095D01*
X0196273Y0128983D01*
X0196164Y0128874D01*
X0196052Y0128768D01*
X0195937Y0128664D01*
X0195820Y0128564D01*
X0195700Y0128466D01*
X0195577Y0128372D01*
X0195453Y0128281D01*
X0195325Y0128193D01*
X0195196Y0128108D01*
X0195065Y0128027D01*
X0194931Y0127949D01*
X0194796Y0127875D01*
X0194659Y0127804D01*
X0194519Y0127737D01*
X0194379Y0127673D01*
X0194236Y0127613D01*
X0194093Y0127557D01*
X0193947Y0127504D01*
X0193801Y0127455D01*
X0193653Y0127410D01*
X0193504Y0127369D01*
X0193354Y0127331D01*
X0193203Y0127298D01*
X0193052Y0127268D01*
X0192899Y0127242D01*
X0192746Y0127221D01*
X0192593Y0127203D01*
X0192439Y0127189D01*
X0192285Y0127179D01*
X0192130Y0127173D01*
X0191976Y0127171D01*
X0191822Y0127173D01*
X0191667Y0127179D01*
X0191513Y0127189D01*
X0191359Y0127203D01*
X0191206Y0127221D01*
X0191053Y0127242D01*
X0190900Y0127268D01*
X0190749Y0127298D01*
X0190598Y0127331D01*
X0190448Y0127369D01*
X0190299Y0127410D01*
X0190151Y0127455D01*
X0190005Y0127504D01*
X0189859Y0127557D01*
X0189716Y0127613D01*
X0189573Y0127673D01*
X0189433Y0127737D01*
X0189293Y0127804D01*
X0189156Y0127875D01*
X0189021Y0127949D01*
X0188887Y0128027D01*
X0188756Y0128108D01*
X0188627Y0128193D01*
X0188499Y0128281D01*
X0188375Y0128372D01*
X0188252Y0128466D01*
X0188132Y0128564D01*
X0188015Y0128664D01*
X0187900Y0128768D01*
X0187788Y0128874D01*
X0187679Y0128983D01*
X0187573Y0129095D01*
X0187469Y0129210D01*
X0187369Y0129327D01*
X0187271Y0129447D01*
X0187177Y0129570D01*
X0187086Y0129694D01*
X0186998Y0129822D01*
X0186913Y0129951D01*
X0186832Y0130082D01*
X0186754Y0130216D01*
X0186680Y0130351D01*
X0186609Y0130488D01*
X0186542Y0130628D01*
X0186478Y0130768D01*
X0186418Y0130911D01*
X0186362Y0131054D01*
X0186309Y0131200D01*
X0186260Y0131346D01*
X0186215Y0131494D01*
X0186174Y0131643D01*
X0186136Y0131793D01*
X0186103Y0131944D01*
X0186073Y0132095D01*
X0186047Y0132248D01*
X0186026Y0132401D01*
X0186008Y0132554D01*
X0185994Y0132708D01*
X0185984Y0132862D01*
X0185978Y0133017D01*
X0185976Y0133171D01*
D15*
X0156406Y0126866D02*
X0156406Y0124797D01*
X0156406Y0125831D02*
X0153304Y0125831D01*
X0154338Y0124797D01*
X0156406Y0123643D02*
X0156406Y0121574D01*
X0156406Y0122609D02*
X0153304Y0122609D01*
X0154338Y0121574D01*
X0153821Y0120420D02*
X0153304Y0119903D01*
X0153304Y0118352D01*
X0156406Y0118352D01*
X0156406Y0119903D01*
X0155889Y0120420D01*
X0153821Y0120420D01*
X0146800Y0121181D02*
X0146800Y0123249D01*
X0146800Y0122215D02*
X0143697Y0122215D01*
X0144732Y0121181D01*
X0144214Y0120026D02*
X0143697Y0119509D01*
X0143697Y0117958D01*
X0146800Y0117958D01*
X0146800Y0119509D01*
X0146283Y0120026D01*
X0144214Y0120026D01*
X0144214Y0124403D02*
X0143697Y0124920D01*
X0143697Y0125955D01*
X0144214Y0126472D01*
X0144732Y0126472D01*
X0146800Y0124403D01*
X0146800Y0126472D01*
X0147238Y0111410D02*
X0147238Y0108607D01*
X0146304Y0108607D02*
X0148172Y0108607D01*
X0149251Y0108607D02*
X0151119Y0108607D01*
X0150185Y0108607D02*
X0150185Y0111410D01*
X0149251Y0110476D01*
X0147238Y0111410D02*
X0146304Y0110476D01*
X0145226Y0110943D02*
X0144759Y0111410D01*
X0143357Y0111410D01*
X0143357Y0108607D01*
X0143357Y0109542D02*
X0144759Y0109542D01*
X0145226Y0110009D01*
X0145226Y0110943D01*
X0144292Y0109542D02*
X0145226Y0108607D01*
X0154917Y0108682D02*
X0154917Y0111485D01*
X0156318Y0111485D01*
X0156785Y0111018D01*
X0156785Y0110083D01*
X0156318Y0109616D01*
X0154917Y0109616D01*
X0155851Y0109616D02*
X0156785Y0108682D01*
X0157863Y0108682D02*
X0159731Y0108682D01*
X0158797Y0108682D02*
X0158797Y0111485D01*
X0157863Y0110551D01*
X0160810Y0110083D02*
X0160810Y0109149D01*
X0161277Y0108682D01*
X0162211Y0108682D01*
X0162678Y0109149D01*
X0162678Y0109616D01*
X0162211Y0110083D01*
X0160810Y0110083D01*
X0161744Y0111018D01*
X0162678Y0111485D01*
X0166267Y0111591D02*
X0166267Y0108789D01*
X0166267Y0109723D02*
X0167668Y0109723D01*
X0168135Y0110190D01*
X0168135Y0111124D01*
X0167668Y0111591D01*
X0166267Y0111591D01*
X0167201Y0109723D02*
X0168135Y0108789D01*
X0169213Y0108789D02*
X0171082Y0108789D01*
X0170148Y0108789D02*
X0170148Y0111591D01*
X0169213Y0110657D01*
X0172160Y0110190D02*
X0172160Y0111591D01*
X0174028Y0111591D01*
X0173561Y0110657D02*
X0174028Y0110190D01*
X0174028Y0109256D01*
X0173561Y0108789D01*
X0172627Y0108789D01*
X0172160Y0109256D01*
X0172160Y0110190D02*
X0173094Y0110657D01*
X0173561Y0110657D01*
X0178917Y0109801D02*
X0180318Y0109801D01*
X0180785Y0110269D01*
X0180785Y0111203D01*
X0180318Y0111670D01*
X0178917Y0111670D01*
X0178917Y0108867D01*
X0179851Y0109801D02*
X0180785Y0108867D01*
X0181863Y0108867D02*
X0183731Y0108867D01*
X0182797Y0108867D02*
X0182797Y0111670D01*
X0181863Y0110736D01*
X0184810Y0111203D02*
X0185277Y0111670D01*
X0186211Y0111670D01*
X0186678Y0111203D01*
X0186678Y0110736D01*
X0184810Y0108867D01*
X0186678Y0108867D01*
X0103799Y0117071D02*
X0103799Y0099571D01*
X0092799Y0099571D01*
X0092799Y0117071D01*
X0103799Y0117071D01*
X0102098Y0098453D02*
X0102098Y0095651D01*
X0101164Y0095651D02*
X0103032Y0095651D01*
X0101164Y0097519D02*
X0102098Y0098453D01*
X0099152Y0098453D02*
X0099152Y0095651D01*
X0100086Y0095651D02*
X0098217Y0095651D01*
X0097139Y0096118D02*
X0096672Y0095651D01*
X0095738Y0095651D01*
X0095271Y0096118D01*
X0095271Y0097986D01*
X0095738Y0098453D01*
X0096672Y0098453D01*
X0097139Y0097986D01*
X0098217Y0097519D02*
X0099152Y0098453D01*
X0092684Y0096832D02*
X0090816Y0096832D01*
X0092217Y0098233D01*
X0092217Y0095430D01*
X0089738Y0095897D02*
X0089270Y0095430D01*
X0088336Y0095430D01*
X0087869Y0095897D01*
X0087869Y0097766D01*
X0088336Y0098233D01*
X0089270Y0098233D01*
X0089738Y0097766D01*
X0085568Y0097620D02*
X0085101Y0098087D01*
X0084167Y0098087D01*
X0083700Y0097620D01*
X0082621Y0097620D02*
X0082154Y0098087D01*
X0081220Y0098087D01*
X0080753Y0097620D01*
X0080753Y0095752D01*
X0081220Y0095285D01*
X0082154Y0095285D01*
X0082621Y0095752D01*
X0083700Y0095285D02*
X0085568Y0097153D01*
X0085568Y0097620D01*
X0085568Y0095285D02*
X0083700Y0095285D01*
X0083134Y0086563D02*
X0081733Y0085162D01*
X0083601Y0085162D01*
X0083134Y0083761D02*
X0083134Y0086563D01*
X0080655Y0086096D02*
X0080655Y0084228D01*
X0080188Y0083761D01*
X0079254Y0083761D01*
X0078787Y0084228D01*
X0078787Y0086096D01*
X0079254Y0086563D01*
X0080188Y0086563D01*
X0080655Y0086096D01*
X0079721Y0084695D02*
X0080655Y0083761D01*
X0080459Y0075563D02*
X0080927Y0075096D01*
X0080927Y0073228D01*
X0080459Y0072761D01*
X0079525Y0072761D01*
X0079058Y0073228D01*
X0079058Y0075096D01*
X0079525Y0075563D01*
X0080459Y0075563D01*
X0082005Y0075096D02*
X0082472Y0075563D01*
X0083406Y0075563D01*
X0083873Y0075096D01*
X0083873Y0074629D01*
X0083406Y0074162D01*
X0083873Y0073695D01*
X0083873Y0073228D01*
X0083406Y0072761D01*
X0082472Y0072761D01*
X0082005Y0073228D01*
X0080927Y0072761D02*
X0079992Y0073695D01*
X0082939Y0074162D02*
X0083406Y0074162D01*
X0084034Y0065012D02*
X0082166Y0065012D01*
X0082166Y0063611D01*
X0083100Y0064078D01*
X0083567Y0064078D01*
X0084034Y0063611D01*
X0084034Y0062677D01*
X0083567Y0062210D01*
X0082633Y0062210D01*
X0082166Y0062677D01*
X0081088Y0062677D02*
X0080621Y0062210D01*
X0079687Y0062210D01*
X0079220Y0062677D01*
X0079220Y0064545D01*
X0079687Y0065012D01*
X0080621Y0065012D01*
X0081088Y0064545D01*
X0090420Y0056977D02*
X0091822Y0056977D01*
X0092289Y0056510D01*
X0092289Y0055576D01*
X0091822Y0055109D01*
X0090420Y0055109D01*
X0090420Y0054174D02*
X0090420Y0056977D01*
X0091355Y0055109D02*
X0092289Y0054174D01*
X0093367Y0054174D02*
X0093367Y0054641D01*
X0095235Y0056510D01*
X0095235Y0056977D01*
X0093367Y0056977D01*
X0094596Y0051174D02*
X0094596Y0048371D01*
X0093662Y0048371D02*
X0095531Y0048371D01*
X0096609Y0048371D02*
X0096609Y0048838D01*
X0098477Y0050707D01*
X0098477Y0051174D01*
X0096609Y0051174D01*
X0094596Y0051174D02*
X0093662Y0050240D01*
X0092584Y0050707D02*
X0092584Y0049773D01*
X0092117Y0049305D01*
X0090716Y0049305D01*
X0090716Y0048371D02*
X0090716Y0051174D01*
X0092117Y0051174D01*
X0092584Y0050707D01*
X0091650Y0049305D02*
X0092584Y0048371D01*
X0092034Y0045595D02*
X0090633Y0045595D01*
X0090633Y0042793D01*
X0090633Y0043727D02*
X0092034Y0043727D01*
X0092501Y0044194D01*
X0092501Y0045128D01*
X0092034Y0045595D01*
X0093580Y0044661D02*
X0094514Y0045595D01*
X0094514Y0042793D01*
X0093580Y0042793D02*
X0095448Y0042793D01*
X0096526Y0043260D02*
X0098394Y0045128D01*
X0098394Y0043260D01*
X0097927Y0042793D01*
X0096993Y0042793D01*
X0096526Y0043260D01*
X0096526Y0045128D01*
X0096993Y0045595D01*
X0097927Y0045595D01*
X0098394Y0045128D01*
X0097693Y0040420D02*
X0096292Y0040420D01*
X0096292Y0037617D01*
X0096292Y0038551D02*
X0097693Y0038551D01*
X0098160Y0039019D01*
X0098160Y0039953D01*
X0097693Y0040420D01*
X0097226Y0038551D02*
X0098160Y0037617D01*
X0095214Y0037617D02*
X0095214Y0040420D01*
X0093345Y0040420D02*
X0093345Y0037617D01*
X0094279Y0038551D01*
X0095214Y0037617D01*
X0092267Y0039019D02*
X0091800Y0038551D01*
X0090399Y0038551D01*
X0090399Y0037617D02*
X0090399Y0040420D01*
X0091800Y0040420D01*
X0092267Y0039953D01*
X0092267Y0039019D01*
X0092501Y0042793D02*
X0091567Y0043727D01*
X0090543Y0035061D02*
X0090543Y0032259D01*
X0092411Y0032259D01*
X0066929Y0034039D02*
X0065061Y0034039D01*
X0066462Y0035440D01*
X0066462Y0032638D01*
X0063982Y0032638D02*
X0062114Y0032638D01*
X0063048Y0032638D02*
X0063048Y0035440D01*
X0062114Y0034506D01*
X0061036Y0034039D02*
X0060569Y0033572D01*
X0059168Y0033572D01*
X0060102Y0033572D02*
X0061036Y0032638D01*
X0061036Y0034039D02*
X0061036Y0034973D01*
X0060569Y0035440D01*
X0059168Y0035440D01*
X0059168Y0032638D01*
X0061643Y0038293D02*
X0061643Y0041095D01*
X0063044Y0041095D01*
X0063511Y0040628D01*
X0063511Y0039694D01*
X0063044Y0039227D01*
X0061643Y0039227D01*
X0062577Y0039227D02*
X0063511Y0038293D01*
X0064589Y0038760D02*
X0065056Y0038293D01*
X0065991Y0038293D01*
X0066458Y0038760D01*
X0066458Y0039694D01*
X0065991Y0040161D01*
X0065524Y0040161D01*
X0064589Y0039694D01*
X0064589Y0041095D01*
X0066458Y0041095D01*
X0062800Y0044631D02*
X0062800Y0045665D01*
X0062283Y0046182D01*
X0062800Y0047336D02*
X0059697Y0047336D01*
X0060214Y0046182D02*
X0059697Y0045665D01*
X0059697Y0044631D01*
X0060214Y0044113D01*
X0062283Y0044113D01*
X0062800Y0044631D01*
X0061249Y0047336D02*
X0061249Y0049405D01*
X0062283Y0050559D02*
X0062800Y0051076D01*
X0062800Y0052110D01*
X0062283Y0052627D01*
X0061766Y0052627D01*
X0061249Y0052110D01*
X0061249Y0051593D01*
X0061249Y0052110D02*
X0060732Y0052627D01*
X0060214Y0052627D01*
X0059697Y0052110D01*
X0059697Y0051076D01*
X0060214Y0050559D01*
X0059697Y0049405D02*
X0062800Y0049405D01*
X0061249Y0053782D02*
X0061249Y0055850D01*
X0062283Y0057004D02*
X0060214Y0057004D01*
X0059697Y0057522D01*
X0059697Y0058556D01*
X0060214Y0059073D01*
X0062283Y0057004D01*
X0062800Y0057522D01*
X0062800Y0058556D01*
X0062283Y0059073D01*
X0060214Y0059073D01*
X0060214Y0060227D02*
X0062283Y0060227D01*
X0062800Y0060744D01*
X0062800Y0061779D01*
X0062283Y0062296D01*
X0061249Y0062296D01*
X0061249Y0061261D01*
X0060214Y0060227D02*
X0059697Y0060744D01*
X0059697Y0061779D01*
X0060214Y0062296D01*
X0059697Y0055333D02*
X0061249Y0053782D01*
X0062800Y0055333D02*
X0059697Y0055333D01*
X0055696Y0082230D02*
X0053828Y0082230D01*
X0055696Y0084098D01*
X0055696Y0084565D01*
X0055229Y0085032D01*
X0054295Y0085032D01*
X0053828Y0084565D01*
X0052749Y0084565D02*
X0052749Y0083631D01*
X0052282Y0083164D01*
X0050881Y0083164D01*
X0051815Y0083164D02*
X0052749Y0082230D01*
X0050881Y0082230D02*
X0050881Y0085032D01*
X0052282Y0085032D01*
X0052749Y0084565D01*
X0052895Y0088131D02*
X0051961Y0089065D01*
X0052428Y0089065D02*
X0051027Y0089065D01*
X0051027Y0088131D02*
X0051027Y0090933D01*
X0052428Y0090933D01*
X0052895Y0090466D01*
X0052895Y0089532D01*
X0052428Y0089065D01*
X0053973Y0088131D02*
X0055842Y0088131D01*
X0054907Y0088131D02*
X0054907Y0090933D01*
X0053973Y0089999D01*
X0056920Y0089999D02*
X0056920Y0090466D01*
X0057387Y0090933D01*
X0058321Y0090933D01*
X0058788Y0090466D01*
X0058788Y0089999D01*
X0058321Y0089532D01*
X0057387Y0089532D01*
X0056920Y0089999D01*
X0057387Y0089532D02*
X0056920Y0089065D01*
X0056920Y0088598D01*
X0057387Y0088131D01*
X0058321Y0088131D01*
X0058788Y0088598D01*
X0058788Y0089065D01*
X0058321Y0089532D01*
X0059070Y0085170D02*
X0060471Y0085170D01*
X0060938Y0084703D01*
X0060938Y0083769D01*
X0060471Y0083302D01*
X0059070Y0083302D01*
X0060004Y0083302D02*
X0060938Y0082367D01*
X0062017Y0082834D02*
X0062484Y0082367D01*
X0063418Y0082367D01*
X0063885Y0082834D01*
X0063885Y0083302D01*
X0063418Y0083769D01*
X0062951Y0083769D01*
X0063418Y0083769D02*
X0063885Y0084236D01*
X0063885Y0084703D01*
X0063418Y0085170D01*
X0062484Y0085170D01*
X0062017Y0084703D01*
X0059070Y0085170D02*
X0059070Y0082367D01*
X0059256Y0103348D02*
X0058322Y0103348D01*
X0057855Y0103815D01*
X0056777Y0103815D02*
X0056310Y0103348D01*
X0055376Y0103348D01*
X0054909Y0103815D01*
X0054909Y0105683D01*
X0055376Y0106150D01*
X0056310Y0106150D01*
X0056777Y0105683D01*
X0057855Y0105683D02*
X0058322Y0106150D01*
X0059256Y0106150D01*
X0059723Y0105683D01*
X0059723Y0105216D01*
X0059256Y0104749D01*
X0059723Y0104282D01*
X0059723Y0103815D01*
X0059256Y0103348D01*
X0059256Y0104749D02*
X0058789Y0104749D01*
X0058349Y0113344D02*
X0056481Y0113344D01*
X0057415Y0113344D02*
X0057415Y0116146D01*
X0056481Y0115212D01*
X0055403Y0115679D02*
X0055403Y0113811D01*
X0054936Y0113344D01*
X0053535Y0113344D01*
X0053535Y0116146D01*
X0054936Y0116146D01*
X0055403Y0115679D01*
X0055552Y0123316D02*
X0057420Y0125184D01*
X0057420Y0125651D01*
X0056953Y0126119D01*
X0056019Y0126119D01*
X0055552Y0125651D01*
X0054474Y0125651D02*
X0054474Y0124717D01*
X0054007Y0124250D01*
X0052606Y0124250D01*
X0053540Y0124250D02*
X0054474Y0123316D01*
X0055552Y0123316D02*
X0057420Y0123316D01*
X0058499Y0123316D02*
X0060367Y0123316D01*
X0059433Y0123316D02*
X0059433Y0126119D01*
X0058499Y0125184D01*
X0054474Y0125651D02*
X0054007Y0126119D01*
X0052606Y0126119D01*
X0052606Y0123316D01*
X0043881Y0120193D02*
X0042947Y0119726D01*
X0042013Y0118792D01*
X0043414Y0118792D01*
X0043881Y0118325D01*
X0043881Y0117858D01*
X0043414Y0117391D01*
X0042480Y0117391D01*
X0042013Y0117858D01*
X0042013Y0118792D01*
X0040934Y0117858D02*
X0040467Y0117391D01*
X0039533Y0117391D01*
X0039066Y0117858D01*
X0039066Y0119726D01*
X0039533Y0120193D01*
X0040467Y0120193D01*
X0040934Y0119726D01*
X0038707Y0133946D02*
X0037773Y0133946D01*
X0037306Y0134413D01*
X0037306Y0136281D01*
X0037773Y0136748D01*
X0038707Y0136748D01*
X0039174Y0136281D01*
X0039174Y0135347D02*
X0038240Y0135347D01*
X0039174Y0135347D02*
X0039174Y0134413D01*
X0038707Y0133946D01*
X0036227Y0133946D02*
X0036227Y0136748D01*
X0036227Y0135347D02*
X0034359Y0135347D01*
X0034359Y0133946D02*
X0034359Y0136748D01*
X0033281Y0136281D02*
X0032814Y0136748D01*
X0031880Y0136748D01*
X0031413Y0136281D01*
X0031413Y0134413D01*
X0031880Y0133946D01*
X0032814Y0133946D01*
X0033281Y0134413D01*
X0043491Y0134864D02*
X0044893Y0134864D01*
X0045360Y0135332D01*
X0045360Y0136266D01*
X0044893Y0136733D01*
X0043491Y0136733D01*
X0043491Y0133930D01*
X0044425Y0134864D02*
X0045360Y0133930D01*
X0046438Y0133930D02*
X0048306Y0133930D01*
X0047372Y0133930D02*
X0047372Y0136733D01*
X0046438Y0135799D01*
X0049384Y0135799D02*
X0049851Y0135332D01*
X0051253Y0135332D01*
X0051253Y0136266D02*
X0051253Y0134397D01*
X0050786Y0133930D01*
X0049851Y0133930D01*
X0049384Y0134397D01*
X0049384Y0135799D02*
X0049384Y0136266D01*
X0049851Y0136733D01*
X0050786Y0136733D01*
X0051253Y0136266D01*
X0015891Y0090832D02*
X0016358Y0090365D01*
X0016358Y0089898D01*
X0015891Y0089431D01*
X0016358Y0088964D01*
X0016358Y0088497D01*
X0015891Y0088030D01*
X0014957Y0088030D01*
X0014490Y0088497D01*
X0015424Y0089431D02*
X0015891Y0089431D01*
X0015891Y0090832D02*
X0014957Y0090832D01*
X0014490Y0090365D01*
X0013411Y0090832D02*
X0012477Y0090832D01*
X0012944Y0090832D02*
X0012944Y0088497D01*
X0012477Y0088030D01*
X0012010Y0088030D01*
X0011543Y0088497D01*
X0018843Y0066721D02*
X0019777Y0066721D01*
X0019310Y0066721D02*
X0019310Y0064386D01*
X0018843Y0063919D01*
X0018376Y0063919D01*
X0017909Y0064386D01*
X0020855Y0063919D02*
X0022723Y0065787D01*
X0022723Y0066254D01*
X0022256Y0066721D01*
X0021322Y0066721D01*
X0020855Y0066254D01*
X0020855Y0063919D02*
X0022723Y0063919D01*
X0117326Y0012846D02*
X0117793Y0012379D01*
X0118260Y0012379D01*
X0118727Y0012846D01*
X0118727Y0015182D01*
X0118260Y0015182D02*
X0119194Y0015182D01*
X0120273Y0015182D02*
X0120273Y0013780D01*
X0121207Y0014247D01*
X0121674Y0014247D01*
X0122141Y0013780D01*
X0122141Y0012846D01*
X0121674Y0012379D01*
X0120740Y0012379D01*
X0120273Y0012846D01*
X0120273Y0015182D02*
X0122141Y0015182D01*
X0122596Y0030564D02*
X0121662Y0031498D01*
X0122129Y0031498D02*
X0120728Y0031498D01*
X0120728Y0030564D02*
X0120728Y0033367D01*
X0122129Y0033367D01*
X0122596Y0032899D01*
X0122596Y0031965D01*
X0122129Y0031498D01*
X0123674Y0030564D02*
X0125542Y0030564D01*
X0124608Y0030564D02*
X0124608Y0033367D01*
X0123674Y0032432D01*
X0126621Y0032899D02*
X0127088Y0033367D01*
X0128022Y0033367D01*
X0128489Y0032899D01*
X0128489Y0032432D01*
X0128022Y0031965D01*
X0128489Y0031498D01*
X0128489Y0031031D01*
X0128022Y0030564D01*
X0127088Y0030564D01*
X0126621Y0031031D01*
X0127555Y0031965D02*
X0128022Y0031965D01*
D16*
X0046720Y0089143D02*
X0042183Y0089143D01*
X0044451Y0094354D02*
X0044451Y0098892D01*
X0042183Y0096623D02*
X0046720Y0096623D01*
D17*
X0048583Y0096785D02*
X0048583Y0091785D01*
X0059583Y0091785D01*
X0059583Y0096785D01*
X0048583Y0096785D01*
X0048697Y0097372D02*
X0048697Y0102372D01*
X0059697Y0102372D01*
X0059697Y0097372D01*
X0048697Y0097372D01*
X0043980Y0105490D02*
X0038980Y0105490D01*
X0038980Y0116490D01*
X0043980Y0116490D01*
X0043980Y0105490D01*
X0044894Y0110415D02*
X0044894Y0119415D01*
X0045894Y0116415D02*
X0046394Y0116415D01*
X0050394Y0115915D01*
X0048394Y0113915D01*
X0046894Y0116415D01*
X0049894Y0115915D01*
X0048394Y0114415D01*
X0047394Y0115915D01*
X0047894Y0115915D01*
X0048894Y0115415D01*
X0048394Y0115415D01*
X0048394Y0114915D02*
X0047894Y0115915D01*
X0049394Y0115915D01*
X0048894Y0115415D01*
X0048394Y0114915D01*
X0048394Y0113415D02*
X0046394Y0116415D01*
X0046894Y0116415D01*
X0050894Y0116415D01*
X0048394Y0113415D01*
X0045894Y0116415D01*
X0051894Y0119415D02*
X0051894Y0110415D01*
X0054134Y0127156D02*
X0059134Y0127156D01*
X0059134Y0138156D01*
X0054134Y0138156D01*
X0054134Y0127156D01*
X0052291Y0127730D02*
X0041291Y0127730D01*
X0041291Y0132730D01*
X0052291Y0132730D01*
X0052291Y0127730D01*
X0059929Y0128171D02*
X0059929Y0138171D01*
X0179929Y0138171D01*
X0179929Y0128171D01*
X0059929Y0128171D01*
X0040325Y0127746D02*
X0029825Y0127746D01*
X0029825Y0132746D01*
X0040325Y0132746D01*
X0040325Y0127746D01*
X0035575Y0130246D02*
X0035075Y0130996D01*
X0035075Y0129496D01*
X0035575Y0130246D01*
X0035075Y0129496D02*
X0034575Y0128746D01*
X0034575Y0131746D01*
X0035075Y0130996D01*
X0034825Y0131246D02*
X0034825Y0129246D01*
X0028357Y0128357D02*
X0026022Y0128357D01*
X0027189Y0128357D02*
X0027189Y0124854D01*
X0024674Y0125438D02*
X0024674Y0126022D01*
X0024090Y0126606D01*
X0022922Y0126606D01*
X0022339Y0127190D01*
X0022339Y0127773D01*
X0022922Y0128357D01*
X0024090Y0128357D01*
X0024674Y0127773D01*
X0024674Y0125438D02*
X0024090Y0124854D01*
X0022922Y0124854D01*
X0022339Y0125438D01*
X0020991Y0124854D02*
X0019823Y0126022D01*
X0020407Y0126022D02*
X0018656Y0126022D01*
X0018656Y0124854D02*
X0018656Y0128357D01*
X0020407Y0128357D01*
X0020991Y0127773D01*
X0020991Y0126606D01*
X0020407Y0126022D01*
X0070311Y0091413D02*
X0073811Y0091413D01*
X0073811Y0088413D01*
X0068811Y0086413D02*
X0068811Y0084913D01*
X0063787Y0081691D02*
X0063787Y0070691D01*
X0058787Y0070691D01*
X0058787Y0081691D01*
X0063787Y0081691D01*
X0058181Y0081530D02*
X0058181Y0076530D01*
X0047181Y0076530D01*
X0047181Y0081530D01*
X0058181Y0081530D01*
X0051500Y0075750D02*
X0037500Y0075750D01*
X0025469Y0068041D02*
X0025469Y0043041D01*
X0025467Y0042943D01*
X0025461Y0042845D01*
X0025452Y0042747D01*
X0025438Y0042650D01*
X0025421Y0042553D01*
X0025400Y0042457D01*
X0025375Y0042362D01*
X0025347Y0042268D01*
X0025314Y0042176D01*
X0025279Y0042084D01*
X0025239Y0041994D01*
X0025197Y0041906D01*
X0025150Y0041819D01*
X0025101Y0041735D01*
X0025048Y0041652D01*
X0024992Y0041572D01*
X0024932Y0041493D01*
X0024870Y0041417D01*
X0024805Y0041344D01*
X0024737Y0041273D01*
X0024666Y0041205D01*
X0024593Y0041140D01*
X0024517Y0041078D01*
X0024438Y0041018D01*
X0024358Y0040962D01*
X0024275Y0040909D01*
X0024191Y0040860D01*
X0024104Y0040813D01*
X0024016Y0040771D01*
X0023926Y0040731D01*
X0023834Y0040696D01*
X0023742Y0040663D01*
X0023648Y0040635D01*
X0023553Y0040610D01*
X0023457Y0040589D01*
X0023360Y0040572D01*
X0023263Y0040558D01*
X0023165Y0040549D01*
X0023067Y0040543D01*
X0022969Y0040541D01*
X0005469Y0040541D01*
X0002969Y0038041D01*
X0002969Y0073041D01*
X0005469Y0070541D01*
X0022969Y0070541D01*
X0023067Y0070539D01*
X0023165Y0070533D01*
X0023263Y0070524D01*
X0023360Y0070510D01*
X0023457Y0070493D01*
X0023553Y0070472D01*
X0023648Y0070447D01*
X0023742Y0070419D01*
X0023834Y0070386D01*
X0023926Y0070351D01*
X0024016Y0070311D01*
X0024104Y0070269D01*
X0024191Y0070222D01*
X0024275Y0070173D01*
X0024358Y0070120D01*
X0024438Y0070064D01*
X0024517Y0070004D01*
X0024593Y0069942D01*
X0024666Y0069877D01*
X0024737Y0069809D01*
X0024805Y0069738D01*
X0024870Y0069665D01*
X0024932Y0069589D01*
X0024992Y0069510D01*
X0025048Y0069430D01*
X0025101Y0069347D01*
X0025150Y0069263D01*
X0025197Y0069176D01*
X0025239Y0069088D01*
X0025279Y0068998D01*
X0025314Y0068906D01*
X0025347Y0068814D01*
X0025375Y0068720D01*
X0025400Y0068625D01*
X0025421Y0068529D01*
X0025438Y0068432D01*
X0025452Y0068335D01*
X0025461Y0068237D01*
X0025467Y0068139D01*
X0025469Y0068041D01*
X0005469Y0068041D02*
X0005469Y0043041D01*
X0037500Y0035750D02*
X0051500Y0035750D01*
X0067307Y0036138D02*
X0067307Y0031138D01*
X0078307Y0031138D01*
X0078307Y0036138D01*
X0067307Y0036138D01*
X0067307Y0036407D02*
X0067307Y0041407D01*
X0078307Y0041407D01*
X0078307Y0036407D01*
X0067307Y0036407D01*
X0078907Y0036545D02*
X0078907Y0041545D01*
X0089407Y0041545D01*
X0089407Y0036545D01*
X0078907Y0036545D01*
X0078907Y0036191D02*
X0078907Y0031191D01*
X0089407Y0031191D01*
X0089407Y0036191D01*
X0078907Y0036191D01*
X0083657Y0035191D02*
X0083657Y0032191D01*
X0084157Y0032941D01*
X0084157Y0034441D01*
X0083657Y0035191D01*
X0083907Y0034691D02*
X0083907Y0032691D01*
X0084157Y0032941D02*
X0084657Y0033691D01*
X0084157Y0034441D01*
X0083657Y0037545D02*
X0084157Y0038295D01*
X0084157Y0039795D01*
X0083657Y0040545D01*
X0083657Y0037545D01*
X0083907Y0038045D02*
X0083907Y0040045D01*
X0084157Y0039795D02*
X0084657Y0039045D01*
X0084157Y0038295D01*
X0089402Y0041986D02*
X0078402Y0041986D01*
X0078402Y0046986D01*
X0089402Y0046986D01*
X0089402Y0041986D01*
X0089461Y0047530D02*
X0089461Y0052530D01*
X0078461Y0052530D01*
X0078461Y0047530D01*
X0089461Y0047530D01*
X0089402Y0052974D02*
X0078402Y0052974D01*
X0078402Y0057974D01*
X0089402Y0057974D01*
X0089402Y0052974D01*
X0078020Y0061010D02*
X0067020Y0061010D01*
X0067020Y0066010D01*
X0078020Y0066010D01*
X0078020Y0061010D01*
X0073811Y0067142D02*
X0070311Y0067142D01*
X0073811Y0067142D02*
X0073811Y0070142D01*
X0068811Y0072142D02*
X0068811Y0073642D01*
X0070311Y0078642D02*
X0073811Y0078642D01*
X0073811Y0075642D01*
X0073811Y0079913D02*
X0070311Y0079913D01*
X0073811Y0079913D02*
X0073811Y0082913D01*
X0080835Y0099447D02*
X0080835Y0110447D01*
X0085835Y0110447D01*
X0085835Y0099447D01*
X0080835Y0099447D01*
X0086480Y0099581D02*
X0086480Y0110581D01*
X0091480Y0110581D01*
X0091480Y0099581D01*
X0086480Y0099581D01*
X0097299Y0106571D02*
X0099299Y0106571D01*
X0098299Y0105571D02*
X0098299Y0107571D01*
X0105425Y0103864D02*
X0177079Y0103864D01*
X0177079Y0040872D01*
X0199913Y0040872D01*
X0199913Y0103864D01*
X0177079Y0103864D01*
X0176283Y0112545D02*
X0176283Y0117545D01*
X0187283Y0117545D01*
X0187283Y0112545D01*
X0176283Y0112545D01*
X0175642Y0112482D02*
X0164642Y0112482D01*
X0164642Y0117482D01*
X0175642Y0117482D01*
X0175642Y0112482D01*
X0164004Y0112376D02*
X0153004Y0112376D01*
X0153004Y0117376D01*
X0164004Y0117376D01*
X0164004Y0112376D01*
X0152551Y0112195D02*
X0141551Y0112195D01*
X0141551Y0117195D01*
X0152551Y0117195D01*
X0152551Y0112195D01*
X0105425Y0103864D02*
X0105425Y0040872D01*
X0177079Y0040872D01*
X0179929Y0016124D02*
X0059929Y0016124D01*
X0059929Y0006124D01*
X0179929Y0006124D01*
X0179929Y0016124D01*
X0120028Y0029364D02*
X0109028Y0029364D01*
X0109028Y0034364D01*
X0120028Y0034364D01*
X0120028Y0029364D01*
X0066000Y0048250D02*
X0061000Y0048250D01*
X0061000Y0059250D01*
X0066000Y0059250D01*
X0066000Y0048250D01*
D18*
X0066648Y0054796D02*
X0066648Y0055897D01*
X0067015Y0056264D01*
X0067749Y0056264D01*
X0068116Y0055897D01*
X0068116Y0054796D01*
X0068850Y0054796D02*
X0066648Y0054796D01*
X0068116Y0055530D02*
X0068850Y0056264D01*
X0068850Y0057098D02*
X0068850Y0058566D01*
X0068850Y0057832D02*
X0066648Y0057832D01*
X0067382Y0057098D01*
X0069055Y0097518D02*
X0068705Y0097868D01*
X0068705Y0099620D01*
X0070106Y0099620D02*
X0070106Y0097868D01*
X0069756Y0097518D01*
X0069055Y0097518D01*
X0070915Y0097518D02*
X0072316Y0098919D01*
X0072316Y0099270D01*
X0071966Y0099620D01*
X0071265Y0099620D01*
X0070915Y0099270D01*
X0070915Y0097518D02*
X0072316Y0097518D01*
X0071900Y0110325D02*
X0073301Y0111726D01*
X0073301Y0112077D01*
X0072951Y0112427D01*
X0072250Y0112427D01*
X0071900Y0112077D01*
X0071091Y0112077D02*
X0070741Y0112427D01*
X0070040Y0112427D01*
X0069690Y0112077D01*
X0069690Y0110675D01*
X0070040Y0110325D01*
X0070741Y0110325D01*
X0071091Y0110675D01*
X0071900Y0110325D02*
X0073301Y0110325D01*
X0068918Y0110325D02*
X0068217Y0110325D01*
X0068567Y0110325D02*
X0068567Y0112427D01*
X0068217Y0112427D02*
X0068918Y0112427D01*
X0117229Y0134813D02*
X0117712Y0134329D01*
X0118196Y0134329D01*
X0118680Y0134813D01*
X0118680Y0137232D01*
X0118196Y0137232D02*
X0119164Y0137232D01*
X0120175Y0135780D02*
X0121626Y0135780D01*
X0122110Y0135297D01*
X0122110Y0134813D01*
X0121626Y0134329D01*
X0120659Y0134329D01*
X0120175Y0134813D01*
X0120175Y0135780D01*
X0121143Y0136748D01*
X0122110Y0137232D01*
X0157626Y0069440D02*
X0157626Y0067022D01*
X0158110Y0066538D01*
X0159078Y0066538D01*
X0159561Y0067022D01*
X0159561Y0069440D01*
X0160573Y0068473D02*
X0161540Y0069440D01*
X0161540Y0066538D01*
X0160573Y0066538D02*
X0162508Y0066538D01*
D19*
X0047000Y0025750D02*
X0023000Y0025750D01*
X0022756Y0025747D01*
X0022513Y0025738D01*
X0022270Y0025723D01*
X0022027Y0025703D01*
X0021785Y0025676D01*
X0021544Y0025643D01*
X0021304Y0025605D01*
X0021064Y0025561D01*
X0020826Y0025511D01*
X0020589Y0025455D01*
X0020353Y0025393D01*
X0020119Y0025326D01*
X0019887Y0025253D01*
X0019656Y0025174D01*
X0019428Y0025090D01*
X0019201Y0025000D01*
X0018977Y0024905D01*
X0018755Y0024804D01*
X0018536Y0024698D01*
X0018320Y0024587D01*
X0018106Y0024470D01*
X0017895Y0024349D01*
X0017687Y0024222D01*
X0017482Y0024090D01*
X0017281Y0023953D01*
X0017083Y0023811D01*
X0016888Y0023665D01*
X0016697Y0023514D01*
X0016510Y0023358D01*
X0016327Y0023198D01*
X0016147Y0023033D01*
X0015972Y0022864D01*
X0015801Y0022691D01*
X0015634Y0022513D01*
X0015472Y0022332D01*
X0015314Y0022147D01*
X0015160Y0021958D01*
X0015011Y0021765D01*
X0014867Y0021569D01*
X0014728Y0021369D01*
X0014593Y0021166D01*
X0014464Y0020959D01*
X0014340Y0020750D01*
X0014221Y0020538D01*
X0014107Y0020322D01*
X0013998Y0020105D01*
X0013895Y0019884D01*
X0013797Y0019661D01*
X0013704Y0019436D01*
X0013617Y0019208D01*
X0013536Y0018979D01*
X0013460Y0018747D01*
X0013390Y0018514D01*
X0013325Y0018279D01*
X0013266Y0018043D01*
X0013213Y0017805D01*
X0013166Y0017566D01*
X0013125Y0017326D01*
X0013090Y0017085D01*
X0013060Y0016844D01*
X0013036Y0016601D01*
X0013019Y0016358D01*
X0013007Y0016115D01*
X0013001Y0015872D01*
X0013001Y0015628D01*
X0013007Y0015385D01*
X0013019Y0015142D01*
X0013036Y0014899D01*
X0013060Y0014656D01*
X0013090Y0014415D01*
X0013125Y0014174D01*
X0013166Y0013934D01*
X0013213Y0013695D01*
X0013266Y0013457D01*
X0013325Y0013221D01*
X0013390Y0012986D01*
X0013460Y0012753D01*
X0013536Y0012521D01*
X0013617Y0012292D01*
X0013704Y0012064D01*
X0013797Y0011839D01*
X0013895Y0011616D01*
X0013998Y0011395D01*
X0014107Y0011178D01*
X0014221Y0010962D01*
X0014340Y0010750D01*
X0014464Y0010541D01*
X0014593Y0010334D01*
X0014728Y0010131D01*
X0014867Y0009931D01*
X0015011Y0009735D01*
X0015160Y0009542D01*
X0015314Y0009353D01*
X0015472Y0009168D01*
X0015634Y0008987D01*
X0015801Y0008809D01*
X0015972Y0008636D01*
X0016147Y0008467D01*
X0016327Y0008302D01*
X0016510Y0008142D01*
X0016697Y0007986D01*
X0016888Y0007835D01*
X0017083Y0007689D01*
X0017281Y0007547D01*
X0017482Y0007410D01*
X0017687Y0007278D01*
X0017895Y0007151D01*
X0018106Y0007030D01*
X0018320Y0006913D01*
X0018536Y0006802D01*
X0018755Y0006696D01*
X0018977Y0006595D01*
X0019201Y0006500D01*
X0019428Y0006410D01*
X0019656Y0006326D01*
X0019887Y0006247D01*
X0020119Y0006174D01*
X0020353Y0006107D01*
X0020589Y0006045D01*
X0020826Y0005989D01*
X0021064Y0005939D01*
X0021304Y0005895D01*
X0021544Y0005857D01*
X0021785Y0005824D01*
X0022027Y0005797D01*
X0022270Y0005777D01*
X0022513Y0005762D01*
X0022756Y0005753D01*
X0023000Y0005750D01*
X0047000Y0005750D01*
X0047244Y0005753D01*
X0047487Y0005762D01*
X0047730Y0005777D01*
X0047973Y0005797D01*
X0048215Y0005824D01*
X0048456Y0005857D01*
X0048696Y0005895D01*
X0048936Y0005939D01*
X0049174Y0005989D01*
X0049411Y0006045D01*
X0049647Y0006107D01*
X0049881Y0006174D01*
X0050113Y0006247D01*
X0050344Y0006326D01*
X0050572Y0006410D01*
X0050799Y0006500D01*
X0051023Y0006595D01*
X0051245Y0006696D01*
X0051464Y0006802D01*
X0051680Y0006913D01*
X0051894Y0007030D01*
X0052105Y0007151D01*
X0052313Y0007278D01*
X0052518Y0007410D01*
X0052719Y0007547D01*
X0052917Y0007689D01*
X0053112Y0007835D01*
X0053303Y0007986D01*
X0053490Y0008142D01*
X0053673Y0008302D01*
X0053853Y0008467D01*
X0054028Y0008636D01*
X0054199Y0008809D01*
X0054366Y0008987D01*
X0054528Y0009168D01*
X0054686Y0009353D01*
X0054840Y0009542D01*
X0054989Y0009735D01*
X0055133Y0009931D01*
X0055272Y0010131D01*
X0055407Y0010334D01*
X0055536Y0010541D01*
X0055660Y0010750D01*
X0055779Y0010962D01*
X0055893Y0011178D01*
X0056002Y0011395D01*
X0056105Y0011616D01*
X0056203Y0011839D01*
X0056296Y0012064D01*
X0056383Y0012292D01*
X0056464Y0012521D01*
X0056540Y0012753D01*
X0056610Y0012986D01*
X0056675Y0013221D01*
X0056734Y0013457D01*
X0056787Y0013695D01*
X0056834Y0013934D01*
X0056875Y0014174D01*
X0056910Y0014415D01*
X0056940Y0014656D01*
X0056964Y0014899D01*
X0056981Y0015142D01*
X0056993Y0015385D01*
X0056999Y0015628D01*
X0056999Y0015872D01*
X0056993Y0016115D01*
X0056981Y0016358D01*
X0056964Y0016601D01*
X0056940Y0016844D01*
X0056910Y0017085D01*
X0056875Y0017326D01*
X0056834Y0017566D01*
X0056787Y0017805D01*
X0056734Y0018043D01*
X0056675Y0018279D01*
X0056610Y0018514D01*
X0056540Y0018747D01*
X0056464Y0018979D01*
X0056383Y0019208D01*
X0056296Y0019436D01*
X0056203Y0019661D01*
X0056105Y0019884D01*
X0056002Y0020105D01*
X0055893Y0020322D01*
X0055779Y0020538D01*
X0055660Y0020750D01*
X0055536Y0020959D01*
X0055407Y0021166D01*
X0055272Y0021369D01*
X0055133Y0021569D01*
X0054989Y0021765D01*
X0054840Y0021958D01*
X0054686Y0022147D01*
X0054528Y0022332D01*
X0054366Y0022513D01*
X0054199Y0022691D01*
X0054028Y0022864D01*
X0053853Y0023033D01*
X0053673Y0023198D01*
X0053490Y0023358D01*
X0053303Y0023514D01*
X0053112Y0023665D01*
X0052917Y0023811D01*
X0052719Y0023953D01*
X0052518Y0024090D01*
X0052313Y0024222D01*
X0052105Y0024349D01*
X0051894Y0024470D01*
X0051680Y0024587D01*
X0051464Y0024698D01*
X0051245Y0024804D01*
X0051023Y0024905D01*
X0050799Y0025000D01*
X0050572Y0025090D01*
X0050344Y0025174D01*
X0050113Y0025253D01*
X0049881Y0025326D01*
X0049647Y0025393D01*
X0049411Y0025455D01*
X0049174Y0025511D01*
X0048936Y0025561D01*
X0048696Y0025605D01*
X0048456Y0025643D01*
X0048215Y0025676D01*
X0047973Y0025703D01*
X0047730Y0025723D01*
X0047487Y0025738D01*
X0047244Y0025747D01*
X0047000Y0025750D01*
D20*
X0052000Y0031630D02*
X0052000Y0031870D01*
X0037000Y0031370D02*
X0037000Y0031130D01*
D21*
X0036500Y0078250D03*
M02*
