%
M48
M72
T01C0.01200
T02C0.01600
T03C0.03200
T04C0.03500
%
T01
X114500Y59250
X114000Y64750
X113000Y72250
X84500Y72250
X81000Y68750
X81000Y59750
X77000Y50250
X67000Y76750
X55500Y78750
X37000Y110750
X37000Y125250
T02
X14000Y33250
X41606Y48750
X41500Y57750
X45500Y63250
X41606Y72250
X50500Y73250
X61500Y79250
X73500Y79250
X72500Y68250
X85000Y68250
X94500Y79750
X98500Y79750
X91000Y84250
X87500Y92250
X71000Y102250
X70606Y94750
X67000Y89750
X57500Y88750
X57000Y99750
X54287Y108581
X45287Y102081
X71000Y111250
X70106Y122250
X90106Y123250
X90106Y119750
X100000Y125250
X109500Y125750
X119500Y122250
X130000Y119750
X131000Y111750
X124500Y111750
X140000Y118750
X140000Y127250
X160500Y122250
X181000Y125250
X139000Y92750
X131000Y91750
X127000Y85250
X119000Y85250
X114000Y90750
X135000Y85250
X140500Y85250
X150500Y92250
X155000Y85250
X160000Y80250
X172500Y76750
X172500Y71250
X172500Y65750
X172500Y61250
X172500Y56250
X150500Y51750
X146000Y68750
X161500Y92250
X115000Y55250
X115000Y50250
X101000Y40750
X93000Y44250
X91500Y50250
X70000Y44750
X62500Y40750
X70000Y33750
X84500Y29750
X90000Y29750
X138795Y27364
X170291Y30907
X184500Y30250
X42606Y125750
X31500Y123250
X22500Y137750
X10500Y95750
X26000Y77750
T03
X25500Y15750
X44500Y15750
T04
X64929Y11124
X74929Y11124
X84929Y11124
X94929Y11124
X104929Y11124
X114929Y11124
X124929Y11124
X134929Y11124
X144929Y11124
X154929Y11124
X164929Y11124
X174929Y11124
X174929Y133171
X164929Y133171
X154929Y133171
X144929Y133171
X134929Y133171
X124929Y133171
X114929Y133171
X104929Y133171
X94929Y133171
X84929Y133171
X74929Y133171
X64929Y133171
M30
